%TF.GenerationSoftware,KiCad,Pcbnew,(6.0.4)*%
%TF.CreationDate,2022-03-25T23:20:21+00:00*%
%TF.ProjectId,IKEA Vindriktning Daughterboard,494b4541-2056-4696-9e64-72696b746e69,rev?*%
%TF.SameCoordinates,Original*%
%TF.FileFunction,Copper,L1,Top*%
%TF.FilePolarity,Positive*%
%FSLAX46Y46*%
G04 Gerber Fmt 4.6, Leading zero omitted, Abs format (unit mm)*
G04 Created by KiCad (PCBNEW (6.0.4)) date 2022-03-25 23:20:21*
%MOMM*%
%LPD*%
G01*
G04 APERTURE LIST*
G04 Aperture macros list*
%AMRoundRect*
0 Rectangle with rounded corners*
0 $1 Rounding radius*
0 $2 $3 $4 $5 $6 $7 $8 $9 X,Y pos of 4 corners*
0 Add a 4 corners polygon primitive as box body*
4,1,4,$2,$3,$4,$5,$6,$7,$8,$9,$2,$3,0*
0 Add four circle primitives for the rounded corners*
1,1,$1+$1,$2,$3*
1,1,$1+$1,$4,$5*
1,1,$1+$1,$6,$7*
1,1,$1+$1,$8,$9*
0 Add four rect primitives between the rounded corners*
20,1,$1+$1,$2,$3,$4,$5,0*
20,1,$1+$1,$4,$5,$6,$7,0*
20,1,$1+$1,$6,$7,$8,$9,0*
20,1,$1+$1,$8,$9,$2,$3,0*%
G04 Aperture macros list end*
%TA.AperFunction,SMDPad,CuDef*%
%ADD10R,2.500000X1.000000*%
%TD*%
%TA.AperFunction,SMDPad,CuDef*%
%ADD11R,1.000000X1.800000*%
%TD*%
%TA.AperFunction,SMDPad,CuDef*%
%ADD12RoundRect,0.200000X-0.450000X0.200000X-0.450000X-0.200000X0.450000X-0.200000X0.450000X0.200000X0*%
%TD*%
%TA.AperFunction,SMDPad,CuDef*%
%ADD13RoundRect,0.250001X-1.249999X0.799999X-1.249999X-0.799999X1.249999X-0.799999X1.249999X0.799999X0*%
%TD*%
%TA.AperFunction,ComponentPad*%
%ADD14R,1.700000X1.700000*%
%TD*%
%TA.AperFunction,ComponentPad*%
%ADD15O,1.700000X1.700000*%
%TD*%
%TA.AperFunction,SMDPad,CuDef*%
%ADD16RoundRect,0.250000X-0.262500X-0.450000X0.262500X-0.450000X0.262500X0.450000X-0.262500X0.450000X0*%
%TD*%
%TA.AperFunction,SMDPad,CuDef*%
%ADD17RoundRect,0.250000X-0.337500X-0.475000X0.337500X-0.475000X0.337500X0.475000X-0.337500X0.475000X0*%
%TD*%
%TA.AperFunction,SMDPad,CuDef*%
%ADD18RoundRect,0.250000X-0.450000X0.262500X-0.450000X-0.262500X0.450000X-0.262500X0.450000X0.262500X0*%
%TD*%
%TA.AperFunction,SMDPad,CuDef*%
%ADD19RoundRect,0.250000X-0.650000X0.412500X-0.650000X-0.412500X0.650000X-0.412500X0.650000X0.412500X0*%
%TD*%
%TA.AperFunction,SMDPad,CuDef*%
%ADD20RoundRect,0.250000X0.412500X0.650000X-0.412500X0.650000X-0.412500X-0.650000X0.412500X-0.650000X0*%
%TD*%
%TA.AperFunction,SMDPad,CuDef*%
%ADD21RoundRect,0.150000X-0.150000X0.512500X-0.150000X-0.512500X0.150000X-0.512500X0.150000X0.512500X0*%
%TD*%
%TA.AperFunction,SMDPad,CuDef*%
%ADD22RoundRect,0.250000X-0.475000X0.337500X-0.475000X-0.337500X0.475000X-0.337500X0.475000X0.337500X0*%
%TD*%
%TA.AperFunction,SMDPad,CuDef*%
%ADD23RoundRect,0.250000X0.262500X0.450000X-0.262500X0.450000X-0.262500X-0.450000X0.262500X-0.450000X0*%
%TD*%
%TA.AperFunction,ViaPad*%
%ADD24C,0.800000*%
%TD*%
%TA.AperFunction,Conductor*%
%ADD25C,0.250000*%
%TD*%
%TA.AperFunction,Conductor*%
%ADD26C,0.400000*%
%TD*%
G04 APERTURE END LIST*
D10*
%TO.P,U1,1,~{RST}*%
%TO.N,Net-(R2-Pad2)*%
X58400000Y-89500000D03*
%TO.P,U1,2,ADC*%
%TO.N,ADC*%
X58400000Y-91500000D03*
%TO.P,U1,3,EN*%
%TO.N,Net-(R1-Pad2)*%
X58400000Y-93500000D03*
%TO.P,U1,4,GPIO16*%
%TO.N,unconnected-(U1-Pad4)*%
X58400000Y-95500000D03*
%TO.P,U1,5,GPIO14*%
%TO.N,SDA*%
X58400000Y-97500000D03*
%TO.P,U1,6,GPIO12*%
%TO.N,SCL*%
X58400000Y-99500000D03*
%TO.P,U1,7,GPIO13*%
%TO.N,unconnected-(U1-Pad7)*%
X58400000Y-101500000D03*
%TO.P,U1,8,VCC*%
%TO.N,LDR_A*%
X58400000Y-103500000D03*
D11*
%TO.P,U1,9,CS0*%
%TO.N,unconnected-(U1-Pad9)*%
X61000000Y-105000000D03*
%TO.P,U1,10,MISO*%
%TO.N,unconnected-(U1-Pad10)*%
X63000000Y-105000000D03*
%TO.P,U1,11,GPIO9*%
%TO.N,unconnected-(U1-Pad11)*%
X65000000Y-105000000D03*
%TO.P,U1,12,GPIO10*%
%TO.N,unconnected-(U1-Pad12)*%
X67000000Y-105000000D03*
%TO.P,U1,13,MOSI*%
%TO.N,unconnected-(U1-Pad13)*%
X69000000Y-105000000D03*
%TO.P,U1,14,SCLK*%
%TO.N,unconnected-(U1-Pad14)*%
X71000000Y-105000000D03*
D10*
%TO.P,U1,15,GND*%
%TO.N,GND*%
X73600000Y-103500000D03*
%TO.P,U1,16,GPIO15*%
%TO.N,Net-(R4-Pad1)*%
X73600000Y-101500000D03*
%TO.P,U1,17,GPIO2*%
%TO.N,Net-(R5-Pad2)*%
X73600000Y-99500000D03*
%TO.P,U1,18,GPIO0*%
%TO.N,Net-(J4-Pad2)*%
X73600000Y-97500000D03*
%TO.P,U1,19,GPIO4*%
%TO.N,SensorIn*%
X73600000Y-95500000D03*
%TO.P,U1,20,GPIO5*%
%TO.N,unconnected-(U1-Pad20)*%
X73600000Y-93500000D03*
%TO.P,U1,21,GPIO3/RXD*%
%TO.N,RXD*%
X73600000Y-91500000D03*
%TO.P,U1,22,GPIO1/TXD*%
%TO.N,TXD*%
X73600000Y-89500000D03*
%TD*%
D12*
%TO.P,J2,1,Pin_1*%
%TO.N,+5V*%
X50975000Y-105725000D03*
%TO.P,J2,2,Pin_2*%
%TO.N,Net-(J2-Pad2)*%
X50975000Y-106975000D03*
%TO.P,J2,3,Pin_3*%
%TO.N,GND*%
X50975000Y-108225000D03*
D13*
%TO.P,J2,MP*%
%TO.N,N/C*%
X48225000Y-103175000D03*
X48225000Y-110775000D03*
%TD*%
D14*
%TO.P,J1,1,Pin_1*%
%TO.N,unconnected-(J1-Pad1)*%
X80000000Y-83650000D03*
D15*
%TO.P,J1,2,Pin_2*%
%TO.N,TXD*%
X80000000Y-86190000D03*
%TO.P,J1,3,Pin_3*%
%TO.N,RXD*%
X80000000Y-88730000D03*
%TO.P,J1,4,Pin_4*%
%TO.N,LDR_A*%
X80000000Y-91270000D03*
%TO.P,J1,5,Pin_5*%
%TO.N,unconnected-(J1-Pad5)*%
X80000000Y-93810000D03*
%TO.P,J1,6,Pin_6*%
%TO.N,GND*%
X80000000Y-96350000D03*
%TD*%
D12*
%TO.P,J3,1,Pin_1*%
%TO.N,LDR_A*%
X50925000Y-88300000D03*
%TO.P,J3,2,Pin_2*%
%TO.N,GND*%
X50925000Y-89550000D03*
%TO.P,J3,3,Pin_3*%
%TO.N,SCL*%
X50925000Y-90800000D03*
%TO.P,J3,4,Pin_4*%
%TO.N,SDA*%
X50925000Y-92050000D03*
%TO.P,J3,5,Pin_5*%
%TO.N,LDR_A*%
X50925000Y-93300000D03*
%TO.P,J3,6,Pin_6*%
%TO.N,LDR_B*%
X50925000Y-94550000D03*
D13*
%TO.P,J3,MP*%
%TO.N,N/C*%
X48175000Y-97100000D03*
X48175000Y-85750000D03*
%TD*%
D16*
%TO.P,R8,1*%
%TO.N,Net-(J2-Pad2)*%
X62317500Y-113330000D03*
%TO.P,R8,2*%
%TO.N,SensorIn*%
X64142500Y-113330000D03*
%TD*%
%TO.P,R4,1*%
%TO.N,Net-(R4-Pad1)*%
X68837500Y-109000000D03*
%TO.P,R4,2*%
%TO.N,GND*%
X70662500Y-109000000D03*
%TD*%
%TO.P,R7,1*%
%TO.N,SensorIn*%
X56787500Y-113275000D03*
%TO.P,R7,2*%
%TO.N,GND*%
X58612500Y-113275000D03*
%TD*%
%TO.P,R2,1*%
%TO.N,LDR_A*%
X54137500Y-82425000D03*
%TO.P,R2,2*%
%TO.N,Net-(R2-Pad2)*%
X55962500Y-82425000D03*
%TD*%
%TO.P,R5,1*%
%TO.N,LDR_A*%
X72837500Y-109000000D03*
%TO.P,R5,2*%
%TO.N,Net-(R5-Pad2)*%
X74662500Y-109000000D03*
%TD*%
D17*
%TO.P,C1,1*%
%TO.N,LDR_A*%
X53542500Y-101520000D03*
%TO.P,C1,2*%
%TO.N,GND*%
X55617500Y-101520000D03*
%TD*%
D16*
%TO.P,R1,1*%
%TO.N,LDR_A*%
X53587500Y-92250000D03*
%TO.P,R1,2*%
%TO.N,Net-(R1-Pad2)*%
X55412500Y-92250000D03*
%TD*%
D18*
%TO.P,R6,1*%
%TO.N,Net-(J2-Pad2)*%
X53775000Y-109687500D03*
%TO.P,R6,2*%
%TO.N,SensorIn*%
X53775000Y-111512500D03*
%TD*%
D16*
%TO.P,R3,1*%
%TO.N,LDR_A*%
X72827500Y-113380000D03*
%TO.P,R3,2*%
%TO.N,Net-(J4-Pad2)*%
X74652500Y-113380000D03*
%TD*%
D19*
%TO.P,C3,1*%
%TO.N,LDR_A*%
X58625000Y-107712500D03*
%TO.P,C3,2*%
%TO.N,GND*%
X58625000Y-110837500D03*
%TD*%
D20*
%TO.P,C2,1*%
%TO.N,+5V*%
X50262500Y-113800000D03*
%TO.P,C2,2*%
%TO.N,GND*%
X47137500Y-113800000D03*
%TD*%
D21*
%TO.P,U2,1,VIN*%
%TO.N,+5V*%
X55637500Y-105112500D03*
%TO.P,U2,2,GND*%
%TO.N,GND*%
X54687500Y-105112500D03*
%TO.P,U2,3,EN*%
%TO.N,+5V*%
X53737500Y-105112500D03*
%TO.P,U2,4,NC*%
%TO.N,unconnected-(U2-Pad4)*%
X53737500Y-107387500D03*
%TO.P,U2,5,VOUT*%
%TO.N,LDR_A*%
X55637500Y-107387500D03*
%TD*%
D14*
%TO.P,J4,1,Pin_1*%
%TO.N,GND*%
X80000000Y-98910000D03*
D15*
%TO.P,J4,2,Pin_2*%
%TO.N,Net-(J4-Pad2)*%
X80000000Y-101450000D03*
%TD*%
D22*
%TO.P,C4,1*%
%TO.N,LDR_A*%
X54175000Y-85112500D03*
%TO.P,C4,2*%
%TO.N,GND*%
X54175000Y-87187500D03*
%TD*%
D17*
%TO.P,C5,1*%
%TO.N,LDR_A*%
X53472500Y-97370000D03*
%TO.P,C5,2*%
%TO.N,GND*%
X55547500Y-97370000D03*
%TD*%
D23*
%TO.P,R9,1*%
%TO.N,LDR_B*%
X69392500Y-113360000D03*
%TO.P,R9,2*%
%TO.N,ADC*%
X67567500Y-113360000D03*
%TD*%
D16*
%TO.P,R10,1*%
%TO.N,ADC*%
X60837500Y-109000000D03*
%TO.P,R10,2*%
%TO.N,GND*%
X62662500Y-109000000D03*
%TD*%
D23*
%TO.P,R11,1*%
%TO.N,LDR_B*%
X66662500Y-109000000D03*
%TO.P,R11,2*%
%TO.N,GND*%
X64837500Y-109000000D03*
%TD*%
D24*
%TO.N,GND*%
X55483000Y-103347700D03*
%TO.N,LDR_A*%
X60721800Y-100500000D03*
X71515300Y-106736400D03*
%TO.N,SensorIn*%
X64268400Y-112015600D03*
X69107000Y-96481100D03*
%TO.N,LDR_B*%
X64729200Y-106874100D03*
X52461700Y-94606600D03*
%TD*%
D25*
%TO.N,Net-(R5-Pad2)*%
X74662500Y-108648900D02*
X72024700Y-106011100D01*
X72024700Y-106011100D02*
X72024700Y-99500000D01*
X73600000Y-99500000D02*
X72024700Y-99500000D01*
X74662500Y-109000000D02*
X74662500Y-108648900D01*
%TO.N,Net-(R4-Pad1)*%
X73600000Y-101500000D02*
X75175300Y-101500000D01*
X69825400Y-101011500D02*
X72162300Y-98674600D01*
X75175300Y-98817800D02*
X75175300Y-101500000D01*
X69825400Y-108012100D02*
X69825400Y-101011500D01*
X72162300Y-98674600D02*
X75032100Y-98674600D01*
X68837500Y-109000000D02*
X69825400Y-108012100D01*
X75032100Y-98674600D02*
X75175300Y-98817800D01*
D26*
%TO.N,GND*%
X70321000Y-110101400D02*
X68283500Y-110101400D01*
X75250300Y-103500000D02*
X75250300Y-102409400D01*
X68283500Y-110101400D02*
X67922600Y-109740500D01*
X51336600Y-108586600D02*
X50975000Y-108225000D01*
X78500100Y-96599600D02*
X78749700Y-96350000D01*
X56390300Y-90599600D02*
X55340700Y-89550000D01*
X80000000Y-96350000D02*
X78749700Y-96350000D01*
X60825000Y-110837500D02*
X58625000Y-110837500D01*
X67922600Y-109740500D02*
X67922600Y-98701000D01*
X70321000Y-110101400D02*
X70321000Y-114103500D01*
X70662500Y-109759900D02*
X70321000Y-110101400D01*
X67922600Y-98701000D02*
X70079500Y-98701000D01*
X80000000Y-98910000D02*
X78749700Y-98910000D01*
X55617500Y-97440000D02*
X55617500Y-101520000D01*
X55340700Y-89550000D02*
X54175000Y-89550000D01*
X69960500Y-114464000D02*
X65072500Y-114464000D01*
X47137500Y-113800000D02*
X48472900Y-115135400D01*
X70662500Y-109000000D02*
X70662500Y-109759900D01*
X65072500Y-114464000D02*
X65072500Y-109235000D01*
X65072500Y-114464000D02*
X64242600Y-115293900D01*
X55617500Y-101520000D02*
X55483000Y-101654500D01*
X58612500Y-110850000D02*
X58625000Y-110837500D01*
X55483000Y-101654500D02*
X55483000Y-103347700D01*
X50917200Y-115135400D02*
X51336600Y-114716000D01*
X59821200Y-90599600D02*
X56390300Y-90599600D01*
X58612500Y-113275000D02*
X58612500Y-110850000D01*
X54687500Y-104143200D02*
X54687500Y-105112500D01*
X64242600Y-115293900D02*
X51914500Y-115293900D01*
X55547500Y-97370000D02*
X55617500Y-97440000D01*
X62662500Y-109000000D02*
X60825000Y-110837500D01*
X51914500Y-115293900D02*
X51336600Y-114716000D01*
X62662500Y-109000000D02*
X64837500Y-109000000D01*
X54175000Y-89550000D02*
X50925000Y-89550000D01*
X72180900Y-96599600D02*
X78500100Y-96599600D01*
X73600000Y-103500000D02*
X75250300Y-103500000D01*
X70321000Y-114103500D02*
X69960500Y-114464000D01*
X75250300Y-102409400D02*
X78749700Y-98910000D01*
X55483000Y-103347700D02*
X54687500Y-104143200D01*
X51336600Y-114716000D02*
X51336600Y-108586600D01*
X48472900Y-115135400D02*
X50917200Y-115135400D01*
X67922600Y-98701000D02*
X59821200Y-90599600D01*
X54175000Y-87187500D02*
X54175000Y-89550000D01*
X70079500Y-98701000D02*
X72180900Y-96599600D01*
X65072500Y-109235000D02*
X64837500Y-109000000D01*
D25*
%TO.N,LDR_A*%
X56824600Y-100500000D02*
X56824600Y-97010000D01*
X72827500Y-109010000D02*
X72837500Y-109000000D01*
X52537500Y-93300000D02*
X53587500Y-92250000D01*
X50758000Y-93300000D02*
X49932700Y-92474700D01*
X56824700Y-103500000D02*
X56824700Y-100500000D01*
X56824700Y-103500000D02*
X56824700Y-106872700D01*
X54137500Y-85075000D02*
X54137500Y-82425000D01*
X55637500Y-107387500D02*
X56152300Y-106872700D01*
X50925000Y-93300000D02*
X52537500Y-93300000D01*
X71515300Y-106736400D02*
X72837500Y-108058600D01*
X56152300Y-106872700D02*
X56824700Y-106872700D01*
X57785200Y-106872700D02*
X58625000Y-107712500D01*
X53472500Y-94235000D02*
X52537500Y-93300000D01*
X53472500Y-97370000D02*
X53472500Y-96264200D01*
X56824700Y-106872700D02*
X57785200Y-106872700D01*
X53542500Y-101520000D02*
X53542500Y-97440000D01*
X56824700Y-100500000D02*
X60721800Y-100500000D01*
X50925000Y-88300000D02*
X54112500Y-85112500D01*
X49932700Y-92474700D02*
X49932700Y-89067500D01*
X58400000Y-103500000D02*
X56824700Y-103500000D01*
X53472500Y-96264200D02*
X53472500Y-94235000D01*
X72827500Y-113380000D02*
X72827500Y-109010000D01*
X54112500Y-85112500D02*
X54175000Y-85112500D01*
X56824700Y-100500000D02*
X56824600Y-100500000D01*
X53542500Y-97440000D02*
X53472500Y-97370000D01*
X56078800Y-96264200D02*
X53472500Y-96264200D01*
X49932700Y-89067500D02*
X50700200Y-88300000D01*
X56824600Y-97010000D02*
X56078800Y-96264200D01*
X50700200Y-88300000D02*
X50925000Y-88300000D01*
X72837500Y-108058600D02*
X72837500Y-109000000D01*
X54175000Y-85112500D02*
X54137500Y-85075000D01*
X50925000Y-93300000D02*
X50758000Y-93300000D01*
%TO.N,Net-(R1-Pad2)*%
X55412500Y-92250000D02*
X56662500Y-93500000D01*
X56662500Y-93500000D02*
X58400000Y-93500000D01*
%TO.N,Net-(R2-Pad2)*%
X55962500Y-82425000D02*
X55962500Y-88637800D01*
X58400000Y-89500000D02*
X56824700Y-89500000D01*
X55962500Y-88637800D02*
X56824700Y-89500000D01*
%TO.N,Net-(J2-Pad2)*%
X54840000Y-109687500D02*
X53775000Y-109687500D01*
X58118700Y-114310400D02*
X57700000Y-113891700D01*
X62317500Y-113330000D02*
X61337100Y-114310400D01*
X61337100Y-114310400D02*
X58118700Y-114310400D01*
X53775000Y-109687500D02*
X53775000Y-109630800D01*
X57700000Y-113891700D02*
X57700000Y-112547500D01*
X53775000Y-109630800D02*
X51119200Y-106975000D01*
X51119200Y-106975000D02*
X50975000Y-106975000D01*
X57700000Y-112547500D02*
X54840000Y-109687500D01*
%TO.N,SensorIn*%
X72024700Y-95500000D02*
X71043600Y-96481100D01*
X53775000Y-111512500D02*
X55025000Y-111512500D01*
X55025000Y-111512500D02*
X56787500Y-113275000D01*
X71043600Y-96481100D02*
X69107000Y-96481100D01*
X56787500Y-113635100D02*
X57913400Y-114761000D01*
X62711500Y-114761000D02*
X64142500Y-113330000D01*
X64142500Y-112141500D02*
X64268400Y-112015600D01*
X73600000Y-95500000D02*
X72024700Y-95500000D01*
X57913400Y-114761000D02*
X62711500Y-114761000D01*
X56787500Y-113275000D02*
X56787500Y-113635100D01*
X64142500Y-113330000D02*
X64142500Y-112141500D01*
%TO.N,Net-(J4-Pad2)*%
X73600000Y-97500000D02*
X75175300Y-97500000D01*
X80000000Y-100274700D02*
X80808000Y-100274700D01*
X80000000Y-101450000D02*
X80000000Y-100274700D01*
X80808000Y-100274700D02*
X81175400Y-99907300D01*
X81175400Y-97876400D02*
X81033600Y-97734600D01*
X78059500Y-101450000D02*
X80000000Y-101450000D01*
X75409900Y-97734600D02*
X75175300Y-97500000D01*
X75548000Y-103961500D02*
X78059500Y-101450000D01*
X75548000Y-112484500D02*
X75548000Y-103961500D01*
X81175400Y-99907300D02*
X81175400Y-97876400D01*
X81033600Y-97734600D02*
X75409900Y-97734600D01*
X74652500Y-113380000D02*
X75548000Y-112484500D01*
D26*
%TO.N,+5V*%
X53737500Y-105725000D02*
X54226000Y-106213500D01*
X50723600Y-105725000D02*
X50975000Y-105725000D01*
X55637500Y-105645000D02*
X55637500Y-105112500D01*
X50262500Y-113800000D02*
X50262500Y-109662400D01*
X53737500Y-105112500D02*
X53737500Y-105725000D01*
X53737500Y-105725000D02*
X50975000Y-105725000D01*
X49899600Y-109299500D02*
X49899600Y-106549000D01*
X50262500Y-109662400D02*
X49899600Y-109299500D01*
X49899600Y-106549000D02*
X50723600Y-105725000D01*
X55069000Y-106213500D02*
X55637500Y-105645000D01*
X54226000Y-106213500D02*
X55069000Y-106213500D01*
D25*
%TO.N,SDA*%
X51757300Y-92050000D02*
X50925000Y-92050000D01*
X58400000Y-97500000D02*
X58176500Y-97500000D01*
X58176500Y-97500000D02*
X54500000Y-93823500D01*
X54071000Y-91194100D02*
X52613200Y-91194100D01*
X54500000Y-93823500D02*
X54500000Y-91623100D01*
X52613200Y-91194100D02*
X51757300Y-92050000D01*
X54500000Y-91623100D02*
X54071000Y-91194100D01*
%TO.N,SCL*%
X50990500Y-90734500D02*
X50925000Y-90800000D01*
X55482400Y-90734500D02*
X50990500Y-90734500D01*
X59975300Y-99500000D02*
X59975300Y-92848500D01*
X59975300Y-92848500D02*
X59801400Y-92674600D01*
X59801400Y-92674600D02*
X57350100Y-92674600D01*
X57350100Y-92674600D02*
X56824600Y-92149100D01*
X56824600Y-92076700D02*
X55482400Y-90734500D01*
X58400000Y-99500000D02*
X59975300Y-99500000D01*
X56824600Y-92149100D02*
X56824600Y-92076700D01*
%TO.N,RXD*%
X78824700Y-88730000D02*
X76054700Y-91500000D01*
X76054700Y-91500000D02*
X73600000Y-91500000D01*
X80000000Y-88730000D02*
X78824700Y-88730000D01*
%TO.N,TXD*%
X78824700Y-86190000D02*
X75514700Y-89500000D01*
X80000000Y-86190000D02*
X78824700Y-86190000D01*
X75514700Y-89500000D02*
X73600000Y-89500000D01*
%TO.N,LDR_B*%
X52461700Y-94606600D02*
X50981600Y-94606600D01*
X64949700Y-106874100D02*
X64729200Y-106874100D01*
X69392500Y-113360000D02*
X66662500Y-110630000D01*
X66662500Y-109000000D02*
X66662500Y-108586900D01*
X66662500Y-108586900D02*
X64949700Y-106874100D01*
X50981600Y-94606600D02*
X50925000Y-94550000D01*
X66662500Y-110630000D02*
X66662500Y-109000000D01*
%TO.N,ADC*%
X58400000Y-91500000D02*
X59975300Y-91500000D01*
X61869600Y-93394300D02*
X59975300Y-91500000D01*
X60837500Y-109000000D02*
X61869600Y-107967900D01*
X61869600Y-107967900D02*
X65406600Y-107967900D01*
X65758300Y-111550800D02*
X67567500Y-113360000D01*
X61869600Y-107967900D02*
X61869600Y-93394300D01*
X65758300Y-108319600D02*
X65758300Y-111550800D01*
X65406600Y-107967900D02*
X65758300Y-108319600D01*
%TD*%
%TA.AperFunction,Conductor*%
%TO.N,GND*%
G36*
X56942121Y-80070502D02*
G01*
X56988614Y-80124158D01*
X57000000Y-80176500D01*
X57000000Y-88250000D01*
X75250000Y-88250000D01*
X75250000Y-84519748D01*
X78949500Y-84519748D01*
X78950707Y-84525816D01*
X78954994Y-84547366D01*
X78961133Y-84578231D01*
X79005448Y-84644552D01*
X79071769Y-84688867D01*
X79083938Y-84691288D01*
X79083939Y-84691288D01*
X79114054Y-84697278D01*
X79130252Y-84700500D01*
X80869748Y-84700500D01*
X80885946Y-84697278D01*
X80916061Y-84691288D01*
X80916062Y-84691288D01*
X80928231Y-84688867D01*
X80994552Y-84644552D01*
X81038867Y-84578231D01*
X81045007Y-84547366D01*
X81049293Y-84525816D01*
X81050500Y-84519748D01*
X81050500Y-82780252D01*
X81038867Y-82721769D01*
X80994552Y-82655448D01*
X80928231Y-82611133D01*
X80916062Y-82608712D01*
X80916061Y-82608712D01*
X80875816Y-82600707D01*
X80869748Y-82599500D01*
X79130252Y-82599500D01*
X79124184Y-82600707D01*
X79083939Y-82608712D01*
X79083938Y-82608712D01*
X79071769Y-82611133D01*
X79005448Y-82655448D01*
X78961133Y-82721769D01*
X78949500Y-82780252D01*
X78949500Y-84519748D01*
X75250000Y-84519748D01*
X75250000Y-81193391D01*
X76662934Y-81193391D01*
X76663664Y-81200000D01*
X76679573Y-81344112D01*
X76731685Y-81486514D01*
X76735922Y-81492820D01*
X76735924Y-81492823D01*
X76757398Y-81524779D01*
X76816260Y-81612374D01*
X76928415Y-81714428D01*
X76935092Y-81718053D01*
X76935093Y-81718054D01*
X77054999Y-81783158D01*
X77055001Y-81783159D01*
X77061676Y-81786783D01*
X77069025Y-81788711D01*
X77201000Y-81823334D01*
X77201002Y-81823334D01*
X77208350Y-81825262D01*
X77289737Y-81826541D01*
X77352371Y-81827525D01*
X77352374Y-81827525D01*
X77359968Y-81827644D01*
X77419279Y-81814060D01*
X77500379Y-81795486D01*
X77500382Y-81795485D01*
X77507778Y-81793791D01*
X77514555Y-81790382D01*
X77514559Y-81790381D01*
X77636460Y-81729070D01*
X77643246Y-81725657D01*
X77728493Y-81652850D01*
X77752778Y-81632109D01*
X77752780Y-81632106D01*
X77758552Y-81627177D01*
X77847038Y-81504035D01*
X77851545Y-81492823D01*
X77900764Y-81370389D01*
X77900765Y-81370387D01*
X77903597Y-81363341D01*
X77924963Y-81213217D01*
X77925101Y-81200000D01*
X77924302Y-81193391D01*
X77910794Y-81081772D01*
X77906884Y-81049461D01*
X77853284Y-80907613D01*
X77767396Y-80782645D01*
X77654178Y-80681772D01*
X77520166Y-80610816D01*
X77373098Y-80573875D01*
X77365500Y-80573835D01*
X77365498Y-80573835D01*
X77302145Y-80573503D01*
X77221463Y-80573081D01*
X77214083Y-80574853D01*
X77214081Y-80574853D01*
X77081401Y-80606707D01*
X77074016Y-80608480D01*
X76939269Y-80678029D01*
X76825001Y-80777711D01*
X76737809Y-80901773D01*
X76682726Y-81043052D01*
X76681734Y-81050585D01*
X76681734Y-81050586D01*
X76677464Y-81083023D01*
X76662934Y-81193391D01*
X75250000Y-81193391D01*
X75250000Y-80176500D01*
X75270002Y-80108379D01*
X75323658Y-80061886D01*
X75376000Y-80050500D01*
X81823500Y-80050500D01*
X81891621Y-80070502D01*
X81938114Y-80124158D01*
X81949500Y-80176500D01*
X81949500Y-103823500D01*
X81929498Y-103891621D01*
X81875842Y-103938114D01*
X81823500Y-103949500D01*
X76324516Y-103949500D01*
X76256395Y-103929498D01*
X76209902Y-103875842D01*
X76199798Y-103805568D01*
X76229292Y-103740988D01*
X76235421Y-103734405D01*
X77114379Y-102855448D01*
X78157422Y-101812405D01*
X78219734Y-101778379D01*
X78246517Y-101775500D01*
X78909211Y-101775500D01*
X78977332Y-101795502D01*
X79021278Y-101843906D01*
X79076574Y-101951500D01*
X79112712Y-102021818D01*
X79240677Y-102183270D01*
X79397564Y-102316791D01*
X79402942Y-102319797D01*
X79402944Y-102319798D01*
X79412184Y-102324962D01*
X79577398Y-102417297D01*
X79655023Y-102442519D01*
X79767471Y-102479056D01*
X79767475Y-102479057D01*
X79773329Y-102480959D01*
X79977894Y-102505351D01*
X79984029Y-102504879D01*
X79984031Y-102504879D01*
X80040039Y-102500569D01*
X80183300Y-102489546D01*
X80189230Y-102487890D01*
X80189232Y-102487890D01*
X80349143Y-102443242D01*
X80381725Y-102434145D01*
X80387214Y-102431372D01*
X80387220Y-102431370D01*
X80541591Y-102353391D01*
X80565610Y-102341258D01*
X80584500Y-102326500D01*
X80671691Y-102258379D01*
X80727951Y-102214424D01*
X80733338Y-102208184D01*
X80858540Y-102063134D01*
X80858540Y-102063133D01*
X80862564Y-102058472D01*
X80866365Y-102051782D01*
X80913253Y-101969244D01*
X80964323Y-101879344D01*
X81029351Y-101683863D01*
X81055171Y-101479474D01*
X81055583Y-101450000D01*
X81035480Y-101244970D01*
X80975935Y-101047749D01*
X80879218Y-100865849D01*
X80875322Y-100861072D01*
X80875318Y-100861066D01*
X80820162Y-100793439D01*
X80792607Y-100728008D01*
X80804802Y-100658066D01*
X80852874Y-100605821D01*
X80895925Y-100589717D01*
X80910191Y-100587202D01*
X80910192Y-100587202D01*
X80921045Y-100585288D01*
X80930589Y-100579778D01*
X80933866Y-100578585D01*
X80937034Y-100577108D01*
X80947684Y-100574254D01*
X80978544Y-100552645D01*
X80987815Y-100546739D01*
X81010906Y-100533407D01*
X81020455Y-100527894D01*
X81044685Y-100499017D01*
X81052111Y-100490915D01*
X81391615Y-100151411D01*
X81399719Y-100143984D01*
X81420149Y-100126841D01*
X81428594Y-100119755D01*
X81447340Y-100087286D01*
X81447439Y-100087115D01*
X81453345Y-100077844D01*
X81468630Y-100056015D01*
X81474954Y-100046984D01*
X81477808Y-100036334D01*
X81479285Y-100033166D01*
X81480477Y-100029890D01*
X81485988Y-100020345D01*
X81492530Y-99983242D01*
X81494909Y-99972510D01*
X81494964Y-99972304D01*
X81504664Y-99936107D01*
X81502814Y-99914956D01*
X81501380Y-99898572D01*
X81500900Y-99887590D01*
X81500900Y-97896098D01*
X81501380Y-97885116D01*
X81503702Y-97858580D01*
X81503702Y-97858578D01*
X81504663Y-97847593D01*
X81501430Y-97835526D01*
X81494912Y-97811204D01*
X81492532Y-97800469D01*
X81487902Y-97774212D01*
X81485988Y-97763355D01*
X81480476Y-97753807D01*
X81479283Y-97750530D01*
X81477806Y-97747362D01*
X81474953Y-97736716D01*
X81453342Y-97705852D01*
X81447438Y-97696584D01*
X81434104Y-97673489D01*
X81428594Y-97663945D01*
X81399730Y-97639725D01*
X81391627Y-97632300D01*
X81277704Y-97518378D01*
X81270277Y-97510273D01*
X81253141Y-97489851D01*
X81246055Y-97481406D01*
X81236506Y-97475893D01*
X81213415Y-97462561D01*
X81204144Y-97456655D01*
X81182315Y-97441370D01*
X81173284Y-97435046D01*
X81162634Y-97432192D01*
X81159466Y-97430715D01*
X81156190Y-97429523D01*
X81146645Y-97424012D01*
X81125671Y-97420314D01*
X81062059Y-97388786D01*
X81025590Y-97327871D01*
X81027843Y-97256910D01*
X81045230Y-97222702D01*
X81165003Y-97056020D01*
X81170313Y-97047183D01*
X81264670Y-96856267D01*
X81268469Y-96846672D01*
X81330377Y-96642910D01*
X81332555Y-96632837D01*
X81333986Y-96621962D01*
X81331775Y-96607778D01*
X81318617Y-96604000D01*
X80272115Y-96604000D01*
X80256876Y-96608475D01*
X80255671Y-96609865D01*
X80254000Y-96617548D01*
X80254000Y-97283100D01*
X80233998Y-97351221D01*
X80180342Y-97397714D01*
X80128000Y-97409100D01*
X79872000Y-97409100D01*
X79803879Y-97389098D01*
X79757386Y-97335442D01*
X79746000Y-97283100D01*
X79746000Y-96622115D01*
X79741525Y-96606876D01*
X79740135Y-96605671D01*
X79732452Y-96604000D01*
X78683225Y-96604000D01*
X78669694Y-96607973D01*
X78668257Y-96617966D01*
X78698565Y-96752446D01*
X78701645Y-96762275D01*
X78781770Y-96959603D01*
X78786413Y-96968794D01*
X78897694Y-97150388D01*
X78903772Y-97158692D01*
X78940076Y-97200602D01*
X78969559Y-97265187D01*
X78959445Y-97335460D01*
X78912943Y-97389108D01*
X78844839Y-97409100D01*
X75596916Y-97409100D01*
X75528795Y-97389098D01*
X75507821Y-97372195D01*
X75419411Y-97283785D01*
X75411984Y-97275681D01*
X75394841Y-97255251D01*
X75394842Y-97255251D01*
X75387755Y-97246806D01*
X75378206Y-97241293D01*
X75355115Y-97227961D01*
X75345844Y-97222055D01*
X75324015Y-97206770D01*
X75314984Y-97200446D01*
X75304334Y-97197592D01*
X75301166Y-97196115D01*
X75297890Y-97194923D01*
X75288345Y-97189412D01*
X75254601Y-97183462D01*
X75251242Y-97182870D01*
X75240515Y-97180492D01*
X75204107Y-97170736D01*
X75187483Y-97172191D01*
X75117880Y-97158204D01*
X75066886Y-97108807D01*
X75050500Y-97046671D01*
X75050500Y-96980252D01*
X75038867Y-96921769D01*
X74994552Y-96855448D01*
X74928231Y-96811133D01*
X74916062Y-96808712D01*
X74916061Y-96808712D01*
X74875816Y-96800707D01*
X74869748Y-96799500D01*
X72330252Y-96799500D01*
X72324184Y-96800707D01*
X72283939Y-96808712D01*
X72283938Y-96808712D01*
X72271769Y-96811133D01*
X72205448Y-96855448D01*
X72161133Y-96921769D01*
X72149500Y-96980252D01*
X72149500Y-98019748D01*
X72150707Y-98025816D01*
X72158080Y-98062881D01*
X72161133Y-98078231D01*
X72168026Y-98088547D01*
X72205448Y-98144552D01*
X72204386Y-98145261D01*
X72232165Y-98196133D01*
X72227100Y-98266948D01*
X72184553Y-98323784D01*
X72132995Y-98343481D01*
X72133492Y-98345336D01*
X72097085Y-98355092D01*
X72086358Y-98357470D01*
X72082999Y-98358062D01*
X72049255Y-98364012D01*
X72039710Y-98369523D01*
X72036434Y-98370715D01*
X72033266Y-98372192D01*
X72022616Y-98375046D01*
X72013585Y-98381370D01*
X71991756Y-98396655D01*
X71982485Y-98402561D01*
X71959394Y-98415893D01*
X71949845Y-98421406D01*
X71942759Y-98429851D01*
X71925615Y-98450282D01*
X71918189Y-98458385D01*
X69609185Y-100767389D01*
X69601081Y-100774816D01*
X69572206Y-100799045D01*
X69566693Y-100808594D01*
X69553361Y-100831685D01*
X69547455Y-100840956D01*
X69525846Y-100871816D01*
X69522992Y-100882466D01*
X69521515Y-100885634D01*
X69520323Y-100888910D01*
X69514812Y-100898455D01*
X69509553Y-100928282D01*
X69508270Y-100935558D01*
X69505892Y-100946285D01*
X69496136Y-100982693D01*
X69497097Y-100993678D01*
X69497097Y-100993680D01*
X69499420Y-101020228D01*
X69499900Y-101031210D01*
X69499900Y-103773500D01*
X69479898Y-103841621D01*
X69426242Y-103888114D01*
X69373900Y-103899500D01*
X68480252Y-103899500D01*
X68474184Y-103900707D01*
X68433939Y-103908712D01*
X68433938Y-103908712D01*
X68421769Y-103911133D01*
X68355448Y-103955448D01*
X68311133Y-104021769D01*
X68299500Y-104080252D01*
X68299500Y-105919748D01*
X68311133Y-105978231D01*
X68355448Y-106044552D01*
X68421769Y-106088867D01*
X68433938Y-106091288D01*
X68433939Y-106091288D01*
X68474184Y-106099293D01*
X68480252Y-106100500D01*
X69373900Y-106100500D01*
X69442021Y-106120502D01*
X69488514Y-106174158D01*
X69499900Y-106226500D01*
X69499900Y-107825084D01*
X69479898Y-107893205D01*
X69462995Y-107914179D01*
X69306592Y-108070582D01*
X69244280Y-108104608D01*
X69191291Y-108104561D01*
X69185369Y-108102481D01*
X69153834Y-108099500D01*
X68521166Y-108099500D01*
X68503248Y-108101194D01*
X68497278Y-108101758D01*
X68497277Y-108101758D01*
X68489631Y-108102481D01*
X68361816Y-108147366D01*
X68354246Y-108152958D01*
X68354243Y-108152959D01*
X68303978Y-108190086D01*
X68252850Y-108227850D01*
X68247258Y-108235421D01*
X68177959Y-108329243D01*
X68177958Y-108329246D01*
X68172366Y-108336816D01*
X68127481Y-108464631D01*
X68124500Y-108496166D01*
X68124500Y-109503834D01*
X68124778Y-109506773D01*
X68124778Y-109506777D01*
X68126454Y-109524501D01*
X68127481Y-109535369D01*
X68172366Y-109663184D01*
X68177958Y-109670754D01*
X68177959Y-109670757D01*
X68227450Y-109737761D01*
X68252850Y-109772150D01*
X68260421Y-109777742D01*
X68354243Y-109847041D01*
X68354246Y-109847042D01*
X68361816Y-109852634D01*
X68489631Y-109897519D01*
X68497277Y-109898242D01*
X68497278Y-109898242D01*
X68501997Y-109898688D01*
X68521166Y-109900500D01*
X69153834Y-109900500D01*
X69173003Y-109898688D01*
X69177722Y-109898242D01*
X69177723Y-109898242D01*
X69185369Y-109897519D01*
X69313184Y-109852634D01*
X69320754Y-109847042D01*
X69320757Y-109847041D01*
X69414579Y-109777742D01*
X69422150Y-109772150D01*
X69447550Y-109737761D01*
X69475209Y-109700315D01*
X69531771Y-109657404D01*
X69602552Y-109651885D01*
X69665082Y-109685510D01*
X69696084Y-109735300D01*
X69706587Y-109766782D01*
X69712761Y-109779962D01*
X69798063Y-109917807D01*
X69807099Y-109929208D01*
X69921829Y-110043739D01*
X69933240Y-110052751D01*
X70071243Y-110137816D01*
X70084424Y-110143963D01*
X70238710Y-110195138D01*
X70252086Y-110198005D01*
X70346438Y-110207672D01*
X70352854Y-110208000D01*
X70390385Y-110208000D01*
X70405624Y-110203525D01*
X70406829Y-110202135D01*
X70408500Y-110194452D01*
X70408500Y-110189884D01*
X70916500Y-110189884D01*
X70920975Y-110205123D01*
X70922365Y-110206328D01*
X70930048Y-110207999D01*
X70972095Y-110207999D01*
X70978614Y-110207662D01*
X71074206Y-110197743D01*
X71087600Y-110194851D01*
X71241784Y-110143412D01*
X71254962Y-110137239D01*
X71392807Y-110051937D01*
X71404208Y-110042901D01*
X71518739Y-109928171D01*
X71527751Y-109916760D01*
X71612816Y-109778757D01*
X71618963Y-109765576D01*
X71670138Y-109611290D01*
X71673005Y-109597914D01*
X71682672Y-109503562D01*
X71683000Y-109497146D01*
X71683000Y-109272115D01*
X71678525Y-109256876D01*
X71677135Y-109255671D01*
X71669452Y-109254000D01*
X70934615Y-109254000D01*
X70919376Y-109258475D01*
X70918171Y-109259865D01*
X70916500Y-109267548D01*
X70916500Y-110189884D01*
X70408500Y-110189884D01*
X70408500Y-108727885D01*
X70916500Y-108727885D01*
X70920975Y-108743124D01*
X70922365Y-108744329D01*
X70930048Y-108746000D01*
X71664884Y-108746000D01*
X71680123Y-108741525D01*
X71681328Y-108740135D01*
X71682999Y-108732452D01*
X71682999Y-108502905D01*
X71682662Y-108496386D01*
X71672743Y-108400794D01*
X71669851Y-108387400D01*
X71618412Y-108233216D01*
X71612239Y-108220038D01*
X71526937Y-108082193D01*
X71517901Y-108070792D01*
X71403171Y-107956261D01*
X71391760Y-107947249D01*
X71253757Y-107862184D01*
X71240576Y-107856037D01*
X71086290Y-107804862D01*
X71072914Y-107801995D01*
X70978562Y-107792328D01*
X70972145Y-107792000D01*
X70934615Y-107792000D01*
X70919376Y-107796475D01*
X70918171Y-107797865D01*
X70916500Y-107805548D01*
X70916500Y-108727885D01*
X70408500Y-108727885D01*
X70408500Y-107810116D01*
X70404025Y-107794877D01*
X70402635Y-107793672D01*
X70394952Y-107792001D01*
X70352905Y-107792001D01*
X70346388Y-107792338D01*
X70289904Y-107798199D01*
X70220082Y-107785334D01*
X70168300Y-107736763D01*
X70150900Y-107672872D01*
X70150900Y-106140772D01*
X70170902Y-106072651D01*
X70224558Y-106026158D01*
X70294832Y-106016054D01*
X70354665Y-106043380D01*
X70355448Y-106044552D01*
X70421769Y-106088867D01*
X70433938Y-106091288D01*
X70433939Y-106091288D01*
X70474184Y-106099293D01*
X70480252Y-106100500D01*
X70991969Y-106100500D01*
X71060090Y-106120502D01*
X71106583Y-106174158D01*
X71116687Y-106244432D01*
X71087916Y-106307429D01*
X71087018Y-106308118D01*
X71082300Y-106314267D01*
X71082296Y-106314271D01*
X71036205Y-106374339D01*
X70990764Y-106433559D01*
X70930256Y-106579638D01*
X70929178Y-106587826D01*
X70923099Y-106634002D01*
X70909618Y-106736400D01*
X70930256Y-106893162D01*
X70990764Y-107039241D01*
X71087018Y-107164682D01*
X71212459Y-107260936D01*
X71358538Y-107321444D01*
X71515300Y-107342082D01*
X71582142Y-107333282D01*
X71652289Y-107344221D01*
X71687682Y-107369109D01*
X72318213Y-107999640D01*
X72352239Y-108061952D01*
X72347174Y-108132767D01*
X72303978Y-108190086D01*
X72252850Y-108227850D01*
X72247258Y-108235421D01*
X72177959Y-108329243D01*
X72177958Y-108329246D01*
X72172366Y-108336816D01*
X72127481Y-108464631D01*
X72124500Y-108496166D01*
X72124500Y-109503834D01*
X72124778Y-109506773D01*
X72124778Y-109506777D01*
X72126454Y-109524501D01*
X72127481Y-109535369D01*
X72172366Y-109663184D01*
X72177958Y-109670754D01*
X72177959Y-109670757D01*
X72227450Y-109737761D01*
X72252850Y-109772150D01*
X72260421Y-109777742D01*
X72354243Y-109847041D01*
X72354246Y-109847042D01*
X72361816Y-109852634D01*
X72370698Y-109855753D01*
X72370702Y-109855755D01*
X72417749Y-109872277D01*
X72475394Y-109913720D01*
X72501482Y-109979749D01*
X72502000Y-109991159D01*
X72502000Y-112385330D01*
X72481998Y-112453451D01*
X72428342Y-112499944D01*
X72417747Y-112504213D01*
X72360700Y-112524246D01*
X72360699Y-112524247D01*
X72351816Y-112527366D01*
X72344246Y-112532958D01*
X72344243Y-112532959D01*
X72269928Y-112587850D01*
X72242850Y-112607850D01*
X72237258Y-112615421D01*
X72167959Y-112709243D01*
X72167958Y-112709246D01*
X72162366Y-112716816D01*
X72117481Y-112844631D01*
X72114500Y-112876166D01*
X72114500Y-113883834D01*
X72117481Y-113915369D01*
X72162366Y-114043184D01*
X72167958Y-114050754D01*
X72167959Y-114050757D01*
X72220611Y-114122041D01*
X72242850Y-114152150D01*
X72250421Y-114157742D01*
X72344243Y-114227041D01*
X72344246Y-114227042D01*
X72351816Y-114232634D01*
X72479631Y-114277519D01*
X72487277Y-114278242D01*
X72487278Y-114278242D01*
X72493248Y-114278806D01*
X72511166Y-114280500D01*
X73143834Y-114280500D01*
X73161752Y-114278806D01*
X73167722Y-114278242D01*
X73167723Y-114278242D01*
X73175369Y-114277519D01*
X73303184Y-114232634D01*
X73310754Y-114227042D01*
X73310757Y-114227041D01*
X73404579Y-114157742D01*
X73412150Y-114152150D01*
X73434389Y-114122041D01*
X73487041Y-114050757D01*
X73487042Y-114050754D01*
X73492634Y-114043184D01*
X73537519Y-113915369D01*
X73540500Y-113883834D01*
X73540500Y-112876166D01*
X73537519Y-112844631D01*
X73492634Y-112716816D01*
X73487042Y-112709246D01*
X73487041Y-112709243D01*
X73417742Y-112615421D01*
X73412150Y-112607850D01*
X73385072Y-112587850D01*
X73310757Y-112532959D01*
X73310754Y-112532958D01*
X73303184Y-112527366D01*
X73294301Y-112524247D01*
X73294300Y-112524246D01*
X73237253Y-112504213D01*
X73179607Y-112462770D01*
X73153518Y-112396741D01*
X73153000Y-112385330D01*
X73153000Y-109998182D01*
X73173002Y-109930061D01*
X73226658Y-109883568D01*
X73237252Y-109879299D01*
X73257248Y-109872277D01*
X73313184Y-109852634D01*
X73320754Y-109847042D01*
X73320757Y-109847041D01*
X73414579Y-109777742D01*
X73422150Y-109772150D01*
X73447550Y-109737761D01*
X73497041Y-109670757D01*
X73497042Y-109670754D01*
X73502634Y-109663184D01*
X73547519Y-109535369D01*
X73548546Y-109524501D01*
X73550222Y-109506777D01*
X73550222Y-109506773D01*
X73550500Y-109503834D01*
X73550500Y-108496166D01*
X73547519Y-108464631D01*
X73502634Y-108336816D01*
X73497042Y-108329246D01*
X73497041Y-108329243D01*
X73427742Y-108235421D01*
X73422150Y-108227850D01*
X73371022Y-108190086D01*
X73320757Y-108152959D01*
X73320754Y-108152958D01*
X73313184Y-108147366D01*
X73247441Y-108124279D01*
X73189795Y-108082836D01*
X73168733Y-108029267D01*
X73166763Y-108029795D01*
X73166763Y-108029793D01*
X73157008Y-107993383D01*
X73154633Y-107982672D01*
X73150001Y-107956406D01*
X73148088Y-107945555D01*
X73142579Y-107936012D01*
X73140886Y-107931361D01*
X73140275Y-107929424D01*
X73139488Y-107927524D01*
X73139004Y-107926194D01*
X73138847Y-107925606D01*
X73139048Y-107925533D01*
X73137588Y-107920906D01*
X73137061Y-107918941D01*
X73141031Y-107917876D01*
X73130758Y-107875542D01*
X73153976Y-107808449D01*
X73209781Y-107764560D01*
X73280456Y-107757808D01*
X73345711Y-107792437D01*
X73916282Y-108363008D01*
X73950308Y-108425320D01*
X73950273Y-108464422D01*
X73952481Y-108464631D01*
X73949500Y-108496166D01*
X73949500Y-109503834D01*
X73949778Y-109506773D01*
X73949778Y-109506777D01*
X73951454Y-109524501D01*
X73952481Y-109535369D01*
X73997366Y-109663184D01*
X74002958Y-109670754D01*
X74002959Y-109670757D01*
X74052450Y-109737761D01*
X74077850Y-109772150D01*
X74085421Y-109777742D01*
X74179243Y-109847041D01*
X74179246Y-109847042D01*
X74186816Y-109852634D01*
X74314631Y-109897519D01*
X74322277Y-109898242D01*
X74322278Y-109898242D01*
X74326997Y-109898688D01*
X74346166Y-109900500D01*
X74978834Y-109900500D01*
X74998003Y-109898688D01*
X75002722Y-109898242D01*
X75002723Y-109898242D01*
X75010369Y-109897519D01*
X75054752Y-109881933D01*
X75125652Y-109878235D01*
X75187297Y-109913455D01*
X75220114Y-109976412D01*
X75222500Y-110000816D01*
X75222500Y-112297483D01*
X75202498Y-112365604D01*
X75185595Y-112386578D01*
X75121591Y-112450582D01*
X75059279Y-112484608D01*
X75006291Y-112484561D01*
X75000369Y-112482481D01*
X74992727Y-112481759D01*
X74992724Y-112481758D01*
X74982365Y-112480779D01*
X74968834Y-112479500D01*
X74336166Y-112479500D01*
X74318248Y-112481194D01*
X74312278Y-112481758D01*
X74312277Y-112481758D01*
X74304631Y-112482481D01*
X74176816Y-112527366D01*
X74169246Y-112532958D01*
X74169243Y-112532959D01*
X74094928Y-112587850D01*
X74067850Y-112607850D01*
X74062258Y-112615421D01*
X73992959Y-112709243D01*
X73992958Y-112709246D01*
X73987366Y-112716816D01*
X73942481Y-112844631D01*
X73939500Y-112876166D01*
X73939500Y-113883834D01*
X73942481Y-113915369D01*
X73987366Y-114043184D01*
X73992958Y-114050754D01*
X73992959Y-114050757D01*
X74045611Y-114122041D01*
X74067850Y-114152150D01*
X74075421Y-114157742D01*
X74169243Y-114227041D01*
X74169246Y-114227042D01*
X74176816Y-114232634D01*
X74304631Y-114277519D01*
X74312277Y-114278242D01*
X74312278Y-114278242D01*
X74318248Y-114278806D01*
X74336166Y-114280500D01*
X74968834Y-114280500D01*
X74986752Y-114278806D01*
X74992722Y-114278242D01*
X74992723Y-114278242D01*
X75000369Y-114277519D01*
X75128184Y-114232634D01*
X75135754Y-114227042D01*
X75135757Y-114227041D01*
X75229579Y-114157742D01*
X75237150Y-114152150D01*
X75259389Y-114122041D01*
X75312041Y-114050757D01*
X75312042Y-114050754D01*
X75317634Y-114043184D01*
X75362519Y-113915369D01*
X75365500Y-113883834D01*
X75365500Y-113179517D01*
X75385502Y-113111396D01*
X75402405Y-113090422D01*
X75734405Y-112758422D01*
X75796717Y-112724396D01*
X75867532Y-112729461D01*
X75924368Y-112772008D01*
X75949179Y-112838528D01*
X75949500Y-112847517D01*
X75949500Y-115823500D01*
X75929498Y-115891621D01*
X75875842Y-115938114D01*
X75823500Y-115949500D01*
X46176500Y-115949500D01*
X46108379Y-115929498D01*
X46061886Y-115875842D01*
X46050500Y-115823500D01*
X46050500Y-115148752D01*
X46070502Y-115080631D01*
X46124158Y-115034138D01*
X46194432Y-115024034D01*
X46254591Y-115049869D01*
X46258240Y-115052751D01*
X46396243Y-115137816D01*
X46409424Y-115143963D01*
X46563710Y-115195138D01*
X46577086Y-115198005D01*
X46671438Y-115207672D01*
X46677854Y-115208000D01*
X46865385Y-115208000D01*
X46880624Y-115203525D01*
X46881829Y-115202135D01*
X46883500Y-115194452D01*
X46883500Y-115189884D01*
X47391500Y-115189884D01*
X47395975Y-115205123D01*
X47397365Y-115206328D01*
X47405048Y-115207999D01*
X47597095Y-115207999D01*
X47603614Y-115207662D01*
X47699206Y-115197743D01*
X47712600Y-115194851D01*
X47866784Y-115143412D01*
X47879962Y-115137239D01*
X48017807Y-115051937D01*
X48029208Y-115042901D01*
X48143739Y-114928171D01*
X48152751Y-114916760D01*
X48237816Y-114778757D01*
X48243963Y-114765576D01*
X48295138Y-114611290D01*
X48298005Y-114597914D01*
X48307672Y-114503562D01*
X48308000Y-114497146D01*
X48308000Y-114072115D01*
X48303525Y-114056876D01*
X48302135Y-114055671D01*
X48294452Y-114054000D01*
X47409615Y-114054000D01*
X47394376Y-114058475D01*
X47393171Y-114059865D01*
X47391500Y-114067548D01*
X47391500Y-115189884D01*
X46883500Y-115189884D01*
X46883500Y-113527885D01*
X47391500Y-113527885D01*
X47395975Y-113543124D01*
X47397365Y-113544329D01*
X47405048Y-113546000D01*
X48289884Y-113546000D01*
X48305123Y-113541525D01*
X48306328Y-113540135D01*
X48307999Y-113532452D01*
X48307999Y-113102905D01*
X48307662Y-113096386D01*
X48297743Y-113000794D01*
X48294851Y-112987400D01*
X48243412Y-112833216D01*
X48237239Y-112820038D01*
X48151937Y-112682193D01*
X48142901Y-112670792D01*
X48028171Y-112556261D01*
X48016760Y-112547249D01*
X47878757Y-112462184D01*
X47865576Y-112456037D01*
X47711290Y-112404862D01*
X47697914Y-112401995D01*
X47603562Y-112392328D01*
X47597145Y-112392000D01*
X47409615Y-112392000D01*
X47394376Y-112396475D01*
X47393171Y-112397865D01*
X47391500Y-112405548D01*
X47391500Y-113527885D01*
X46883500Y-113527885D01*
X46883500Y-112410116D01*
X46879025Y-112394877D01*
X46877635Y-112393672D01*
X46869952Y-112392001D01*
X46677905Y-112392001D01*
X46671386Y-112392338D01*
X46575794Y-112402257D01*
X46562400Y-112405149D01*
X46408216Y-112456588D01*
X46395038Y-112462761D01*
X46257192Y-112548063D01*
X46254764Y-112549988D01*
X46252793Y-112550786D01*
X46250965Y-112551917D01*
X46250771Y-112551604D01*
X46188953Y-112576625D01*
X46119189Y-112563454D01*
X46067621Y-112514656D01*
X46050500Y-112451242D01*
X46050500Y-109921167D01*
X46524500Y-109921167D01*
X46524501Y-111628832D01*
X46527481Y-111660368D01*
X46530024Y-111667609D01*
X46530024Y-111667610D01*
X46560259Y-111753706D01*
X46572366Y-111788183D01*
X46652850Y-111897150D01*
X46761817Y-111977634D01*
X46770704Y-111980755D01*
X46770706Y-111980756D01*
X46869000Y-112015274D01*
X46889632Y-112022519D01*
X46897278Y-112023242D01*
X46897279Y-112023242D01*
X46903056Y-112023788D01*
X46921167Y-112025500D01*
X48224340Y-112025500D01*
X49528832Y-112025499D01*
X49531782Y-112025220D01*
X49531787Y-112025220D01*
X49542406Y-112024216D01*
X49560368Y-112022519D01*
X49567609Y-112019976D01*
X49567610Y-112019976D01*
X49688183Y-111977634D01*
X49688852Y-111979538D01*
X49746609Y-111967751D01*
X49812804Y-111993418D01*
X49854614Y-112050798D01*
X49862000Y-112093304D01*
X49862000Y-112580720D01*
X49841998Y-112648841D01*
X49788342Y-112695334D01*
X49767839Y-112702178D01*
X49764631Y-112702481D01*
X49636816Y-112747366D01*
X49629246Y-112752958D01*
X49629243Y-112752959D01*
X49544794Y-112815335D01*
X49527850Y-112827850D01*
X49522258Y-112835421D01*
X49452959Y-112929243D01*
X49452958Y-112929246D01*
X49447366Y-112936816D01*
X49402481Y-113064631D01*
X49399500Y-113096166D01*
X49399500Y-114503834D01*
X49402481Y-114535369D01*
X49447366Y-114663184D01*
X49452958Y-114670754D01*
X49452959Y-114670757D01*
X49515335Y-114755206D01*
X49527850Y-114772150D01*
X49535421Y-114777742D01*
X49629243Y-114847041D01*
X49629246Y-114847042D01*
X49636816Y-114852634D01*
X49764631Y-114897519D01*
X49772277Y-114898242D01*
X49772278Y-114898242D01*
X49778248Y-114898806D01*
X49796166Y-114900500D01*
X50728834Y-114900500D01*
X50746752Y-114898806D01*
X50752722Y-114898242D01*
X50752723Y-114898242D01*
X50760369Y-114897519D01*
X50888184Y-114852634D01*
X50895754Y-114847042D01*
X50895757Y-114847041D01*
X50989579Y-114777742D01*
X50997150Y-114772150D01*
X51009665Y-114755206D01*
X51072041Y-114670757D01*
X51072042Y-114670754D01*
X51077634Y-114663184D01*
X51122519Y-114535369D01*
X51125500Y-114503834D01*
X51125500Y-113096166D01*
X51122519Y-113064631D01*
X51077634Y-112936816D01*
X51072042Y-112929246D01*
X51072041Y-112929243D01*
X51002742Y-112835421D01*
X50997150Y-112827850D01*
X50980206Y-112815335D01*
X50895757Y-112752959D01*
X50895754Y-112752958D01*
X50888184Y-112747366D01*
X50760369Y-112702481D01*
X50759447Y-112702394D01*
X50699745Y-112669656D01*
X50665832Y-112607283D01*
X50663000Y-112580720D01*
X50663000Y-109598967D01*
X50659936Y-109589536D01*
X50659935Y-109589532D01*
X50656203Y-109578047D01*
X50651587Y-109558822D01*
X50649697Y-109546888D01*
X50649697Y-109546887D01*
X50648146Y-109537096D01*
X50643645Y-109528263D01*
X50643644Y-109528259D01*
X50638159Y-109517494D01*
X50630593Y-109499230D01*
X50626860Y-109487741D01*
X50623796Y-109478310D01*
X50617967Y-109470288D01*
X50617966Y-109470285D01*
X50610868Y-109460516D01*
X50600538Y-109443659D01*
X50595052Y-109432893D01*
X50595051Y-109432892D01*
X50590550Y-109424058D01*
X50514587Y-109348095D01*
X50480561Y-109285783D01*
X50485626Y-109214968D01*
X50528173Y-109158132D01*
X50594693Y-109133321D01*
X50603682Y-109133000D01*
X50702885Y-109133000D01*
X50718124Y-109128525D01*
X50719329Y-109127135D01*
X50721000Y-109119452D01*
X50721000Y-108097000D01*
X50741002Y-108028879D01*
X50794658Y-107982386D01*
X50847000Y-107971000D01*
X51103000Y-107971000D01*
X51171121Y-107991002D01*
X51217614Y-108044658D01*
X51229000Y-108097000D01*
X51229000Y-109114884D01*
X51233475Y-109130123D01*
X51234865Y-109131328D01*
X51242548Y-109132999D01*
X51478705Y-109132999D01*
X51484454Y-109132736D01*
X51548315Y-109126868D01*
X51561351Y-109124257D01*
X51711243Y-109077285D01*
X51724988Y-109071079D01*
X51858574Y-108990176D01*
X51870443Y-108980869D01*
X51980869Y-108870443D01*
X51990176Y-108858574D01*
X52071079Y-108724988D01*
X52077285Y-108711243D01*
X52090906Y-108667777D01*
X52130363Y-108608755D01*
X52195467Y-108580435D01*
X52265547Y-108591808D01*
X52300235Y-108616361D01*
X52859381Y-109175507D01*
X52893407Y-109237819D01*
X52889168Y-109306351D01*
X52877481Y-109339631D01*
X52874500Y-109371166D01*
X52874500Y-110003834D01*
X52877481Y-110035369D01*
X52922366Y-110163184D01*
X52927958Y-110170754D01*
X52927959Y-110170757D01*
X52955467Y-110207999D01*
X53002850Y-110272150D01*
X53010421Y-110277742D01*
X53104243Y-110347041D01*
X53104246Y-110347042D01*
X53111816Y-110352634D01*
X53239631Y-110397519D01*
X53247277Y-110398242D01*
X53247278Y-110398242D01*
X53253248Y-110398806D01*
X53271166Y-110400500D01*
X54278834Y-110400500D01*
X54296752Y-110398806D01*
X54302722Y-110398242D01*
X54302723Y-110398242D01*
X54310369Y-110397519D01*
X54438184Y-110352634D01*
X54445754Y-110347042D01*
X54445757Y-110347041D01*
X54539579Y-110277742D01*
X54547150Y-110272150D01*
X54594533Y-110207999D01*
X54622037Y-110170762D01*
X54622040Y-110170757D01*
X54627634Y-110163184D01*
X54628317Y-110161238D01*
X54675160Y-110113176D01*
X54744335Y-110097194D01*
X54811168Y-110121148D01*
X54826057Y-110133883D01*
X56851579Y-112159405D01*
X56885605Y-112221717D01*
X56880540Y-112292532D01*
X56837993Y-112349368D01*
X56771473Y-112374179D01*
X56762484Y-112374500D01*
X56471166Y-112374500D01*
X56457635Y-112375779D01*
X56447276Y-112376758D01*
X56447273Y-112376759D01*
X56439631Y-112377481D01*
X56433843Y-112379514D01*
X56363681Y-112374621D01*
X56318409Y-112345582D01*
X55269110Y-111296284D01*
X55261683Y-111288180D01*
X55244541Y-111267751D01*
X55244542Y-111267751D01*
X55237455Y-111259306D01*
X55227906Y-111253793D01*
X55204815Y-111240461D01*
X55195544Y-111234555D01*
X55173715Y-111219270D01*
X55164684Y-111212946D01*
X55154034Y-111210092D01*
X55150866Y-111208615D01*
X55147590Y-111207423D01*
X55138045Y-111201912D01*
X55104301Y-111195962D01*
X55100942Y-111195370D01*
X55090215Y-111192992D01*
X55053807Y-111183236D01*
X55042822Y-111184197D01*
X55042820Y-111184197D01*
X55016272Y-111186520D01*
X55005290Y-111187000D01*
X54769670Y-111187000D01*
X54701549Y-111166998D01*
X54655056Y-111113342D01*
X54650787Y-111102747D01*
X54630754Y-111045700D01*
X54630753Y-111045699D01*
X54627634Y-111036816D01*
X54622042Y-111029246D01*
X54622041Y-111029243D01*
X54552742Y-110935421D01*
X54547150Y-110927850D01*
X54474394Y-110874111D01*
X54445757Y-110852959D01*
X54445754Y-110852958D01*
X54438184Y-110847366D01*
X54310369Y-110802481D01*
X54302723Y-110801758D01*
X54302722Y-110801758D01*
X54296752Y-110801194D01*
X54278834Y-110799500D01*
X53271166Y-110799500D01*
X53253248Y-110801194D01*
X53247278Y-110801758D01*
X53247277Y-110801758D01*
X53239631Y-110802481D01*
X53111816Y-110847366D01*
X53104246Y-110852958D01*
X53104243Y-110852959D01*
X53075606Y-110874111D01*
X53002850Y-110927850D01*
X52997258Y-110935421D01*
X52927959Y-111029243D01*
X52927958Y-111029246D01*
X52922366Y-111036816D01*
X52877481Y-111164631D01*
X52874500Y-111196166D01*
X52874500Y-111828834D01*
X52877481Y-111860369D01*
X52922366Y-111988184D01*
X52927958Y-111995754D01*
X52927959Y-111995757D01*
X52969309Y-112051739D01*
X53002850Y-112097150D01*
X53010421Y-112102742D01*
X53104243Y-112172041D01*
X53104246Y-112172042D01*
X53111816Y-112177634D01*
X53239631Y-112222519D01*
X53247277Y-112223242D01*
X53247278Y-112223242D01*
X53253248Y-112223806D01*
X53271166Y-112225500D01*
X54278834Y-112225500D01*
X54296752Y-112223806D01*
X54302722Y-112223242D01*
X54302723Y-112223242D01*
X54310369Y-112222519D01*
X54438184Y-112177634D01*
X54445754Y-112172042D01*
X54445757Y-112172041D01*
X54539579Y-112102742D01*
X54547150Y-112097150D01*
X54580691Y-112051739D01*
X54622041Y-111995757D01*
X54622042Y-111995754D01*
X54627634Y-111988184D01*
X54634810Y-111967751D01*
X54650787Y-111922253D01*
X54692230Y-111864607D01*
X54758259Y-111838518D01*
X54769670Y-111838000D01*
X54837984Y-111838000D01*
X54906105Y-111858002D01*
X54927079Y-111874905D01*
X56037595Y-112985422D01*
X56071621Y-113047734D01*
X56074500Y-113074517D01*
X56074500Y-113778834D01*
X56077481Y-113810369D01*
X56122366Y-113938184D01*
X56127958Y-113945754D01*
X56127959Y-113945757D01*
X56156871Y-113984900D01*
X56202850Y-114047150D01*
X56210421Y-114052742D01*
X56304243Y-114122041D01*
X56304246Y-114122042D01*
X56311816Y-114127634D01*
X56439631Y-114172519D01*
X56447277Y-114173242D01*
X56447278Y-114173242D01*
X56453248Y-114173806D01*
X56471166Y-114175500D01*
X56815384Y-114175500D01*
X56883505Y-114195502D01*
X56904479Y-114212405D01*
X57669289Y-114977215D01*
X57676715Y-114985318D01*
X57700945Y-115014194D01*
X57710494Y-115019707D01*
X57733585Y-115033039D01*
X57742856Y-115038945D01*
X57773716Y-115060554D01*
X57784366Y-115063408D01*
X57787534Y-115064885D01*
X57790810Y-115066077D01*
X57800355Y-115071588D01*
X57834099Y-115077538D01*
X57837458Y-115078130D01*
X57848185Y-115080508D01*
X57884593Y-115090264D01*
X57895578Y-115089303D01*
X57895580Y-115089303D01*
X57922128Y-115086980D01*
X57933110Y-115086500D01*
X62691790Y-115086500D01*
X62702772Y-115086980D01*
X62729320Y-115089303D01*
X62729322Y-115089303D01*
X62740307Y-115090264D01*
X62776715Y-115080508D01*
X62787442Y-115078130D01*
X62790801Y-115077538D01*
X62824545Y-115071588D01*
X62834090Y-115066077D01*
X62837366Y-115064885D01*
X62840534Y-115063408D01*
X62851184Y-115060554D01*
X62882044Y-115038945D01*
X62891315Y-115033039D01*
X62914406Y-115019707D01*
X62923955Y-115014194D01*
X62948185Y-114985317D01*
X62955611Y-114977215D01*
X63673408Y-114259418D01*
X63735720Y-114225392D01*
X63788709Y-114225439D01*
X63794631Y-114227519D01*
X63826166Y-114230500D01*
X64458834Y-114230500D01*
X64476752Y-114228806D01*
X64482722Y-114228242D01*
X64482723Y-114228242D01*
X64490369Y-114227519D01*
X64618184Y-114182634D01*
X64625754Y-114177042D01*
X64625757Y-114177041D01*
X64719579Y-114107742D01*
X64727150Y-114102150D01*
X64752708Y-114067548D01*
X64802041Y-114000757D01*
X64802042Y-114000754D01*
X64807634Y-113993184D01*
X64852519Y-113865369D01*
X64855500Y-113833834D01*
X64855500Y-112826166D01*
X64852519Y-112794631D01*
X64807634Y-112666816D01*
X64802042Y-112659246D01*
X64802041Y-112659243D01*
X64727150Y-112557850D01*
X64729794Y-112555897D01*
X64703678Y-112508071D01*
X64708743Y-112437256D01*
X64726837Y-112404584D01*
X64787906Y-112324997D01*
X64787908Y-112324994D01*
X64792936Y-112318441D01*
X64853444Y-112172362D01*
X64874082Y-112015600D01*
X64853444Y-111858838D01*
X64792936Y-111712759D01*
X64696682Y-111587318D01*
X64571241Y-111491064D01*
X64425162Y-111430556D01*
X64268400Y-111409918D01*
X64111638Y-111430556D01*
X63965559Y-111491064D01*
X63840118Y-111587318D01*
X63743864Y-111712759D01*
X63683356Y-111858838D01*
X63662718Y-112015600D01*
X63683356Y-112172362D01*
X63686516Y-112179991D01*
X63740657Y-112310699D01*
X63748246Y-112381289D01*
X63716467Y-112444776D01*
X63683208Y-112470271D01*
X63675701Y-112474246D01*
X63666816Y-112477366D01*
X63557850Y-112557850D01*
X63552258Y-112565421D01*
X63482959Y-112659243D01*
X63482958Y-112659246D01*
X63477366Y-112666816D01*
X63432481Y-112794631D01*
X63429500Y-112826166D01*
X63429500Y-113530484D01*
X63409498Y-113598605D01*
X63392595Y-113619579D01*
X63245595Y-113766579D01*
X63183283Y-113800605D01*
X63112468Y-113795540D01*
X63055632Y-113752993D01*
X63030821Y-113686473D01*
X63030500Y-113677484D01*
X63030500Y-112826166D01*
X63027519Y-112794631D01*
X62982634Y-112666816D01*
X62977042Y-112659246D01*
X62977041Y-112659243D01*
X62907742Y-112565421D01*
X62902150Y-112557850D01*
X62885206Y-112545335D01*
X62800757Y-112482959D01*
X62800754Y-112482958D01*
X62793184Y-112477366D01*
X62665369Y-112432481D01*
X62657723Y-112431758D01*
X62657722Y-112431758D01*
X62651752Y-112431194D01*
X62633834Y-112429500D01*
X62001166Y-112429500D01*
X61983248Y-112431194D01*
X61977278Y-112431758D01*
X61977277Y-112431758D01*
X61969631Y-112432481D01*
X61841816Y-112477366D01*
X61834246Y-112482958D01*
X61834243Y-112482959D01*
X61749794Y-112545335D01*
X61732850Y-112557850D01*
X61727258Y-112565421D01*
X61657959Y-112659243D01*
X61657958Y-112659246D01*
X61652366Y-112666816D01*
X61607481Y-112794631D01*
X61604500Y-112826166D01*
X61604500Y-113530484D01*
X61584498Y-113598605D01*
X61567595Y-113619579D01*
X61239179Y-113947995D01*
X61176867Y-113982021D01*
X61150084Y-113984900D01*
X59751101Y-113984900D01*
X59682980Y-113964898D01*
X59636487Y-113911242D01*
X59625757Y-113846058D01*
X59632672Y-113778562D01*
X59633000Y-113772146D01*
X59633000Y-113547115D01*
X59628525Y-113531876D01*
X59627135Y-113530671D01*
X59619452Y-113529000D01*
X58484500Y-113529000D01*
X58416379Y-113508998D01*
X58369886Y-113455342D01*
X58358500Y-113403000D01*
X58358500Y-113002885D01*
X58866500Y-113002885D01*
X58870975Y-113018124D01*
X58872365Y-113019329D01*
X58880048Y-113021000D01*
X59614884Y-113021000D01*
X59630123Y-113016525D01*
X59631328Y-113015135D01*
X59632999Y-113007452D01*
X59632999Y-112777905D01*
X59632662Y-112771386D01*
X59622743Y-112675794D01*
X59619851Y-112662400D01*
X59568412Y-112508216D01*
X59562239Y-112495038D01*
X59476937Y-112357193D01*
X59467901Y-112345792D01*
X59353174Y-112231264D01*
X59343445Y-112223581D01*
X59302381Y-112165665D01*
X59299148Y-112094742D01*
X59334771Y-112033330D01*
X59397941Y-112000926D01*
X59408530Y-111999370D01*
X59424207Y-111997743D01*
X59437600Y-111994851D01*
X59591784Y-111943412D01*
X59604962Y-111937239D01*
X59742807Y-111851937D01*
X59754208Y-111842901D01*
X59868739Y-111728171D01*
X59877751Y-111716760D01*
X59962816Y-111578757D01*
X59968963Y-111565576D01*
X60020138Y-111411290D01*
X60023005Y-111397914D01*
X60032672Y-111303562D01*
X60033000Y-111297146D01*
X60033000Y-111109615D01*
X60028525Y-111094376D01*
X60027135Y-111093171D01*
X60019452Y-111091500D01*
X58897115Y-111091500D01*
X58881876Y-111095975D01*
X58880671Y-111097365D01*
X58879000Y-111105048D01*
X58879000Y-112007999D01*
X58875074Y-112007999D01*
X58875071Y-112047519D01*
X58872767Y-112051739D01*
X58866500Y-112080548D01*
X58866500Y-113002885D01*
X58358500Y-113002885D01*
X58358500Y-112067001D01*
X58362426Y-112067001D01*
X58362429Y-112027481D01*
X58364733Y-112023261D01*
X58371000Y-111994452D01*
X58371000Y-111109615D01*
X58366525Y-111094376D01*
X58365135Y-111093171D01*
X58357452Y-111091500D01*
X57235116Y-111091500D01*
X57219877Y-111095975D01*
X57218672Y-111097365D01*
X57217001Y-111105048D01*
X57217001Y-111299985D01*
X57196999Y-111368106D01*
X57143343Y-111414599D01*
X57073069Y-111424703D01*
X57008489Y-111395209D01*
X57001906Y-111389080D01*
X56178211Y-110565385D01*
X57217000Y-110565385D01*
X57221475Y-110580624D01*
X57222865Y-110581829D01*
X57230548Y-110583500D01*
X58352885Y-110583500D01*
X58368124Y-110579025D01*
X58369329Y-110577635D01*
X58371000Y-110569952D01*
X58371000Y-110565385D01*
X58879000Y-110565385D01*
X58883475Y-110580624D01*
X58884865Y-110581829D01*
X58892548Y-110583500D01*
X60014884Y-110583500D01*
X60030123Y-110579025D01*
X60031328Y-110577635D01*
X60032999Y-110569952D01*
X60032999Y-110377905D01*
X60032662Y-110371386D01*
X60022743Y-110275794D01*
X60019851Y-110262400D01*
X59968412Y-110108216D01*
X59962239Y-110095038D01*
X59876937Y-109957193D01*
X59867901Y-109945792D01*
X59753171Y-109831261D01*
X59741760Y-109822249D01*
X59603757Y-109737184D01*
X59590576Y-109731037D01*
X59436290Y-109679862D01*
X59422914Y-109676995D01*
X59328562Y-109667328D01*
X59322145Y-109667000D01*
X58897115Y-109667000D01*
X58881876Y-109671475D01*
X58880671Y-109672865D01*
X58879000Y-109680548D01*
X58879000Y-110565385D01*
X58371000Y-110565385D01*
X58371000Y-109685116D01*
X58366525Y-109669877D01*
X58365135Y-109668672D01*
X58357452Y-109667001D01*
X57927905Y-109667001D01*
X57921386Y-109667338D01*
X57825794Y-109677257D01*
X57812400Y-109680149D01*
X57658216Y-109731588D01*
X57645038Y-109737761D01*
X57507193Y-109823063D01*
X57495792Y-109832099D01*
X57381261Y-109946829D01*
X57372249Y-109958240D01*
X57287184Y-110096243D01*
X57281037Y-110109424D01*
X57229862Y-110263710D01*
X57226995Y-110277086D01*
X57217328Y-110371438D01*
X57217000Y-110377855D01*
X57217000Y-110565385D01*
X56178211Y-110565385D01*
X55084111Y-109471285D01*
X55076684Y-109463181D01*
X55059541Y-109442751D01*
X55059542Y-109442751D01*
X55052455Y-109434306D01*
X55034705Y-109424058D01*
X55019815Y-109415461D01*
X55010544Y-109409555D01*
X54988715Y-109394270D01*
X54979684Y-109387946D01*
X54969034Y-109385092D01*
X54965866Y-109383615D01*
X54962590Y-109382423D01*
X54953045Y-109376912D01*
X54919301Y-109370962D01*
X54915942Y-109370370D01*
X54905215Y-109367992D01*
X54868807Y-109358236D01*
X54857822Y-109359197D01*
X54857820Y-109359197D01*
X54831272Y-109361520D01*
X54820290Y-109362000D01*
X54769670Y-109362000D01*
X54701549Y-109341998D01*
X54655056Y-109288342D01*
X54650787Y-109277747D01*
X54630754Y-109220700D01*
X54630753Y-109220699D01*
X54627634Y-109211816D01*
X54622042Y-109204246D01*
X54622041Y-109204243D01*
X54559412Y-109119452D01*
X54547150Y-109102850D01*
X54504136Y-109071079D01*
X54445757Y-109027959D01*
X54445754Y-109027958D01*
X54438184Y-109022366D01*
X54310369Y-108977481D01*
X54302723Y-108976758D01*
X54302722Y-108976758D01*
X54296752Y-108976194D01*
X54278834Y-108974500D01*
X53631217Y-108974500D01*
X53563096Y-108954498D01*
X53542122Y-108937595D01*
X51862405Y-107257878D01*
X51828379Y-107195566D01*
X51825500Y-107168783D01*
X51825499Y-106748437D01*
X51825499Y-106743482D01*
X51813568Y-106668145D01*
X51812198Y-106659494D01*
X51812197Y-106659492D01*
X51810646Y-106649696D01*
X51802650Y-106634002D01*
X51781981Y-106593438D01*
X51753050Y-106536658D01*
X51663342Y-106446950D01*
X51663555Y-106446737D01*
X51624210Y-106395711D01*
X51618136Y-106324975D01*
X51651269Y-106262184D01*
X51659624Y-106254945D01*
X51663342Y-106253050D01*
X51753050Y-106163342D01*
X51755713Y-106166005D01*
X51797131Y-106134078D01*
X51842826Y-106125500D01*
X53519416Y-106125500D01*
X53587537Y-106145502D01*
X53608512Y-106162404D01*
X53755512Y-106309404D01*
X53789537Y-106371716D01*
X53784473Y-106442532D01*
X53741926Y-106499368D01*
X53675406Y-106524179D01*
X53666417Y-106524500D01*
X53554282Y-106524500D01*
X53549732Y-106525170D01*
X53549729Y-106525170D01*
X53495074Y-106533216D01*
X53495073Y-106533216D01*
X53485388Y-106534642D01*
X53441811Y-106556037D01*
X53389993Y-106581478D01*
X53389991Y-106581479D01*
X53380645Y-106586068D01*
X53347265Y-106619506D01*
X53325951Y-106640858D01*
X53298207Y-106668650D01*
X53246964Y-106773482D01*
X53237000Y-106841782D01*
X53237000Y-107933218D01*
X53237670Y-107937768D01*
X53237670Y-107937771D01*
X53245716Y-107992426D01*
X53247142Y-108002112D01*
X53260733Y-108029793D01*
X53286672Y-108082625D01*
X53298568Y-108106855D01*
X53316890Y-108125145D01*
X53367705Y-108175871D01*
X53381150Y-108189293D01*
X53485982Y-108240536D01*
X53516473Y-108244984D01*
X53549756Y-108249840D01*
X53549760Y-108249840D01*
X53554282Y-108250500D01*
X53920718Y-108250500D01*
X53925268Y-108249830D01*
X53925271Y-108249830D01*
X53979926Y-108241784D01*
X53979927Y-108241784D01*
X53989612Y-108240358D01*
X54050693Y-108210369D01*
X54085007Y-108193522D01*
X54085009Y-108193521D01*
X54094355Y-108188932D01*
X54162863Y-108120304D01*
X54169435Y-108113721D01*
X54169435Y-108113720D01*
X54176793Y-108106350D01*
X54228036Y-108001518D01*
X54238000Y-107933218D01*
X54238000Y-106841782D01*
X54227858Y-106772888D01*
X54227594Y-106772350D01*
X54226561Y-106706400D01*
X54264004Y-106646080D01*
X54328115Y-106615579D01*
X54347998Y-106614000D01*
X55027011Y-106614000D01*
X55095132Y-106634002D01*
X55141625Y-106687658D01*
X55151729Y-106757932D01*
X55149311Y-106768681D01*
X55146964Y-106773482D01*
X55137000Y-106841782D01*
X55137000Y-107933218D01*
X55137670Y-107937768D01*
X55137670Y-107937771D01*
X55145716Y-107992426D01*
X55147142Y-108002112D01*
X55160733Y-108029793D01*
X55186672Y-108082625D01*
X55198568Y-108106855D01*
X55216890Y-108125145D01*
X55267705Y-108175871D01*
X55281150Y-108189293D01*
X55385982Y-108240536D01*
X55416473Y-108244984D01*
X55449756Y-108249840D01*
X55449760Y-108249840D01*
X55454282Y-108250500D01*
X55820718Y-108250500D01*
X55825268Y-108249830D01*
X55825271Y-108249830D01*
X55879926Y-108241784D01*
X55879927Y-108241784D01*
X55889612Y-108240358D01*
X55950693Y-108210369D01*
X55985007Y-108193522D01*
X55985009Y-108193521D01*
X55994355Y-108188932D01*
X56062863Y-108120304D01*
X56069435Y-108113721D01*
X56069435Y-108113720D01*
X56076793Y-108106350D01*
X56128036Y-108001518D01*
X56138000Y-107933218D01*
X56138000Y-107399516D01*
X56158002Y-107331395D01*
X56174905Y-107310421D01*
X56250221Y-107235105D01*
X56312533Y-107201079D01*
X56339316Y-107198200D01*
X57398500Y-107198200D01*
X57466621Y-107218202D01*
X57513114Y-107271858D01*
X57524500Y-107324200D01*
X57524500Y-108178834D01*
X57527481Y-108210369D01*
X57572366Y-108338184D01*
X57577958Y-108345754D01*
X57577959Y-108345757D01*
X57618611Y-108400794D01*
X57652850Y-108447150D01*
X57660421Y-108452742D01*
X57754243Y-108522041D01*
X57754246Y-108522042D01*
X57761816Y-108527634D01*
X57889631Y-108572519D01*
X57897277Y-108573242D01*
X57897278Y-108573242D01*
X57903248Y-108573806D01*
X57921166Y-108575500D01*
X59328834Y-108575500D01*
X59346752Y-108573806D01*
X59352722Y-108573242D01*
X59352723Y-108573242D01*
X59360369Y-108572519D01*
X59488184Y-108527634D01*
X59495754Y-108522042D01*
X59495757Y-108522041D01*
X59589579Y-108452742D01*
X59597150Y-108447150D01*
X59631389Y-108400794D01*
X59672041Y-108345757D01*
X59672042Y-108345754D01*
X59677634Y-108338184D01*
X59722519Y-108210369D01*
X59725500Y-108178834D01*
X59725500Y-107246166D01*
X59722519Y-107214631D01*
X59677634Y-107086816D01*
X59672042Y-107079246D01*
X59672041Y-107079243D01*
X59602742Y-106985421D01*
X59597150Y-106977850D01*
X59580206Y-106965335D01*
X59495757Y-106902959D01*
X59495754Y-106902958D01*
X59488184Y-106897366D01*
X59360369Y-106852481D01*
X59352723Y-106851758D01*
X59352722Y-106851758D01*
X59346752Y-106851194D01*
X59328834Y-106849500D01*
X58274516Y-106849500D01*
X58206395Y-106829498D01*
X58185421Y-106812595D01*
X58029311Y-106656485D01*
X58021884Y-106648381D01*
X58015571Y-106640858D01*
X57997655Y-106619506D01*
X57988106Y-106613993D01*
X57965015Y-106600661D01*
X57955744Y-106594755D01*
X57953863Y-106593438D01*
X57924884Y-106573146D01*
X57914234Y-106570292D01*
X57911066Y-106568815D01*
X57907790Y-106567623D01*
X57898245Y-106562112D01*
X57863790Y-106556037D01*
X57861142Y-106555570D01*
X57850415Y-106553192D01*
X57814007Y-106543436D01*
X57803022Y-106544397D01*
X57803020Y-106544397D01*
X57776472Y-106546720D01*
X57765490Y-106547200D01*
X57276200Y-106547200D01*
X57208079Y-106527198D01*
X57161586Y-106473542D01*
X57150200Y-106421200D01*
X57150200Y-104326500D01*
X57170202Y-104258379D01*
X57223858Y-104211886D01*
X57276200Y-104200500D01*
X59669748Y-104200500D01*
X59675816Y-104199293D01*
X59716061Y-104191288D01*
X59716062Y-104191288D01*
X59728231Y-104188867D01*
X59794552Y-104144552D01*
X59838867Y-104078231D01*
X59843556Y-104054661D01*
X59849293Y-104025816D01*
X59850500Y-104019748D01*
X59850500Y-102980252D01*
X59838867Y-102921769D01*
X59794552Y-102855448D01*
X59728231Y-102811133D01*
X59716062Y-102808712D01*
X59716061Y-102808712D01*
X59675816Y-102800707D01*
X59669748Y-102799500D01*
X57276200Y-102799500D01*
X57208079Y-102779498D01*
X57161586Y-102725842D01*
X57150200Y-102673500D01*
X57150200Y-102326500D01*
X57170202Y-102258379D01*
X57223858Y-102211886D01*
X57276200Y-102200500D01*
X59669748Y-102200500D01*
X59692507Y-102195973D01*
X59716061Y-102191288D01*
X59716062Y-102191288D01*
X59728231Y-102188867D01*
X59794552Y-102144552D01*
X59838867Y-102078231D01*
X59842798Y-102058472D01*
X59849293Y-102025816D01*
X59850500Y-102019748D01*
X59850500Y-100980252D01*
X59849293Y-100974184D01*
X59848686Y-100968021D01*
X59850409Y-100967851D01*
X59855994Y-100905376D01*
X59899545Y-100849306D01*
X59973249Y-100825500D01*
X60152514Y-100825500D01*
X60220635Y-100845502D01*
X60252477Y-100874796D01*
X60293518Y-100928282D01*
X60300064Y-100933305D01*
X60320719Y-100949154D01*
X60418959Y-101024536D01*
X60565038Y-101085044D01*
X60721800Y-101105682D01*
X60729988Y-101104604D01*
X60870374Y-101086122D01*
X60878562Y-101085044D01*
X61024641Y-101024536D01*
X61122881Y-100949154D01*
X61143536Y-100933305D01*
X61150082Y-100928282D01*
X61164641Y-100909309D01*
X61200339Y-100862785D01*
X61246336Y-100802841D01*
X61301691Y-100669202D01*
X61346239Y-100613921D01*
X61413603Y-100591500D01*
X61482394Y-100609058D01*
X61530772Y-100661020D01*
X61544100Y-100717420D01*
X61544100Y-103773500D01*
X61524098Y-103841621D01*
X61470442Y-103888114D01*
X61418100Y-103899500D01*
X60480252Y-103899500D01*
X60474184Y-103900707D01*
X60433939Y-103908712D01*
X60433938Y-103908712D01*
X60421769Y-103911133D01*
X60355448Y-103955448D01*
X60311133Y-104021769D01*
X60299500Y-104080252D01*
X60299500Y-105919748D01*
X60311133Y-105978231D01*
X60355448Y-106044552D01*
X60421769Y-106088867D01*
X60433938Y-106091288D01*
X60433939Y-106091288D01*
X60474184Y-106099293D01*
X60480252Y-106100500D01*
X61418100Y-106100500D01*
X61486221Y-106120502D01*
X61532714Y-106174158D01*
X61544100Y-106226500D01*
X61544100Y-107780884D01*
X61524098Y-107849005D01*
X61507195Y-107869979D01*
X61306592Y-108070582D01*
X61244280Y-108104608D01*
X61191291Y-108104561D01*
X61185369Y-108102481D01*
X61153834Y-108099500D01*
X60521166Y-108099500D01*
X60503248Y-108101194D01*
X60497278Y-108101758D01*
X60497277Y-108101758D01*
X60489631Y-108102481D01*
X60361816Y-108147366D01*
X60354246Y-108152958D01*
X60354243Y-108152959D01*
X60303978Y-108190086D01*
X60252850Y-108227850D01*
X60247258Y-108235421D01*
X60177959Y-108329243D01*
X60177958Y-108329246D01*
X60172366Y-108336816D01*
X60127481Y-108464631D01*
X60124500Y-108496166D01*
X60124500Y-109503834D01*
X60124778Y-109506773D01*
X60124778Y-109506777D01*
X60126454Y-109524501D01*
X60127481Y-109535369D01*
X60172366Y-109663184D01*
X60177958Y-109670754D01*
X60177959Y-109670757D01*
X60227450Y-109737761D01*
X60252850Y-109772150D01*
X60260421Y-109777742D01*
X60354243Y-109847041D01*
X60354246Y-109847042D01*
X60361816Y-109852634D01*
X60489631Y-109897519D01*
X60497277Y-109898242D01*
X60497278Y-109898242D01*
X60501997Y-109898688D01*
X60521166Y-109900500D01*
X61153834Y-109900500D01*
X61173003Y-109898688D01*
X61177722Y-109898242D01*
X61177723Y-109898242D01*
X61185369Y-109897519D01*
X61313184Y-109852634D01*
X61320754Y-109847042D01*
X61320757Y-109847041D01*
X61414579Y-109777742D01*
X61422150Y-109772150D01*
X61447550Y-109737761D01*
X61475209Y-109700315D01*
X61531771Y-109657404D01*
X61602552Y-109651885D01*
X61665082Y-109685510D01*
X61696084Y-109735300D01*
X61706587Y-109766782D01*
X61712761Y-109779962D01*
X61798063Y-109917807D01*
X61807099Y-109929208D01*
X61921829Y-110043739D01*
X61933240Y-110052751D01*
X62071243Y-110137816D01*
X62084424Y-110143963D01*
X62238710Y-110195138D01*
X62252086Y-110198005D01*
X62346438Y-110207672D01*
X62352854Y-110208000D01*
X62390385Y-110208000D01*
X62405624Y-110203525D01*
X62406829Y-110202135D01*
X62408500Y-110194452D01*
X62408500Y-108872000D01*
X62428502Y-108803879D01*
X62482158Y-108757386D01*
X62534500Y-108746000D01*
X62790500Y-108746000D01*
X62858621Y-108766002D01*
X62905114Y-108819658D01*
X62916500Y-108872000D01*
X62916500Y-110189884D01*
X62920975Y-110205123D01*
X62922365Y-110206328D01*
X62930048Y-110207999D01*
X62972095Y-110207999D01*
X62978614Y-110207662D01*
X63074206Y-110197743D01*
X63087600Y-110194851D01*
X63241784Y-110143412D01*
X63254962Y-110137239D01*
X63392807Y-110051937D01*
X63404208Y-110042901D01*
X63518739Y-109928171D01*
X63527751Y-109916760D01*
X63612816Y-109778757D01*
X63618964Y-109765574D01*
X63630447Y-109730953D01*
X63670877Y-109672593D01*
X63736441Y-109645356D01*
X63806323Y-109657889D01*
X63858335Y-109706214D01*
X63869564Y-109730744D01*
X63881588Y-109766784D01*
X63887761Y-109779962D01*
X63973063Y-109917807D01*
X63982099Y-109929208D01*
X64096829Y-110043739D01*
X64108240Y-110052751D01*
X64246243Y-110137816D01*
X64259424Y-110143963D01*
X64413710Y-110195138D01*
X64427086Y-110198005D01*
X64521438Y-110207672D01*
X64527854Y-110208000D01*
X64565385Y-110208000D01*
X64580624Y-110203525D01*
X64581829Y-110202135D01*
X64583500Y-110194452D01*
X64583500Y-108872000D01*
X64603502Y-108803879D01*
X64657158Y-108757386D01*
X64709500Y-108746000D01*
X64965500Y-108746000D01*
X65033621Y-108766002D01*
X65080114Y-108819658D01*
X65091500Y-108872000D01*
X65091500Y-110189884D01*
X65095975Y-110205123D01*
X65097365Y-110206328D01*
X65105048Y-110207999D01*
X65147095Y-110207999D01*
X65153614Y-110207662D01*
X65249206Y-110197743D01*
X65262608Y-110194849D01*
X65266929Y-110193408D01*
X65337879Y-110190826D01*
X65398961Y-110227012D01*
X65430783Y-110290478D01*
X65432800Y-110312933D01*
X65432800Y-111531090D01*
X65432320Y-111542072D01*
X65430264Y-111565576D01*
X65429036Y-111579607D01*
X65438791Y-111616010D01*
X65441170Y-111626742D01*
X65447712Y-111663845D01*
X65453223Y-111673390D01*
X65454415Y-111676666D01*
X65455892Y-111679834D01*
X65458746Y-111690484D01*
X65474344Y-111712759D01*
X65480355Y-111721344D01*
X65486261Y-111730615D01*
X65499593Y-111753706D01*
X65505106Y-111763255D01*
X65533982Y-111787485D01*
X65542085Y-111794911D01*
X66817595Y-113070422D01*
X66851621Y-113132734D01*
X66854500Y-113159516D01*
X66854500Y-113863834D01*
X66857481Y-113895369D01*
X66902366Y-114023184D01*
X66907958Y-114030754D01*
X66907959Y-114030757D01*
X66964822Y-114107742D01*
X66982850Y-114132150D01*
X66990421Y-114137742D01*
X67084243Y-114207041D01*
X67084246Y-114207042D01*
X67091816Y-114212634D01*
X67219631Y-114257519D01*
X67227277Y-114258242D01*
X67227278Y-114258242D01*
X67233248Y-114258806D01*
X67251166Y-114260500D01*
X67883834Y-114260500D01*
X67901752Y-114258806D01*
X67907722Y-114258242D01*
X67907723Y-114258242D01*
X67915369Y-114257519D01*
X68043184Y-114212634D01*
X68050754Y-114207042D01*
X68050757Y-114207041D01*
X68144579Y-114137742D01*
X68152150Y-114132150D01*
X68170178Y-114107742D01*
X68227041Y-114030757D01*
X68227042Y-114030754D01*
X68232634Y-114023184D01*
X68277519Y-113895369D01*
X68280500Y-113863834D01*
X68280500Y-113012516D01*
X68300502Y-112944395D01*
X68354158Y-112897902D01*
X68424432Y-112887798D01*
X68489012Y-112917292D01*
X68495595Y-112923421D01*
X68642595Y-113070421D01*
X68676621Y-113132733D01*
X68679500Y-113159516D01*
X68679500Y-113863834D01*
X68682481Y-113895369D01*
X68727366Y-114023184D01*
X68732958Y-114030754D01*
X68732959Y-114030757D01*
X68789822Y-114107742D01*
X68807850Y-114132150D01*
X68815421Y-114137742D01*
X68909243Y-114207041D01*
X68909246Y-114207042D01*
X68916816Y-114212634D01*
X69044631Y-114257519D01*
X69052277Y-114258242D01*
X69052278Y-114258242D01*
X69058248Y-114258806D01*
X69076166Y-114260500D01*
X69708834Y-114260500D01*
X69726752Y-114258806D01*
X69732722Y-114258242D01*
X69732723Y-114258242D01*
X69740369Y-114257519D01*
X69868184Y-114212634D01*
X69875754Y-114207042D01*
X69875757Y-114207041D01*
X69969579Y-114137742D01*
X69977150Y-114132150D01*
X69995178Y-114107742D01*
X70052041Y-114030757D01*
X70052042Y-114030754D01*
X70057634Y-114023184D01*
X70102519Y-113895369D01*
X70105500Y-113863834D01*
X70105500Y-112856166D01*
X70102519Y-112824631D01*
X70057634Y-112696816D01*
X70052042Y-112689246D01*
X70052041Y-112689243D01*
X69982742Y-112595421D01*
X69977150Y-112587850D01*
X69941765Y-112561714D01*
X69875757Y-112512959D01*
X69875754Y-112512958D01*
X69868184Y-112507366D01*
X69740369Y-112462481D01*
X69732723Y-112461758D01*
X69732722Y-112461758D01*
X69726752Y-112461194D01*
X69708834Y-112459500D01*
X69076166Y-112459500D01*
X69044631Y-112462481D01*
X69038842Y-112464514D01*
X68968679Y-112459620D01*
X68923408Y-112430582D01*
X67024905Y-110532079D01*
X66990879Y-110469767D01*
X66988000Y-110442984D01*
X66988000Y-109994670D01*
X67008002Y-109926549D01*
X67061658Y-109880056D01*
X67072253Y-109875787D01*
X67129300Y-109855754D01*
X67129301Y-109855753D01*
X67138184Y-109852634D01*
X67145754Y-109847042D01*
X67145757Y-109847041D01*
X67239579Y-109777742D01*
X67247150Y-109772150D01*
X67272550Y-109737761D01*
X67322041Y-109670757D01*
X67322042Y-109670754D01*
X67327634Y-109663184D01*
X67372519Y-109535369D01*
X67373546Y-109524501D01*
X67375222Y-109506777D01*
X67375222Y-109506773D01*
X67375500Y-109503834D01*
X67375500Y-108496166D01*
X67372519Y-108464631D01*
X67327634Y-108336816D01*
X67322042Y-108329246D01*
X67322041Y-108329243D01*
X67252742Y-108235421D01*
X67247150Y-108227850D01*
X67196022Y-108190086D01*
X67145757Y-108152959D01*
X67145754Y-108152958D01*
X67138184Y-108147366D01*
X67010369Y-108102481D01*
X67002723Y-108101758D01*
X67002722Y-108101758D01*
X66996752Y-108101194D01*
X66978834Y-108099500D01*
X66687616Y-108099500D01*
X66619495Y-108079498D01*
X66598521Y-108062595D01*
X65353734Y-106817808D01*
X65319708Y-106755496D01*
X65317907Y-106745161D01*
X65315322Y-106725525D01*
X65315322Y-106725524D01*
X65314244Y-106717338D01*
X65253736Y-106571259D01*
X65157482Y-106445818D01*
X65032041Y-106349564D01*
X65024412Y-106346404D01*
X65024409Y-106346402D01*
X65015975Y-106342909D01*
X64960694Y-106298362D01*
X64938272Y-106230998D01*
X64955830Y-106162207D01*
X65007791Y-106113828D01*
X65064192Y-106100500D01*
X65519748Y-106100500D01*
X65525816Y-106099293D01*
X65566061Y-106091288D01*
X65566062Y-106091288D01*
X65578231Y-106088867D01*
X65644552Y-106044552D01*
X65688867Y-105978231D01*
X65700500Y-105919748D01*
X66299500Y-105919748D01*
X66311133Y-105978231D01*
X66355448Y-106044552D01*
X66421769Y-106088867D01*
X66433938Y-106091288D01*
X66433939Y-106091288D01*
X66474184Y-106099293D01*
X66480252Y-106100500D01*
X67519748Y-106100500D01*
X67525816Y-106099293D01*
X67566061Y-106091288D01*
X67566062Y-106091288D01*
X67578231Y-106088867D01*
X67644552Y-106044552D01*
X67688867Y-105978231D01*
X67700500Y-105919748D01*
X67700500Y-104080252D01*
X67688867Y-104021769D01*
X67644552Y-103955448D01*
X67578231Y-103911133D01*
X67566062Y-103908712D01*
X67566061Y-103908712D01*
X67525816Y-103900707D01*
X67519748Y-103899500D01*
X66480252Y-103899500D01*
X66474184Y-103900707D01*
X66433939Y-103908712D01*
X66433938Y-103908712D01*
X66421769Y-103911133D01*
X66355448Y-103955448D01*
X66311133Y-104021769D01*
X66299500Y-104080252D01*
X66299500Y-105919748D01*
X65700500Y-105919748D01*
X65700500Y-104080252D01*
X65688867Y-104021769D01*
X65644552Y-103955448D01*
X65578231Y-103911133D01*
X65566062Y-103908712D01*
X65566061Y-103908712D01*
X65525816Y-103900707D01*
X65519748Y-103899500D01*
X64480252Y-103899500D01*
X64474184Y-103900707D01*
X64433939Y-103908712D01*
X64433938Y-103908712D01*
X64421769Y-103911133D01*
X64355448Y-103955448D01*
X64311133Y-104021769D01*
X64299500Y-104080252D01*
X64299500Y-105919748D01*
X64311133Y-105978231D01*
X64355448Y-106044552D01*
X64421769Y-106088867D01*
X64433938Y-106091288D01*
X64433939Y-106091288D01*
X64442678Y-106093026D01*
X64505588Y-106125934D01*
X64540719Y-106187629D01*
X64536919Y-106258524D01*
X64495393Y-106316110D01*
X64466314Y-106333014D01*
X64426359Y-106349564D01*
X64300918Y-106445818D01*
X64204664Y-106571259D01*
X64144156Y-106717338D01*
X64123518Y-106874100D01*
X64144156Y-107030862D01*
X64204664Y-107176941D01*
X64300918Y-107302382D01*
X64426359Y-107398636D01*
X64433989Y-107401797D01*
X64441140Y-107405925D01*
X64439823Y-107408205D01*
X64484913Y-107444542D01*
X64507332Y-107511906D01*
X64489772Y-107580697D01*
X64437809Y-107629074D01*
X64381412Y-107642400D01*
X62321100Y-107642400D01*
X62252979Y-107622398D01*
X62206486Y-107568742D01*
X62195100Y-107516400D01*
X62195100Y-106173141D01*
X62215102Y-106105020D01*
X62268758Y-106058527D01*
X62339032Y-106048423D01*
X62391103Y-106068377D01*
X62411449Y-106081972D01*
X62411452Y-106081973D01*
X62421769Y-106088867D01*
X62433938Y-106091288D01*
X62433939Y-106091288D01*
X62474184Y-106099293D01*
X62480252Y-106100500D01*
X63519748Y-106100500D01*
X63525816Y-106099293D01*
X63566061Y-106091288D01*
X63566062Y-106091288D01*
X63578231Y-106088867D01*
X63644552Y-106044552D01*
X63688867Y-105978231D01*
X63700500Y-105919748D01*
X63700500Y-104080252D01*
X63688867Y-104021769D01*
X63644552Y-103955448D01*
X63578231Y-103911133D01*
X63566062Y-103908712D01*
X63566061Y-103908712D01*
X63525816Y-103900707D01*
X63519748Y-103899500D01*
X62480252Y-103899500D01*
X62474184Y-103900707D01*
X62433939Y-103908712D01*
X62433938Y-103908712D01*
X62421769Y-103911133D01*
X62411452Y-103918027D01*
X62411449Y-103918028D01*
X62391103Y-103931623D01*
X62323351Y-103952839D01*
X62254884Y-103934057D01*
X62207440Y-103881240D01*
X62195100Y-103826859D01*
X62195100Y-96481100D01*
X68501318Y-96481100D01*
X68521956Y-96637862D01*
X68582464Y-96783941D01*
X68678718Y-96909382D01*
X68804159Y-97005636D01*
X68950238Y-97066144D01*
X69107000Y-97086782D01*
X69115188Y-97085704D01*
X69255574Y-97067222D01*
X69263762Y-97066144D01*
X69409841Y-97005636D01*
X69535282Y-96909382D01*
X69576323Y-96855896D01*
X69633661Y-96814029D01*
X69676286Y-96806600D01*
X71023890Y-96806600D01*
X71034872Y-96807080D01*
X71061420Y-96809403D01*
X71061422Y-96809403D01*
X71072407Y-96810364D01*
X71108815Y-96800608D01*
X71119542Y-96798230D01*
X71122901Y-96797638D01*
X71156645Y-96791688D01*
X71166190Y-96786177D01*
X71169466Y-96784985D01*
X71172634Y-96783508D01*
X71183284Y-96780654D01*
X71214144Y-96759045D01*
X71223415Y-96753139D01*
X71246506Y-96739807D01*
X71256055Y-96734294D01*
X71280285Y-96705417D01*
X71287711Y-96697315D01*
X71955152Y-96029874D01*
X72017464Y-95995848D01*
X72088279Y-96000913D01*
X72145115Y-96043460D01*
X72159103Y-96068025D01*
X72161133Y-96078231D01*
X72168026Y-96088547D01*
X72168027Y-96088549D01*
X72173006Y-96096000D01*
X72205448Y-96144552D01*
X72271769Y-96188867D01*
X72283938Y-96191288D01*
X72283939Y-96191288D01*
X72324184Y-96199293D01*
X72330252Y-96200500D01*
X74869748Y-96200500D01*
X74875816Y-96199293D01*
X74916061Y-96191288D01*
X74916062Y-96191288D01*
X74928231Y-96188867D01*
X74994552Y-96144552D01*
X75034890Y-96084183D01*
X78664389Y-96084183D01*
X78665912Y-96092607D01*
X78678292Y-96096000D01*
X81318344Y-96096000D01*
X81331875Y-96092027D01*
X81333180Y-96082947D01*
X81291214Y-95915875D01*
X81287894Y-95906124D01*
X81202972Y-95710814D01*
X81198105Y-95701739D01*
X81082426Y-95522926D01*
X81076136Y-95514757D01*
X80932806Y-95357240D01*
X80925273Y-95350215D01*
X80758139Y-95218222D01*
X80749552Y-95212517D01*
X80563117Y-95109599D01*
X80553705Y-95105369D01*
X80362031Y-95037493D01*
X80304495Y-94995899D01*
X80278579Y-94929801D01*
X80292513Y-94860185D01*
X80341872Y-94809154D01*
X80370206Y-94797362D01*
X80375790Y-94795803D01*
X80375799Y-94795800D01*
X80381725Y-94794145D01*
X80387214Y-94791372D01*
X80387220Y-94791370D01*
X80560116Y-94704033D01*
X80565610Y-94701258D01*
X80727951Y-94574424D01*
X80862564Y-94418472D01*
X80883387Y-94381818D01*
X80944546Y-94274158D01*
X80964323Y-94239344D01*
X81029351Y-94043863D01*
X81055171Y-93839474D01*
X81055583Y-93810000D01*
X81035480Y-93604970D01*
X80975935Y-93407749D01*
X80879218Y-93225849D01*
X80791020Y-93117708D01*
X80752906Y-93070975D01*
X80752903Y-93070972D01*
X80749011Y-93066200D01*
X80731786Y-93051950D01*
X80595025Y-92938811D01*
X80595021Y-92938809D01*
X80590275Y-92934882D01*
X80409055Y-92836897D01*
X80212254Y-92775977D01*
X80206129Y-92775333D01*
X80206128Y-92775333D01*
X80013498Y-92755087D01*
X80013496Y-92755087D01*
X80007369Y-92754443D01*
X79920529Y-92762346D01*
X79808342Y-92772555D01*
X79808339Y-92772556D01*
X79802203Y-92773114D01*
X79604572Y-92831280D01*
X79422002Y-92926726D01*
X79417201Y-92930586D01*
X79417198Y-92930588D01*
X79281215Y-93039921D01*
X79261447Y-93055815D01*
X79129024Y-93213630D01*
X79126056Y-93219028D01*
X79126053Y-93219033D01*
X79051391Y-93354844D01*
X79029776Y-93394162D01*
X78967484Y-93590532D01*
X78966798Y-93596649D01*
X78966797Y-93596653D01*
X78950186Y-93744749D01*
X78944520Y-93795262D01*
X78947135Y-93826402D01*
X78957461Y-93949366D01*
X78961759Y-94000553D01*
X78963458Y-94006478D01*
X79013781Y-94181974D01*
X79018544Y-94198586D01*
X79021359Y-94204063D01*
X79021360Y-94204066D01*
X79106549Y-94369826D01*
X79112712Y-94381818D01*
X79240677Y-94543270D01*
X79245370Y-94547264D01*
X79245371Y-94547265D01*
X79315090Y-94606600D01*
X79397564Y-94676791D01*
X79577398Y-94777297D01*
X79642437Y-94798429D01*
X79701042Y-94838502D01*
X79728680Y-94903898D01*
X79716574Y-94973855D01*
X79668568Y-95026162D01*
X79642646Y-95038027D01*
X79476868Y-95092212D01*
X79467359Y-95096209D01*
X79278463Y-95194542D01*
X79269738Y-95200036D01*
X79099433Y-95327905D01*
X79091726Y-95334748D01*
X78944590Y-95488717D01*
X78938104Y-95496727D01*
X78818098Y-95672649D01*
X78813000Y-95681623D01*
X78723338Y-95874783D01*
X78719775Y-95884470D01*
X78664389Y-96084183D01*
X75034890Y-96084183D01*
X75038867Y-96078231D01*
X75050500Y-96019748D01*
X75050500Y-94980252D01*
X75044149Y-94948321D01*
X75041288Y-94933939D01*
X75041288Y-94933938D01*
X75038867Y-94921769D01*
X74994552Y-94855448D01*
X74928231Y-94811133D01*
X74916062Y-94808712D01*
X74916061Y-94808712D01*
X74875816Y-94800707D01*
X74869748Y-94799500D01*
X72330252Y-94799500D01*
X72324184Y-94800707D01*
X72283939Y-94808712D01*
X72283938Y-94808712D01*
X72271769Y-94811133D01*
X72205448Y-94855448D01*
X72161133Y-94921769D01*
X72158712Y-94933938D01*
X72158712Y-94933939D01*
X72155851Y-94948321D01*
X72149500Y-94980252D01*
X72149500Y-95046671D01*
X72129498Y-95114792D01*
X72075842Y-95161285D01*
X72012518Y-95172191D01*
X71995893Y-95170736D01*
X71959485Y-95180492D01*
X71948758Y-95182870D01*
X71945399Y-95183462D01*
X71911655Y-95189412D01*
X71902110Y-95194923D01*
X71898834Y-95196115D01*
X71895666Y-95197592D01*
X71885016Y-95200446D01*
X71859630Y-95218222D01*
X71854156Y-95222055D01*
X71844885Y-95227961D01*
X71821794Y-95241293D01*
X71812245Y-95246806D01*
X71805159Y-95255251D01*
X71788015Y-95275682D01*
X71780589Y-95283785D01*
X70945679Y-96118695D01*
X70883367Y-96152721D01*
X70856584Y-96155600D01*
X69676286Y-96155600D01*
X69608165Y-96135598D01*
X69576323Y-96106304D01*
X69540305Y-96059364D01*
X69535282Y-96052818D01*
X69409841Y-95956564D01*
X69263762Y-95896056D01*
X69249999Y-95894244D01*
X69115188Y-95876496D01*
X69107000Y-95875418D01*
X69098812Y-95876496D01*
X68964002Y-95894244D01*
X68950238Y-95896056D01*
X68804159Y-95956564D01*
X68678718Y-96052818D01*
X68582464Y-96178259D01*
X68521956Y-96324338D01*
X68501318Y-96481100D01*
X62195100Y-96481100D01*
X62195100Y-94019748D01*
X72149500Y-94019748D01*
X72161133Y-94078231D01*
X72205448Y-94144552D01*
X72271769Y-94188867D01*
X72283938Y-94191288D01*
X72283939Y-94191288D01*
X72320630Y-94198586D01*
X72330252Y-94200500D01*
X74869748Y-94200500D01*
X74879370Y-94198586D01*
X74916061Y-94191288D01*
X74916062Y-94191288D01*
X74928231Y-94188867D01*
X74994552Y-94144552D01*
X75038867Y-94078231D01*
X75050500Y-94019748D01*
X75050500Y-92980252D01*
X75042015Y-92937595D01*
X75041288Y-92933939D01*
X75041288Y-92933938D01*
X75038867Y-92921769D01*
X74994552Y-92855448D01*
X74928231Y-92811133D01*
X74916062Y-92808712D01*
X74916061Y-92808712D01*
X74875816Y-92800707D01*
X74869748Y-92799500D01*
X72330252Y-92799500D01*
X72324184Y-92800707D01*
X72283939Y-92808712D01*
X72283938Y-92808712D01*
X72271769Y-92811133D01*
X72205448Y-92855448D01*
X72161133Y-92921769D01*
X72158712Y-92933938D01*
X72158712Y-92933939D01*
X72157985Y-92937595D01*
X72149500Y-92980252D01*
X72149500Y-94019748D01*
X62195100Y-94019748D01*
X62195100Y-93414010D01*
X62195580Y-93403028D01*
X62197903Y-93376480D01*
X62197903Y-93376478D01*
X62198864Y-93365493D01*
X62189108Y-93329085D01*
X62186730Y-93318358D01*
X62183493Y-93300000D01*
X62180188Y-93281255D01*
X62174677Y-93271710D01*
X62173485Y-93268434D01*
X62172008Y-93265266D01*
X62169154Y-93254616D01*
X62147545Y-93223756D01*
X62141639Y-93214485D01*
X62128307Y-93191394D01*
X62122794Y-93181845D01*
X62093917Y-93157615D01*
X62085815Y-93150189D01*
X60955374Y-92019748D01*
X72149500Y-92019748D01*
X72150707Y-92025816D01*
X72156119Y-92053022D01*
X72161133Y-92078231D01*
X72205448Y-92144552D01*
X72271769Y-92188867D01*
X72283938Y-92191288D01*
X72283939Y-92191288D01*
X72324184Y-92199293D01*
X72330252Y-92200500D01*
X74869748Y-92200500D01*
X74875816Y-92199293D01*
X74916061Y-92191288D01*
X74916062Y-92191288D01*
X74928231Y-92188867D01*
X74994552Y-92144552D01*
X75038867Y-92078231D01*
X75043882Y-92053022D01*
X75049293Y-92025816D01*
X75050500Y-92019748D01*
X75050500Y-91951500D01*
X75070502Y-91883379D01*
X75124158Y-91836886D01*
X75176500Y-91825500D01*
X76034990Y-91825500D01*
X76045972Y-91825980D01*
X76072520Y-91828303D01*
X76072522Y-91828303D01*
X76083507Y-91829264D01*
X76119915Y-91819508D01*
X76130642Y-91817130D01*
X76134001Y-91816538D01*
X76167745Y-91810588D01*
X76177290Y-91805077D01*
X76180566Y-91803885D01*
X76183734Y-91802408D01*
X76194384Y-91799554D01*
X76225244Y-91777945D01*
X76234515Y-91772039D01*
X76257606Y-91758707D01*
X76267155Y-91753194D01*
X76291385Y-91724317D01*
X76298811Y-91716215D01*
X76759764Y-91255262D01*
X78944520Y-91255262D01*
X78945036Y-91261406D01*
X78960146Y-91441341D01*
X78961759Y-91460553D01*
X78963458Y-91466478D01*
X79005088Y-91611658D01*
X79018544Y-91658586D01*
X79021359Y-91664063D01*
X79021360Y-91664066D01*
X79078263Y-91774787D01*
X79112712Y-91841818D01*
X79240677Y-92003270D01*
X79245370Y-92007264D01*
X79245371Y-92007265D01*
X79319971Y-92070754D01*
X79397564Y-92136791D01*
X79402942Y-92139797D01*
X79402944Y-92139798D01*
X79434563Y-92157469D01*
X79577398Y-92237297D01*
X79653872Y-92262145D01*
X79767471Y-92299056D01*
X79767475Y-92299057D01*
X79773329Y-92300959D01*
X79977894Y-92325351D01*
X79984029Y-92324879D01*
X79984031Y-92324879D01*
X80040039Y-92320569D01*
X80183300Y-92309546D01*
X80189230Y-92307890D01*
X80189232Y-92307890D01*
X80375797Y-92255800D01*
X80375796Y-92255800D01*
X80381725Y-92254145D01*
X80387214Y-92251372D01*
X80387220Y-92251370D01*
X80524599Y-92181974D01*
X80565610Y-92161258D01*
X80590110Y-92142117D01*
X80687457Y-92066061D01*
X80727951Y-92034424D01*
X80735382Y-92025816D01*
X80858540Y-91883134D01*
X80858540Y-91883133D01*
X80862564Y-91878472D01*
X80883387Y-91841818D01*
X80940504Y-91741273D01*
X80964323Y-91699344D01*
X81029351Y-91503863D01*
X81055171Y-91299474D01*
X81055583Y-91270000D01*
X81035480Y-91064970D01*
X80975935Y-90867749D01*
X80879218Y-90685849D01*
X80805859Y-90595902D01*
X80752906Y-90530975D01*
X80752903Y-90530972D01*
X80749011Y-90526200D01*
X80742173Y-90520543D01*
X80595025Y-90398811D01*
X80595021Y-90398809D01*
X80590275Y-90394882D01*
X80409055Y-90296897D01*
X80212254Y-90235977D01*
X80206129Y-90235333D01*
X80206128Y-90235333D01*
X80013498Y-90215087D01*
X80013496Y-90215087D01*
X80007369Y-90214443D01*
X79920529Y-90222346D01*
X79808342Y-90232555D01*
X79808339Y-90232556D01*
X79802203Y-90233114D01*
X79604572Y-90291280D01*
X79422002Y-90386726D01*
X79417201Y-90390586D01*
X79417198Y-90390588D01*
X79266254Y-90511950D01*
X79261447Y-90515815D01*
X79129024Y-90673630D01*
X79126056Y-90679028D01*
X79126053Y-90679033D01*
X79059163Y-90800707D01*
X79029776Y-90854162D01*
X78967484Y-91050532D01*
X78966798Y-91056649D01*
X78966797Y-91056653D01*
X78946418Y-91238342D01*
X78944520Y-91255262D01*
X76759764Y-91255262D01*
X78854913Y-89160113D01*
X78917225Y-89126087D01*
X78988040Y-89131152D01*
X79044876Y-89173699D01*
X79056075Y-89191614D01*
X79104432Y-89285706D01*
X79112712Y-89301818D01*
X79240677Y-89463270D01*
X79397564Y-89596791D01*
X79577398Y-89697297D01*
X79647609Y-89720110D01*
X79767471Y-89759056D01*
X79767475Y-89759057D01*
X79773329Y-89760959D01*
X79977894Y-89785351D01*
X79984029Y-89784879D01*
X79984031Y-89784879D01*
X80040039Y-89780569D01*
X80183300Y-89769546D01*
X80189230Y-89767890D01*
X80189232Y-89767890D01*
X80323714Y-89730342D01*
X80381725Y-89714145D01*
X80387214Y-89711372D01*
X80387220Y-89711370D01*
X80560116Y-89624033D01*
X80565610Y-89621258D01*
X80727951Y-89494424D01*
X80862564Y-89338472D01*
X80883387Y-89301818D01*
X80956168Y-89173699D01*
X80964323Y-89159344D01*
X81029351Y-88963863D01*
X81055171Y-88759474D01*
X81055443Y-88739991D01*
X81055534Y-88733522D01*
X81055534Y-88733518D01*
X81055583Y-88730000D01*
X81035480Y-88524970D01*
X80975935Y-88327749D01*
X80879218Y-88145849D01*
X80763698Y-88004208D01*
X80752906Y-87990975D01*
X80752903Y-87990972D01*
X80749011Y-87986200D01*
X80628038Y-87886122D01*
X80595025Y-87858811D01*
X80595021Y-87858809D01*
X80590275Y-87854882D01*
X80409055Y-87756897D01*
X80212254Y-87695977D01*
X80206129Y-87695333D01*
X80206128Y-87695333D01*
X80013498Y-87675087D01*
X80013496Y-87675087D01*
X80007369Y-87674443D01*
X79920529Y-87682346D01*
X79808342Y-87692555D01*
X79808339Y-87692556D01*
X79802203Y-87693114D01*
X79604572Y-87751280D01*
X79599107Y-87754137D01*
X79513287Y-87799003D01*
X79422002Y-87846726D01*
X79417201Y-87850586D01*
X79417198Y-87850588D01*
X79304049Y-87941562D01*
X79261447Y-87975815D01*
X79129024Y-88133630D01*
X79126056Y-88139028D01*
X79126053Y-88139033D01*
X79048489Y-88280123D01*
X79029776Y-88314162D01*
X79027914Y-88320031D01*
X79025485Y-88325699D01*
X79023458Y-88324830D01*
X78989342Y-88375481D01*
X78924140Y-88403575D01*
X78908901Y-88404500D01*
X78844410Y-88404500D01*
X78833428Y-88404020D01*
X78806880Y-88401697D01*
X78806878Y-88401697D01*
X78795893Y-88400736D01*
X78759485Y-88410492D01*
X78748758Y-88412870D01*
X78746983Y-88413183D01*
X78711655Y-88419412D01*
X78702110Y-88424923D01*
X78698834Y-88426115D01*
X78695666Y-88427592D01*
X78685016Y-88430446D01*
X78675985Y-88436770D01*
X78654156Y-88452055D01*
X78644885Y-88457961D01*
X78621794Y-88471293D01*
X78612245Y-88476806D01*
X78605159Y-88485251D01*
X78588015Y-88505682D01*
X78580589Y-88513785D01*
X75956779Y-91137595D01*
X75894467Y-91171621D01*
X75867684Y-91174500D01*
X75176500Y-91174500D01*
X75108379Y-91154498D01*
X75061886Y-91100842D01*
X75050500Y-91048500D01*
X75050500Y-90980252D01*
X75038867Y-90921769D01*
X74994552Y-90855448D01*
X74928231Y-90811133D01*
X74916062Y-90808712D01*
X74916061Y-90808712D01*
X74875816Y-90800707D01*
X74869748Y-90799500D01*
X72330252Y-90799500D01*
X72324184Y-90800707D01*
X72283939Y-90808712D01*
X72283938Y-90808712D01*
X72271769Y-90811133D01*
X72205448Y-90855448D01*
X72161133Y-90921769D01*
X72149500Y-90980252D01*
X72149500Y-92019748D01*
X60955374Y-92019748D01*
X60219411Y-91283785D01*
X60211984Y-91275681D01*
X60194841Y-91255251D01*
X60194842Y-91255251D01*
X60187755Y-91246806D01*
X60173095Y-91238342D01*
X60155115Y-91227961D01*
X60145844Y-91222055D01*
X60114984Y-91200446D01*
X60104334Y-91197592D01*
X60101166Y-91196115D01*
X60097890Y-91194923D01*
X60088345Y-91189412D01*
X60054601Y-91183462D01*
X60051242Y-91182870D01*
X60040515Y-91180492D01*
X60004107Y-91170736D01*
X59987483Y-91172191D01*
X59917880Y-91158204D01*
X59866886Y-91108807D01*
X59850500Y-91046671D01*
X59850500Y-90980252D01*
X59838867Y-90921769D01*
X59794552Y-90855448D01*
X59728231Y-90811133D01*
X59716062Y-90808712D01*
X59716061Y-90808712D01*
X59675816Y-90800707D01*
X59669748Y-90799500D01*
X57130252Y-90799500D01*
X57124184Y-90800707D01*
X57083939Y-90808712D01*
X57083938Y-90808712D01*
X57071769Y-90811133D01*
X57005448Y-90855448D01*
X56961133Y-90921769D01*
X56949500Y-90980252D01*
X56949500Y-91437083D01*
X56929498Y-91505204D01*
X56875842Y-91551697D01*
X56805568Y-91561801D01*
X56740988Y-91532307D01*
X56734405Y-91526178D01*
X55726510Y-90518284D01*
X55719083Y-90510180D01*
X55701941Y-90489751D01*
X55701942Y-90489751D01*
X55694855Y-90481306D01*
X55685306Y-90475793D01*
X55662215Y-90462461D01*
X55652944Y-90456555D01*
X55631115Y-90441270D01*
X55622084Y-90434946D01*
X55611434Y-90432092D01*
X55608266Y-90430615D01*
X55604990Y-90429423D01*
X55595445Y-90423912D01*
X55561701Y-90417962D01*
X55558342Y-90417370D01*
X55547615Y-90414992D01*
X55511207Y-90405236D01*
X55500222Y-90406197D01*
X55500220Y-90406197D01*
X55473672Y-90408520D01*
X55462690Y-90409000D01*
X52021502Y-90409000D01*
X51953381Y-90388998D01*
X51906888Y-90335342D01*
X51896784Y-90265068D01*
X51926278Y-90200488D01*
X51930303Y-90196165D01*
X51940176Y-90183574D01*
X52021079Y-90049988D01*
X52027285Y-90036243D01*
X52074256Y-89886356D01*
X52076869Y-89873306D01*
X52081913Y-89818414D01*
X52078525Y-89806876D01*
X52077135Y-89805671D01*
X52069452Y-89804000D01*
X50797000Y-89804000D01*
X50728879Y-89783998D01*
X50682386Y-89730342D01*
X50671000Y-89678000D01*
X50671000Y-89422000D01*
X50691002Y-89353879D01*
X50744658Y-89307386D01*
X50797000Y-89296000D01*
X52064884Y-89296000D01*
X52080123Y-89291525D01*
X52081328Y-89290135D01*
X52082291Y-89285706D01*
X52076868Y-89226685D01*
X52074257Y-89213649D01*
X52027285Y-89063757D01*
X52021079Y-89050012D01*
X51940176Y-88916426D01*
X51930869Y-88904557D01*
X51820443Y-88794131D01*
X51802592Y-88780133D01*
X51803518Y-88778952D01*
X51761367Y-88732842D01*
X51749399Y-88662862D01*
X51754716Y-88638538D01*
X51756147Y-88634134D01*
X51760646Y-88625304D01*
X51775500Y-88531519D01*
X51775499Y-88068482D01*
X51763850Y-87994926D01*
X51772950Y-87924515D01*
X51799204Y-87886122D01*
X52113231Y-87572095D01*
X52942001Y-87572095D01*
X52942338Y-87578614D01*
X52952257Y-87674206D01*
X52955149Y-87687600D01*
X53006588Y-87841784D01*
X53012761Y-87854962D01*
X53098063Y-87992807D01*
X53107099Y-88004208D01*
X53221829Y-88118739D01*
X53233240Y-88127751D01*
X53371243Y-88212816D01*
X53384424Y-88218963D01*
X53538710Y-88270138D01*
X53552086Y-88273005D01*
X53646438Y-88282672D01*
X53652854Y-88283000D01*
X53902885Y-88283000D01*
X53918124Y-88278525D01*
X53919329Y-88277135D01*
X53921000Y-88269452D01*
X53921000Y-87459615D01*
X53916525Y-87444376D01*
X53915135Y-87443171D01*
X53907452Y-87441500D01*
X52960116Y-87441500D01*
X52944877Y-87445975D01*
X52943672Y-87447365D01*
X52942001Y-87455048D01*
X52942001Y-87572095D01*
X52113231Y-87572095D01*
X52760779Y-86924547D01*
X52823091Y-86890521D01*
X52893906Y-86895586D01*
X52932385Y-86918416D01*
X52947864Y-86931829D01*
X52955548Y-86933500D01*
X54303000Y-86933500D01*
X54371121Y-86953502D01*
X54417614Y-87007158D01*
X54429000Y-87059500D01*
X54429000Y-88264884D01*
X54433475Y-88280123D01*
X54434865Y-88281328D01*
X54442548Y-88282999D01*
X54697095Y-88282999D01*
X54703614Y-88282662D01*
X54799206Y-88272743D01*
X54812600Y-88269851D01*
X54966784Y-88218412D01*
X54979962Y-88212239D01*
X55117807Y-88126937D01*
X55129208Y-88117901D01*
X55243739Y-88003171D01*
X55252751Y-87991760D01*
X55337816Y-87853757D01*
X55343963Y-87840576D01*
X55391407Y-87697538D01*
X55431838Y-87639179D01*
X55497402Y-87611942D01*
X55567284Y-87624476D01*
X55619296Y-87672800D01*
X55637000Y-87737206D01*
X55637000Y-88618090D01*
X55636520Y-88629072D01*
X55633236Y-88666607D01*
X55636090Y-88677256D01*
X55642991Y-88703010D01*
X55645370Y-88713742D01*
X55651912Y-88750845D01*
X55657423Y-88760390D01*
X55658615Y-88763666D01*
X55660092Y-88766834D01*
X55662946Y-88777484D01*
X55669270Y-88786515D01*
X55684555Y-88808344D01*
X55690461Y-88817615D01*
X55693795Y-88823389D01*
X55709306Y-88850255D01*
X55727785Y-88865761D01*
X55738182Y-88874485D01*
X55746285Y-88881911D01*
X56580589Y-89716215D01*
X56588015Y-89724318D01*
X56612245Y-89753194D01*
X56621794Y-89758707D01*
X56644885Y-89772039D01*
X56654156Y-89777945D01*
X56685016Y-89799554D01*
X56695666Y-89802408D01*
X56698834Y-89803885D01*
X56702110Y-89805077D01*
X56711655Y-89810588D01*
X56745399Y-89816538D01*
X56748758Y-89817130D01*
X56759485Y-89819508D01*
X56795893Y-89829264D01*
X56812517Y-89827809D01*
X56882120Y-89841796D01*
X56933114Y-89891193D01*
X56949500Y-89953329D01*
X56949500Y-90019748D01*
X56961133Y-90078231D01*
X57005448Y-90144552D01*
X57071769Y-90188867D01*
X57083938Y-90191288D01*
X57083939Y-90191288D01*
X57108458Y-90196165D01*
X57130252Y-90200500D01*
X59669748Y-90200500D01*
X59691542Y-90196165D01*
X59716061Y-90191288D01*
X59716062Y-90191288D01*
X59728231Y-90188867D01*
X59794552Y-90144552D01*
X59838867Y-90078231D01*
X59850500Y-90019748D01*
X72149500Y-90019748D01*
X72161133Y-90078231D01*
X72205448Y-90144552D01*
X72271769Y-90188867D01*
X72283938Y-90191288D01*
X72283939Y-90191288D01*
X72308458Y-90196165D01*
X72330252Y-90200500D01*
X74869748Y-90200500D01*
X74891542Y-90196165D01*
X74916061Y-90191288D01*
X74916062Y-90191288D01*
X74928231Y-90188867D01*
X74994552Y-90144552D01*
X75038867Y-90078231D01*
X75050500Y-90019748D01*
X75050500Y-89951500D01*
X75070502Y-89883379D01*
X75124158Y-89836886D01*
X75176500Y-89825500D01*
X75494990Y-89825500D01*
X75505972Y-89825980D01*
X75532520Y-89828303D01*
X75532522Y-89828303D01*
X75543507Y-89829264D01*
X75579915Y-89819508D01*
X75590642Y-89817130D01*
X75594001Y-89816538D01*
X75627745Y-89810588D01*
X75637290Y-89805077D01*
X75640566Y-89803885D01*
X75643734Y-89802408D01*
X75654384Y-89799554D01*
X75685244Y-89777945D01*
X75694515Y-89772039D01*
X75717606Y-89758707D01*
X75727155Y-89753194D01*
X75751385Y-89724317D01*
X75758811Y-89716215D01*
X78854913Y-86620113D01*
X78917225Y-86586087D01*
X78988040Y-86591152D01*
X79044876Y-86633699D01*
X79056075Y-86651614D01*
X79112712Y-86761818D01*
X79240677Y-86923270D01*
X79245370Y-86927264D01*
X79245371Y-86927265D01*
X79276200Y-86953502D01*
X79397564Y-87056791D01*
X79577398Y-87157297D01*
X79672238Y-87188113D01*
X79767471Y-87219056D01*
X79767475Y-87219057D01*
X79773329Y-87220959D01*
X79977894Y-87245351D01*
X79984029Y-87244879D01*
X79984031Y-87244879D01*
X80040039Y-87240569D01*
X80183300Y-87229546D01*
X80189230Y-87227890D01*
X80189232Y-87227890D01*
X80375797Y-87175800D01*
X80375796Y-87175800D01*
X80381725Y-87174145D01*
X80387214Y-87171372D01*
X80387220Y-87171370D01*
X80560116Y-87084033D01*
X80565610Y-87081258D01*
X80727951Y-86954424D01*
X80747455Y-86931829D01*
X80858540Y-86803134D01*
X80858540Y-86803133D01*
X80862564Y-86798472D01*
X80883387Y-86761818D01*
X80951106Y-86642610D01*
X80964323Y-86619344D01*
X81029351Y-86423863D01*
X81055171Y-86219474D01*
X81055583Y-86190000D01*
X81035480Y-85984970D01*
X80975935Y-85787749D01*
X80879218Y-85605849D01*
X80762700Y-85462984D01*
X80752906Y-85450975D01*
X80752903Y-85450972D01*
X80749011Y-85446200D01*
X80731786Y-85431950D01*
X80595025Y-85318811D01*
X80595021Y-85318809D01*
X80590275Y-85314882D01*
X80409055Y-85216897D01*
X80212254Y-85155977D01*
X80206129Y-85155333D01*
X80206128Y-85155333D01*
X80013498Y-85135087D01*
X80013496Y-85135087D01*
X80007369Y-85134443D01*
X79920529Y-85142346D01*
X79808342Y-85152555D01*
X79808339Y-85152556D01*
X79802203Y-85153114D01*
X79604572Y-85211280D01*
X79422002Y-85306726D01*
X79417201Y-85310586D01*
X79417198Y-85310588D01*
X79406971Y-85318811D01*
X79261447Y-85435815D01*
X79129024Y-85593630D01*
X79126056Y-85599028D01*
X79126053Y-85599033D01*
X79119315Y-85611290D01*
X79029776Y-85774162D01*
X79027914Y-85780031D01*
X79025485Y-85785699D01*
X79023458Y-85784830D01*
X78989342Y-85835481D01*
X78924140Y-85863575D01*
X78908901Y-85864500D01*
X78844410Y-85864500D01*
X78833428Y-85864020D01*
X78806880Y-85861697D01*
X78806878Y-85861697D01*
X78795893Y-85860736D01*
X78759485Y-85870492D01*
X78748758Y-85872870D01*
X78745399Y-85873462D01*
X78711655Y-85879412D01*
X78702110Y-85884923D01*
X78698834Y-85886115D01*
X78695666Y-85887592D01*
X78685016Y-85890446D01*
X78675985Y-85896770D01*
X78654156Y-85912055D01*
X78644885Y-85917961D01*
X78621794Y-85931293D01*
X78612245Y-85936806D01*
X78605159Y-85945251D01*
X78588015Y-85965682D01*
X78580589Y-85973785D01*
X75416779Y-89137595D01*
X75354467Y-89171621D01*
X75327684Y-89174500D01*
X75176500Y-89174500D01*
X75108379Y-89154498D01*
X75061886Y-89100842D01*
X75050500Y-89048500D01*
X75050500Y-88980252D01*
X75042864Y-88941863D01*
X75041288Y-88933939D01*
X75041288Y-88933938D01*
X75038867Y-88921769D01*
X74994552Y-88855448D01*
X74928231Y-88811133D01*
X74916062Y-88808712D01*
X74916061Y-88808712D01*
X74875816Y-88800707D01*
X74869748Y-88799500D01*
X72330252Y-88799500D01*
X72324184Y-88800707D01*
X72283939Y-88808712D01*
X72283938Y-88808712D01*
X72271769Y-88811133D01*
X72205448Y-88855448D01*
X72161133Y-88921769D01*
X72158712Y-88933938D01*
X72158712Y-88933939D01*
X72157136Y-88941863D01*
X72149500Y-88980252D01*
X72149500Y-90019748D01*
X59850500Y-90019748D01*
X59850500Y-88980252D01*
X59842864Y-88941863D01*
X59841288Y-88933939D01*
X59841288Y-88933938D01*
X59838867Y-88921769D01*
X59794552Y-88855448D01*
X59728231Y-88811133D01*
X59716062Y-88808712D01*
X59716061Y-88808712D01*
X59675816Y-88800707D01*
X59669748Y-88799500D01*
X57130252Y-88799500D01*
X57124184Y-88800707D01*
X57083939Y-88808712D01*
X57083938Y-88808712D01*
X57071769Y-88811133D01*
X57005448Y-88855448D01*
X56998557Y-88865761D01*
X56975345Y-88900500D01*
X56961133Y-88921769D01*
X56959314Y-88930912D01*
X56916111Y-88984528D01*
X56848748Y-89006951D01*
X56779956Y-88989395D01*
X56755152Y-88970126D01*
X56324905Y-88539879D01*
X56290879Y-88477567D01*
X56288000Y-88450784D01*
X56288000Y-83419670D01*
X56308002Y-83351549D01*
X56361658Y-83305056D01*
X56372253Y-83300787D01*
X56429300Y-83280754D01*
X56429301Y-83280753D01*
X56438184Y-83277634D01*
X56445754Y-83272042D01*
X56445757Y-83272041D01*
X56539579Y-83202742D01*
X56547150Y-83197150D01*
X56559665Y-83180206D01*
X56622041Y-83095757D01*
X56622042Y-83095754D01*
X56627634Y-83088184D01*
X56672519Y-82960369D01*
X56675500Y-82928834D01*
X56675500Y-81921166D01*
X56672519Y-81889631D01*
X56627634Y-81761816D01*
X56622042Y-81754246D01*
X56622041Y-81754243D01*
X56552742Y-81660421D01*
X56547150Y-81652850D01*
X56504045Y-81621012D01*
X56445757Y-81577959D01*
X56445754Y-81577958D01*
X56438184Y-81572366D01*
X56310369Y-81527481D01*
X56302723Y-81526758D01*
X56302722Y-81526758D01*
X56296752Y-81526194D01*
X56278834Y-81524500D01*
X55646166Y-81524500D01*
X55628248Y-81526194D01*
X55622278Y-81526758D01*
X55622277Y-81526758D01*
X55614631Y-81527481D01*
X55486816Y-81572366D01*
X55479246Y-81577958D01*
X55479243Y-81577959D01*
X55420955Y-81621012D01*
X55377850Y-81652850D01*
X55372258Y-81660421D01*
X55302959Y-81754243D01*
X55302958Y-81754246D01*
X55297366Y-81761816D01*
X55252481Y-81889631D01*
X55249500Y-81921166D01*
X55249500Y-82928834D01*
X55252481Y-82960369D01*
X55297366Y-83088184D01*
X55302958Y-83095754D01*
X55302959Y-83095757D01*
X55365335Y-83180206D01*
X55377850Y-83197150D01*
X55385421Y-83202742D01*
X55479243Y-83272041D01*
X55479246Y-83272042D01*
X55486816Y-83277634D01*
X55495699Y-83280753D01*
X55495700Y-83280754D01*
X55552747Y-83300787D01*
X55610393Y-83342230D01*
X55636482Y-83408259D01*
X55637000Y-83419670D01*
X55637000Y-86637407D01*
X55616998Y-86705528D01*
X55563342Y-86752021D01*
X55493068Y-86762125D01*
X55428488Y-86732631D01*
X55391476Y-86677283D01*
X55343412Y-86533216D01*
X55337239Y-86520038D01*
X55251937Y-86382193D01*
X55242901Y-86370792D01*
X55128171Y-86256261D01*
X55116760Y-86247249D01*
X54978757Y-86162184D01*
X54965576Y-86156037D01*
X54818908Y-86107389D01*
X54760549Y-86066958D01*
X54733312Y-86001394D01*
X54745846Y-85931512D01*
X54794170Y-85879500D01*
X54816828Y-85868913D01*
X54830761Y-85864020D01*
X54863184Y-85852634D01*
X54870754Y-85847042D01*
X54870757Y-85847041D01*
X54964579Y-85777742D01*
X54972150Y-85772150D01*
X54984665Y-85755206D01*
X55047041Y-85670757D01*
X55047042Y-85670754D01*
X55052634Y-85663184D01*
X55097519Y-85535369D01*
X55100500Y-85503834D01*
X55100500Y-84721166D01*
X55098806Y-84703248D01*
X55098242Y-84697278D01*
X55098242Y-84697277D01*
X55097519Y-84689631D01*
X55052634Y-84561816D01*
X55047042Y-84554246D01*
X55047041Y-84554243D01*
X54977742Y-84460421D01*
X54972150Y-84452850D01*
X54955206Y-84440335D01*
X54870757Y-84377959D01*
X54870754Y-84377958D01*
X54863184Y-84372366D01*
X54735369Y-84327481D01*
X54727723Y-84326758D01*
X54727722Y-84326758D01*
X54721752Y-84326194D01*
X54703834Y-84324500D01*
X54589000Y-84324500D01*
X54520879Y-84304498D01*
X54474386Y-84250842D01*
X54463000Y-84198500D01*
X54463000Y-83419670D01*
X54483002Y-83351549D01*
X54536658Y-83305056D01*
X54547253Y-83300787D01*
X54604300Y-83280754D01*
X54604301Y-83280753D01*
X54613184Y-83277634D01*
X54620754Y-83272042D01*
X54620757Y-83272041D01*
X54714579Y-83202742D01*
X54722150Y-83197150D01*
X54734665Y-83180206D01*
X54797041Y-83095757D01*
X54797042Y-83095754D01*
X54802634Y-83088184D01*
X54847519Y-82960369D01*
X54850500Y-82928834D01*
X54850500Y-81921166D01*
X54847519Y-81889631D01*
X54802634Y-81761816D01*
X54797042Y-81754246D01*
X54797041Y-81754243D01*
X54727742Y-81660421D01*
X54722150Y-81652850D01*
X54679045Y-81621012D01*
X54620757Y-81577959D01*
X54620754Y-81577958D01*
X54613184Y-81572366D01*
X54485369Y-81527481D01*
X54477723Y-81526758D01*
X54477722Y-81526758D01*
X54471752Y-81526194D01*
X54453834Y-81524500D01*
X53821166Y-81524500D01*
X53803248Y-81526194D01*
X53797278Y-81526758D01*
X53797277Y-81526758D01*
X53789631Y-81527481D01*
X53661816Y-81572366D01*
X53654246Y-81577958D01*
X53654243Y-81577959D01*
X53595955Y-81621012D01*
X53552850Y-81652850D01*
X53547258Y-81660421D01*
X53477959Y-81754243D01*
X53477958Y-81754246D01*
X53472366Y-81761816D01*
X53427481Y-81889631D01*
X53424500Y-81921166D01*
X53424500Y-82928834D01*
X53427481Y-82960369D01*
X53472366Y-83088184D01*
X53477958Y-83095754D01*
X53477959Y-83095757D01*
X53540335Y-83180206D01*
X53552850Y-83197150D01*
X53560421Y-83202742D01*
X53654243Y-83272041D01*
X53654246Y-83272042D01*
X53661816Y-83277634D01*
X53670699Y-83280753D01*
X53670700Y-83280754D01*
X53727747Y-83300787D01*
X53785393Y-83342230D01*
X53811482Y-83408259D01*
X53812000Y-83419670D01*
X53812000Y-84198500D01*
X53791998Y-84266621D01*
X53738342Y-84313114D01*
X53686000Y-84324500D01*
X53646166Y-84324500D01*
X53628248Y-84326194D01*
X53622278Y-84326758D01*
X53622277Y-84326758D01*
X53614631Y-84327481D01*
X53486816Y-84372366D01*
X53479246Y-84377958D01*
X53479243Y-84377959D01*
X53394794Y-84440335D01*
X53377850Y-84452850D01*
X53372258Y-84460421D01*
X53302959Y-84554243D01*
X53302958Y-84554246D01*
X53297366Y-84561816D01*
X53252481Y-84689631D01*
X53251758Y-84697277D01*
X53251758Y-84697278D01*
X53251194Y-84703248D01*
X53249500Y-84721166D01*
X53249500Y-85462984D01*
X53229498Y-85531105D01*
X53212595Y-85552079D01*
X51102079Y-87662595D01*
X51039767Y-87696621D01*
X51012984Y-87699500D01*
X50497388Y-87699501D01*
X50443482Y-87699501D01*
X50438589Y-87700276D01*
X50438588Y-87700276D01*
X50359494Y-87712802D01*
X50359492Y-87712803D01*
X50349696Y-87714354D01*
X50236658Y-87771950D01*
X50146950Y-87861658D01*
X50089354Y-87974696D01*
X50087804Y-87984485D01*
X50087803Y-87984487D01*
X50086150Y-87994926D01*
X50074500Y-88068481D01*
X50074501Y-88264884D01*
X50074501Y-88413183D01*
X50054499Y-88481303D01*
X50037596Y-88502278D01*
X49716485Y-88823389D01*
X49708381Y-88830816D01*
X49679506Y-88855045D01*
X49673993Y-88864594D01*
X49660661Y-88887685D01*
X49654755Y-88896956D01*
X49633146Y-88927816D01*
X49630292Y-88938466D01*
X49628815Y-88941634D01*
X49627623Y-88944910D01*
X49622112Y-88954455D01*
X49617564Y-88980252D01*
X49615570Y-88991558D01*
X49613192Y-89002285D01*
X49603436Y-89038693D01*
X49604397Y-89049678D01*
X49604397Y-89049680D01*
X49606720Y-89076228D01*
X49607200Y-89087210D01*
X49607200Y-92454990D01*
X49606720Y-92465972D01*
X49603436Y-92503507D01*
X49613102Y-92539577D01*
X49613191Y-92539910D01*
X49615570Y-92550642D01*
X49622112Y-92587745D01*
X49627623Y-92597290D01*
X49628815Y-92600566D01*
X49630292Y-92603734D01*
X49633146Y-92614384D01*
X49639470Y-92623415D01*
X49654755Y-92645244D01*
X49660661Y-92654515D01*
X49671591Y-92673446D01*
X49679506Y-92687155D01*
X49694558Y-92699785D01*
X49708381Y-92711384D01*
X49716485Y-92718811D01*
X50037595Y-93039921D01*
X50071621Y-93102233D01*
X50074500Y-93129016D01*
X50074501Y-93329090D01*
X50074501Y-93531518D01*
X50075276Y-93536411D01*
X50075276Y-93536412D01*
X50086134Y-93604970D01*
X50089354Y-93625304D01*
X50093857Y-93634141D01*
X50093857Y-93634142D01*
X50099645Y-93645502D01*
X50146950Y-93738342D01*
X50236658Y-93828050D01*
X50236445Y-93828263D01*
X50275790Y-93879289D01*
X50281864Y-93950025D01*
X50248731Y-94012816D01*
X50240376Y-94020055D01*
X50236658Y-94021950D01*
X50146950Y-94111658D01*
X50089354Y-94224696D01*
X50087804Y-94234485D01*
X50087803Y-94234487D01*
X50085471Y-94249214D01*
X50074500Y-94318481D01*
X50074501Y-94781518D01*
X50075276Y-94786411D01*
X50075276Y-94786412D01*
X50087778Y-94865351D01*
X50089354Y-94875304D01*
X50146950Y-94988342D01*
X50236658Y-95078050D01*
X50349696Y-95135646D01*
X50359485Y-95137196D01*
X50359487Y-95137197D01*
X50386849Y-95141530D01*
X50443481Y-95150500D01*
X50924902Y-95150500D01*
X51406518Y-95150499D01*
X51411412Y-95149724D01*
X51490506Y-95137198D01*
X51490508Y-95137197D01*
X51500304Y-95135646D01*
X51509156Y-95131136D01*
X51551424Y-95109599D01*
X51613342Y-95078050D01*
X51703050Y-94988342D01*
X51705880Y-94982788D01*
X51760485Y-94940684D01*
X51806195Y-94932100D01*
X51892414Y-94932100D01*
X51960535Y-94952102D01*
X51992377Y-94981396D01*
X52033418Y-95034882D01*
X52158859Y-95131136D01*
X52304938Y-95191644D01*
X52313126Y-95192722D01*
X52368682Y-95200036D01*
X52461700Y-95212282D01*
X52469888Y-95211204D01*
X52610274Y-95192722D01*
X52618462Y-95191644D01*
X52764541Y-95131136D01*
X52889982Y-95034882D01*
X52921037Y-94994410D01*
X52978375Y-94952543D01*
X53049246Y-94948321D01*
X53111149Y-94983085D01*
X53144430Y-95045797D01*
X53147000Y-95071114D01*
X53147000Y-96325720D01*
X53126998Y-96393841D01*
X53073342Y-96440334D01*
X53052839Y-96447178D01*
X53049631Y-96447481D01*
X52921816Y-96492366D01*
X52914246Y-96497958D01*
X52914243Y-96497959D01*
X52829794Y-96560335D01*
X52812850Y-96572850D01*
X52807258Y-96580421D01*
X52737959Y-96674243D01*
X52737958Y-96674246D01*
X52732366Y-96681816D01*
X52687481Y-96809631D01*
X52684500Y-96841166D01*
X52684500Y-97898834D01*
X52687481Y-97930369D01*
X52732366Y-98058184D01*
X52737958Y-98065754D01*
X52737959Y-98065757D01*
X52778588Y-98120763D01*
X52812850Y-98167150D01*
X52820421Y-98172742D01*
X52914243Y-98242041D01*
X52914246Y-98242042D01*
X52921816Y-98247634D01*
X53049631Y-98292519D01*
X53057277Y-98293242D01*
X53057278Y-98293242D01*
X53063248Y-98293806D01*
X53081166Y-98295500D01*
X53091000Y-98295500D01*
X53159121Y-98315502D01*
X53205614Y-98369158D01*
X53217000Y-98421500D01*
X53217000Y-100475720D01*
X53196998Y-100543841D01*
X53143342Y-100590334D01*
X53122839Y-100597178D01*
X53119631Y-100597481D01*
X52991816Y-100642366D01*
X52984246Y-100647958D01*
X52984243Y-100647959D01*
X52955483Y-100669202D01*
X52882850Y-100722850D01*
X52877258Y-100730421D01*
X52807959Y-100824243D01*
X52807958Y-100824246D01*
X52802366Y-100831816D01*
X52757481Y-100959631D01*
X52754500Y-100991166D01*
X52754500Y-102048834D01*
X52757481Y-102080369D01*
X52802366Y-102208184D01*
X52807958Y-102215754D01*
X52807959Y-102215757D01*
X52814041Y-102223991D01*
X52882850Y-102317150D01*
X52890421Y-102322742D01*
X52984243Y-102392041D01*
X52984246Y-102392042D01*
X52991816Y-102397634D01*
X53119631Y-102442519D01*
X53127277Y-102443242D01*
X53127278Y-102443242D01*
X53133248Y-102443806D01*
X53151166Y-102445500D01*
X53933834Y-102445500D01*
X53951752Y-102443806D01*
X53957722Y-102443242D01*
X53957723Y-102443242D01*
X53965369Y-102442519D01*
X54093184Y-102397634D01*
X54100754Y-102392042D01*
X54100757Y-102392041D01*
X54194579Y-102322742D01*
X54202150Y-102317150D01*
X54270959Y-102223991D01*
X54277041Y-102215757D01*
X54277042Y-102215754D01*
X54282634Y-102208184D01*
X54298843Y-102162027D01*
X54340286Y-102104381D01*
X54406316Y-102078293D01*
X54475968Y-102092044D01*
X54527129Y-102141269D01*
X54537250Y-102163899D01*
X54586588Y-102311784D01*
X54592761Y-102324962D01*
X54678063Y-102462807D01*
X54687099Y-102474208D01*
X54801829Y-102588739D01*
X54813240Y-102597751D01*
X54951243Y-102682816D01*
X54964424Y-102688963D01*
X55118710Y-102740138D01*
X55132086Y-102743005D01*
X55226438Y-102752672D01*
X55232854Y-102753000D01*
X55345385Y-102753000D01*
X55360624Y-102748525D01*
X55361829Y-102747135D01*
X55363500Y-102739452D01*
X55363500Y-100305116D01*
X55359025Y-100289877D01*
X55357635Y-100288672D01*
X55349952Y-100287001D01*
X55232905Y-100287001D01*
X55226386Y-100287338D01*
X55130794Y-100297257D01*
X55117400Y-100300149D01*
X54963216Y-100351588D01*
X54950038Y-100357761D01*
X54812193Y-100443063D01*
X54800792Y-100452099D01*
X54686261Y-100566829D01*
X54677249Y-100578240D01*
X54592184Y-100716243D01*
X54586037Y-100729424D01*
X54537389Y-100876092D01*
X54496958Y-100934451D01*
X54431394Y-100961688D01*
X54361512Y-100949154D01*
X54309500Y-100900830D01*
X54298913Y-100878172D01*
X54287440Y-100845502D01*
X54282634Y-100831816D01*
X54277042Y-100824246D01*
X54277041Y-100824243D01*
X54207742Y-100730421D01*
X54202150Y-100722850D01*
X54129517Y-100669202D01*
X54100757Y-100647959D01*
X54100754Y-100647958D01*
X54093184Y-100642366D01*
X53965369Y-100597481D01*
X53964447Y-100597394D01*
X53904745Y-100564656D01*
X53870832Y-100502283D01*
X53868000Y-100475720D01*
X53868000Y-98391426D01*
X53888002Y-98323305D01*
X53941658Y-98276812D01*
X53952246Y-98272545D01*
X54023184Y-98247634D01*
X54030754Y-98242042D01*
X54030757Y-98242041D01*
X54124579Y-98172742D01*
X54132150Y-98167150D01*
X54166412Y-98120763D01*
X54207041Y-98065757D01*
X54207042Y-98065754D01*
X54212634Y-98058184D01*
X54228843Y-98012027D01*
X54270286Y-97954381D01*
X54336316Y-97928293D01*
X54405968Y-97942044D01*
X54457129Y-97991269D01*
X54467250Y-98013899D01*
X54516588Y-98161784D01*
X54522761Y-98174962D01*
X54608063Y-98312807D01*
X54617099Y-98324208D01*
X54731829Y-98438739D01*
X54743240Y-98447751D01*
X54881243Y-98532816D01*
X54894424Y-98538963D01*
X55048710Y-98590138D01*
X55062086Y-98593005D01*
X55156438Y-98602672D01*
X55162854Y-98603000D01*
X55275385Y-98603000D01*
X55290624Y-98598525D01*
X55291829Y-98597135D01*
X55293500Y-98589452D01*
X55293500Y-97242000D01*
X55313502Y-97173879D01*
X55367158Y-97127386D01*
X55419500Y-97116000D01*
X55675500Y-97116000D01*
X55743621Y-97136002D01*
X55790114Y-97189658D01*
X55801500Y-97242000D01*
X55801500Y-98584884D01*
X55805975Y-98600123D01*
X55807365Y-98601328D01*
X55815048Y-98602999D01*
X55932095Y-98602999D01*
X55938614Y-98602662D01*
X56034206Y-98592743D01*
X56047600Y-98589851D01*
X56201784Y-98538412D01*
X56214962Y-98532239D01*
X56306797Y-98475409D01*
X56375249Y-98456571D01*
X56443018Y-98477732D01*
X56488589Y-98532173D01*
X56499100Y-98582553D01*
X56499100Y-100264241D01*
X56479098Y-100332362D01*
X56425442Y-100378855D01*
X56355168Y-100388959D01*
X56306984Y-100371501D01*
X56283757Y-100357183D01*
X56270576Y-100351037D01*
X56116290Y-100299862D01*
X56102914Y-100296995D01*
X56008562Y-100287328D01*
X56002145Y-100287000D01*
X55889615Y-100287000D01*
X55874376Y-100291475D01*
X55873171Y-100292865D01*
X55871500Y-100300548D01*
X55871500Y-102734884D01*
X55875975Y-102750123D01*
X55877365Y-102751328D01*
X55885048Y-102752999D01*
X56002095Y-102752999D01*
X56008614Y-102752662D01*
X56104206Y-102742743D01*
X56117600Y-102739851D01*
X56271784Y-102688412D01*
X56284963Y-102682238D01*
X56306897Y-102668665D01*
X56375349Y-102649827D01*
X56443119Y-102670988D01*
X56488690Y-102725429D01*
X56499200Y-102775809D01*
X56499200Y-106421200D01*
X56479198Y-106489321D01*
X56425542Y-106535814D01*
X56373200Y-106547200D01*
X56172013Y-106547200D01*
X56161032Y-106546721D01*
X56134470Y-106544397D01*
X56134468Y-106544397D01*
X56123493Y-106543437D01*
X56087083Y-106553192D01*
X56076376Y-106555566D01*
X56073706Y-106556037D01*
X56050108Y-106560198D01*
X56050107Y-106560198D01*
X56039255Y-106562112D01*
X56034715Y-106564733D01*
X55967416Y-106569012D01*
X55939843Y-106559308D01*
X55906985Y-106543246D01*
X55897805Y-106538759D01*
X55897804Y-106538759D01*
X55889018Y-106534464D01*
X55855999Y-106529647D01*
X55825244Y-106525160D01*
X55825240Y-106525160D01*
X55820718Y-106524500D01*
X55628584Y-106524500D01*
X55560463Y-106504498D01*
X55513970Y-106450842D01*
X55503866Y-106380568D01*
X55533360Y-106315988D01*
X55539488Y-106309405D01*
X55862882Y-105986010D01*
X55896448Y-105962002D01*
X55985005Y-105918523D01*
X55985007Y-105918522D01*
X55994355Y-105913932D01*
X56076793Y-105831350D01*
X56128036Y-105726518D01*
X56138000Y-105658218D01*
X56138000Y-104566782D01*
X56129371Y-104508162D01*
X56129284Y-104507574D01*
X56129284Y-104507573D01*
X56127858Y-104497888D01*
X56103360Y-104447992D01*
X56081022Y-104402493D01*
X56081021Y-104402491D01*
X56076432Y-104393145D01*
X55993850Y-104310707D01*
X55977562Y-104302745D01*
X55950619Y-104289575D01*
X55889018Y-104259464D01*
X55858527Y-104255016D01*
X55825244Y-104250160D01*
X55825240Y-104250160D01*
X55820718Y-104249500D01*
X55465461Y-104249500D01*
X55397340Y-104229498D01*
X55365904Y-104200729D01*
X55355949Y-104187896D01*
X55249604Y-104081551D01*
X55237178Y-104071911D01*
X55107721Y-103995352D01*
X55093290Y-103989107D01*
X54958895Y-103950061D01*
X54944794Y-103950101D01*
X54941500Y-103957370D01*
X54941500Y-105240500D01*
X54921498Y-105308621D01*
X54867842Y-105355114D01*
X54815500Y-105366500D01*
X54559500Y-105366500D01*
X54491379Y-105346498D01*
X54444886Y-105292842D01*
X54433500Y-105240500D01*
X54433500Y-103963122D01*
X54429527Y-103949591D01*
X54421629Y-103948456D01*
X54281710Y-103989107D01*
X54267279Y-103995352D01*
X54137822Y-104071911D01*
X54125396Y-104081551D01*
X54019055Y-104187892D01*
X54009100Y-104200726D01*
X53951543Y-104242293D01*
X53909540Y-104249500D01*
X53554282Y-104249500D01*
X53549732Y-104250170D01*
X53549729Y-104250170D01*
X53495074Y-104258216D01*
X53495073Y-104258216D01*
X53485388Y-104259642D01*
X53435492Y-104284140D01*
X53389993Y-104306478D01*
X53389991Y-104306479D01*
X53380645Y-104311068D01*
X53373287Y-104318438D01*
X53373288Y-104318438D01*
X53311079Y-104380756D01*
X53298207Y-104393650D01*
X53293634Y-104403006D01*
X53293633Y-104403007D01*
X53283743Y-104423241D01*
X53246964Y-104498482D01*
X53237000Y-104566782D01*
X53237000Y-105198500D01*
X53216998Y-105266621D01*
X53163342Y-105313114D01*
X53111000Y-105324500D01*
X51842826Y-105324500D01*
X51774705Y-105304498D01*
X51754392Y-105285316D01*
X51753050Y-105286658D01*
X51663342Y-105196950D01*
X51550304Y-105139354D01*
X51540515Y-105137804D01*
X51540513Y-105137803D01*
X51513151Y-105133470D01*
X51456519Y-105124500D01*
X50975098Y-105124500D01*
X50493482Y-105124501D01*
X50488589Y-105125276D01*
X50488588Y-105125276D01*
X50409494Y-105137802D01*
X50409492Y-105137803D01*
X50399696Y-105139354D01*
X50286658Y-105196950D01*
X50196950Y-105286658D01*
X50139354Y-105399696D01*
X50124500Y-105493481D01*
X50124500Y-105498434D01*
X50124501Y-105705515D01*
X50104499Y-105773636D01*
X50087596Y-105794611D01*
X49594116Y-106288091D01*
X49594113Y-106288095D01*
X49571550Y-106310658D01*
X49567046Y-106319498D01*
X49561565Y-106330255D01*
X49551239Y-106347107D01*
X49538304Y-106364910D01*
X49531507Y-106385830D01*
X49523941Y-106404094D01*
X49518456Y-106414859D01*
X49518455Y-106414863D01*
X49513954Y-106423696D01*
X49512403Y-106433487D01*
X49512403Y-106433488D01*
X49510513Y-106445422D01*
X49505897Y-106464647D01*
X49502165Y-106476132D01*
X49502164Y-106476136D01*
X49499100Y-106485567D01*
X49499100Y-109362933D01*
X49502164Y-109372363D01*
X49503182Y-109378790D01*
X49494082Y-109449201D01*
X49448360Y-109503515D01*
X49378733Y-109524500D01*
X46971697Y-109524501D01*
X46921168Y-109524501D01*
X46918218Y-109524780D01*
X46918213Y-109524780D01*
X46907594Y-109525784D01*
X46889632Y-109527481D01*
X46882391Y-109530024D01*
X46882390Y-109530024D01*
X46770706Y-109569244D01*
X46770704Y-109569245D01*
X46761817Y-109572366D01*
X46652850Y-109652850D01*
X46572366Y-109761817D01*
X46569245Y-109770704D01*
X46569244Y-109770706D01*
X46551144Y-109822249D01*
X46527481Y-109889632D01*
X46526758Y-109897278D01*
X46526758Y-109897279D01*
X46526480Y-109900221D01*
X46524500Y-109921167D01*
X46050500Y-109921167D01*
X46050500Y-104010045D01*
X46052079Y-104010045D01*
X46051635Y-104007305D01*
X46054661Y-104000000D01*
X46050586Y-103990162D01*
X46050586Y-103990161D01*
X46045583Y-103978084D01*
X46038651Y-103961349D01*
X46021875Y-103954400D01*
X46016738Y-103952272D01*
X46016737Y-103952272D01*
X46010045Y-103949500D01*
X46000000Y-103945339D01*
X45990161Y-103949415D01*
X45979125Y-103948228D01*
X45970278Y-103949500D01*
X40176500Y-103949500D01*
X40108379Y-103929498D01*
X40061886Y-103875842D01*
X40050500Y-103823500D01*
X40050500Y-102353391D01*
X42328934Y-102353391D01*
X42329664Y-102360000D01*
X42329768Y-102360942D01*
X42329768Y-102360944D01*
X42334163Y-102400753D01*
X42345573Y-102504112D01*
X42397685Y-102646514D01*
X42401922Y-102652820D01*
X42401924Y-102652823D01*
X42422079Y-102682816D01*
X42482260Y-102772374D01*
X42594415Y-102874428D01*
X42601092Y-102878053D01*
X42601093Y-102878054D01*
X42720999Y-102943158D01*
X42721001Y-102943159D01*
X42727676Y-102946783D01*
X42735025Y-102948711D01*
X42867000Y-102983334D01*
X42867002Y-102983334D01*
X42874350Y-102985262D01*
X42955737Y-102986541D01*
X43018371Y-102987525D01*
X43018374Y-102987525D01*
X43025968Y-102987644D01*
X43085279Y-102974060D01*
X43166379Y-102955486D01*
X43166382Y-102955485D01*
X43173778Y-102953791D01*
X43180555Y-102950382D01*
X43180559Y-102950381D01*
X43302460Y-102889070D01*
X43309246Y-102885657D01*
X43352685Y-102848557D01*
X43418778Y-102792109D01*
X43418780Y-102792106D01*
X43424552Y-102787177D01*
X43513038Y-102664035D01*
X43518750Y-102649827D01*
X43566764Y-102530389D01*
X43566765Y-102530387D01*
X43569597Y-102523341D01*
X43590963Y-102373217D01*
X43591101Y-102360000D01*
X43590302Y-102353391D01*
X43586402Y-102321167D01*
X46524500Y-102321167D01*
X46524501Y-104028832D01*
X46524780Y-104031781D01*
X46524780Y-104031787D01*
X46525429Y-104038651D01*
X46527481Y-104060368D01*
X46530024Y-104067609D01*
X46530024Y-104067610D01*
X46537377Y-104088547D01*
X46572366Y-104188183D01*
X46652850Y-104297150D01*
X46761817Y-104377634D01*
X46770704Y-104380755D01*
X46770706Y-104380756D01*
X46834069Y-104403007D01*
X46889632Y-104422519D01*
X46897278Y-104423242D01*
X46897279Y-104423242D01*
X46903249Y-104423806D01*
X46921167Y-104425500D01*
X48224340Y-104425500D01*
X49528832Y-104425499D01*
X49531782Y-104425220D01*
X49531787Y-104425220D01*
X49542406Y-104424216D01*
X49560368Y-104422519D01*
X49567609Y-104419976D01*
X49567610Y-104419976D01*
X49679294Y-104380756D01*
X49679296Y-104380755D01*
X49688183Y-104377634D01*
X49797150Y-104297150D01*
X49877634Y-104188183D01*
X49922519Y-104060368D01*
X49925500Y-104028833D01*
X49925499Y-102321168D01*
X49925120Y-102317150D01*
X49924216Y-102307594D01*
X49922519Y-102289632D01*
X49897013Y-102217001D01*
X49880756Y-102170706D01*
X49880755Y-102170704D01*
X49877634Y-102161817D01*
X49797150Y-102052850D01*
X49688183Y-101972366D01*
X49679296Y-101969245D01*
X49679294Y-101969244D01*
X49567615Y-101930026D01*
X49560368Y-101927481D01*
X49552722Y-101926758D01*
X49552721Y-101926758D01*
X49546751Y-101926194D01*
X49528833Y-101924500D01*
X48225660Y-101924500D01*
X46921168Y-101924501D01*
X46918218Y-101924780D01*
X46918213Y-101924780D01*
X46907594Y-101925784D01*
X46889632Y-101927481D01*
X46882391Y-101930024D01*
X46882390Y-101930024D01*
X46770706Y-101969244D01*
X46770704Y-101969245D01*
X46761817Y-101972366D01*
X46652850Y-102052850D01*
X46572366Y-102161817D01*
X46569245Y-102170704D01*
X46569244Y-102170706D01*
X46554783Y-102211886D01*
X46527481Y-102289632D01*
X46524500Y-102321167D01*
X43586402Y-102321167D01*
X43581709Y-102282385D01*
X43572884Y-102209461D01*
X43519284Y-102067613D01*
X43433396Y-101942645D01*
X43419231Y-101930024D01*
X43325849Y-101846825D01*
X43320178Y-101841772D01*
X43186166Y-101770816D01*
X43039098Y-101733875D01*
X43031500Y-101733835D01*
X43031498Y-101733835D01*
X42968145Y-101733503D01*
X42887463Y-101733081D01*
X42880083Y-101734853D01*
X42880081Y-101734853D01*
X42780736Y-101758704D01*
X42740016Y-101768480D01*
X42605269Y-101838029D01*
X42491001Y-101937711D01*
X42481310Y-101951500D01*
X42409895Y-102053114D01*
X42403809Y-102061773D01*
X42348726Y-102203052D01*
X42347734Y-102210585D01*
X42347734Y-102210586D01*
X42346730Y-102218213D01*
X42328934Y-102353391D01*
X40050500Y-102353391D01*
X40050500Y-96246167D01*
X46474500Y-96246167D01*
X46474501Y-97953832D01*
X46477481Y-97985368D01*
X46480024Y-97992609D01*
X46480024Y-97992610D01*
X46513715Y-98088547D01*
X46522366Y-98113183D01*
X46602850Y-98222150D01*
X46711817Y-98302634D01*
X46720704Y-98305755D01*
X46720706Y-98305756D01*
X46773251Y-98324208D01*
X46839632Y-98347519D01*
X46847278Y-98348242D01*
X46847279Y-98348242D01*
X46853249Y-98348806D01*
X46871167Y-98350500D01*
X48174340Y-98350500D01*
X49478832Y-98350499D01*
X49481782Y-98350220D01*
X49481787Y-98350220D01*
X49493637Y-98349100D01*
X49510368Y-98347519D01*
X49517609Y-98344976D01*
X49517610Y-98344976D01*
X49629294Y-98305756D01*
X49629296Y-98305755D01*
X49638183Y-98302634D01*
X49747150Y-98222150D01*
X49827634Y-98113183D01*
X49836286Y-98088547D01*
X49869974Y-97992615D01*
X49872519Y-97985368D01*
X49875500Y-97953833D01*
X49875499Y-96246168D01*
X49872519Y-96214632D01*
X49867556Y-96200500D01*
X49830756Y-96095706D01*
X49830755Y-96095704D01*
X49827634Y-96086817D01*
X49747150Y-95977850D01*
X49638183Y-95897366D01*
X49629296Y-95894245D01*
X49629294Y-95894244D01*
X49517615Y-95855026D01*
X49510368Y-95852481D01*
X49502722Y-95851758D01*
X49502721Y-95851758D01*
X49496751Y-95851194D01*
X49478833Y-95849500D01*
X48175660Y-95849500D01*
X46871168Y-95849501D01*
X46868218Y-95849780D01*
X46868213Y-95849780D01*
X46857594Y-95850784D01*
X46839632Y-95852481D01*
X46832391Y-95855024D01*
X46832390Y-95855024D01*
X46720706Y-95894244D01*
X46720704Y-95894245D01*
X46711817Y-95897366D01*
X46602850Y-95977850D01*
X46522366Y-96086817D01*
X46519245Y-96095704D01*
X46519244Y-96095706D01*
X46505235Y-96135598D01*
X46477481Y-96214632D01*
X46474500Y-96246167D01*
X40050500Y-96246167D01*
X40050500Y-84896167D01*
X46474500Y-84896167D01*
X46474501Y-86603832D01*
X46477481Y-86635368D01*
X46522366Y-86763183D01*
X46602850Y-86872150D01*
X46711817Y-86952634D01*
X46720704Y-86955755D01*
X46720706Y-86955756D01*
X46819000Y-86990274D01*
X46839632Y-86997519D01*
X46847278Y-86998242D01*
X46847279Y-86998242D01*
X46853249Y-86998806D01*
X46871167Y-87000500D01*
X48174340Y-87000500D01*
X49478832Y-87000499D01*
X49481782Y-87000220D01*
X49481787Y-87000220D01*
X49492406Y-86999216D01*
X49510368Y-86997519D01*
X49517609Y-86994976D01*
X49517610Y-86994976D01*
X49629294Y-86955756D01*
X49629296Y-86955755D01*
X49638183Y-86952634D01*
X49747150Y-86872150D01*
X49827634Y-86763183D01*
X49872519Y-86635368D01*
X49875500Y-86603833D01*
X49875499Y-84896168D01*
X49872519Y-84864632D01*
X49827634Y-84736817D01*
X49747150Y-84627850D01*
X49638183Y-84547366D01*
X49629296Y-84544245D01*
X49629294Y-84544244D01*
X49517615Y-84505026D01*
X49510368Y-84502481D01*
X49502722Y-84501758D01*
X49502721Y-84501758D01*
X49496751Y-84501194D01*
X49478833Y-84499500D01*
X48175660Y-84499500D01*
X46871168Y-84499501D01*
X46868218Y-84499780D01*
X46868213Y-84499780D01*
X46857594Y-84500784D01*
X46839632Y-84502481D01*
X46832391Y-84505024D01*
X46832390Y-84505024D01*
X46720706Y-84544244D01*
X46720704Y-84544245D01*
X46711817Y-84547366D01*
X46602850Y-84627850D01*
X46522366Y-84736817D01*
X46477481Y-84864632D01*
X46474500Y-84896167D01*
X40050500Y-84896167D01*
X40050500Y-81593391D01*
X47202934Y-81593391D01*
X47203664Y-81600000D01*
X47203768Y-81600942D01*
X47203768Y-81600944D01*
X47206664Y-81627177D01*
X47219573Y-81744112D01*
X47271685Y-81886514D01*
X47275922Y-81892820D01*
X47275924Y-81892823D01*
X47287602Y-81910201D01*
X47356260Y-82012374D01*
X47468415Y-82114428D01*
X47475092Y-82118053D01*
X47475093Y-82118054D01*
X47594999Y-82183158D01*
X47595001Y-82183159D01*
X47601676Y-82186783D01*
X47609025Y-82188711D01*
X47741000Y-82223334D01*
X47741002Y-82223334D01*
X47748350Y-82225262D01*
X47829737Y-82226541D01*
X47892371Y-82227525D01*
X47892374Y-82227525D01*
X47899968Y-82227644D01*
X47959279Y-82214060D01*
X48040379Y-82195486D01*
X48040382Y-82195485D01*
X48047778Y-82193791D01*
X48054555Y-82190382D01*
X48054559Y-82190381D01*
X48176460Y-82129070D01*
X48183246Y-82125657D01*
X48265863Y-82055096D01*
X48292778Y-82032109D01*
X48292780Y-82032106D01*
X48298552Y-82027177D01*
X48387038Y-81904035D01*
X48391545Y-81892823D01*
X48440764Y-81770389D01*
X48440765Y-81770387D01*
X48443597Y-81763341D01*
X48464963Y-81613217D01*
X48465101Y-81600000D01*
X48464302Y-81593391D01*
X48447796Y-81457001D01*
X48446884Y-81449461D01*
X48393284Y-81307613D01*
X48307396Y-81182645D01*
X48194178Y-81081772D01*
X48060166Y-81010816D01*
X47913098Y-80973875D01*
X47905500Y-80973835D01*
X47905498Y-80973835D01*
X47842145Y-80973503D01*
X47761463Y-80973081D01*
X47754083Y-80974853D01*
X47754081Y-80974853D01*
X47621401Y-81006707D01*
X47614016Y-81008480D01*
X47479269Y-81078029D01*
X47365001Y-81177711D01*
X47277809Y-81301773D01*
X47222726Y-81443052D01*
X47221734Y-81450585D01*
X47221734Y-81450586D01*
X47220133Y-81462750D01*
X47202934Y-81593391D01*
X40050500Y-81593391D01*
X40050500Y-80176500D01*
X40070502Y-80108379D01*
X40124158Y-80061886D01*
X40176500Y-80050500D01*
X56874000Y-80050500D01*
X56942121Y-80070502D01*
G37*
%TD.AperFunction*%
%TA.AperFunction,Conductor*%
G36*
X75222016Y-98001980D02*
G01*
X75230087Y-98006640D01*
X75239356Y-98012545D01*
X75270216Y-98034154D01*
X75280869Y-98037009D01*
X75284031Y-98038483D01*
X75287307Y-98039675D01*
X75296855Y-98045188D01*
X75307710Y-98047102D01*
X75307715Y-98047104D01*
X75333965Y-98051733D01*
X75344692Y-98054111D01*
X75370448Y-98061012D01*
X75370451Y-98061012D01*
X75381094Y-98063864D01*
X75392069Y-98062904D01*
X75392071Y-98062904D01*
X75418644Y-98060579D01*
X75429625Y-98060100D01*
X78516000Y-98060100D01*
X78584121Y-98080102D01*
X78630614Y-98133758D01*
X78642000Y-98186100D01*
X78642000Y-98637885D01*
X78646475Y-98653124D01*
X78647865Y-98654329D01*
X78655548Y-98656000D01*
X79727885Y-98656000D01*
X79743124Y-98651525D01*
X79744329Y-98650135D01*
X79746000Y-98642452D01*
X79746000Y-98186100D01*
X79766002Y-98117979D01*
X79819658Y-98071486D01*
X79872000Y-98060100D01*
X80128000Y-98060100D01*
X80196121Y-98080102D01*
X80242614Y-98133758D01*
X80254000Y-98186100D01*
X80254000Y-99038000D01*
X80233998Y-99106121D01*
X80180342Y-99152614D01*
X80128000Y-99164000D01*
X78660116Y-99164000D01*
X78644877Y-99168475D01*
X78643672Y-99169865D01*
X78642001Y-99177548D01*
X78642001Y-99804669D01*
X78642371Y-99811490D01*
X78647895Y-99862352D01*
X78651521Y-99877604D01*
X78696676Y-99998054D01*
X78705214Y-100013649D01*
X78781715Y-100115724D01*
X78794276Y-100128285D01*
X78896351Y-100204786D01*
X78911946Y-100213324D01*
X79032394Y-100258478D01*
X79047649Y-100262105D01*
X79098514Y-100267631D01*
X79105328Y-100268000D01*
X79480432Y-100268000D01*
X79548553Y-100288002D01*
X79595046Y-100341658D01*
X79605150Y-100411932D01*
X79575656Y-100476512D01*
X79538812Y-100505659D01*
X79422002Y-100566726D01*
X79417201Y-100570586D01*
X79417198Y-100570588D01*
X79327924Y-100642366D01*
X79261447Y-100695815D01*
X79129024Y-100853630D01*
X79126056Y-100859028D01*
X79126053Y-100859033D01*
X79059413Y-100980252D01*
X79029776Y-101034162D01*
X79027914Y-101040031D01*
X79025485Y-101045699D01*
X79023458Y-101044830D01*
X78989342Y-101095481D01*
X78924140Y-101123575D01*
X78908901Y-101124500D01*
X78079210Y-101124500D01*
X78068228Y-101124020D01*
X78041675Y-101121697D01*
X78041670Y-101121697D01*
X78030693Y-101120737D01*
X77994283Y-101130492D01*
X77983576Y-101132866D01*
X77946455Y-101139412D01*
X77936911Y-101144922D01*
X77933635Y-101146114D01*
X77930464Y-101147593D01*
X77919816Y-101150446D01*
X77910787Y-101156768D01*
X77888949Y-101172059D01*
X77879679Y-101177964D01*
X77856596Y-101191291D01*
X77856593Y-101191293D01*
X77847045Y-101196806D01*
X77839957Y-101205253D01*
X77839956Y-101205254D01*
X77822826Y-101225669D01*
X77815400Y-101233773D01*
X76574966Y-102474208D01*
X75573095Y-103476079D01*
X75510783Y-103510104D01*
X75439968Y-103505040D01*
X75383132Y-103462493D01*
X75358321Y-103395973D01*
X75358000Y-103386984D01*
X75357999Y-102955332D01*
X75357629Y-102948510D01*
X75352105Y-102897648D01*
X75348479Y-102882396D01*
X75303324Y-102761946D01*
X75294786Y-102746351D01*
X75218285Y-102644276D01*
X75205724Y-102631715D01*
X75103649Y-102555214D01*
X75088054Y-102546676D01*
X74967606Y-102501522D01*
X74952351Y-102497895D01*
X74901486Y-102492369D01*
X74894672Y-102492000D01*
X73872115Y-102492000D01*
X73856876Y-102496475D01*
X73855671Y-102497865D01*
X73854000Y-102505548D01*
X73854000Y-104489884D01*
X73858475Y-104505123D01*
X73859865Y-104506328D01*
X73867548Y-104507999D01*
X74894669Y-104507999D01*
X74901490Y-104507629D01*
X74952352Y-104502105D01*
X74967604Y-104498479D01*
X75052270Y-104466739D01*
X75123078Y-104461556D01*
X75185447Y-104495477D01*
X75219576Y-104557732D01*
X75222500Y-104584721D01*
X75222500Y-107999184D01*
X75202498Y-108067305D01*
X75148842Y-108113798D01*
X75078568Y-108123902D01*
X75054752Y-108118067D01*
X75017616Y-108105026D01*
X75010369Y-108102481D01*
X75002723Y-108101758D01*
X75002722Y-108101758D01*
X74996752Y-108101194D01*
X74978834Y-108099500D01*
X74625616Y-108099500D01*
X74557495Y-108079498D01*
X74536521Y-108062595D01*
X72387105Y-105913179D01*
X72353079Y-105850867D01*
X72350200Y-105824084D01*
X72350200Y-104634000D01*
X72370202Y-104565879D01*
X72423858Y-104519386D01*
X72476200Y-104508000D01*
X73327885Y-104508000D01*
X73343124Y-104503525D01*
X73344329Y-104502135D01*
X73346000Y-104494452D01*
X73346000Y-102510116D01*
X73341525Y-102494877D01*
X73340135Y-102493672D01*
X73332452Y-102492001D01*
X72476200Y-102492001D01*
X72408079Y-102471999D01*
X72361586Y-102418343D01*
X72350200Y-102366001D01*
X72350200Y-102326500D01*
X72370202Y-102258379D01*
X72423858Y-102211886D01*
X72476200Y-102200500D01*
X74869748Y-102200500D01*
X74892507Y-102195973D01*
X74916061Y-102191288D01*
X74916062Y-102191288D01*
X74928231Y-102188867D01*
X74994552Y-102144552D01*
X75038867Y-102078231D01*
X75042798Y-102058472D01*
X75049293Y-102025816D01*
X75050500Y-102019748D01*
X75050500Y-101951500D01*
X75070502Y-101883379D01*
X75124158Y-101836886D01*
X75176500Y-101825500D01*
X75232694Y-101825500D01*
X75249514Y-101819378D01*
X75270724Y-101813695D01*
X75277490Y-101812502D01*
X75288345Y-101810588D01*
X75303844Y-101801640D01*
X75323743Y-101792361D01*
X75340560Y-101786240D01*
X75349005Y-101779154D01*
X75349007Y-101779153D01*
X75354272Y-101774735D01*
X75372255Y-101762143D01*
X75387755Y-101753194D01*
X75394839Y-101744752D01*
X75394841Y-101744750D01*
X75399260Y-101739484D01*
X75414786Y-101723958D01*
X75420048Y-101719542D01*
X75428494Y-101712455D01*
X75437442Y-101696957D01*
X75450039Y-101678967D01*
X75454456Y-101673703D01*
X75461540Y-101665261D01*
X75465308Y-101654908D01*
X75465311Y-101654903D01*
X75467663Y-101648440D01*
X75476944Y-101628536D01*
X75480376Y-101622592D01*
X75485888Y-101613045D01*
X75487802Y-101602191D01*
X75487804Y-101602185D01*
X75488996Y-101595424D01*
X75494678Y-101574216D01*
X75497030Y-101567752D01*
X75500800Y-101557394D01*
X75500800Y-98837510D01*
X75501280Y-98826528D01*
X75503603Y-98799975D01*
X75503603Y-98799970D01*
X75504563Y-98788993D01*
X75494812Y-98752603D01*
X75492432Y-98741869D01*
X75487802Y-98715612D01*
X75485888Y-98704755D01*
X75480376Y-98695207D01*
X75479183Y-98691930D01*
X75477706Y-98688762D01*
X75474853Y-98678116D01*
X75453242Y-98647252D01*
X75447338Y-98637984D01*
X75434004Y-98614889D01*
X75428494Y-98605345D01*
X75399630Y-98581125D01*
X75391527Y-98573700D01*
X75276204Y-98458378D01*
X75268777Y-98450273D01*
X75251641Y-98429851D01*
X75244555Y-98421406D01*
X75235006Y-98415893D01*
X75211915Y-98402561D01*
X75202644Y-98396655D01*
X75180815Y-98381370D01*
X75171784Y-98375046D01*
X75161134Y-98372192D01*
X75157966Y-98370715D01*
X75154690Y-98369523D01*
X75145145Y-98364012D01*
X75111401Y-98358062D01*
X75108042Y-98357470D01*
X75097315Y-98355092D01*
X75060908Y-98345336D01*
X75061813Y-98341960D01*
X75013396Y-98323016D01*
X74971762Y-98265508D01*
X74967829Y-98194620D01*
X74995382Y-98145106D01*
X74994552Y-98144552D01*
X75001358Y-98134366D01*
X75038867Y-98078231D01*
X75041288Y-98066061D01*
X75042605Y-98062881D01*
X75087153Y-98007599D01*
X75154516Y-97985178D01*
X75222016Y-98001980D01*
G37*
%TD.AperFunction*%
%TD*%
M02*
