%TF.GenerationSoftware,KiCad,Pcbnew,(6.0.4)*%
%TF.CreationDate,2022-03-25T23:20:21+00:00*%
%TF.ProjectId,IKEA Vindriktning Daughterboard,494b4541-2056-4696-9e64-72696b746e69,rev?*%
%TF.SameCoordinates,Original*%
%TF.FileFunction,Soldermask,Top*%
%TF.FilePolarity,Negative*%
%FSLAX46Y46*%
G04 Gerber Fmt 4.6, Leading zero omitted, Abs format (unit mm)*
G04 Created by KiCad (PCBNEW (6.0.4)) date 2022-03-25 23:20:21*
%MOMM*%
%LPD*%
G01*
G04 APERTURE LIST*
G04 Aperture macros list*
%AMRoundRect*
0 Rectangle with rounded corners*
0 $1 Rounding radius*
0 $2 $3 $4 $5 $6 $7 $8 $9 X,Y pos of 4 corners*
0 Add a 4 corners polygon primitive as box body*
4,1,4,$2,$3,$4,$5,$6,$7,$8,$9,$2,$3,0*
0 Add four circle primitives for the rounded corners*
1,1,$1+$1,$2,$3*
1,1,$1+$1,$4,$5*
1,1,$1+$1,$6,$7*
1,1,$1+$1,$8,$9*
0 Add four rect primitives between the rounded corners*
20,1,$1+$1,$2,$3,$4,$5,0*
20,1,$1+$1,$4,$5,$6,$7,0*
20,1,$1+$1,$6,$7,$8,$9,0*
20,1,$1+$1,$8,$9,$2,$3,0*%
G04 Aperture macros list end*
%ADD10R,2.500000X1.000000*%
%ADD11R,1.000000X1.800000*%
%ADD12RoundRect,0.200000X-0.450000X0.200000X-0.450000X-0.200000X0.450000X-0.200000X0.450000X0.200000X0*%
%ADD13RoundRect,0.250001X-1.249999X0.799999X-1.249999X-0.799999X1.249999X-0.799999X1.249999X0.799999X0*%
%ADD14R,1.700000X1.700000*%
%ADD15O,1.700000X1.700000*%
%ADD16RoundRect,0.250000X-0.262500X-0.450000X0.262500X-0.450000X0.262500X0.450000X-0.262500X0.450000X0*%
%ADD17RoundRect,0.250000X-0.337500X-0.475000X0.337500X-0.475000X0.337500X0.475000X-0.337500X0.475000X0*%
%ADD18RoundRect,0.250000X-0.450000X0.262500X-0.450000X-0.262500X0.450000X-0.262500X0.450000X0.262500X0*%
%ADD19RoundRect,0.250000X-0.650000X0.412500X-0.650000X-0.412500X0.650000X-0.412500X0.650000X0.412500X0*%
%ADD20RoundRect,0.250000X0.412500X0.650000X-0.412500X0.650000X-0.412500X-0.650000X0.412500X-0.650000X0*%
%ADD21RoundRect,0.150000X-0.150000X0.512500X-0.150000X-0.512500X0.150000X-0.512500X0.150000X0.512500X0*%
%ADD22RoundRect,0.250000X-0.475000X0.337500X-0.475000X-0.337500X0.475000X-0.337500X0.475000X0.337500X0*%
%ADD23RoundRect,0.250000X0.262500X0.450000X-0.262500X0.450000X-0.262500X-0.450000X0.262500X-0.450000X0*%
G04 APERTURE END LIST*
D10*
%TO.C,U1*%
X58400000Y-89500000D03*
X58400000Y-91500000D03*
X58400000Y-93500000D03*
X58400000Y-95500000D03*
X58400000Y-97500000D03*
X58400000Y-99500000D03*
X58400000Y-101500000D03*
X58400000Y-103500000D03*
D11*
X61000000Y-105000000D03*
X63000000Y-105000000D03*
X65000000Y-105000000D03*
X67000000Y-105000000D03*
X69000000Y-105000000D03*
X71000000Y-105000000D03*
D10*
X73600000Y-103500000D03*
X73600000Y-101500000D03*
X73600000Y-99500000D03*
X73600000Y-97500000D03*
X73600000Y-95500000D03*
X73600000Y-93500000D03*
X73600000Y-91500000D03*
X73600000Y-89500000D03*
%TD*%
D12*
%TO.C,J2*%
X50975000Y-105725000D03*
X50975000Y-106975000D03*
X50975000Y-108225000D03*
D13*
X48225000Y-103175000D03*
X48225000Y-110775000D03*
%TD*%
D14*
%TO.C,J1*%
X80000000Y-83650000D03*
D15*
X80000000Y-86190000D03*
X80000000Y-88730000D03*
X80000000Y-91270000D03*
X80000000Y-93810000D03*
X80000000Y-96350000D03*
%TD*%
D12*
%TO.C,J3*%
X50925000Y-88300000D03*
X50925000Y-89550000D03*
X50925000Y-90800000D03*
X50925000Y-92050000D03*
X50925000Y-93300000D03*
X50925000Y-94550000D03*
D13*
X48175000Y-97100000D03*
X48175000Y-85750000D03*
%TD*%
D16*
%TO.C,R8*%
X62317500Y-113330000D03*
X64142500Y-113330000D03*
%TD*%
%TO.C,R4*%
X68837500Y-109000000D03*
X70662500Y-109000000D03*
%TD*%
%TO.C,R7*%
X56787500Y-113275000D03*
X58612500Y-113275000D03*
%TD*%
%TO.C,R2*%
X54137500Y-82425000D03*
X55962500Y-82425000D03*
%TD*%
%TO.C,R5*%
X72837500Y-109000000D03*
X74662500Y-109000000D03*
%TD*%
D17*
%TO.C,C1*%
X53542500Y-101520000D03*
X55617500Y-101520000D03*
%TD*%
D16*
%TO.C,R1*%
X53587500Y-92250000D03*
X55412500Y-92250000D03*
%TD*%
D18*
%TO.C,R6*%
X53775000Y-109687500D03*
X53775000Y-111512500D03*
%TD*%
D16*
%TO.C,R3*%
X72827500Y-113380000D03*
X74652500Y-113380000D03*
%TD*%
D19*
%TO.C,C3*%
X58625000Y-107712500D03*
X58625000Y-110837500D03*
%TD*%
D20*
%TO.C,C2*%
X50262500Y-113800000D03*
X47137500Y-113800000D03*
%TD*%
D21*
%TO.C,U2*%
X55637500Y-105112500D03*
X54687500Y-105112500D03*
X53737500Y-105112500D03*
X53737500Y-107387500D03*
X55637500Y-107387500D03*
%TD*%
D14*
%TO.C,J4*%
X80000000Y-98910000D03*
D15*
X80000000Y-101450000D03*
%TD*%
D22*
%TO.C,C4*%
X54175000Y-85112500D03*
X54175000Y-87187500D03*
%TD*%
D17*
%TO.C,C5*%
X53472500Y-97370000D03*
X55547500Y-97370000D03*
%TD*%
D23*
%TO.C,R9*%
X69392500Y-113360000D03*
X67567500Y-113360000D03*
%TD*%
D16*
%TO.C,R10*%
X60837500Y-109000000D03*
X62662500Y-109000000D03*
%TD*%
D23*
%TO.C,R11*%
X66662500Y-109000000D03*
X64837500Y-109000000D03*
%TD*%
M02*
