%TF.GenerationSoftware,KiCad,Pcbnew,(6.0.4)*%
%TF.CreationDate,2022-03-25T23:20:21+00:00*%
%TF.ProjectId,IKEA Vindriktning Daughterboard,494b4541-2056-4696-9e64-72696b746e69,rev?*%
%TF.SameCoordinates,Original*%
%TF.FileFunction,Legend,Top*%
%TF.FilePolarity,Positive*%
%FSLAX46Y46*%
G04 Gerber Fmt 4.6, Leading zero omitted, Abs format (unit mm)*
G04 Created by KiCad (PCBNEW (6.0.4)) date 2022-03-25 23:20:21*
%MOMM*%
%LPD*%
G01*
G04 APERTURE LIST*
%ADD10C,0.150000*%
%ADD11C,0.010000*%
%ADD12C,0.120000*%
G04 APERTURE END LIST*
D10*
X61380952Y-89452380D02*
X61380952Y-90166666D01*
X61333333Y-90309523D01*
X61238095Y-90404761D01*
X61095238Y-90452380D01*
X61000000Y-90452380D01*
X62333333Y-90452380D02*
X61857142Y-90452380D01*
X61857142Y-89452380D01*
X63238095Y-90357142D02*
X63190476Y-90404761D01*
X63047619Y-90452380D01*
X62952380Y-90452380D01*
X62809523Y-90404761D01*
X62714285Y-90309523D01*
X62666666Y-90214285D01*
X62619047Y-90023809D01*
X62619047Y-89880952D01*
X62666666Y-89690476D01*
X62714285Y-89595238D01*
X62809523Y-89500000D01*
X62952380Y-89452380D01*
X63047619Y-89452380D01*
X63190476Y-89500000D01*
X63238095Y-89547619D01*
X63952380Y-89452380D02*
X63952380Y-90166666D01*
X63904761Y-90309523D01*
X63809523Y-90404761D01*
X63666666Y-90452380D01*
X63571428Y-90452380D01*
X64904761Y-90452380D02*
X64428571Y-90452380D01*
X64428571Y-89452380D01*
X65809523Y-90357142D02*
X65761904Y-90404761D01*
X65619047Y-90452380D01*
X65523809Y-90452380D01*
X65380952Y-90404761D01*
X65285714Y-90309523D01*
X65238095Y-90214285D01*
X65190476Y-90023809D01*
X65190476Y-89880952D01*
X65238095Y-89690476D01*
X65285714Y-89595238D01*
X65380952Y-89500000D01*
X65523809Y-89452380D01*
X65619047Y-89452380D01*
X65761904Y-89500000D01*
X65809523Y-89547619D01*
X66523809Y-89452380D02*
X66523809Y-90166666D01*
X66476190Y-90309523D01*
X66380952Y-90404761D01*
X66238095Y-90452380D01*
X66142857Y-90452380D01*
X67476190Y-90452380D02*
X67000000Y-90452380D01*
X67000000Y-89452380D01*
X68380952Y-90357142D02*
X68333333Y-90404761D01*
X68190476Y-90452380D01*
X68095238Y-90452380D01*
X67952380Y-90404761D01*
X67857142Y-90309523D01*
X67809523Y-90214285D01*
X67761904Y-90023809D01*
X67761904Y-89880952D01*
X67809523Y-89690476D01*
X67857142Y-89595238D01*
X67952380Y-89500000D01*
X68095238Y-89452380D01*
X68190476Y-89452380D01*
X68333333Y-89500000D01*
X68380952Y-89547619D01*
X69095238Y-89452380D02*
X69095238Y-90166666D01*
X69047619Y-90309523D01*
X68952380Y-90404761D01*
X68809523Y-90452380D01*
X68714285Y-90452380D01*
X70047619Y-90452380D02*
X69571428Y-90452380D01*
X69571428Y-89452380D01*
X70952380Y-90357142D02*
X70904761Y-90404761D01*
X70761904Y-90452380D01*
X70666666Y-90452380D01*
X70523809Y-90404761D01*
X70428571Y-90309523D01*
X70380952Y-90214285D01*
X70333333Y-90023809D01*
X70333333Y-89880952D01*
X70380952Y-89690476D01*
X70428571Y-89595238D01*
X70523809Y-89500000D01*
X70666666Y-89452380D01*
X70761904Y-89452380D01*
X70904761Y-89500000D01*
X70952380Y-89547619D01*
D11*
G36*
X41367056Y-84856683D02*
G01*
X41371857Y-84857085D01*
X41381819Y-84858661D01*
X41392166Y-84861205D01*
X41402781Y-84864646D01*
X41413552Y-84868910D01*
X41424363Y-84873927D01*
X41435099Y-84879622D01*
X41445647Y-84885924D01*
X41455891Y-84892761D01*
X41465717Y-84900059D01*
X41475011Y-84907748D01*
X41483658Y-84915753D01*
X41491543Y-84924004D01*
X41498552Y-84932427D01*
X41504570Y-84940951D01*
X41507172Y-84945228D01*
X41509483Y-84949502D01*
X41512886Y-84956662D01*
X41515879Y-84963871D01*
X41518467Y-84971119D01*
X41520653Y-84978397D01*
X41522439Y-84985693D01*
X41523831Y-84993000D01*
X41524832Y-85000307D01*
X41525445Y-85007604D01*
X41525674Y-85014882D01*
X41525523Y-85022130D01*
X41524994Y-85029339D01*
X41524093Y-85036499D01*
X41522822Y-85043601D01*
X41521185Y-85050635D01*
X41519186Y-85057590D01*
X41516828Y-85064458D01*
X41514115Y-85071228D01*
X41511051Y-85077891D01*
X41507639Y-85084436D01*
X41503883Y-85090855D01*
X41499787Y-85097136D01*
X41495353Y-85103272D01*
X41490587Y-85109251D01*
X41485490Y-85115064D01*
X41480068Y-85120701D01*
X41474324Y-85126153D01*
X41468261Y-85131410D01*
X41461882Y-85136461D01*
X41455193Y-85141298D01*
X41448195Y-85145910D01*
X41440894Y-85150288D01*
X41433292Y-85154421D01*
X41423621Y-85159081D01*
X41413939Y-85163067D01*
X41404249Y-85166378D01*
X41394555Y-85169014D01*
X41384859Y-85170975D01*
X41375165Y-85172263D01*
X41365475Y-85172876D01*
X41355794Y-85172815D01*
X41346123Y-85172080D01*
X41336467Y-85170672D01*
X41326828Y-85168590D01*
X41317209Y-85165834D01*
X41307614Y-85162405D01*
X41298046Y-85158302D01*
X41288507Y-85153527D01*
X41279002Y-85148078D01*
X41274754Y-85145380D01*
X41270557Y-85142500D01*
X41262339Y-85136233D01*
X41254392Y-85129347D01*
X41246759Y-85121910D01*
X41239485Y-85113994D01*
X41232613Y-85105668D01*
X41226188Y-85097002D01*
X41220252Y-85088066D01*
X41214851Y-85078930D01*
X41210027Y-85069664D01*
X41205826Y-85060337D01*
X41202289Y-85051021D01*
X41199462Y-85041784D01*
X41198329Y-85037217D01*
X41197389Y-85032697D01*
X41196649Y-85028231D01*
X41196113Y-85023829D01*
X41195787Y-85019499D01*
X41195678Y-85015251D01*
X41195929Y-85008102D01*
X41196671Y-85000931D01*
X41197886Y-84993756D01*
X41199559Y-84986591D01*
X41201671Y-84979454D01*
X41204205Y-84972361D01*
X41207145Y-84965327D01*
X41210473Y-84958370D01*
X41214172Y-84951505D01*
X41218226Y-84944748D01*
X41222616Y-84938117D01*
X41227326Y-84931627D01*
X41232340Y-84925295D01*
X41237638Y-84919136D01*
X41243206Y-84913167D01*
X41249025Y-84907405D01*
X41255079Y-84901866D01*
X41261349Y-84896565D01*
X41267821Y-84891519D01*
X41274475Y-84886745D01*
X41281295Y-84882259D01*
X41288265Y-84878076D01*
X41295366Y-84874214D01*
X41302582Y-84870689D01*
X41309896Y-84867516D01*
X41317291Y-84864712D01*
X41324748Y-84862293D01*
X41332253Y-84860276D01*
X41339787Y-84858677D01*
X41347333Y-84857513D01*
X41354874Y-84856798D01*
X41362393Y-84856550D01*
X41367056Y-84856683D01*
G37*
X41367056Y-84856683D02*
X41371857Y-84857085D01*
X41381819Y-84858661D01*
X41392166Y-84861205D01*
X41402781Y-84864646D01*
X41413552Y-84868910D01*
X41424363Y-84873927D01*
X41435099Y-84879622D01*
X41445647Y-84885924D01*
X41455891Y-84892761D01*
X41465717Y-84900059D01*
X41475011Y-84907748D01*
X41483658Y-84915753D01*
X41491543Y-84924004D01*
X41498552Y-84932427D01*
X41504570Y-84940951D01*
X41507172Y-84945228D01*
X41509483Y-84949502D01*
X41512886Y-84956662D01*
X41515879Y-84963871D01*
X41518467Y-84971119D01*
X41520653Y-84978397D01*
X41522439Y-84985693D01*
X41523831Y-84993000D01*
X41524832Y-85000307D01*
X41525445Y-85007604D01*
X41525674Y-85014882D01*
X41525523Y-85022130D01*
X41524994Y-85029339D01*
X41524093Y-85036499D01*
X41522822Y-85043601D01*
X41521185Y-85050635D01*
X41519186Y-85057590D01*
X41516828Y-85064458D01*
X41514115Y-85071228D01*
X41511051Y-85077891D01*
X41507639Y-85084436D01*
X41503883Y-85090855D01*
X41499787Y-85097136D01*
X41495353Y-85103272D01*
X41490587Y-85109251D01*
X41485490Y-85115064D01*
X41480068Y-85120701D01*
X41474324Y-85126153D01*
X41468261Y-85131410D01*
X41461882Y-85136461D01*
X41455193Y-85141298D01*
X41448195Y-85145910D01*
X41440894Y-85150288D01*
X41433292Y-85154421D01*
X41423621Y-85159081D01*
X41413939Y-85163067D01*
X41404249Y-85166378D01*
X41394555Y-85169014D01*
X41384859Y-85170975D01*
X41375165Y-85172263D01*
X41365475Y-85172876D01*
X41355794Y-85172815D01*
X41346123Y-85172080D01*
X41336467Y-85170672D01*
X41326828Y-85168590D01*
X41317209Y-85165834D01*
X41307614Y-85162405D01*
X41298046Y-85158302D01*
X41288507Y-85153527D01*
X41279002Y-85148078D01*
X41274754Y-85145380D01*
X41270557Y-85142500D01*
X41262339Y-85136233D01*
X41254392Y-85129347D01*
X41246759Y-85121910D01*
X41239485Y-85113994D01*
X41232613Y-85105668D01*
X41226188Y-85097002D01*
X41220252Y-85088066D01*
X41214851Y-85078930D01*
X41210027Y-85069664D01*
X41205826Y-85060337D01*
X41202289Y-85051021D01*
X41199462Y-85041784D01*
X41198329Y-85037217D01*
X41197389Y-85032697D01*
X41196649Y-85028231D01*
X41196113Y-85023829D01*
X41195787Y-85019499D01*
X41195678Y-85015251D01*
X41195929Y-85008102D01*
X41196671Y-85000931D01*
X41197886Y-84993756D01*
X41199559Y-84986591D01*
X41201671Y-84979454D01*
X41204205Y-84972361D01*
X41207145Y-84965327D01*
X41210473Y-84958370D01*
X41214172Y-84951505D01*
X41218226Y-84944748D01*
X41222616Y-84938117D01*
X41227326Y-84931627D01*
X41232340Y-84925295D01*
X41237638Y-84919136D01*
X41243206Y-84913167D01*
X41249025Y-84907405D01*
X41255079Y-84901866D01*
X41261349Y-84896565D01*
X41267821Y-84891519D01*
X41274475Y-84886745D01*
X41281295Y-84882259D01*
X41288265Y-84878076D01*
X41295366Y-84874214D01*
X41302582Y-84870689D01*
X41309896Y-84867516D01*
X41317291Y-84864712D01*
X41324748Y-84862293D01*
X41332253Y-84860276D01*
X41339787Y-84858677D01*
X41347333Y-84857513D01*
X41354874Y-84856798D01*
X41362393Y-84856550D01*
X41367056Y-84856683D01*
G36*
X43968657Y-85431403D02*
G01*
X43983794Y-85434407D01*
X44000687Y-85438699D01*
X44011740Y-85442055D01*
X44022720Y-85446118D01*
X44033539Y-85450815D01*
X44044108Y-85456074D01*
X44054340Y-85461822D01*
X44064145Y-85467985D01*
X44073436Y-85474492D01*
X44082124Y-85481269D01*
X44090121Y-85488243D01*
X44097339Y-85495342D01*
X44103688Y-85502492D01*
X44109081Y-85509622D01*
X44113429Y-85516658D01*
X44115184Y-85520118D01*
X44116645Y-85523527D01*
X44117800Y-85526876D01*
X44118639Y-85530156D01*
X44119150Y-85533358D01*
X44119323Y-85536474D01*
X44118535Y-85540768D01*
X44116225Y-85549427D01*
X44107344Y-85578895D01*
X44074728Y-85679824D01*
X44026457Y-85824156D01*
X43967510Y-85996788D01*
X43912035Y-86156833D01*
X43868432Y-86278525D01*
X43833873Y-86367107D01*
X43819101Y-86400620D01*
X43805529Y-86427823D01*
X43792804Y-86449370D01*
X43780571Y-86465918D01*
X43768478Y-86478121D01*
X43756171Y-86486636D01*
X43743296Y-86492117D01*
X43729499Y-86495221D01*
X43714428Y-86496603D01*
X43697727Y-86496917D01*
X43690303Y-86496791D01*
X43683177Y-86496388D01*
X43676329Y-86495677D01*
X43669737Y-86494624D01*
X43663381Y-86493197D01*
X43657239Y-86491363D01*
X43651291Y-86489087D01*
X43645515Y-86486339D01*
X43639891Y-86483084D01*
X43634398Y-86479290D01*
X43629014Y-86474923D01*
X43623719Y-86469951D01*
X43618492Y-86464341D01*
X43613312Y-86458060D01*
X43608157Y-86451075D01*
X43603008Y-86443352D01*
X43597842Y-86434859D01*
X43592639Y-86425564D01*
X43587378Y-86415432D01*
X43582038Y-86404432D01*
X43576599Y-86392529D01*
X43571038Y-86379692D01*
X43565335Y-86365886D01*
X43559469Y-86351080D01*
X43547166Y-86318334D01*
X43533958Y-86281188D01*
X43519681Y-86239381D01*
X43504164Y-86192646D01*
X43473904Y-86101950D01*
X43447740Y-86026145D01*
X43428470Y-85973162D01*
X43422294Y-85957708D01*
X43418891Y-85950933D01*
X43418308Y-85950735D01*
X43417514Y-85951182D01*
X43416515Y-85952259D01*
X43415317Y-85953951D01*
X43412347Y-85959119D01*
X43408653Y-85966564D01*
X43404282Y-85976162D01*
X43399282Y-85987793D01*
X43387588Y-86016664D01*
X43373955Y-86052199D01*
X43358768Y-86093422D01*
X43342410Y-86139356D01*
X43325265Y-86189026D01*
X43305978Y-86244754D01*
X43287786Y-86295310D01*
X43270858Y-86340285D01*
X43255362Y-86379269D01*
X43241466Y-86411853D01*
X43229337Y-86437629D01*
X43219143Y-86456187D01*
X43214825Y-86462632D01*
X43211054Y-86467119D01*
X43207126Y-86470813D01*
X43202978Y-86474269D01*
X43198624Y-86477486D01*
X43194079Y-86480465D01*
X43189355Y-86483205D01*
X43184468Y-86485707D01*
X43179432Y-86487970D01*
X43174259Y-86489995D01*
X43168965Y-86491781D01*
X43163563Y-86493329D01*
X43158068Y-86494638D01*
X43152493Y-86495709D01*
X43146852Y-86496541D01*
X43141160Y-86497135D01*
X43129677Y-86497607D01*
X43118156Y-86497126D01*
X43106709Y-86495691D01*
X43101048Y-86494616D01*
X43095448Y-86493302D01*
X43089923Y-86491750D01*
X43084486Y-86489959D01*
X43079152Y-86487931D01*
X43073934Y-86485663D01*
X43068847Y-86483158D01*
X43063905Y-86480414D01*
X43059122Y-86477431D01*
X43054512Y-86474210D01*
X43050088Y-86470751D01*
X43045865Y-86467053D01*
X43045865Y-86467059D01*
X43041183Y-86461817D01*
X43035876Y-86454142D01*
X43029898Y-86443919D01*
X43023204Y-86431034D01*
X43015747Y-86415373D01*
X43007483Y-86396821D01*
X42998366Y-86375264D01*
X42988350Y-86350589D01*
X42977389Y-86322680D01*
X42965439Y-86291424D01*
X42938386Y-86218411D01*
X42906827Y-86130638D01*
X42870396Y-86027189D01*
X42814267Y-85863284D01*
X42767336Y-85720102D01*
X42734514Y-85613054D01*
X42724929Y-85577895D01*
X42720713Y-85557548D01*
X42718776Y-85538106D01*
X42718230Y-85530068D01*
X42718056Y-85522985D01*
X42718129Y-85519763D01*
X42718320Y-85516732D01*
X42718638Y-85513878D01*
X42719091Y-85511184D01*
X42719687Y-85508635D01*
X42720435Y-85506215D01*
X42721343Y-85503909D01*
X42722419Y-85501701D01*
X42723673Y-85499575D01*
X42725112Y-85497515D01*
X42726745Y-85495507D01*
X42728580Y-85493534D01*
X42730626Y-85491581D01*
X42732891Y-85489632D01*
X42735383Y-85487671D01*
X42738112Y-85485682D01*
X42744310Y-85481562D01*
X42751552Y-85477144D01*
X42769441Y-85466917D01*
X42782641Y-85459927D01*
X42795808Y-85453788D01*
X42808873Y-85448504D01*
X42821765Y-85444078D01*
X42834414Y-85440513D01*
X42846750Y-85437812D01*
X42858703Y-85435979D01*
X42870201Y-85435017D01*
X42881176Y-85434929D01*
X42891556Y-85435719D01*
X42901272Y-85437389D01*
X42910254Y-85439944D01*
X42914447Y-85441554D01*
X42918430Y-85443386D01*
X42922195Y-85445441D01*
X42925732Y-85447719D01*
X42929032Y-85450220D01*
X42932088Y-85452946D01*
X42934890Y-85455896D01*
X42937429Y-85459070D01*
X42939774Y-85463021D01*
X42942882Y-85469453D01*
X42951176Y-85489188D01*
X42961900Y-85517124D01*
X42974643Y-85552109D01*
X42988995Y-85592995D01*
X43004544Y-85638630D01*
X43020881Y-85687865D01*
X43037593Y-85739548D01*
X43069758Y-85838428D01*
X43097256Y-85919402D01*
X43117167Y-85974115D01*
X43123364Y-85989011D01*
X43125364Y-85992888D01*
X43126570Y-85994209D01*
X43127074Y-85993879D01*
X43127789Y-85992900D01*
X43129826Y-85989059D01*
X43132634Y-85982815D01*
X43136167Y-85974298D01*
X43145217Y-85950961D01*
X43156603Y-85920084D01*
X43169948Y-85882701D01*
X43184879Y-85839848D01*
X43201019Y-85792559D01*
X43217994Y-85741869D01*
X43243693Y-85664980D01*
X43264386Y-85604884D01*
X43281144Y-85559209D01*
X43295039Y-85525583D01*
X43301247Y-85512546D01*
X43307141Y-85501632D01*
X43312856Y-85492543D01*
X43318523Y-85484984D01*
X43324279Y-85478657D01*
X43330256Y-85473266D01*
X43336588Y-85468515D01*
X43343410Y-85464106D01*
X43347852Y-85461516D01*
X43352549Y-85458998D01*
X43357462Y-85456565D01*
X43362550Y-85454231D01*
X43367773Y-85452008D01*
X43373089Y-85449909D01*
X43378459Y-85447947D01*
X43383842Y-85446136D01*
X43389198Y-85444489D01*
X43394484Y-85443018D01*
X43399663Y-85441737D01*
X43404691Y-85440659D01*
X43409530Y-85439796D01*
X43414139Y-85439162D01*
X43418476Y-85438770D01*
X43422502Y-85438633D01*
X43429059Y-85438784D01*
X43435402Y-85439275D01*
X43441549Y-85440135D01*
X43447518Y-85441395D01*
X43453328Y-85443086D01*
X43458997Y-85445238D01*
X43464543Y-85447881D01*
X43469984Y-85451045D01*
X43475338Y-85454761D01*
X43480624Y-85459059D01*
X43485859Y-85463970D01*
X43491062Y-85469523D01*
X43496251Y-85475750D01*
X43501444Y-85482680D01*
X43506659Y-85490344D01*
X43511914Y-85498771D01*
X43517228Y-85507994D01*
X43522619Y-85518040D01*
X43528105Y-85528943D01*
X43533704Y-85540730D01*
X43539434Y-85553433D01*
X43545313Y-85567082D01*
X43551360Y-85581708D01*
X43557592Y-85597340D01*
X43570687Y-85631747D01*
X43584743Y-85670544D01*
X43599904Y-85713974D01*
X43616317Y-85762281D01*
X43700678Y-86013218D01*
X43792218Y-85738596D01*
X43827180Y-85634928D01*
X43855347Y-85556282D01*
X43867548Y-85525387D01*
X43878846Y-85499602D01*
X43889509Y-85478544D01*
X43899802Y-85461831D01*
X43909990Y-85449081D01*
X43915128Y-85444073D01*
X43920339Y-85439912D01*
X43925657Y-85436551D01*
X43931114Y-85433942D01*
X43936745Y-85432037D01*
X43942582Y-85430788D01*
X43955008Y-85430069D01*
X43968657Y-85431403D01*
G37*
X43968657Y-85431403D02*
X43983794Y-85434407D01*
X44000687Y-85438699D01*
X44011740Y-85442055D01*
X44022720Y-85446118D01*
X44033539Y-85450815D01*
X44044108Y-85456074D01*
X44054340Y-85461822D01*
X44064145Y-85467985D01*
X44073436Y-85474492D01*
X44082124Y-85481269D01*
X44090121Y-85488243D01*
X44097339Y-85495342D01*
X44103688Y-85502492D01*
X44109081Y-85509622D01*
X44113429Y-85516658D01*
X44115184Y-85520118D01*
X44116645Y-85523527D01*
X44117800Y-85526876D01*
X44118639Y-85530156D01*
X44119150Y-85533358D01*
X44119323Y-85536474D01*
X44118535Y-85540768D01*
X44116225Y-85549427D01*
X44107344Y-85578895D01*
X44074728Y-85679824D01*
X44026457Y-85824156D01*
X43967510Y-85996788D01*
X43912035Y-86156833D01*
X43868432Y-86278525D01*
X43833873Y-86367107D01*
X43819101Y-86400620D01*
X43805529Y-86427823D01*
X43792804Y-86449370D01*
X43780571Y-86465918D01*
X43768478Y-86478121D01*
X43756171Y-86486636D01*
X43743296Y-86492117D01*
X43729499Y-86495221D01*
X43714428Y-86496603D01*
X43697727Y-86496917D01*
X43690303Y-86496791D01*
X43683177Y-86496388D01*
X43676329Y-86495677D01*
X43669737Y-86494624D01*
X43663381Y-86493197D01*
X43657239Y-86491363D01*
X43651291Y-86489087D01*
X43645515Y-86486339D01*
X43639891Y-86483084D01*
X43634398Y-86479290D01*
X43629014Y-86474923D01*
X43623719Y-86469951D01*
X43618492Y-86464341D01*
X43613312Y-86458060D01*
X43608157Y-86451075D01*
X43603008Y-86443352D01*
X43597842Y-86434859D01*
X43592639Y-86425564D01*
X43587378Y-86415432D01*
X43582038Y-86404432D01*
X43576599Y-86392529D01*
X43571038Y-86379692D01*
X43565335Y-86365886D01*
X43559469Y-86351080D01*
X43547166Y-86318334D01*
X43533958Y-86281188D01*
X43519681Y-86239381D01*
X43504164Y-86192646D01*
X43473904Y-86101950D01*
X43447740Y-86026145D01*
X43428470Y-85973162D01*
X43422294Y-85957708D01*
X43418891Y-85950933D01*
X43418308Y-85950735D01*
X43417514Y-85951182D01*
X43416515Y-85952259D01*
X43415317Y-85953951D01*
X43412347Y-85959119D01*
X43408653Y-85966564D01*
X43404282Y-85976162D01*
X43399282Y-85987793D01*
X43387588Y-86016664D01*
X43373955Y-86052199D01*
X43358768Y-86093422D01*
X43342410Y-86139356D01*
X43325265Y-86189026D01*
X43305978Y-86244754D01*
X43287786Y-86295310D01*
X43270858Y-86340285D01*
X43255362Y-86379269D01*
X43241466Y-86411853D01*
X43229337Y-86437629D01*
X43219143Y-86456187D01*
X43214825Y-86462632D01*
X43211054Y-86467119D01*
X43207126Y-86470813D01*
X43202978Y-86474269D01*
X43198624Y-86477486D01*
X43194079Y-86480465D01*
X43189355Y-86483205D01*
X43184468Y-86485707D01*
X43179432Y-86487970D01*
X43174259Y-86489995D01*
X43168965Y-86491781D01*
X43163563Y-86493329D01*
X43158068Y-86494638D01*
X43152493Y-86495709D01*
X43146852Y-86496541D01*
X43141160Y-86497135D01*
X43129677Y-86497607D01*
X43118156Y-86497126D01*
X43106709Y-86495691D01*
X43101048Y-86494616D01*
X43095448Y-86493302D01*
X43089923Y-86491750D01*
X43084486Y-86489959D01*
X43079152Y-86487931D01*
X43073934Y-86485663D01*
X43068847Y-86483158D01*
X43063905Y-86480414D01*
X43059122Y-86477431D01*
X43054512Y-86474210D01*
X43050088Y-86470751D01*
X43045865Y-86467053D01*
X43045865Y-86467059D01*
X43041183Y-86461817D01*
X43035876Y-86454142D01*
X43029898Y-86443919D01*
X43023204Y-86431034D01*
X43015747Y-86415373D01*
X43007483Y-86396821D01*
X42998366Y-86375264D01*
X42988350Y-86350589D01*
X42977389Y-86322680D01*
X42965439Y-86291424D01*
X42938386Y-86218411D01*
X42906827Y-86130638D01*
X42870396Y-86027189D01*
X42814267Y-85863284D01*
X42767336Y-85720102D01*
X42734514Y-85613054D01*
X42724929Y-85577895D01*
X42720713Y-85557548D01*
X42718776Y-85538106D01*
X42718230Y-85530068D01*
X42718056Y-85522985D01*
X42718129Y-85519763D01*
X42718320Y-85516732D01*
X42718638Y-85513878D01*
X42719091Y-85511184D01*
X42719687Y-85508635D01*
X42720435Y-85506215D01*
X42721343Y-85503909D01*
X42722419Y-85501701D01*
X42723673Y-85499575D01*
X42725112Y-85497515D01*
X42726745Y-85495507D01*
X42728580Y-85493534D01*
X42730626Y-85491581D01*
X42732891Y-85489632D01*
X42735383Y-85487671D01*
X42738112Y-85485682D01*
X42744310Y-85481562D01*
X42751552Y-85477144D01*
X42769441Y-85466917D01*
X42782641Y-85459927D01*
X42795808Y-85453788D01*
X42808873Y-85448504D01*
X42821765Y-85444078D01*
X42834414Y-85440513D01*
X42846750Y-85437812D01*
X42858703Y-85435979D01*
X42870201Y-85435017D01*
X42881176Y-85434929D01*
X42891556Y-85435719D01*
X42901272Y-85437389D01*
X42910254Y-85439944D01*
X42914447Y-85441554D01*
X42918430Y-85443386D01*
X42922195Y-85445441D01*
X42925732Y-85447719D01*
X42929032Y-85450220D01*
X42932088Y-85452946D01*
X42934890Y-85455896D01*
X42937429Y-85459070D01*
X42939774Y-85463021D01*
X42942882Y-85469453D01*
X42951176Y-85489188D01*
X42961900Y-85517124D01*
X42974643Y-85552109D01*
X42988995Y-85592995D01*
X43004544Y-85638630D01*
X43020881Y-85687865D01*
X43037593Y-85739548D01*
X43069758Y-85838428D01*
X43097256Y-85919402D01*
X43117167Y-85974115D01*
X43123364Y-85989011D01*
X43125364Y-85992888D01*
X43126570Y-85994209D01*
X43127074Y-85993879D01*
X43127789Y-85992900D01*
X43129826Y-85989059D01*
X43132634Y-85982815D01*
X43136167Y-85974298D01*
X43145217Y-85950961D01*
X43156603Y-85920084D01*
X43169948Y-85882701D01*
X43184879Y-85839848D01*
X43201019Y-85792559D01*
X43217994Y-85741869D01*
X43243693Y-85664980D01*
X43264386Y-85604884D01*
X43281144Y-85559209D01*
X43295039Y-85525583D01*
X43301247Y-85512546D01*
X43307141Y-85501632D01*
X43312856Y-85492543D01*
X43318523Y-85484984D01*
X43324279Y-85478657D01*
X43330256Y-85473266D01*
X43336588Y-85468515D01*
X43343410Y-85464106D01*
X43347852Y-85461516D01*
X43352549Y-85458998D01*
X43357462Y-85456565D01*
X43362550Y-85454231D01*
X43367773Y-85452008D01*
X43373089Y-85449909D01*
X43378459Y-85447947D01*
X43383842Y-85446136D01*
X43389198Y-85444489D01*
X43394484Y-85443018D01*
X43399663Y-85441737D01*
X43404691Y-85440659D01*
X43409530Y-85439796D01*
X43414139Y-85439162D01*
X43418476Y-85438770D01*
X43422502Y-85438633D01*
X43429059Y-85438784D01*
X43435402Y-85439275D01*
X43441549Y-85440135D01*
X43447518Y-85441395D01*
X43453328Y-85443086D01*
X43458997Y-85445238D01*
X43464543Y-85447881D01*
X43469984Y-85451045D01*
X43475338Y-85454761D01*
X43480624Y-85459059D01*
X43485859Y-85463970D01*
X43491062Y-85469523D01*
X43496251Y-85475750D01*
X43501444Y-85482680D01*
X43506659Y-85490344D01*
X43511914Y-85498771D01*
X43517228Y-85507994D01*
X43522619Y-85518040D01*
X43528105Y-85528943D01*
X43533704Y-85540730D01*
X43539434Y-85553433D01*
X43545313Y-85567082D01*
X43551360Y-85581708D01*
X43557592Y-85597340D01*
X43570687Y-85631747D01*
X43584743Y-85670544D01*
X43599904Y-85713974D01*
X43616317Y-85762281D01*
X43700678Y-86013218D01*
X43792218Y-85738596D01*
X43827180Y-85634928D01*
X43855347Y-85556282D01*
X43867548Y-85525387D01*
X43878846Y-85499602D01*
X43889509Y-85478544D01*
X43899802Y-85461831D01*
X43909990Y-85449081D01*
X43915128Y-85444073D01*
X43920339Y-85439912D01*
X43925657Y-85436551D01*
X43931114Y-85433942D01*
X43936745Y-85432037D01*
X43942582Y-85430788D01*
X43955008Y-85430069D01*
X43968657Y-85431403D01*
G36*
X41075248Y-82824634D02*
G01*
X41083014Y-82741650D01*
X41088095Y-82705505D01*
X41093977Y-82673688D01*
X41120944Y-82561718D01*
X41153423Y-82452666D01*
X41191308Y-82346672D01*
X41234491Y-82243878D01*
X41282867Y-82144424D01*
X41336328Y-82048451D01*
X41394767Y-81956099D01*
X41458078Y-81867510D01*
X41526155Y-81782824D01*
X41598890Y-81702182D01*
X41676176Y-81625724D01*
X41757908Y-81553592D01*
X41843978Y-81485926D01*
X41934279Y-81422866D01*
X42028705Y-81364555D01*
X42127150Y-81311131D01*
X42182394Y-81283937D01*
X42236888Y-81258806D01*
X42290813Y-81235698D01*
X42344346Y-81214568D01*
X42397667Y-81195376D01*
X42450954Y-81178078D01*
X42504386Y-81162633D01*
X42558141Y-81148999D01*
X42612400Y-81137133D01*
X42667340Y-81126993D01*
X42723140Y-81118537D01*
X42779979Y-81111723D01*
X42838036Y-81106508D01*
X42897490Y-81102850D01*
X42958519Y-81100707D01*
X43021302Y-81100037D01*
X43101388Y-81101815D01*
X43183385Y-81106841D01*
X43265503Y-81114842D01*
X43345953Y-81125548D01*
X43422943Y-81138688D01*
X43494685Y-81153990D01*
X43528028Y-81162368D01*
X43559387Y-81171184D01*
X43588539Y-81180406D01*
X43615261Y-81189998D01*
X43686667Y-81217422D01*
X43756166Y-81146804D01*
X43763647Y-81139413D01*
X43771706Y-81131843D01*
X43780268Y-81124148D01*
X43789257Y-81116386D01*
X43808215Y-81100880D01*
X43827979Y-81085769D01*
X43847946Y-81071499D01*
X43857818Y-81064819D01*
X43867514Y-81058516D01*
X43876960Y-81052647D01*
X43886080Y-81047265D01*
X43894799Y-81042429D01*
X43903041Y-81038192D01*
X43915667Y-81032078D01*
X43927340Y-81026651D01*
X43938289Y-81021870D01*
X43948744Y-81017695D01*
X43958935Y-81014087D01*
X43969092Y-81011004D01*
X43979444Y-81008406D01*
X43990222Y-81006253D01*
X44001655Y-81004505D01*
X44013972Y-81003120D01*
X44027404Y-81002059D01*
X44042180Y-81001282D01*
X44058531Y-81000748D01*
X44076685Y-81000416D01*
X44119323Y-81000199D01*
X44161888Y-81000417D01*
X44196357Y-81001283D01*
X44211123Y-81002059D01*
X44224548Y-81003115D01*
X44236857Y-81004493D01*
X44248279Y-81006231D01*
X44259040Y-81008369D01*
X44269368Y-81010947D01*
X44279491Y-81014005D01*
X44289634Y-81017582D01*
X44300027Y-81021719D01*
X44310895Y-81026454D01*
X44334969Y-81037881D01*
X44353241Y-81047424D01*
X44371432Y-81058043D01*
X44389469Y-81069668D01*
X44407280Y-81082224D01*
X44424791Y-81095640D01*
X44441931Y-81109843D01*
X44458627Y-81124761D01*
X44474805Y-81140321D01*
X44490394Y-81156450D01*
X44505320Y-81173076D01*
X44519511Y-81190127D01*
X44532895Y-81207530D01*
X44545398Y-81225213D01*
X44556948Y-81243103D01*
X44567472Y-81261128D01*
X44576898Y-81279215D01*
X44582033Y-81289975D01*
X44586744Y-81300426D01*
X44591050Y-81310656D01*
X44594972Y-81320752D01*
X44598530Y-81330803D01*
X44601745Y-81340896D01*
X44604637Y-81351119D01*
X44607226Y-81361559D01*
X44609531Y-81372305D01*
X44611575Y-81383443D01*
X44613376Y-81395063D01*
X44614956Y-81407250D01*
X44616333Y-81420094D01*
X44617530Y-81433682D01*
X44618565Y-81448101D01*
X44619459Y-81463440D01*
X44620405Y-81484879D01*
X44620893Y-81505010D01*
X44620890Y-81523996D01*
X44620360Y-81542000D01*
X44619267Y-81559187D01*
X44617578Y-81575720D01*
X44615257Y-81591762D01*
X44612270Y-81607477D01*
X44608581Y-81623029D01*
X44604156Y-81638580D01*
X44598959Y-81654296D01*
X44592956Y-81670339D01*
X44586111Y-81686873D01*
X44578390Y-81704062D01*
X44569758Y-81722068D01*
X44560180Y-81741057D01*
X44526093Y-81807227D01*
X44613878Y-81936704D01*
X44702870Y-82080082D01*
X44778610Y-82227639D01*
X44841142Y-82378655D01*
X44890508Y-82532412D01*
X44926752Y-82688192D01*
X44949915Y-82845276D01*
X44960040Y-83002944D01*
X44957171Y-83160480D01*
X44941350Y-83317163D01*
X44912620Y-83472275D01*
X44871023Y-83625098D01*
X44816602Y-83774913D01*
X44749401Y-83921001D01*
X44669461Y-84062644D01*
X44576826Y-84199123D01*
X44525760Y-84265201D01*
X44471537Y-84329719D01*
X44436310Y-84369007D01*
X44401497Y-84405870D01*
X44366524Y-84440830D01*
X44348799Y-84457762D01*
X44330817Y-84474414D01*
X44312508Y-84490853D01*
X44293800Y-84507145D01*
X44254898Y-84539547D01*
X44213537Y-84572144D01*
X44169140Y-84605462D01*
X44106509Y-84651449D01*
X44114409Y-84725610D01*
X44115969Y-84744943D01*
X44116528Y-84764107D01*
X44116109Y-84783075D01*
X44114734Y-84801821D01*
X44112425Y-84820317D01*
X44109203Y-84838537D01*
X44105092Y-84856455D01*
X44100113Y-84874044D01*
X44094288Y-84891278D01*
X44087640Y-84908131D01*
X44080191Y-84924574D01*
X44071963Y-84940584D01*
X44062977Y-84956131D01*
X44053257Y-84971191D01*
X44042824Y-84985737D01*
X44031700Y-84999742D01*
X44019908Y-85013179D01*
X44007470Y-85026022D01*
X43994407Y-85038245D01*
X43980743Y-85049821D01*
X43966499Y-85060724D01*
X43951697Y-85070926D01*
X43936359Y-85080402D01*
X43920508Y-85089125D01*
X43904166Y-85097068D01*
X43887354Y-85104206D01*
X43870096Y-85110511D01*
X43852412Y-85115956D01*
X43834326Y-85120516D01*
X43815860Y-85124164D01*
X43797035Y-85126874D01*
X43777873Y-85128618D01*
X43761846Y-85129321D01*
X43745140Y-85129441D01*
X43728246Y-85129014D01*
X43711655Y-85128076D01*
X43695859Y-85126661D01*
X43681348Y-85124807D01*
X43668614Y-85122547D01*
X43663066Y-85121277D01*
X43658147Y-85119919D01*
X43658148Y-85119919D01*
X43645836Y-85115841D01*
X43633390Y-85111099D01*
X43620860Y-85105728D01*
X43608299Y-85099764D01*
X43595758Y-85093242D01*
X43583289Y-85086196D01*
X43570945Y-85078663D01*
X43558777Y-85070678D01*
X43546836Y-85062276D01*
X43535176Y-85053492D01*
X43523847Y-85044361D01*
X43512902Y-85034919D01*
X43502392Y-85025201D01*
X43492370Y-85015242D01*
X43482887Y-85005078D01*
X43473995Y-84994743D01*
X43467680Y-84987180D01*
X43461861Y-84980454D01*
X43456463Y-84974525D01*
X43451407Y-84969355D01*
X43446618Y-84964907D01*
X43444300Y-84962942D01*
X43442019Y-84961143D01*
X43439767Y-84959504D01*
X43437533Y-84958023D01*
X43435309Y-84956693D01*
X43433084Y-84955509D01*
X43430848Y-84954468D01*
X43428594Y-84953564D01*
X43426309Y-84952793D01*
X43423987Y-84952150D01*
X43421615Y-84951629D01*
X43419186Y-84951226D01*
X43416689Y-84950937D01*
X43414114Y-84950757D01*
X43411453Y-84950680D01*
X43408696Y-84950703D01*
X43402854Y-84951026D01*
X43396511Y-84951687D01*
X43389590Y-84952650D01*
X43313716Y-84963832D01*
X43248200Y-84972592D01*
X43190473Y-84979108D01*
X43137964Y-84983553D01*
X43088103Y-84986104D01*
X43038318Y-84986936D01*
X42986040Y-84986225D01*
X42928698Y-84984147D01*
X42852711Y-84979490D01*
X42778085Y-84972332D01*
X42704764Y-84962653D01*
X42632693Y-84950433D01*
X42561815Y-84935652D01*
X42492073Y-84918290D01*
X42423413Y-84898328D01*
X42355778Y-84875744D01*
X42289111Y-84850520D01*
X42223357Y-84822635D01*
X42158460Y-84792070D01*
X42094363Y-84758803D01*
X42031010Y-84722816D01*
X41968346Y-84684089D01*
X41906313Y-84642600D01*
X41844857Y-84598332D01*
X41773846Y-84542532D01*
X41705558Y-84483221D01*
X41640100Y-84420573D01*
X41577579Y-84354761D01*
X41518101Y-84285960D01*
X41461774Y-84214342D01*
X41408704Y-84140081D01*
X41358998Y-84063351D01*
X41312764Y-83984326D01*
X41270108Y-83903178D01*
X41231136Y-83820082D01*
X41195957Y-83735211D01*
X41164677Y-83648738D01*
X41137403Y-83560838D01*
X41114242Y-83471684D01*
X41095300Y-83381449D01*
X41089290Y-83344838D01*
X41084066Y-83304538D01*
X41075978Y-83215163D01*
X41071043Y-83117904D01*
X41069271Y-83017342D01*
X41069411Y-83007444D01*
X41197733Y-83007444D01*
X41197929Y-83040437D01*
X41199388Y-83072821D01*
X41202003Y-83102958D01*
X41203711Y-83116671D01*
X41205667Y-83129207D01*
X41207860Y-83140361D01*
X41210274Y-83149929D01*
X41212897Y-83157704D01*
X41215716Y-83163483D01*
X41216324Y-83164151D01*
X41217310Y-83164811D01*
X41220376Y-83166098D01*
X41224838Y-83167340D01*
X41230617Y-83168529D01*
X41237637Y-83169659D01*
X41245820Y-83170723D01*
X41255088Y-83171716D01*
X41265365Y-83172631D01*
X41288633Y-83174203D01*
X41315005Y-83175388D01*
X41343863Y-83176136D01*
X41374587Y-83176397D01*
X41420097Y-83176553D01*
X41455795Y-83177160D01*
X41483024Y-83178428D01*
X41493882Y-83179375D01*
X41503127Y-83180565D01*
X41510927Y-83182025D01*
X41517450Y-83183780D01*
X41522863Y-83185858D01*
X41527335Y-83188283D01*
X41531034Y-83191082D01*
X41534127Y-83194282D01*
X41536784Y-83197907D01*
X41539171Y-83201985D01*
X41543030Y-83209494D01*
X41546389Y-83216675D01*
X41549236Y-83223533D01*
X41551563Y-83230074D01*
X41553360Y-83236305D01*
X41554617Y-83242232D01*
X41555325Y-83247860D01*
X41555475Y-83253194D01*
X41555056Y-83258242D01*
X41554060Y-83263009D01*
X41552477Y-83267500D01*
X41550296Y-83271722D01*
X41547510Y-83275681D01*
X41544108Y-83279383D01*
X41540080Y-83282832D01*
X41535418Y-83286036D01*
X41530111Y-83289000D01*
X41524151Y-83291730D01*
X41517527Y-83294232D01*
X41510230Y-83296512D01*
X41502251Y-83298576D01*
X41493579Y-83300429D01*
X41484207Y-83302078D01*
X41474123Y-83303528D01*
X41463318Y-83304786D01*
X41451784Y-83305857D01*
X41439510Y-83306746D01*
X41426487Y-83307461D01*
X41398155Y-83308389D01*
X41366712Y-83308688D01*
X41329811Y-83308898D01*
X41299032Y-83309553D01*
X41274005Y-83310697D01*
X41254361Y-83312372D01*
X41246442Y-83313422D01*
X41239730Y-83314620D01*
X41234179Y-83315972D01*
X41229744Y-83317483D01*
X41226377Y-83319159D01*
X41224033Y-83321004D01*
X41222666Y-83323024D01*
X41222229Y-83325225D01*
X41222857Y-83333550D01*
X41224601Y-83345310D01*
X41231026Y-83377578D01*
X41240681Y-83418915D01*
X41252744Y-83466208D01*
X41266394Y-83516341D01*
X41280808Y-83566202D01*
X41295165Y-83612675D01*
X41308642Y-83652647D01*
X41325942Y-83697537D01*
X41347556Y-83748278D01*
X41372074Y-83802022D01*
X41398081Y-83855918D01*
X41424168Y-83907119D01*
X41448920Y-83952776D01*
X41470928Y-83990039D01*
X41480461Y-84004633D01*
X41488777Y-84016061D01*
X41514860Y-84049220D01*
X42038440Y-84052678D01*
X42321372Y-84055183D01*
X42414275Y-84056877D01*
X42480903Y-84059161D01*
X42525831Y-84062253D01*
X42553636Y-84066375D01*
X42562547Y-84068891D01*
X42568894Y-84071747D01*
X42573247Y-84074970D01*
X42576179Y-84078589D01*
X42577874Y-84081494D01*
X42579352Y-84084492D01*
X42580613Y-84087587D01*
X42581657Y-84090783D01*
X42582484Y-84094081D01*
X42583095Y-84097487D01*
X42583489Y-84101002D01*
X42583667Y-84104630D01*
X42583628Y-84108375D01*
X42583373Y-84112239D01*
X42582902Y-84116226D01*
X42582214Y-84120340D01*
X42581310Y-84124582D01*
X42580191Y-84128958D01*
X42578854Y-84133470D01*
X42577302Y-84138120D01*
X42564266Y-84175199D01*
X42091639Y-84178673D01*
X41908126Y-84180886D01*
X41757845Y-84184341D01*
X41656304Y-84188567D01*
X41628657Y-84190821D01*
X41621463Y-84191957D01*
X41619011Y-84193090D01*
X41619140Y-84193784D01*
X41619522Y-84194731D01*
X41621020Y-84197356D01*
X41623455Y-84200910D01*
X41626777Y-84205335D01*
X41630935Y-84210572D01*
X41635879Y-84216565D01*
X41647922Y-84230586D01*
X41662503Y-84246938D01*
X41679218Y-84265160D01*
X41697662Y-84284791D01*
X41717433Y-84305371D01*
X41815855Y-84406709D01*
X42465750Y-84406709D01*
X42747277Y-84407596D01*
X42955761Y-84410216D01*
X43088110Y-84414506D01*
X43124769Y-84417258D01*
X43141235Y-84420404D01*
X43144104Y-84422122D01*
X43146804Y-84424105D01*
X43149335Y-84426338D01*
X43151696Y-84428806D01*
X43153886Y-84431493D01*
X43155904Y-84434384D01*
X43157751Y-84437464D01*
X43159424Y-84440718D01*
X43160924Y-84444130D01*
X43162250Y-84447686D01*
X43163401Y-84451371D01*
X43164376Y-84455168D01*
X43165176Y-84459063D01*
X43165799Y-84463040D01*
X43166244Y-84467085D01*
X43166511Y-84471183D01*
X43166600Y-84475317D01*
X43166509Y-84479473D01*
X43166238Y-84483636D01*
X43165787Y-84487790D01*
X43165154Y-84491920D01*
X43164339Y-84496012D01*
X43163341Y-84500049D01*
X43162160Y-84504017D01*
X43160795Y-84507901D01*
X43159246Y-84511685D01*
X43157511Y-84515353D01*
X43155590Y-84518892D01*
X43153483Y-84522285D01*
X43151188Y-84525518D01*
X43148706Y-84528575D01*
X43146035Y-84531442D01*
X43144159Y-84533105D01*
X43141906Y-84534680D01*
X43139208Y-84536167D01*
X43135999Y-84537571D01*
X43132212Y-84538893D01*
X43127780Y-84540136D01*
X43122636Y-84541302D01*
X43116713Y-84542393D01*
X43109945Y-84543413D01*
X43102264Y-84544363D01*
X43083900Y-84546065D01*
X43061084Y-84547518D01*
X43033283Y-84548742D01*
X42999962Y-84549757D01*
X42960587Y-84550582D01*
X42914623Y-84551237D01*
X42861535Y-84551741D01*
X42731851Y-84552376D01*
X42567259Y-84552643D01*
X42009271Y-84553056D01*
X42062188Y-84586421D01*
X42099299Y-84609174D01*
X42136695Y-84630794D01*
X42174506Y-84651328D01*
X42212865Y-84670823D01*
X42251900Y-84689327D01*
X42291744Y-84706887D01*
X42332525Y-84723550D01*
X42374376Y-84739365D01*
X42417426Y-84754377D01*
X42461806Y-84768636D01*
X42507647Y-84782187D01*
X42555079Y-84795080D01*
X42604233Y-84807360D01*
X42655240Y-84819076D01*
X42708230Y-84830275D01*
X42763334Y-84841004D01*
X42783303Y-84844106D01*
X42807488Y-84846807D01*
X42866101Y-84851002D01*
X42934362Y-84853579D01*
X43007459Y-84854529D01*
X43080584Y-84853844D01*
X43148925Y-84851515D01*
X43207673Y-84847533D01*
X43231946Y-84844920D01*
X43252016Y-84841890D01*
X43252017Y-84841890D01*
X43361954Y-84821794D01*
X43366201Y-84820904D01*
X43368174Y-84820401D01*
X43370050Y-84819855D01*
X43371831Y-84819262D01*
X43373518Y-84818619D01*
X43375115Y-84817922D01*
X43376622Y-84817168D01*
X43378043Y-84816352D01*
X43379379Y-84815473D01*
X43380633Y-84814525D01*
X43381807Y-84813506D01*
X43382902Y-84812412D01*
X43383922Y-84811239D01*
X43384867Y-84809985D01*
X43385741Y-84808644D01*
X43386545Y-84807214D01*
X43387282Y-84805692D01*
X43387954Y-84804073D01*
X43388562Y-84802355D01*
X43389110Y-84800533D01*
X43389598Y-84798604D01*
X43390030Y-84796565D01*
X43390407Y-84794412D01*
X43390732Y-84792141D01*
X43391007Y-84789750D01*
X43391414Y-84784589D01*
X43391646Y-84778902D01*
X43391719Y-84772660D01*
X43392225Y-84754842D01*
X43393723Y-84737142D01*
X43396185Y-84719590D01*
X43399580Y-84702216D01*
X43403880Y-84685048D01*
X43409056Y-84668115D01*
X43415079Y-84651448D01*
X43421919Y-84635076D01*
X43429547Y-84619027D01*
X43437935Y-84603331D01*
X43447052Y-84588018D01*
X43456871Y-84573116D01*
X43467361Y-84558656D01*
X43478493Y-84544665D01*
X43490239Y-84531175D01*
X43502569Y-84518214D01*
X43515454Y-84505811D01*
X43528865Y-84493996D01*
X43542773Y-84482797D01*
X43557149Y-84472245D01*
X43571963Y-84462369D01*
X43587186Y-84453198D01*
X43602790Y-84444761D01*
X43618745Y-84437087D01*
X43635021Y-84430207D01*
X43651590Y-84424149D01*
X43668423Y-84418942D01*
X43685491Y-84414616D01*
X43702763Y-84411201D01*
X43720212Y-84408725D01*
X43737808Y-84407218D01*
X43755521Y-84406709D01*
X43769315Y-84407141D01*
X43783644Y-84408410D01*
X43798407Y-84410478D01*
X43813501Y-84413307D01*
X43828825Y-84416857D01*
X43844275Y-84421091D01*
X43859750Y-84425970D01*
X43875147Y-84431455D01*
X43890364Y-84437508D01*
X43905300Y-84444090D01*
X43919851Y-84451163D01*
X43933915Y-84458688D01*
X43947390Y-84466627D01*
X43960174Y-84474941D01*
X43972165Y-84483591D01*
X43983260Y-84492540D01*
X44037865Y-84539279D01*
X44134818Y-84462127D01*
X44174853Y-84428819D01*
X44219302Y-84389472D01*
X44265159Y-84347036D01*
X44309418Y-84304460D01*
X44349074Y-84264693D01*
X44381121Y-84230684D01*
X44393351Y-84216761D01*
X44402553Y-84205384D01*
X44408349Y-84196921D01*
X44409853Y-84193897D01*
X44410365Y-84191741D01*
X44406535Y-84190730D01*
X44395298Y-84189747D01*
X44352117Y-84187886D01*
X44193522Y-84184730D01*
X43958802Y-84182597D01*
X43672177Y-84181813D01*
X43321262Y-84181016D01*
X43090944Y-84178364D01*
X43015229Y-84176221D01*
X42962727Y-84173468D01*
X42931127Y-84170057D01*
X42922442Y-84168089D01*
X42918115Y-84165938D01*
X42916498Y-84164143D01*
X42914926Y-84162047D01*
X42913408Y-84159678D01*
X42911951Y-84157060D01*
X42910564Y-84154220D01*
X42909255Y-84151183D01*
X42908032Y-84147976D01*
X42906903Y-84144623D01*
X42905877Y-84141151D01*
X42904961Y-84137585D01*
X42904163Y-84133951D01*
X42903493Y-84130275D01*
X42902957Y-84126583D01*
X42902564Y-84122901D01*
X42902322Y-84119254D01*
X42902240Y-84115667D01*
X42902322Y-84112081D01*
X42902564Y-84108434D01*
X42902957Y-84104752D01*
X42903493Y-84101060D01*
X42904163Y-84097384D01*
X42904961Y-84093750D01*
X42905877Y-84090184D01*
X42906903Y-84086712D01*
X42908032Y-84083359D01*
X42909255Y-84080152D01*
X42910564Y-84077115D01*
X42911951Y-84074275D01*
X42913408Y-84071657D01*
X42914926Y-84069288D01*
X42916498Y-84067192D01*
X42918115Y-84065397D01*
X42919788Y-84064296D01*
X42922586Y-84063242D01*
X42931713Y-84061271D01*
X42945808Y-84059478D01*
X42965189Y-84057857D01*
X42990168Y-84056400D01*
X43021061Y-84055103D01*
X43101845Y-84052962D01*
X43210061Y-84051382D01*
X43348223Y-84050316D01*
X43518850Y-84049712D01*
X43724459Y-84049522D01*
X44514927Y-84049522D01*
X44553492Y-83993298D01*
X44563098Y-83978900D01*
X44572936Y-83963399D01*
X44593119Y-83929461D01*
X44613663Y-83892234D01*
X44634195Y-83852468D01*
X44654339Y-83810912D01*
X44673720Y-83768317D01*
X44691962Y-83725433D01*
X44708691Y-83683010D01*
X44722857Y-83642801D01*
X44738683Y-83593468D01*
X44755074Y-83538963D01*
X44770937Y-83483234D01*
X44785179Y-83430232D01*
X44796706Y-83383906D01*
X44804424Y-83348207D01*
X44806513Y-83335576D01*
X44807240Y-83327084D01*
X44807022Y-83325682D01*
X44806341Y-83324350D01*
X44805157Y-83323087D01*
X44803431Y-83321891D01*
X44801122Y-83320760D01*
X44798191Y-83319692D01*
X44794599Y-83318686D01*
X44790305Y-83317740D01*
X44785269Y-83316853D01*
X44779453Y-83316023D01*
X44765316Y-83314525D01*
X44747578Y-83313234D01*
X44725920Y-83312136D01*
X44700022Y-83311218D01*
X44669568Y-83310466D01*
X44634238Y-83309866D01*
X44593715Y-83309406D01*
X44547681Y-83309072D01*
X44495816Y-83308850D01*
X44373324Y-83308688D01*
X44220203Y-83308547D01*
X44104971Y-83307614D01*
X44022242Y-83305124D01*
X43991383Y-83303056D01*
X43966631Y-83300312D01*
X43947311Y-83296796D01*
X43932752Y-83292412D01*
X43922279Y-83287066D01*
X43915220Y-83280661D01*
X43910901Y-83273102D01*
X43908650Y-83264293D01*
X43907657Y-83242543D01*
X43907790Y-83230938D01*
X43908085Y-83225683D01*
X43908646Y-83220777D01*
X43909558Y-83216207D01*
X43910172Y-83214045D01*
X43910906Y-83211963D01*
X43911770Y-83209959D01*
X43912776Y-83208032D01*
X43913934Y-83206180D01*
X43915254Y-83204401D01*
X43916747Y-83202695D01*
X43918424Y-83201060D01*
X43920295Y-83199493D01*
X43922372Y-83197995D01*
X43924664Y-83196563D01*
X43927183Y-83195195D01*
X43929939Y-83193891D01*
X43932942Y-83192649D01*
X43936205Y-83191467D01*
X43939736Y-83190343D01*
X43947649Y-83188267D01*
X43956767Y-83186407D01*
X43967175Y-83184753D01*
X43978957Y-83183292D01*
X43992201Y-83182012D01*
X44006991Y-83180901D01*
X44023412Y-83179947D01*
X44041550Y-83179138D01*
X44061489Y-83178463D01*
X44083316Y-83177908D01*
X44107116Y-83177463D01*
X44160976Y-83176853D01*
X44223750Y-83176535D01*
X44378775Y-83176397D01*
X44818144Y-83176397D01*
X44826904Y-83124547D01*
X44827717Y-83118453D01*
X44828352Y-83110937D01*
X44829101Y-83092065D01*
X44829178Y-83068786D01*
X44828609Y-83041953D01*
X44827421Y-83012423D01*
X44825641Y-82981049D01*
X44823295Y-82948685D01*
X44820409Y-82916188D01*
X44815527Y-82868565D01*
X44810503Y-82825418D01*
X44804990Y-82784678D01*
X44798640Y-82744278D01*
X44791104Y-82702148D01*
X44782034Y-82656221D01*
X44771083Y-82604429D01*
X44757902Y-82544704D01*
X44751239Y-82514938D01*
X43923693Y-82514938D01*
X43476669Y-82514313D01*
X43224258Y-82511447D01*
X43152960Y-82508709D01*
X43108630Y-82504853D01*
X43084037Y-82499693D01*
X43071953Y-82493044D01*
X43069218Y-82490454D01*
X43066654Y-82487789D01*
X43064261Y-82485056D01*
X43062039Y-82482256D01*
X43059988Y-82479395D01*
X43058108Y-82476477D01*
X43056399Y-82473505D01*
X43054863Y-82470484D01*
X43053497Y-82467418D01*
X43052303Y-82464310D01*
X43051281Y-82461165D01*
X43050431Y-82457986D01*
X43049753Y-82454778D01*
X43049247Y-82451545D01*
X43048913Y-82448291D01*
X43048751Y-82445019D01*
X43048761Y-82441734D01*
X43048944Y-82438440D01*
X43049299Y-82435141D01*
X43049827Y-82431840D01*
X43050527Y-82428543D01*
X43051401Y-82425252D01*
X43052447Y-82421972D01*
X43053666Y-82418708D01*
X43055058Y-82415462D01*
X43056623Y-82412239D01*
X43058361Y-82409043D01*
X43060273Y-82405879D01*
X43062358Y-82402749D01*
X43064617Y-82399658D01*
X43067049Y-82396611D01*
X43069655Y-82393610D01*
X43071686Y-82391524D01*
X43073974Y-82389560D01*
X43076644Y-82387716D01*
X43079824Y-82385988D01*
X43083639Y-82384371D01*
X43088218Y-82382863D01*
X43093686Y-82381460D01*
X43100170Y-82380157D01*
X43107797Y-82378952D01*
X43116693Y-82377839D01*
X43126986Y-82376816D01*
X43138800Y-82375880D01*
X43152264Y-82375025D01*
X43167504Y-82374248D01*
X43184646Y-82373547D01*
X43203818Y-82372916D01*
X43248755Y-82371852D01*
X43303328Y-82371027D01*
X43368551Y-82370410D01*
X43445436Y-82369973D01*
X43534997Y-82369685D01*
X43638246Y-82369517D01*
X43889863Y-82369417D01*
X44228548Y-82368558D01*
X44479196Y-82366057D01*
X44634757Y-82362027D01*
X44674676Y-82359473D01*
X44688178Y-82356581D01*
X44686383Y-82346238D01*
X44681231Y-82330841D01*
X44673071Y-82311013D01*
X44662252Y-82287379D01*
X44634030Y-82231185D01*
X44599355Y-82167250D01*
X44561017Y-82100566D01*
X44521807Y-82036124D01*
X44484513Y-81978915D01*
X44467458Y-81954583D01*
X44451927Y-81933931D01*
X44426729Y-81901934D01*
X44375552Y-81932197D01*
X44353979Y-81944237D01*
X44332033Y-81955086D01*
X44309754Y-81964754D01*
X44287181Y-81973250D01*
X44264356Y-81980584D01*
X44241318Y-81986765D01*
X44218107Y-81991802D01*
X44194764Y-81995705D01*
X44171329Y-81998483D01*
X44147841Y-82000146D01*
X44124342Y-82000704D01*
X44100871Y-82000164D01*
X44077469Y-81998538D01*
X44054176Y-81995834D01*
X44031031Y-81992062D01*
X44008076Y-81987231D01*
X43985350Y-81981351D01*
X43962893Y-81974430D01*
X43940746Y-81966480D01*
X43918949Y-81957508D01*
X43897541Y-81947524D01*
X43876564Y-81936539D01*
X43856058Y-81924560D01*
X43836062Y-81911598D01*
X43816617Y-81897662D01*
X43797762Y-81882762D01*
X43779539Y-81866907D01*
X43761988Y-81850105D01*
X43745147Y-81832368D01*
X43729059Y-81813703D01*
X43713762Y-81794122D01*
X43699297Y-81773632D01*
X43688003Y-81756292D01*
X43677467Y-81739169D01*
X43667918Y-81722707D01*
X43659589Y-81707347D01*
X43652709Y-81693532D01*
X43647510Y-81681704D01*
X43645612Y-81676674D01*
X43644221Y-81672306D01*
X43643365Y-81668656D01*
X43643073Y-81665779D01*
X43643021Y-81663763D01*
X43642845Y-81661863D01*
X43642514Y-81660075D01*
X43642282Y-81659222D01*
X43642000Y-81658395D01*
X43641665Y-81657595D01*
X43641273Y-81656821D01*
X43640820Y-81656073D01*
X43640303Y-81655349D01*
X43639717Y-81654650D01*
X43639059Y-81653976D01*
X43638326Y-81653325D01*
X43637513Y-81652698D01*
X43636618Y-81652093D01*
X43635635Y-81651512D01*
X43634562Y-81650952D01*
X43633395Y-81650414D01*
X43632130Y-81649897D01*
X43630763Y-81649401D01*
X43629291Y-81648926D01*
X43627710Y-81648470D01*
X43624205Y-81647618D01*
X43620219Y-81646840D01*
X43615723Y-81646135D01*
X43610686Y-81645497D01*
X43605080Y-81644924D01*
X43598873Y-81644413D01*
X43592037Y-81643959D01*
X43584542Y-81643561D01*
X43576357Y-81643214D01*
X43567454Y-81642914D01*
X43557802Y-81642659D01*
X43547373Y-81642446D01*
X43524059Y-81642129D01*
X43497277Y-81641935D01*
X43466787Y-81641839D01*
X43432352Y-81641813D01*
X43373172Y-81641624D01*
X43325216Y-81640978D01*
X43287192Y-81639760D01*
X43257808Y-81637854D01*
X43235773Y-81635143D01*
X43227108Y-81633450D01*
X43219795Y-81631512D01*
X43213673Y-81629315D01*
X43208582Y-81626844D01*
X43204358Y-81624086D01*
X43200841Y-81621025D01*
X43198170Y-81618159D01*
X43195688Y-81615102D01*
X43193393Y-81611869D01*
X43191286Y-81608475D01*
X43189365Y-81604937D01*
X43187630Y-81601268D01*
X43186080Y-81597484D01*
X43184716Y-81593601D01*
X43183535Y-81589633D01*
X43182537Y-81585595D01*
X43181089Y-81577374D01*
X43180367Y-81569057D01*
X43180365Y-81560766D01*
X43181077Y-81552624D01*
X43181700Y-81548646D01*
X43182499Y-81544751D01*
X43183475Y-81540954D01*
X43184626Y-81537270D01*
X43185952Y-81533714D01*
X43187452Y-81530301D01*
X43189125Y-81527047D01*
X43190971Y-81523967D01*
X43192990Y-81521076D01*
X43195180Y-81518389D01*
X43197540Y-81515922D01*
X43200071Y-81513689D01*
X43202772Y-81511705D01*
X43205641Y-81509987D01*
X43209252Y-81508577D01*
X43214673Y-81507210D01*
X43221800Y-81505892D01*
X43230527Y-81504631D01*
X43252366Y-81502304D01*
X43279354Y-81500281D01*
X43310655Y-81498615D01*
X43345432Y-81497360D01*
X43382850Y-81496568D01*
X43422072Y-81496293D01*
X43612913Y-81496293D01*
X43620760Y-81420267D01*
X43622132Y-81404791D01*
X43623017Y-81389959D01*
X43623425Y-81376123D01*
X43623364Y-81363637D01*
X43622842Y-81352853D01*
X43622412Y-81348209D01*
X43621869Y-81344123D01*
X43621217Y-81340640D01*
X43620454Y-81337802D01*
X43619583Y-81335655D01*
X43618605Y-81334241D01*
X43614016Y-81331310D01*
X43605411Y-81327449D01*
X43578076Y-81317491D01*
X43540441Y-81305461D01*
X43496347Y-81292455D01*
X43449633Y-81279568D01*
X43404142Y-81267895D01*
X43363713Y-81258531D01*
X43346598Y-81255057D01*
X43332188Y-81252571D01*
X43266372Y-81243375D01*
X43203482Y-81236111D01*
X43143208Y-81230767D01*
X43085237Y-81227329D01*
X43029260Y-81225784D01*
X42974965Y-81226117D01*
X42922043Y-81228316D01*
X42870182Y-81232367D01*
X42823052Y-81237413D01*
X42776635Y-81243378D01*
X42730897Y-81250270D01*
X42685799Y-81258101D01*
X42641304Y-81266882D01*
X42597378Y-81276621D01*
X42553982Y-81287331D01*
X42511080Y-81299021D01*
X42468635Y-81311702D01*
X42426611Y-81325384D01*
X42384972Y-81340078D01*
X42343679Y-81355795D01*
X42302698Y-81372544D01*
X42261990Y-81390337D01*
X42221520Y-81409183D01*
X42181250Y-81429094D01*
X42062188Y-81489678D01*
X42443024Y-81496293D01*
X42577626Y-81498746D01*
X42678580Y-81501389D01*
X42750734Y-81505116D01*
X42777525Y-81507668D01*
X42798933Y-81510826D01*
X42815565Y-81514704D01*
X42828025Y-81519414D01*
X42836920Y-81525068D01*
X42842856Y-81531777D01*
X42846438Y-81539655D01*
X42848272Y-81548812D01*
X42849121Y-81571415D01*
X42849044Y-81583733D01*
X42848738Y-81589313D01*
X42848129Y-81594524D01*
X42847124Y-81599377D01*
X42846444Y-81601674D01*
X42845630Y-81603887D01*
X42844669Y-81606017D01*
X42843551Y-81608065D01*
X42842264Y-81610034D01*
X42840796Y-81611925D01*
X42839136Y-81613739D01*
X42837271Y-81615479D01*
X42835190Y-81617145D01*
X42832882Y-81618739D01*
X42830334Y-81620263D01*
X42827535Y-81621718D01*
X42824473Y-81623107D01*
X42821137Y-81624429D01*
X42817515Y-81625688D01*
X42813595Y-81626885D01*
X42804815Y-81629098D01*
X42794704Y-81631081D01*
X42783167Y-81632846D01*
X42770112Y-81634406D01*
X42755446Y-81635774D01*
X42739073Y-81636962D01*
X42720902Y-81637983D01*
X42700838Y-81638850D01*
X42678788Y-81639575D01*
X42654659Y-81640171D01*
X42628357Y-81640650D01*
X42568859Y-81641311D01*
X42499547Y-81641658D01*
X42328488Y-81641813D01*
X41849229Y-81641813D01*
X41741044Y-81750954D01*
X41713795Y-81778886D01*
X41687497Y-81806755D01*
X41662114Y-81834608D01*
X41637611Y-81862493D01*
X41613952Y-81890460D01*
X41591101Y-81918556D01*
X41569024Y-81946830D01*
X41547685Y-81975330D01*
X41527047Y-82004105D01*
X41507077Y-82033202D01*
X41487738Y-82062672D01*
X41468995Y-82092561D01*
X41450813Y-82122918D01*
X41433155Y-82153792D01*
X41415987Y-82185230D01*
X41399274Y-82217282D01*
X41325115Y-82362803D01*
X42000577Y-82369418D01*
X42314511Y-82373320D01*
X42526328Y-82378058D01*
X42597689Y-82380860D01*
X42648018Y-82384015D01*
X42678813Y-82387571D01*
X42687354Y-82389515D01*
X42691574Y-82391576D01*
X42693701Y-82393900D01*
X42695662Y-82396435D01*
X42697458Y-82399169D01*
X42699090Y-82402085D01*
X42700559Y-82405168D01*
X42701866Y-82408405D01*
X42703013Y-82411780D01*
X42704002Y-82415278D01*
X42704832Y-82418884D01*
X42705505Y-82422583D01*
X42706386Y-82430201D01*
X42706655Y-82438013D01*
X42706320Y-82445900D01*
X42705392Y-82453743D01*
X42703881Y-82461421D01*
X42701795Y-82468817D01*
X42699144Y-82475810D01*
X42697609Y-82479118D01*
X42695938Y-82482281D01*
X42694129Y-82485283D01*
X42692186Y-82488111D01*
X42690108Y-82490748D01*
X42687898Y-82493180D01*
X42685556Y-82495393D01*
X42683084Y-82497370D01*
X42680910Y-82498659D01*
X42677963Y-82499887D01*
X42669534Y-82502166D01*
X42657377Y-82504218D01*
X42641066Y-82506053D01*
X42620181Y-82507681D01*
X42594298Y-82509114D01*
X42562993Y-82510361D01*
X42525846Y-82511432D01*
X42432329Y-82513091D01*
X42310365Y-82514173D01*
X42156571Y-82514761D01*
X41967565Y-82514938D01*
X41276072Y-82514938D01*
X41262931Y-82564548D01*
X41253732Y-82600167D01*
X41246012Y-82631961D01*
X41239801Y-82659754D01*
X41235133Y-82683371D01*
X41232037Y-82702636D01*
X41230547Y-82717375D01*
X41230413Y-82722991D01*
X41230693Y-82727410D01*
X41231390Y-82730610D01*
X41232508Y-82732568D01*
X41235145Y-82733308D01*
X41241429Y-82734027D01*
X41264175Y-82735389D01*
X41299217Y-82736623D01*
X41345025Y-82737700D01*
X41462825Y-82739261D01*
X41605341Y-82739834D01*
X41734587Y-82740009D01*
X41832249Y-82741023D01*
X41902749Y-82743613D01*
X41929196Y-82745729D01*
X41950512Y-82748515D01*
X41967249Y-82752064D01*
X41979961Y-82756467D01*
X41989199Y-82761816D01*
X41995519Y-82768204D01*
X41999471Y-82775722D01*
X42001609Y-82784463D01*
X42002657Y-82805980D01*
X42002494Y-82817474D01*
X42002182Y-82822684D01*
X42001621Y-82827553D01*
X42000737Y-82832091D01*
X41999458Y-82836310D01*
X41998648Y-82838303D01*
X41997713Y-82840222D01*
X41996642Y-82842066D01*
X41995428Y-82843838D01*
X41994061Y-82845539D01*
X41992532Y-82847170D01*
X41990832Y-82848733D01*
X41988952Y-82850230D01*
X41986883Y-82851661D01*
X41984616Y-82853028D01*
X41982141Y-82854334D01*
X41979451Y-82855578D01*
X41976536Y-82856763D01*
X41973386Y-82857890D01*
X41966348Y-82859976D01*
X41958264Y-82861848D01*
X41949063Y-82863517D01*
X41938672Y-82864995D01*
X41927019Y-82866294D01*
X41914032Y-82867424D01*
X41899637Y-82868398D01*
X41883764Y-82869228D01*
X41866339Y-82869924D01*
X41847290Y-82870500D01*
X41826546Y-82870965D01*
X41779680Y-82871612D01*
X41725162Y-82871959D01*
X41590859Y-82872126D01*
X41210811Y-82872126D01*
X41201556Y-82946195D01*
X41200040Y-82960403D01*
X41198906Y-82975483D01*
X41197733Y-83007444D01*
X41069411Y-83007444D01*
X41070670Y-82918058D01*
X41075248Y-82824634D01*
G37*
X41075248Y-82824634D02*
X41083014Y-82741650D01*
X41088095Y-82705505D01*
X41093977Y-82673688D01*
X41120944Y-82561718D01*
X41153423Y-82452666D01*
X41191308Y-82346672D01*
X41234491Y-82243878D01*
X41282867Y-82144424D01*
X41336328Y-82048451D01*
X41394767Y-81956099D01*
X41458078Y-81867510D01*
X41526155Y-81782824D01*
X41598890Y-81702182D01*
X41676176Y-81625724D01*
X41757908Y-81553592D01*
X41843978Y-81485926D01*
X41934279Y-81422866D01*
X42028705Y-81364555D01*
X42127150Y-81311131D01*
X42182394Y-81283937D01*
X42236888Y-81258806D01*
X42290813Y-81235698D01*
X42344346Y-81214568D01*
X42397667Y-81195376D01*
X42450954Y-81178078D01*
X42504386Y-81162633D01*
X42558141Y-81148999D01*
X42612400Y-81137133D01*
X42667340Y-81126993D01*
X42723140Y-81118537D01*
X42779979Y-81111723D01*
X42838036Y-81106508D01*
X42897490Y-81102850D01*
X42958519Y-81100707D01*
X43021302Y-81100037D01*
X43101388Y-81101815D01*
X43183385Y-81106841D01*
X43265503Y-81114842D01*
X43345953Y-81125548D01*
X43422943Y-81138688D01*
X43494685Y-81153990D01*
X43528028Y-81162368D01*
X43559387Y-81171184D01*
X43588539Y-81180406D01*
X43615261Y-81189998D01*
X43686667Y-81217422D01*
X43756166Y-81146804D01*
X43763647Y-81139413D01*
X43771706Y-81131843D01*
X43780268Y-81124148D01*
X43789257Y-81116386D01*
X43808215Y-81100880D01*
X43827979Y-81085769D01*
X43847946Y-81071499D01*
X43857818Y-81064819D01*
X43867514Y-81058516D01*
X43876960Y-81052647D01*
X43886080Y-81047265D01*
X43894799Y-81042429D01*
X43903041Y-81038192D01*
X43915667Y-81032078D01*
X43927340Y-81026651D01*
X43938289Y-81021870D01*
X43948744Y-81017695D01*
X43958935Y-81014087D01*
X43969092Y-81011004D01*
X43979444Y-81008406D01*
X43990222Y-81006253D01*
X44001655Y-81004505D01*
X44013972Y-81003120D01*
X44027404Y-81002059D01*
X44042180Y-81001282D01*
X44058531Y-81000748D01*
X44076685Y-81000416D01*
X44119323Y-81000199D01*
X44161888Y-81000417D01*
X44196357Y-81001283D01*
X44211123Y-81002059D01*
X44224548Y-81003115D01*
X44236857Y-81004493D01*
X44248279Y-81006231D01*
X44259040Y-81008369D01*
X44269368Y-81010947D01*
X44279491Y-81014005D01*
X44289634Y-81017582D01*
X44300027Y-81021719D01*
X44310895Y-81026454D01*
X44334969Y-81037881D01*
X44353241Y-81047424D01*
X44371432Y-81058043D01*
X44389469Y-81069668D01*
X44407280Y-81082224D01*
X44424791Y-81095640D01*
X44441931Y-81109843D01*
X44458627Y-81124761D01*
X44474805Y-81140321D01*
X44490394Y-81156450D01*
X44505320Y-81173076D01*
X44519511Y-81190127D01*
X44532895Y-81207530D01*
X44545398Y-81225213D01*
X44556948Y-81243103D01*
X44567472Y-81261128D01*
X44576898Y-81279215D01*
X44582033Y-81289975D01*
X44586744Y-81300426D01*
X44591050Y-81310656D01*
X44594972Y-81320752D01*
X44598530Y-81330803D01*
X44601745Y-81340896D01*
X44604637Y-81351119D01*
X44607226Y-81361559D01*
X44609531Y-81372305D01*
X44611575Y-81383443D01*
X44613376Y-81395063D01*
X44614956Y-81407250D01*
X44616333Y-81420094D01*
X44617530Y-81433682D01*
X44618565Y-81448101D01*
X44619459Y-81463440D01*
X44620405Y-81484879D01*
X44620893Y-81505010D01*
X44620890Y-81523996D01*
X44620360Y-81542000D01*
X44619267Y-81559187D01*
X44617578Y-81575720D01*
X44615257Y-81591762D01*
X44612270Y-81607477D01*
X44608581Y-81623029D01*
X44604156Y-81638580D01*
X44598959Y-81654296D01*
X44592956Y-81670339D01*
X44586111Y-81686873D01*
X44578390Y-81704062D01*
X44569758Y-81722068D01*
X44560180Y-81741057D01*
X44526093Y-81807227D01*
X44613878Y-81936704D01*
X44702870Y-82080082D01*
X44778610Y-82227639D01*
X44841142Y-82378655D01*
X44890508Y-82532412D01*
X44926752Y-82688192D01*
X44949915Y-82845276D01*
X44960040Y-83002944D01*
X44957171Y-83160480D01*
X44941350Y-83317163D01*
X44912620Y-83472275D01*
X44871023Y-83625098D01*
X44816602Y-83774913D01*
X44749401Y-83921001D01*
X44669461Y-84062644D01*
X44576826Y-84199123D01*
X44525760Y-84265201D01*
X44471537Y-84329719D01*
X44436310Y-84369007D01*
X44401497Y-84405870D01*
X44366524Y-84440830D01*
X44348799Y-84457762D01*
X44330817Y-84474414D01*
X44312508Y-84490853D01*
X44293800Y-84507145D01*
X44254898Y-84539547D01*
X44213537Y-84572144D01*
X44169140Y-84605462D01*
X44106509Y-84651449D01*
X44114409Y-84725610D01*
X44115969Y-84744943D01*
X44116528Y-84764107D01*
X44116109Y-84783075D01*
X44114734Y-84801821D01*
X44112425Y-84820317D01*
X44109203Y-84838537D01*
X44105092Y-84856455D01*
X44100113Y-84874044D01*
X44094288Y-84891278D01*
X44087640Y-84908131D01*
X44080191Y-84924574D01*
X44071963Y-84940584D01*
X44062977Y-84956131D01*
X44053257Y-84971191D01*
X44042824Y-84985737D01*
X44031700Y-84999742D01*
X44019908Y-85013179D01*
X44007470Y-85026022D01*
X43994407Y-85038245D01*
X43980743Y-85049821D01*
X43966499Y-85060724D01*
X43951697Y-85070926D01*
X43936359Y-85080402D01*
X43920508Y-85089125D01*
X43904166Y-85097068D01*
X43887354Y-85104206D01*
X43870096Y-85110511D01*
X43852412Y-85115956D01*
X43834326Y-85120516D01*
X43815860Y-85124164D01*
X43797035Y-85126874D01*
X43777873Y-85128618D01*
X43761846Y-85129321D01*
X43745140Y-85129441D01*
X43728246Y-85129014D01*
X43711655Y-85128076D01*
X43695859Y-85126661D01*
X43681348Y-85124807D01*
X43668614Y-85122547D01*
X43663066Y-85121277D01*
X43658147Y-85119919D01*
X43658148Y-85119919D01*
X43645836Y-85115841D01*
X43633390Y-85111099D01*
X43620860Y-85105728D01*
X43608299Y-85099764D01*
X43595758Y-85093242D01*
X43583289Y-85086196D01*
X43570945Y-85078663D01*
X43558777Y-85070678D01*
X43546836Y-85062276D01*
X43535176Y-85053492D01*
X43523847Y-85044361D01*
X43512902Y-85034919D01*
X43502392Y-85025201D01*
X43492370Y-85015242D01*
X43482887Y-85005078D01*
X43473995Y-84994743D01*
X43467680Y-84987180D01*
X43461861Y-84980454D01*
X43456463Y-84974525D01*
X43451407Y-84969355D01*
X43446618Y-84964907D01*
X43444300Y-84962942D01*
X43442019Y-84961143D01*
X43439767Y-84959504D01*
X43437533Y-84958023D01*
X43435309Y-84956693D01*
X43433084Y-84955509D01*
X43430848Y-84954468D01*
X43428594Y-84953564D01*
X43426309Y-84952793D01*
X43423987Y-84952150D01*
X43421615Y-84951629D01*
X43419186Y-84951226D01*
X43416689Y-84950937D01*
X43414114Y-84950757D01*
X43411453Y-84950680D01*
X43408696Y-84950703D01*
X43402854Y-84951026D01*
X43396511Y-84951687D01*
X43389590Y-84952650D01*
X43313716Y-84963832D01*
X43248200Y-84972592D01*
X43190473Y-84979108D01*
X43137964Y-84983553D01*
X43088103Y-84986104D01*
X43038318Y-84986936D01*
X42986040Y-84986225D01*
X42928698Y-84984147D01*
X42852711Y-84979490D01*
X42778085Y-84972332D01*
X42704764Y-84962653D01*
X42632693Y-84950433D01*
X42561815Y-84935652D01*
X42492073Y-84918290D01*
X42423413Y-84898328D01*
X42355778Y-84875744D01*
X42289111Y-84850520D01*
X42223357Y-84822635D01*
X42158460Y-84792070D01*
X42094363Y-84758803D01*
X42031010Y-84722816D01*
X41968346Y-84684089D01*
X41906313Y-84642600D01*
X41844857Y-84598332D01*
X41773846Y-84542532D01*
X41705558Y-84483221D01*
X41640100Y-84420573D01*
X41577579Y-84354761D01*
X41518101Y-84285960D01*
X41461774Y-84214342D01*
X41408704Y-84140081D01*
X41358998Y-84063351D01*
X41312764Y-83984326D01*
X41270108Y-83903178D01*
X41231136Y-83820082D01*
X41195957Y-83735211D01*
X41164677Y-83648738D01*
X41137403Y-83560838D01*
X41114242Y-83471684D01*
X41095300Y-83381449D01*
X41089290Y-83344838D01*
X41084066Y-83304538D01*
X41075978Y-83215163D01*
X41071043Y-83117904D01*
X41069271Y-83017342D01*
X41069411Y-83007444D01*
X41197733Y-83007444D01*
X41197929Y-83040437D01*
X41199388Y-83072821D01*
X41202003Y-83102958D01*
X41203711Y-83116671D01*
X41205667Y-83129207D01*
X41207860Y-83140361D01*
X41210274Y-83149929D01*
X41212897Y-83157704D01*
X41215716Y-83163483D01*
X41216324Y-83164151D01*
X41217310Y-83164811D01*
X41220376Y-83166098D01*
X41224838Y-83167340D01*
X41230617Y-83168529D01*
X41237637Y-83169659D01*
X41245820Y-83170723D01*
X41255088Y-83171716D01*
X41265365Y-83172631D01*
X41288633Y-83174203D01*
X41315005Y-83175388D01*
X41343863Y-83176136D01*
X41374587Y-83176397D01*
X41420097Y-83176553D01*
X41455795Y-83177160D01*
X41483024Y-83178428D01*
X41493882Y-83179375D01*
X41503127Y-83180565D01*
X41510927Y-83182025D01*
X41517450Y-83183780D01*
X41522863Y-83185858D01*
X41527335Y-83188283D01*
X41531034Y-83191082D01*
X41534127Y-83194282D01*
X41536784Y-83197907D01*
X41539171Y-83201985D01*
X41543030Y-83209494D01*
X41546389Y-83216675D01*
X41549236Y-83223533D01*
X41551563Y-83230074D01*
X41553360Y-83236305D01*
X41554617Y-83242232D01*
X41555325Y-83247860D01*
X41555475Y-83253194D01*
X41555056Y-83258242D01*
X41554060Y-83263009D01*
X41552477Y-83267500D01*
X41550296Y-83271722D01*
X41547510Y-83275681D01*
X41544108Y-83279383D01*
X41540080Y-83282832D01*
X41535418Y-83286036D01*
X41530111Y-83289000D01*
X41524151Y-83291730D01*
X41517527Y-83294232D01*
X41510230Y-83296512D01*
X41502251Y-83298576D01*
X41493579Y-83300429D01*
X41484207Y-83302078D01*
X41474123Y-83303528D01*
X41463318Y-83304786D01*
X41451784Y-83305857D01*
X41439510Y-83306746D01*
X41426487Y-83307461D01*
X41398155Y-83308389D01*
X41366712Y-83308688D01*
X41329811Y-83308898D01*
X41299032Y-83309553D01*
X41274005Y-83310697D01*
X41254361Y-83312372D01*
X41246442Y-83313422D01*
X41239730Y-83314620D01*
X41234179Y-83315972D01*
X41229744Y-83317483D01*
X41226377Y-83319159D01*
X41224033Y-83321004D01*
X41222666Y-83323024D01*
X41222229Y-83325225D01*
X41222857Y-83333550D01*
X41224601Y-83345310D01*
X41231026Y-83377578D01*
X41240681Y-83418915D01*
X41252744Y-83466208D01*
X41266394Y-83516341D01*
X41280808Y-83566202D01*
X41295165Y-83612675D01*
X41308642Y-83652647D01*
X41325942Y-83697537D01*
X41347556Y-83748278D01*
X41372074Y-83802022D01*
X41398081Y-83855918D01*
X41424168Y-83907119D01*
X41448920Y-83952776D01*
X41470928Y-83990039D01*
X41480461Y-84004633D01*
X41488777Y-84016061D01*
X41514860Y-84049220D01*
X42038440Y-84052678D01*
X42321372Y-84055183D01*
X42414275Y-84056877D01*
X42480903Y-84059161D01*
X42525831Y-84062253D01*
X42553636Y-84066375D01*
X42562547Y-84068891D01*
X42568894Y-84071747D01*
X42573247Y-84074970D01*
X42576179Y-84078589D01*
X42577874Y-84081494D01*
X42579352Y-84084492D01*
X42580613Y-84087587D01*
X42581657Y-84090783D01*
X42582484Y-84094081D01*
X42583095Y-84097487D01*
X42583489Y-84101002D01*
X42583667Y-84104630D01*
X42583628Y-84108375D01*
X42583373Y-84112239D01*
X42582902Y-84116226D01*
X42582214Y-84120340D01*
X42581310Y-84124582D01*
X42580191Y-84128958D01*
X42578854Y-84133470D01*
X42577302Y-84138120D01*
X42564266Y-84175199D01*
X42091639Y-84178673D01*
X41908126Y-84180886D01*
X41757845Y-84184341D01*
X41656304Y-84188567D01*
X41628657Y-84190821D01*
X41621463Y-84191957D01*
X41619011Y-84193090D01*
X41619140Y-84193784D01*
X41619522Y-84194731D01*
X41621020Y-84197356D01*
X41623455Y-84200910D01*
X41626777Y-84205335D01*
X41630935Y-84210572D01*
X41635879Y-84216565D01*
X41647922Y-84230586D01*
X41662503Y-84246938D01*
X41679218Y-84265160D01*
X41697662Y-84284791D01*
X41717433Y-84305371D01*
X41815855Y-84406709D01*
X42465750Y-84406709D01*
X42747277Y-84407596D01*
X42955761Y-84410216D01*
X43088110Y-84414506D01*
X43124769Y-84417258D01*
X43141235Y-84420404D01*
X43144104Y-84422122D01*
X43146804Y-84424105D01*
X43149335Y-84426338D01*
X43151696Y-84428806D01*
X43153886Y-84431493D01*
X43155904Y-84434384D01*
X43157751Y-84437464D01*
X43159424Y-84440718D01*
X43160924Y-84444130D01*
X43162250Y-84447686D01*
X43163401Y-84451371D01*
X43164376Y-84455168D01*
X43165176Y-84459063D01*
X43165799Y-84463040D01*
X43166244Y-84467085D01*
X43166511Y-84471183D01*
X43166600Y-84475317D01*
X43166509Y-84479473D01*
X43166238Y-84483636D01*
X43165787Y-84487790D01*
X43165154Y-84491920D01*
X43164339Y-84496012D01*
X43163341Y-84500049D01*
X43162160Y-84504017D01*
X43160795Y-84507901D01*
X43159246Y-84511685D01*
X43157511Y-84515353D01*
X43155590Y-84518892D01*
X43153483Y-84522285D01*
X43151188Y-84525518D01*
X43148706Y-84528575D01*
X43146035Y-84531442D01*
X43144159Y-84533105D01*
X43141906Y-84534680D01*
X43139208Y-84536167D01*
X43135999Y-84537571D01*
X43132212Y-84538893D01*
X43127780Y-84540136D01*
X43122636Y-84541302D01*
X43116713Y-84542393D01*
X43109945Y-84543413D01*
X43102264Y-84544363D01*
X43083900Y-84546065D01*
X43061084Y-84547518D01*
X43033283Y-84548742D01*
X42999962Y-84549757D01*
X42960587Y-84550582D01*
X42914623Y-84551237D01*
X42861535Y-84551741D01*
X42731851Y-84552376D01*
X42567259Y-84552643D01*
X42009271Y-84553056D01*
X42062188Y-84586421D01*
X42099299Y-84609174D01*
X42136695Y-84630794D01*
X42174506Y-84651328D01*
X42212865Y-84670823D01*
X42251900Y-84689327D01*
X42291744Y-84706887D01*
X42332525Y-84723550D01*
X42374376Y-84739365D01*
X42417426Y-84754377D01*
X42461806Y-84768636D01*
X42507647Y-84782187D01*
X42555079Y-84795080D01*
X42604233Y-84807360D01*
X42655240Y-84819076D01*
X42708230Y-84830275D01*
X42763334Y-84841004D01*
X42783303Y-84844106D01*
X42807488Y-84846807D01*
X42866101Y-84851002D01*
X42934362Y-84853579D01*
X43007459Y-84854529D01*
X43080584Y-84853844D01*
X43148925Y-84851515D01*
X43207673Y-84847533D01*
X43231946Y-84844920D01*
X43252016Y-84841890D01*
X43252017Y-84841890D01*
X43361954Y-84821794D01*
X43366201Y-84820904D01*
X43368174Y-84820401D01*
X43370050Y-84819855D01*
X43371831Y-84819262D01*
X43373518Y-84818619D01*
X43375115Y-84817922D01*
X43376622Y-84817168D01*
X43378043Y-84816352D01*
X43379379Y-84815473D01*
X43380633Y-84814525D01*
X43381807Y-84813506D01*
X43382902Y-84812412D01*
X43383922Y-84811239D01*
X43384867Y-84809985D01*
X43385741Y-84808644D01*
X43386545Y-84807214D01*
X43387282Y-84805692D01*
X43387954Y-84804073D01*
X43388562Y-84802355D01*
X43389110Y-84800533D01*
X43389598Y-84798604D01*
X43390030Y-84796565D01*
X43390407Y-84794412D01*
X43390732Y-84792141D01*
X43391007Y-84789750D01*
X43391414Y-84784589D01*
X43391646Y-84778902D01*
X43391719Y-84772660D01*
X43392225Y-84754842D01*
X43393723Y-84737142D01*
X43396185Y-84719590D01*
X43399580Y-84702216D01*
X43403880Y-84685048D01*
X43409056Y-84668115D01*
X43415079Y-84651448D01*
X43421919Y-84635076D01*
X43429547Y-84619027D01*
X43437935Y-84603331D01*
X43447052Y-84588018D01*
X43456871Y-84573116D01*
X43467361Y-84558656D01*
X43478493Y-84544665D01*
X43490239Y-84531175D01*
X43502569Y-84518214D01*
X43515454Y-84505811D01*
X43528865Y-84493996D01*
X43542773Y-84482797D01*
X43557149Y-84472245D01*
X43571963Y-84462369D01*
X43587186Y-84453198D01*
X43602790Y-84444761D01*
X43618745Y-84437087D01*
X43635021Y-84430207D01*
X43651590Y-84424149D01*
X43668423Y-84418942D01*
X43685491Y-84414616D01*
X43702763Y-84411201D01*
X43720212Y-84408725D01*
X43737808Y-84407218D01*
X43755521Y-84406709D01*
X43769315Y-84407141D01*
X43783644Y-84408410D01*
X43798407Y-84410478D01*
X43813501Y-84413307D01*
X43828825Y-84416857D01*
X43844275Y-84421091D01*
X43859750Y-84425970D01*
X43875147Y-84431455D01*
X43890364Y-84437508D01*
X43905300Y-84444090D01*
X43919851Y-84451163D01*
X43933915Y-84458688D01*
X43947390Y-84466627D01*
X43960174Y-84474941D01*
X43972165Y-84483591D01*
X43983260Y-84492540D01*
X44037865Y-84539279D01*
X44134818Y-84462127D01*
X44174853Y-84428819D01*
X44219302Y-84389472D01*
X44265159Y-84347036D01*
X44309418Y-84304460D01*
X44349074Y-84264693D01*
X44381121Y-84230684D01*
X44393351Y-84216761D01*
X44402553Y-84205384D01*
X44408349Y-84196921D01*
X44409853Y-84193897D01*
X44410365Y-84191741D01*
X44406535Y-84190730D01*
X44395298Y-84189747D01*
X44352117Y-84187886D01*
X44193522Y-84184730D01*
X43958802Y-84182597D01*
X43672177Y-84181813D01*
X43321262Y-84181016D01*
X43090944Y-84178364D01*
X43015229Y-84176221D01*
X42962727Y-84173468D01*
X42931127Y-84170057D01*
X42922442Y-84168089D01*
X42918115Y-84165938D01*
X42916498Y-84164143D01*
X42914926Y-84162047D01*
X42913408Y-84159678D01*
X42911951Y-84157060D01*
X42910564Y-84154220D01*
X42909255Y-84151183D01*
X42908032Y-84147976D01*
X42906903Y-84144623D01*
X42905877Y-84141151D01*
X42904961Y-84137585D01*
X42904163Y-84133951D01*
X42903493Y-84130275D01*
X42902957Y-84126583D01*
X42902564Y-84122901D01*
X42902322Y-84119254D01*
X42902240Y-84115667D01*
X42902322Y-84112081D01*
X42902564Y-84108434D01*
X42902957Y-84104752D01*
X42903493Y-84101060D01*
X42904163Y-84097384D01*
X42904961Y-84093750D01*
X42905877Y-84090184D01*
X42906903Y-84086712D01*
X42908032Y-84083359D01*
X42909255Y-84080152D01*
X42910564Y-84077115D01*
X42911951Y-84074275D01*
X42913408Y-84071657D01*
X42914926Y-84069288D01*
X42916498Y-84067192D01*
X42918115Y-84065397D01*
X42919788Y-84064296D01*
X42922586Y-84063242D01*
X42931713Y-84061271D01*
X42945808Y-84059478D01*
X42965189Y-84057857D01*
X42990168Y-84056400D01*
X43021061Y-84055103D01*
X43101845Y-84052962D01*
X43210061Y-84051382D01*
X43348223Y-84050316D01*
X43518850Y-84049712D01*
X43724459Y-84049522D01*
X44514927Y-84049522D01*
X44553492Y-83993298D01*
X44563098Y-83978900D01*
X44572936Y-83963399D01*
X44593119Y-83929461D01*
X44613663Y-83892234D01*
X44634195Y-83852468D01*
X44654339Y-83810912D01*
X44673720Y-83768317D01*
X44691962Y-83725433D01*
X44708691Y-83683010D01*
X44722857Y-83642801D01*
X44738683Y-83593468D01*
X44755074Y-83538963D01*
X44770937Y-83483234D01*
X44785179Y-83430232D01*
X44796706Y-83383906D01*
X44804424Y-83348207D01*
X44806513Y-83335576D01*
X44807240Y-83327084D01*
X44807022Y-83325682D01*
X44806341Y-83324350D01*
X44805157Y-83323087D01*
X44803431Y-83321891D01*
X44801122Y-83320760D01*
X44798191Y-83319692D01*
X44794599Y-83318686D01*
X44790305Y-83317740D01*
X44785269Y-83316853D01*
X44779453Y-83316023D01*
X44765316Y-83314525D01*
X44747578Y-83313234D01*
X44725920Y-83312136D01*
X44700022Y-83311218D01*
X44669568Y-83310466D01*
X44634238Y-83309866D01*
X44593715Y-83309406D01*
X44547681Y-83309072D01*
X44495816Y-83308850D01*
X44373324Y-83308688D01*
X44220203Y-83308547D01*
X44104971Y-83307614D01*
X44022242Y-83305124D01*
X43991383Y-83303056D01*
X43966631Y-83300312D01*
X43947311Y-83296796D01*
X43932752Y-83292412D01*
X43922279Y-83287066D01*
X43915220Y-83280661D01*
X43910901Y-83273102D01*
X43908650Y-83264293D01*
X43907657Y-83242543D01*
X43907790Y-83230938D01*
X43908085Y-83225683D01*
X43908646Y-83220777D01*
X43909558Y-83216207D01*
X43910172Y-83214045D01*
X43910906Y-83211963D01*
X43911770Y-83209959D01*
X43912776Y-83208032D01*
X43913934Y-83206180D01*
X43915254Y-83204401D01*
X43916747Y-83202695D01*
X43918424Y-83201060D01*
X43920295Y-83199493D01*
X43922372Y-83197995D01*
X43924664Y-83196563D01*
X43927183Y-83195195D01*
X43929939Y-83193891D01*
X43932942Y-83192649D01*
X43936205Y-83191467D01*
X43939736Y-83190343D01*
X43947649Y-83188267D01*
X43956767Y-83186407D01*
X43967175Y-83184753D01*
X43978957Y-83183292D01*
X43992201Y-83182012D01*
X44006991Y-83180901D01*
X44023412Y-83179947D01*
X44041550Y-83179138D01*
X44061489Y-83178463D01*
X44083316Y-83177908D01*
X44107116Y-83177463D01*
X44160976Y-83176853D01*
X44223750Y-83176535D01*
X44378775Y-83176397D01*
X44818144Y-83176397D01*
X44826904Y-83124547D01*
X44827717Y-83118453D01*
X44828352Y-83110937D01*
X44829101Y-83092065D01*
X44829178Y-83068786D01*
X44828609Y-83041953D01*
X44827421Y-83012423D01*
X44825641Y-82981049D01*
X44823295Y-82948685D01*
X44820409Y-82916188D01*
X44815527Y-82868565D01*
X44810503Y-82825418D01*
X44804990Y-82784678D01*
X44798640Y-82744278D01*
X44791104Y-82702148D01*
X44782034Y-82656221D01*
X44771083Y-82604429D01*
X44757902Y-82544704D01*
X44751239Y-82514938D01*
X43923693Y-82514938D01*
X43476669Y-82514313D01*
X43224258Y-82511447D01*
X43152960Y-82508709D01*
X43108630Y-82504853D01*
X43084037Y-82499693D01*
X43071953Y-82493044D01*
X43069218Y-82490454D01*
X43066654Y-82487789D01*
X43064261Y-82485056D01*
X43062039Y-82482256D01*
X43059988Y-82479395D01*
X43058108Y-82476477D01*
X43056399Y-82473505D01*
X43054863Y-82470484D01*
X43053497Y-82467418D01*
X43052303Y-82464310D01*
X43051281Y-82461165D01*
X43050431Y-82457986D01*
X43049753Y-82454778D01*
X43049247Y-82451545D01*
X43048913Y-82448291D01*
X43048751Y-82445019D01*
X43048761Y-82441734D01*
X43048944Y-82438440D01*
X43049299Y-82435141D01*
X43049827Y-82431840D01*
X43050527Y-82428543D01*
X43051401Y-82425252D01*
X43052447Y-82421972D01*
X43053666Y-82418708D01*
X43055058Y-82415462D01*
X43056623Y-82412239D01*
X43058361Y-82409043D01*
X43060273Y-82405879D01*
X43062358Y-82402749D01*
X43064617Y-82399658D01*
X43067049Y-82396611D01*
X43069655Y-82393610D01*
X43071686Y-82391524D01*
X43073974Y-82389560D01*
X43076644Y-82387716D01*
X43079824Y-82385988D01*
X43083639Y-82384371D01*
X43088218Y-82382863D01*
X43093686Y-82381460D01*
X43100170Y-82380157D01*
X43107797Y-82378952D01*
X43116693Y-82377839D01*
X43126986Y-82376816D01*
X43138800Y-82375880D01*
X43152264Y-82375025D01*
X43167504Y-82374248D01*
X43184646Y-82373547D01*
X43203818Y-82372916D01*
X43248755Y-82371852D01*
X43303328Y-82371027D01*
X43368551Y-82370410D01*
X43445436Y-82369973D01*
X43534997Y-82369685D01*
X43638246Y-82369517D01*
X43889863Y-82369417D01*
X44228548Y-82368558D01*
X44479196Y-82366057D01*
X44634757Y-82362027D01*
X44674676Y-82359473D01*
X44688178Y-82356581D01*
X44686383Y-82346238D01*
X44681231Y-82330841D01*
X44673071Y-82311013D01*
X44662252Y-82287379D01*
X44634030Y-82231185D01*
X44599355Y-82167250D01*
X44561017Y-82100566D01*
X44521807Y-82036124D01*
X44484513Y-81978915D01*
X44467458Y-81954583D01*
X44451927Y-81933931D01*
X44426729Y-81901934D01*
X44375552Y-81932197D01*
X44353979Y-81944237D01*
X44332033Y-81955086D01*
X44309754Y-81964754D01*
X44287181Y-81973250D01*
X44264356Y-81980584D01*
X44241318Y-81986765D01*
X44218107Y-81991802D01*
X44194764Y-81995705D01*
X44171329Y-81998483D01*
X44147841Y-82000146D01*
X44124342Y-82000704D01*
X44100871Y-82000164D01*
X44077469Y-81998538D01*
X44054176Y-81995834D01*
X44031031Y-81992062D01*
X44008076Y-81987231D01*
X43985350Y-81981351D01*
X43962893Y-81974430D01*
X43940746Y-81966480D01*
X43918949Y-81957508D01*
X43897541Y-81947524D01*
X43876564Y-81936539D01*
X43856058Y-81924560D01*
X43836062Y-81911598D01*
X43816617Y-81897662D01*
X43797762Y-81882762D01*
X43779539Y-81866907D01*
X43761988Y-81850105D01*
X43745147Y-81832368D01*
X43729059Y-81813703D01*
X43713762Y-81794122D01*
X43699297Y-81773632D01*
X43688003Y-81756292D01*
X43677467Y-81739169D01*
X43667918Y-81722707D01*
X43659589Y-81707347D01*
X43652709Y-81693532D01*
X43647510Y-81681704D01*
X43645612Y-81676674D01*
X43644221Y-81672306D01*
X43643365Y-81668656D01*
X43643073Y-81665779D01*
X43643021Y-81663763D01*
X43642845Y-81661863D01*
X43642514Y-81660075D01*
X43642282Y-81659222D01*
X43642000Y-81658395D01*
X43641665Y-81657595D01*
X43641273Y-81656821D01*
X43640820Y-81656073D01*
X43640303Y-81655349D01*
X43639717Y-81654650D01*
X43639059Y-81653976D01*
X43638326Y-81653325D01*
X43637513Y-81652698D01*
X43636618Y-81652093D01*
X43635635Y-81651512D01*
X43634562Y-81650952D01*
X43633395Y-81650414D01*
X43632130Y-81649897D01*
X43630763Y-81649401D01*
X43629291Y-81648926D01*
X43627710Y-81648470D01*
X43624205Y-81647618D01*
X43620219Y-81646840D01*
X43615723Y-81646135D01*
X43610686Y-81645497D01*
X43605080Y-81644924D01*
X43598873Y-81644413D01*
X43592037Y-81643959D01*
X43584542Y-81643561D01*
X43576357Y-81643214D01*
X43567454Y-81642914D01*
X43557802Y-81642659D01*
X43547373Y-81642446D01*
X43524059Y-81642129D01*
X43497277Y-81641935D01*
X43466787Y-81641839D01*
X43432352Y-81641813D01*
X43373172Y-81641624D01*
X43325216Y-81640978D01*
X43287192Y-81639760D01*
X43257808Y-81637854D01*
X43235773Y-81635143D01*
X43227108Y-81633450D01*
X43219795Y-81631512D01*
X43213673Y-81629315D01*
X43208582Y-81626844D01*
X43204358Y-81624086D01*
X43200841Y-81621025D01*
X43198170Y-81618159D01*
X43195688Y-81615102D01*
X43193393Y-81611869D01*
X43191286Y-81608475D01*
X43189365Y-81604937D01*
X43187630Y-81601268D01*
X43186080Y-81597484D01*
X43184716Y-81593601D01*
X43183535Y-81589633D01*
X43182537Y-81585595D01*
X43181089Y-81577374D01*
X43180367Y-81569057D01*
X43180365Y-81560766D01*
X43181077Y-81552624D01*
X43181700Y-81548646D01*
X43182499Y-81544751D01*
X43183475Y-81540954D01*
X43184626Y-81537270D01*
X43185952Y-81533714D01*
X43187452Y-81530301D01*
X43189125Y-81527047D01*
X43190971Y-81523967D01*
X43192990Y-81521076D01*
X43195180Y-81518389D01*
X43197540Y-81515922D01*
X43200071Y-81513689D01*
X43202772Y-81511705D01*
X43205641Y-81509987D01*
X43209252Y-81508577D01*
X43214673Y-81507210D01*
X43221800Y-81505892D01*
X43230527Y-81504631D01*
X43252366Y-81502304D01*
X43279354Y-81500281D01*
X43310655Y-81498615D01*
X43345432Y-81497360D01*
X43382850Y-81496568D01*
X43422072Y-81496293D01*
X43612913Y-81496293D01*
X43620760Y-81420267D01*
X43622132Y-81404791D01*
X43623017Y-81389959D01*
X43623425Y-81376123D01*
X43623364Y-81363637D01*
X43622842Y-81352853D01*
X43622412Y-81348209D01*
X43621869Y-81344123D01*
X43621217Y-81340640D01*
X43620454Y-81337802D01*
X43619583Y-81335655D01*
X43618605Y-81334241D01*
X43614016Y-81331310D01*
X43605411Y-81327449D01*
X43578076Y-81317491D01*
X43540441Y-81305461D01*
X43496347Y-81292455D01*
X43449633Y-81279568D01*
X43404142Y-81267895D01*
X43363713Y-81258531D01*
X43346598Y-81255057D01*
X43332188Y-81252571D01*
X43266372Y-81243375D01*
X43203482Y-81236111D01*
X43143208Y-81230767D01*
X43085237Y-81227329D01*
X43029260Y-81225784D01*
X42974965Y-81226117D01*
X42922043Y-81228316D01*
X42870182Y-81232367D01*
X42823052Y-81237413D01*
X42776635Y-81243378D01*
X42730897Y-81250270D01*
X42685799Y-81258101D01*
X42641304Y-81266882D01*
X42597378Y-81276621D01*
X42553982Y-81287331D01*
X42511080Y-81299021D01*
X42468635Y-81311702D01*
X42426611Y-81325384D01*
X42384972Y-81340078D01*
X42343679Y-81355795D01*
X42302698Y-81372544D01*
X42261990Y-81390337D01*
X42221520Y-81409183D01*
X42181250Y-81429094D01*
X42062188Y-81489678D01*
X42443024Y-81496293D01*
X42577626Y-81498746D01*
X42678580Y-81501389D01*
X42750734Y-81505116D01*
X42777525Y-81507668D01*
X42798933Y-81510826D01*
X42815565Y-81514704D01*
X42828025Y-81519414D01*
X42836920Y-81525068D01*
X42842856Y-81531777D01*
X42846438Y-81539655D01*
X42848272Y-81548812D01*
X42849121Y-81571415D01*
X42849044Y-81583733D01*
X42848738Y-81589313D01*
X42848129Y-81594524D01*
X42847124Y-81599377D01*
X42846444Y-81601674D01*
X42845630Y-81603887D01*
X42844669Y-81606017D01*
X42843551Y-81608065D01*
X42842264Y-81610034D01*
X42840796Y-81611925D01*
X42839136Y-81613739D01*
X42837271Y-81615479D01*
X42835190Y-81617145D01*
X42832882Y-81618739D01*
X42830334Y-81620263D01*
X42827535Y-81621718D01*
X42824473Y-81623107D01*
X42821137Y-81624429D01*
X42817515Y-81625688D01*
X42813595Y-81626885D01*
X42804815Y-81629098D01*
X42794704Y-81631081D01*
X42783167Y-81632846D01*
X42770112Y-81634406D01*
X42755446Y-81635774D01*
X42739073Y-81636962D01*
X42720902Y-81637983D01*
X42700838Y-81638850D01*
X42678788Y-81639575D01*
X42654659Y-81640171D01*
X42628357Y-81640650D01*
X42568859Y-81641311D01*
X42499547Y-81641658D01*
X42328488Y-81641813D01*
X41849229Y-81641813D01*
X41741044Y-81750954D01*
X41713795Y-81778886D01*
X41687497Y-81806755D01*
X41662114Y-81834608D01*
X41637611Y-81862493D01*
X41613952Y-81890460D01*
X41591101Y-81918556D01*
X41569024Y-81946830D01*
X41547685Y-81975330D01*
X41527047Y-82004105D01*
X41507077Y-82033202D01*
X41487738Y-82062672D01*
X41468995Y-82092561D01*
X41450813Y-82122918D01*
X41433155Y-82153792D01*
X41415987Y-82185230D01*
X41399274Y-82217282D01*
X41325115Y-82362803D01*
X42000577Y-82369418D01*
X42314511Y-82373320D01*
X42526328Y-82378058D01*
X42597689Y-82380860D01*
X42648018Y-82384015D01*
X42678813Y-82387571D01*
X42687354Y-82389515D01*
X42691574Y-82391576D01*
X42693701Y-82393900D01*
X42695662Y-82396435D01*
X42697458Y-82399169D01*
X42699090Y-82402085D01*
X42700559Y-82405168D01*
X42701866Y-82408405D01*
X42703013Y-82411780D01*
X42704002Y-82415278D01*
X42704832Y-82418884D01*
X42705505Y-82422583D01*
X42706386Y-82430201D01*
X42706655Y-82438013D01*
X42706320Y-82445900D01*
X42705392Y-82453743D01*
X42703881Y-82461421D01*
X42701795Y-82468817D01*
X42699144Y-82475810D01*
X42697609Y-82479118D01*
X42695938Y-82482281D01*
X42694129Y-82485283D01*
X42692186Y-82488111D01*
X42690108Y-82490748D01*
X42687898Y-82493180D01*
X42685556Y-82495393D01*
X42683084Y-82497370D01*
X42680910Y-82498659D01*
X42677963Y-82499887D01*
X42669534Y-82502166D01*
X42657377Y-82504218D01*
X42641066Y-82506053D01*
X42620181Y-82507681D01*
X42594298Y-82509114D01*
X42562993Y-82510361D01*
X42525846Y-82511432D01*
X42432329Y-82513091D01*
X42310365Y-82514173D01*
X42156571Y-82514761D01*
X41967565Y-82514938D01*
X41276072Y-82514938D01*
X41262931Y-82564548D01*
X41253732Y-82600167D01*
X41246012Y-82631961D01*
X41239801Y-82659754D01*
X41235133Y-82683371D01*
X41232037Y-82702636D01*
X41230547Y-82717375D01*
X41230413Y-82722991D01*
X41230693Y-82727410D01*
X41231390Y-82730610D01*
X41232508Y-82732568D01*
X41235145Y-82733308D01*
X41241429Y-82734027D01*
X41264175Y-82735389D01*
X41299217Y-82736623D01*
X41345025Y-82737700D01*
X41462825Y-82739261D01*
X41605341Y-82739834D01*
X41734587Y-82740009D01*
X41832249Y-82741023D01*
X41902749Y-82743613D01*
X41929196Y-82745729D01*
X41950512Y-82748515D01*
X41967249Y-82752064D01*
X41979961Y-82756467D01*
X41989199Y-82761816D01*
X41995519Y-82768204D01*
X41999471Y-82775722D01*
X42001609Y-82784463D01*
X42002657Y-82805980D01*
X42002494Y-82817474D01*
X42002182Y-82822684D01*
X42001621Y-82827553D01*
X42000737Y-82832091D01*
X41999458Y-82836310D01*
X41998648Y-82838303D01*
X41997713Y-82840222D01*
X41996642Y-82842066D01*
X41995428Y-82843838D01*
X41994061Y-82845539D01*
X41992532Y-82847170D01*
X41990832Y-82848733D01*
X41988952Y-82850230D01*
X41986883Y-82851661D01*
X41984616Y-82853028D01*
X41982141Y-82854334D01*
X41979451Y-82855578D01*
X41976536Y-82856763D01*
X41973386Y-82857890D01*
X41966348Y-82859976D01*
X41958264Y-82861848D01*
X41949063Y-82863517D01*
X41938672Y-82864995D01*
X41927019Y-82866294D01*
X41914032Y-82867424D01*
X41899637Y-82868398D01*
X41883764Y-82869228D01*
X41866339Y-82869924D01*
X41847290Y-82870500D01*
X41826546Y-82870965D01*
X41779680Y-82871612D01*
X41725162Y-82871959D01*
X41590859Y-82872126D01*
X41210811Y-82872126D01*
X41201556Y-82946195D01*
X41200040Y-82960403D01*
X41198906Y-82975483D01*
X41197733Y-83007444D01*
X41069411Y-83007444D01*
X41070670Y-82918058D01*
X41075248Y-82824634D01*
G36*
X41217068Y-80848288D02*
G01*
X41220901Y-80848577D01*
X41224576Y-80848992D01*
X41228096Y-80849537D01*
X41231467Y-80850219D01*
X41234693Y-80851042D01*
X41237780Y-80852014D01*
X41240731Y-80853138D01*
X41243553Y-80854421D01*
X41246248Y-80855868D01*
X41248823Y-80857486D01*
X41251282Y-80859278D01*
X41253629Y-80861251D01*
X41255870Y-80863411D01*
X41258009Y-80865763D01*
X41260050Y-80868313D01*
X41262000Y-80871065D01*
X41263862Y-80874027D01*
X41265641Y-80877203D01*
X41267342Y-80880598D01*
X41268969Y-80884219D01*
X41270528Y-80888072D01*
X41272023Y-80892160D01*
X41273459Y-80896491D01*
X41274840Y-80901069D01*
X41277458Y-80910992D01*
X41279916Y-80921971D01*
X41282251Y-80934053D01*
X41284550Y-80945427D01*
X41287421Y-80957475D01*
X41290752Y-80969831D01*
X41294426Y-80982129D01*
X41298329Y-80994002D01*
X41302346Y-81005083D01*
X41306362Y-81015007D01*
X41308334Y-81019420D01*
X41310263Y-81023406D01*
X41312641Y-81027800D01*
X41315329Y-81032207D01*
X41318314Y-81036620D01*
X41321585Y-81041031D01*
X41325128Y-81045431D01*
X41328934Y-81049814D01*
X41337280Y-81058496D01*
X41346526Y-81067015D01*
X41356577Y-81075309D01*
X41367335Y-81083316D01*
X41378705Y-81090974D01*
X41390590Y-81098222D01*
X41402893Y-81104998D01*
X41415518Y-81111240D01*
X41428370Y-81116886D01*
X41441350Y-81121875D01*
X41454364Y-81126144D01*
X41467314Y-81129632D01*
X41480105Y-81132277D01*
X41492165Y-81134526D01*
X41503129Y-81136908D01*
X41513040Y-81139463D01*
X41521943Y-81142226D01*
X41529881Y-81145235D01*
X41536898Y-81148528D01*
X41540075Y-81150292D01*
X41543039Y-81152142D01*
X41545794Y-81154080D01*
X41548346Y-81156113D01*
X41550701Y-81158245D01*
X41552865Y-81160480D01*
X41554842Y-81162824D01*
X41556638Y-81165280D01*
X41558259Y-81167854D01*
X41559711Y-81170549D01*
X41560998Y-81173372D01*
X41562126Y-81176326D01*
X41563101Y-81179416D01*
X41563928Y-81182647D01*
X41565161Y-81189550D01*
X41565868Y-81197073D01*
X41566094Y-81205251D01*
X41565870Y-81213429D01*
X41565581Y-81217264D01*
X41565167Y-81220937D01*
X41564620Y-81224453D01*
X41563937Y-81227815D01*
X41563111Y-81231030D01*
X41562136Y-81234101D01*
X41561006Y-81237033D01*
X41559716Y-81239833D01*
X41558259Y-81242503D01*
X41556631Y-81245049D01*
X41554824Y-81247476D01*
X41552834Y-81249788D01*
X41550655Y-81251991D01*
X41548280Y-81254089D01*
X41545704Y-81256086D01*
X41542921Y-81257989D01*
X41539926Y-81259801D01*
X41536712Y-81261527D01*
X41533274Y-81263173D01*
X41529606Y-81264742D01*
X41525702Y-81266240D01*
X41521557Y-81267672D01*
X41517164Y-81269042D01*
X41512517Y-81270355D01*
X41502442Y-81272829D01*
X41491283Y-81275134D01*
X41478996Y-81277307D01*
X41459046Y-81281289D01*
X41439996Y-81286500D01*
X41421870Y-81292917D01*
X41413161Y-81296570D01*
X41404691Y-81300516D01*
X41396464Y-81304751D01*
X41388483Y-81309273D01*
X41380750Y-81314078D01*
X41373268Y-81319165D01*
X41366041Y-81324529D01*
X41359071Y-81330168D01*
X41352362Y-81336079D01*
X41345915Y-81342259D01*
X41339735Y-81348706D01*
X41333824Y-81355415D01*
X41328185Y-81362385D01*
X41322820Y-81369612D01*
X41317734Y-81377094D01*
X41312928Y-81384827D01*
X41308407Y-81392808D01*
X41304171Y-81401035D01*
X41300226Y-81409505D01*
X41296573Y-81418214D01*
X41290156Y-81436341D01*
X41284945Y-81455390D01*
X41280963Y-81475340D01*
X41278902Y-81486530D01*
X41276453Y-81497622D01*
X41273706Y-81508326D01*
X41270753Y-81518353D01*
X41267686Y-81527414D01*
X41266138Y-81531491D01*
X41264595Y-81535218D01*
X41263069Y-81538559D01*
X41261572Y-81541478D01*
X41260114Y-81543937D01*
X41258708Y-81545902D01*
X41256931Y-81547869D01*
X41254895Y-81549707D01*
X41252615Y-81551415D01*
X41250110Y-81552995D01*
X41247396Y-81554445D01*
X41244491Y-81555766D01*
X41241412Y-81556959D01*
X41238176Y-81558023D01*
X41231301Y-81559765D01*
X41224006Y-81560994D01*
X41216428Y-81561710D01*
X41208704Y-81561915D01*
X41200972Y-81561610D01*
X41193369Y-81560794D01*
X41186034Y-81559470D01*
X41179105Y-81557637D01*
X41175835Y-81556531D01*
X41172718Y-81555298D01*
X41169771Y-81553938D01*
X41167011Y-81552452D01*
X41164456Y-81550840D01*
X41162123Y-81549101D01*
X41160028Y-81547236D01*
X41158190Y-81545246D01*
X41156691Y-81543211D01*
X41155146Y-81540678D01*
X41153565Y-81537683D01*
X41151961Y-81534262D01*
X41150346Y-81530454D01*
X41148731Y-81526294D01*
X41147128Y-81521819D01*
X41145549Y-81517067D01*
X41144005Y-81512074D01*
X41142509Y-81506876D01*
X41141073Y-81501511D01*
X41139707Y-81496015D01*
X41138425Y-81490425D01*
X41137237Y-81484779D01*
X41136155Y-81479112D01*
X41135192Y-81473462D01*
X41131333Y-81453630D01*
X41126257Y-81434713D01*
X41123269Y-81425603D01*
X41119984Y-81416730D01*
X41116406Y-81408096D01*
X41112535Y-81399703D01*
X41108376Y-81391554D01*
X41103930Y-81383651D01*
X41099200Y-81375997D01*
X41094189Y-81368595D01*
X41088899Y-81361447D01*
X41083333Y-81354556D01*
X41077493Y-81347924D01*
X41071382Y-81341553D01*
X41065002Y-81335447D01*
X41058357Y-81329608D01*
X41051448Y-81324038D01*
X41044278Y-81318740D01*
X41036850Y-81313717D01*
X41029166Y-81308971D01*
X41021228Y-81304504D01*
X41013040Y-81300319D01*
X41004604Y-81296420D01*
X40995922Y-81292807D01*
X40977832Y-81286454D01*
X40958790Y-81281280D01*
X40938817Y-81277307D01*
X40926530Y-81275134D01*
X40915372Y-81272829D01*
X40905296Y-81270355D01*
X40896257Y-81267672D01*
X40888207Y-81264742D01*
X40881101Y-81261527D01*
X40877888Y-81259801D01*
X40874892Y-81257989D01*
X40872110Y-81256086D01*
X40869534Y-81254089D01*
X40867159Y-81251991D01*
X40864980Y-81249788D01*
X40862989Y-81247476D01*
X40861183Y-81245049D01*
X40859555Y-81242503D01*
X40858098Y-81239833D01*
X40856808Y-81237033D01*
X40855678Y-81234101D01*
X40854703Y-81231030D01*
X40853876Y-81227815D01*
X40852647Y-81220937D01*
X40851944Y-81213429D01*
X40851719Y-81205251D01*
X40851945Y-81197082D01*
X40852234Y-81193246D01*
X40852650Y-81189569D01*
X40853196Y-81186046D01*
X40853879Y-81182672D01*
X40854704Y-81179444D01*
X40855677Y-81176356D01*
X40856803Y-81173403D01*
X40858088Y-81170581D01*
X40859537Y-81167886D01*
X40861156Y-81165311D01*
X40862950Y-81162854D01*
X40864925Y-81160508D01*
X40867086Y-81158270D01*
X40869440Y-81156134D01*
X40871990Y-81154096D01*
X40874744Y-81152151D01*
X40877706Y-81150294D01*
X40880883Y-81148522D01*
X40884279Y-81146828D01*
X40887900Y-81145208D01*
X40891751Y-81143659D01*
X40895839Y-81142174D01*
X40900169Y-81140749D01*
X40904746Y-81139380D01*
X40914663Y-81136788D01*
X40925636Y-81134363D01*
X40937709Y-81132065D01*
X40957592Y-81127855D01*
X40976561Y-81122469D01*
X40994599Y-81115924D01*
X41011686Y-81108241D01*
X41019867Y-81103978D01*
X41027804Y-81099438D01*
X41035493Y-81094622D01*
X41042933Y-81089533D01*
X41050121Y-81084173D01*
X41057055Y-81078546D01*
X41063732Y-81072652D01*
X41070150Y-81066495D01*
X41076308Y-81060076D01*
X41082201Y-81053399D01*
X41087829Y-81046465D01*
X41093189Y-81039277D01*
X41098278Y-81031837D01*
X41103094Y-81024148D01*
X41107634Y-81016211D01*
X41111897Y-81008030D01*
X41119580Y-80990943D01*
X41126124Y-80972905D01*
X41131511Y-80953936D01*
X41135720Y-80934053D01*
X41138019Y-80921980D01*
X41140444Y-80911007D01*
X41143035Y-80901090D01*
X41145829Y-80892183D01*
X41148864Y-80884244D01*
X41152177Y-80877227D01*
X41153950Y-80874051D01*
X41155807Y-80871088D01*
X41157752Y-80868335D01*
X41159790Y-80865784D01*
X41161925Y-80863431D01*
X41164164Y-80861269D01*
X41166510Y-80859294D01*
X41168967Y-80857500D01*
X41171542Y-80855881D01*
X41174237Y-80854432D01*
X41177059Y-80853147D01*
X41180012Y-80852021D01*
X41183100Y-80851049D01*
X41186328Y-80850223D01*
X41193224Y-80848994D01*
X41200738Y-80848289D01*
X41208907Y-80848063D01*
X41217068Y-80848288D01*
G37*
X41217068Y-80848288D02*
X41220901Y-80848577D01*
X41224576Y-80848992D01*
X41228096Y-80849537D01*
X41231467Y-80850219D01*
X41234693Y-80851042D01*
X41237780Y-80852014D01*
X41240731Y-80853138D01*
X41243553Y-80854421D01*
X41246248Y-80855868D01*
X41248823Y-80857486D01*
X41251282Y-80859278D01*
X41253629Y-80861251D01*
X41255870Y-80863411D01*
X41258009Y-80865763D01*
X41260050Y-80868313D01*
X41262000Y-80871065D01*
X41263862Y-80874027D01*
X41265641Y-80877203D01*
X41267342Y-80880598D01*
X41268969Y-80884219D01*
X41270528Y-80888072D01*
X41272023Y-80892160D01*
X41273459Y-80896491D01*
X41274840Y-80901069D01*
X41277458Y-80910992D01*
X41279916Y-80921971D01*
X41282251Y-80934053D01*
X41284550Y-80945427D01*
X41287421Y-80957475D01*
X41290752Y-80969831D01*
X41294426Y-80982129D01*
X41298329Y-80994002D01*
X41302346Y-81005083D01*
X41306362Y-81015007D01*
X41308334Y-81019420D01*
X41310263Y-81023406D01*
X41312641Y-81027800D01*
X41315329Y-81032207D01*
X41318314Y-81036620D01*
X41321585Y-81041031D01*
X41325128Y-81045431D01*
X41328934Y-81049814D01*
X41337280Y-81058496D01*
X41346526Y-81067015D01*
X41356577Y-81075309D01*
X41367335Y-81083316D01*
X41378705Y-81090974D01*
X41390590Y-81098222D01*
X41402893Y-81104998D01*
X41415518Y-81111240D01*
X41428370Y-81116886D01*
X41441350Y-81121875D01*
X41454364Y-81126144D01*
X41467314Y-81129632D01*
X41480105Y-81132277D01*
X41492165Y-81134526D01*
X41503129Y-81136908D01*
X41513040Y-81139463D01*
X41521943Y-81142226D01*
X41529881Y-81145235D01*
X41536898Y-81148528D01*
X41540075Y-81150292D01*
X41543039Y-81152142D01*
X41545794Y-81154080D01*
X41548346Y-81156113D01*
X41550701Y-81158245D01*
X41552865Y-81160480D01*
X41554842Y-81162824D01*
X41556638Y-81165280D01*
X41558259Y-81167854D01*
X41559711Y-81170549D01*
X41560998Y-81173372D01*
X41562126Y-81176326D01*
X41563101Y-81179416D01*
X41563928Y-81182647D01*
X41565161Y-81189550D01*
X41565868Y-81197073D01*
X41566094Y-81205251D01*
X41565870Y-81213429D01*
X41565581Y-81217264D01*
X41565167Y-81220937D01*
X41564620Y-81224453D01*
X41563937Y-81227815D01*
X41563111Y-81231030D01*
X41562136Y-81234101D01*
X41561006Y-81237033D01*
X41559716Y-81239833D01*
X41558259Y-81242503D01*
X41556631Y-81245049D01*
X41554824Y-81247476D01*
X41552834Y-81249788D01*
X41550655Y-81251991D01*
X41548280Y-81254089D01*
X41545704Y-81256086D01*
X41542921Y-81257989D01*
X41539926Y-81259801D01*
X41536712Y-81261527D01*
X41533274Y-81263173D01*
X41529606Y-81264742D01*
X41525702Y-81266240D01*
X41521557Y-81267672D01*
X41517164Y-81269042D01*
X41512517Y-81270355D01*
X41502442Y-81272829D01*
X41491283Y-81275134D01*
X41478996Y-81277307D01*
X41459046Y-81281289D01*
X41439996Y-81286500D01*
X41421870Y-81292917D01*
X41413161Y-81296570D01*
X41404691Y-81300516D01*
X41396464Y-81304751D01*
X41388483Y-81309273D01*
X41380750Y-81314078D01*
X41373268Y-81319165D01*
X41366041Y-81324529D01*
X41359071Y-81330168D01*
X41352362Y-81336079D01*
X41345915Y-81342259D01*
X41339735Y-81348706D01*
X41333824Y-81355415D01*
X41328185Y-81362385D01*
X41322820Y-81369612D01*
X41317734Y-81377094D01*
X41312928Y-81384827D01*
X41308407Y-81392808D01*
X41304171Y-81401035D01*
X41300226Y-81409505D01*
X41296573Y-81418214D01*
X41290156Y-81436341D01*
X41284945Y-81455390D01*
X41280963Y-81475340D01*
X41278902Y-81486530D01*
X41276453Y-81497622D01*
X41273706Y-81508326D01*
X41270753Y-81518353D01*
X41267686Y-81527414D01*
X41266138Y-81531491D01*
X41264595Y-81535218D01*
X41263069Y-81538559D01*
X41261572Y-81541478D01*
X41260114Y-81543937D01*
X41258708Y-81545902D01*
X41256931Y-81547869D01*
X41254895Y-81549707D01*
X41252615Y-81551415D01*
X41250110Y-81552995D01*
X41247396Y-81554445D01*
X41244491Y-81555766D01*
X41241412Y-81556959D01*
X41238176Y-81558023D01*
X41231301Y-81559765D01*
X41224006Y-81560994D01*
X41216428Y-81561710D01*
X41208704Y-81561915D01*
X41200972Y-81561610D01*
X41193369Y-81560794D01*
X41186034Y-81559470D01*
X41179105Y-81557637D01*
X41175835Y-81556531D01*
X41172718Y-81555298D01*
X41169771Y-81553938D01*
X41167011Y-81552452D01*
X41164456Y-81550840D01*
X41162123Y-81549101D01*
X41160028Y-81547236D01*
X41158190Y-81545246D01*
X41156691Y-81543211D01*
X41155146Y-81540678D01*
X41153565Y-81537683D01*
X41151961Y-81534262D01*
X41150346Y-81530454D01*
X41148731Y-81526294D01*
X41147128Y-81521819D01*
X41145549Y-81517067D01*
X41144005Y-81512074D01*
X41142509Y-81506876D01*
X41141073Y-81501511D01*
X41139707Y-81496015D01*
X41138425Y-81490425D01*
X41137237Y-81484779D01*
X41136155Y-81479112D01*
X41135192Y-81473462D01*
X41131333Y-81453630D01*
X41126257Y-81434713D01*
X41123269Y-81425603D01*
X41119984Y-81416730D01*
X41116406Y-81408096D01*
X41112535Y-81399703D01*
X41108376Y-81391554D01*
X41103930Y-81383651D01*
X41099200Y-81375997D01*
X41094189Y-81368595D01*
X41088899Y-81361447D01*
X41083333Y-81354556D01*
X41077493Y-81347924D01*
X41071382Y-81341553D01*
X41065002Y-81335447D01*
X41058357Y-81329608D01*
X41051448Y-81324038D01*
X41044278Y-81318740D01*
X41036850Y-81313717D01*
X41029166Y-81308971D01*
X41021228Y-81304504D01*
X41013040Y-81300319D01*
X41004604Y-81296420D01*
X40995922Y-81292807D01*
X40977832Y-81286454D01*
X40958790Y-81281280D01*
X40938817Y-81277307D01*
X40926530Y-81275134D01*
X40915372Y-81272829D01*
X40905296Y-81270355D01*
X40896257Y-81267672D01*
X40888207Y-81264742D01*
X40881101Y-81261527D01*
X40877888Y-81259801D01*
X40874892Y-81257989D01*
X40872110Y-81256086D01*
X40869534Y-81254089D01*
X40867159Y-81251991D01*
X40864980Y-81249788D01*
X40862989Y-81247476D01*
X40861183Y-81245049D01*
X40859555Y-81242503D01*
X40858098Y-81239833D01*
X40856808Y-81237033D01*
X40855678Y-81234101D01*
X40854703Y-81231030D01*
X40853876Y-81227815D01*
X40852647Y-81220937D01*
X40851944Y-81213429D01*
X40851719Y-81205251D01*
X40851945Y-81197082D01*
X40852234Y-81193246D01*
X40852650Y-81189569D01*
X40853196Y-81186046D01*
X40853879Y-81182672D01*
X40854704Y-81179444D01*
X40855677Y-81176356D01*
X40856803Y-81173403D01*
X40858088Y-81170581D01*
X40859537Y-81167886D01*
X40861156Y-81165311D01*
X40862950Y-81162854D01*
X40864925Y-81160508D01*
X40867086Y-81158270D01*
X40869440Y-81156134D01*
X40871990Y-81154096D01*
X40874744Y-81152151D01*
X40877706Y-81150294D01*
X40880883Y-81148522D01*
X40884279Y-81146828D01*
X40887900Y-81145208D01*
X40891751Y-81143659D01*
X40895839Y-81142174D01*
X40900169Y-81140749D01*
X40904746Y-81139380D01*
X40914663Y-81136788D01*
X40925636Y-81134363D01*
X40937709Y-81132065D01*
X40957592Y-81127855D01*
X40976561Y-81122469D01*
X40994599Y-81115924D01*
X41011686Y-81108241D01*
X41019867Y-81103978D01*
X41027804Y-81099438D01*
X41035493Y-81094622D01*
X41042933Y-81089533D01*
X41050121Y-81084173D01*
X41057055Y-81078546D01*
X41063732Y-81072652D01*
X41070150Y-81066495D01*
X41076308Y-81060076D01*
X41082201Y-81053399D01*
X41087829Y-81046465D01*
X41093189Y-81039277D01*
X41098278Y-81031837D01*
X41103094Y-81024148D01*
X41107634Y-81016211D01*
X41111897Y-81008030D01*
X41119580Y-80990943D01*
X41126124Y-80972905D01*
X41131511Y-80953936D01*
X41135720Y-80934053D01*
X41138019Y-80921980D01*
X41140444Y-80911007D01*
X41143035Y-80901090D01*
X41145829Y-80892183D01*
X41148864Y-80884244D01*
X41152177Y-80877227D01*
X41153950Y-80874051D01*
X41155807Y-80871088D01*
X41157752Y-80868335D01*
X41159790Y-80865784D01*
X41161925Y-80863431D01*
X41164164Y-80861269D01*
X41166510Y-80859294D01*
X41168967Y-80857500D01*
X41171542Y-80855881D01*
X41174237Y-80854432D01*
X41177059Y-80853147D01*
X41180012Y-80852021D01*
X41183100Y-80851049D01*
X41186328Y-80850223D01*
X41193224Y-80848994D01*
X41200738Y-80848289D01*
X41208907Y-80848063D01*
X41217068Y-80848288D01*
G36*
X44959347Y-81390678D02*
G01*
X44965950Y-81391323D01*
X44972554Y-81392381D01*
X44979145Y-81393836D01*
X44985707Y-81395674D01*
X44992227Y-81397880D01*
X44998689Y-81400439D01*
X45005079Y-81403337D01*
X45011381Y-81406558D01*
X45017582Y-81410088D01*
X45023665Y-81413912D01*
X45029617Y-81418015D01*
X45035423Y-81422383D01*
X45041068Y-81427001D01*
X45046537Y-81431853D01*
X45051815Y-81436926D01*
X45056888Y-81442204D01*
X45061740Y-81447673D01*
X45066358Y-81453318D01*
X45070726Y-81459124D01*
X45074829Y-81465076D01*
X45078653Y-81471159D01*
X45082183Y-81477360D01*
X45085404Y-81483662D01*
X45088302Y-81490052D01*
X45090861Y-81496514D01*
X45093067Y-81503034D01*
X45094905Y-81509596D01*
X45096360Y-81516187D01*
X45097418Y-81522791D01*
X45098063Y-81529394D01*
X45098282Y-81535980D01*
X45098174Y-81540222D01*
X45097854Y-81544537D01*
X45096604Y-81553352D01*
X45094579Y-81562348D01*
X45091826Y-81571450D01*
X45088393Y-81580582D01*
X45084327Y-81589670D01*
X45079676Y-81598636D01*
X45074488Y-81607407D01*
X45068810Y-81615905D01*
X45062689Y-81624056D01*
X45056174Y-81631784D01*
X45049311Y-81639013D01*
X45042149Y-81645669D01*
X45034734Y-81651674D01*
X45027115Y-81656954D01*
X45019339Y-81661433D01*
X45010375Y-81665818D01*
X45001566Y-81669613D01*
X44992893Y-81672818D01*
X44984335Y-81675434D01*
X44975874Y-81677460D01*
X44967488Y-81678896D01*
X44959159Y-81679742D01*
X44950867Y-81679998D01*
X44942592Y-81679663D01*
X44934313Y-81678739D01*
X44926012Y-81677224D01*
X44917669Y-81675119D01*
X44909263Y-81672423D01*
X44900775Y-81669137D01*
X44892185Y-81665260D01*
X44883474Y-81660792D01*
X44879760Y-81658661D01*
X44876071Y-81656316D01*
X44872413Y-81653767D01*
X44868793Y-81651024D01*
X44865215Y-81648097D01*
X44861687Y-81644996D01*
X44854803Y-81638312D01*
X44848190Y-81631051D01*
X44841895Y-81623294D01*
X44835969Y-81615120D01*
X44830460Y-81606610D01*
X44825416Y-81597842D01*
X44820886Y-81588898D01*
X44816920Y-81579856D01*
X44813565Y-81570796D01*
X44810871Y-81561799D01*
X44809787Y-81557349D01*
X44808886Y-81552944D01*
X44808175Y-81548595D01*
X44807660Y-81544311D01*
X44807346Y-81540103D01*
X44807240Y-81535980D01*
X44807458Y-81529394D01*
X44808104Y-81522791D01*
X44809162Y-81516187D01*
X44810617Y-81509596D01*
X44812455Y-81503034D01*
X44814661Y-81496514D01*
X44817220Y-81490052D01*
X44820117Y-81483662D01*
X44823339Y-81477360D01*
X44826869Y-81471159D01*
X44830693Y-81465076D01*
X44834796Y-81459124D01*
X44839164Y-81453318D01*
X44843781Y-81447673D01*
X44848634Y-81442204D01*
X44853707Y-81436926D01*
X44858985Y-81431853D01*
X44864454Y-81427001D01*
X44870098Y-81422383D01*
X44875904Y-81418015D01*
X44881856Y-81413912D01*
X44887940Y-81410088D01*
X44894140Y-81406558D01*
X44900443Y-81403337D01*
X44906832Y-81400439D01*
X44913294Y-81397880D01*
X44919814Y-81395674D01*
X44926377Y-81393836D01*
X44932968Y-81392381D01*
X44939572Y-81391323D01*
X44946174Y-81390678D01*
X44952761Y-81390459D01*
X44959347Y-81390678D01*
G37*
X44959347Y-81390678D02*
X44965950Y-81391323D01*
X44972554Y-81392381D01*
X44979145Y-81393836D01*
X44985707Y-81395674D01*
X44992227Y-81397880D01*
X44998689Y-81400439D01*
X45005079Y-81403337D01*
X45011381Y-81406558D01*
X45017582Y-81410088D01*
X45023665Y-81413912D01*
X45029617Y-81418015D01*
X45035423Y-81422383D01*
X45041068Y-81427001D01*
X45046537Y-81431853D01*
X45051815Y-81436926D01*
X45056888Y-81442204D01*
X45061740Y-81447673D01*
X45066358Y-81453318D01*
X45070726Y-81459124D01*
X45074829Y-81465076D01*
X45078653Y-81471159D01*
X45082183Y-81477360D01*
X45085404Y-81483662D01*
X45088302Y-81490052D01*
X45090861Y-81496514D01*
X45093067Y-81503034D01*
X45094905Y-81509596D01*
X45096360Y-81516187D01*
X45097418Y-81522791D01*
X45098063Y-81529394D01*
X45098282Y-81535980D01*
X45098174Y-81540222D01*
X45097854Y-81544537D01*
X45096604Y-81553352D01*
X45094579Y-81562348D01*
X45091826Y-81571450D01*
X45088393Y-81580582D01*
X45084327Y-81589670D01*
X45079676Y-81598636D01*
X45074488Y-81607407D01*
X45068810Y-81615905D01*
X45062689Y-81624056D01*
X45056174Y-81631784D01*
X45049311Y-81639013D01*
X45042149Y-81645669D01*
X45034734Y-81651674D01*
X45027115Y-81656954D01*
X45019339Y-81661433D01*
X45010375Y-81665818D01*
X45001566Y-81669613D01*
X44992893Y-81672818D01*
X44984335Y-81675434D01*
X44975874Y-81677460D01*
X44967488Y-81678896D01*
X44959159Y-81679742D01*
X44950867Y-81679998D01*
X44942592Y-81679663D01*
X44934313Y-81678739D01*
X44926012Y-81677224D01*
X44917669Y-81675119D01*
X44909263Y-81672423D01*
X44900775Y-81669137D01*
X44892185Y-81665260D01*
X44883474Y-81660792D01*
X44879760Y-81658661D01*
X44876071Y-81656316D01*
X44872413Y-81653767D01*
X44868793Y-81651024D01*
X44865215Y-81648097D01*
X44861687Y-81644996D01*
X44854803Y-81638312D01*
X44848190Y-81631051D01*
X44841895Y-81623294D01*
X44835969Y-81615120D01*
X44830460Y-81606610D01*
X44825416Y-81597842D01*
X44820886Y-81588898D01*
X44816920Y-81579856D01*
X44813565Y-81570796D01*
X44810871Y-81561799D01*
X44809787Y-81557349D01*
X44808886Y-81552944D01*
X44808175Y-81548595D01*
X44807660Y-81544311D01*
X44807346Y-81540103D01*
X44807240Y-81535980D01*
X44807458Y-81529394D01*
X44808104Y-81522791D01*
X44809162Y-81516187D01*
X44810617Y-81509596D01*
X44812455Y-81503034D01*
X44814661Y-81496514D01*
X44817220Y-81490052D01*
X44820117Y-81483662D01*
X44823339Y-81477360D01*
X44826869Y-81471159D01*
X44830693Y-81465076D01*
X44834796Y-81459124D01*
X44839164Y-81453318D01*
X44843781Y-81447673D01*
X44848634Y-81442204D01*
X44853707Y-81436926D01*
X44858985Y-81431853D01*
X44864454Y-81427001D01*
X44870098Y-81422383D01*
X44875904Y-81418015D01*
X44881856Y-81413912D01*
X44887940Y-81410088D01*
X44894140Y-81406558D01*
X44900443Y-81403337D01*
X44906832Y-81400439D01*
X44913294Y-81397880D01*
X44919814Y-81395674D01*
X44926377Y-81393836D01*
X44932968Y-81392381D01*
X44939572Y-81391323D01*
X44946174Y-81390678D01*
X44952761Y-81390459D01*
X44959347Y-81390678D01*
G36*
X43587056Y-83613752D02*
G01*
X43837549Y-83616397D01*
X43976369Y-83621291D01*
X44010326Y-83624707D01*
X44024073Y-83628834D01*
X44025932Y-83630865D01*
X44027671Y-83633111D01*
X44029290Y-83635557D01*
X44030788Y-83638190D01*
X44032167Y-83640995D01*
X44033426Y-83643958D01*
X44035585Y-83650299D01*
X44037264Y-83657099D01*
X44038463Y-83664243D01*
X44039182Y-83671617D01*
X44039422Y-83679105D01*
X44039182Y-83686593D01*
X44038463Y-83693966D01*
X44037264Y-83701110D01*
X44035585Y-83707910D01*
X44033426Y-83714252D01*
X44032167Y-83717214D01*
X44030788Y-83720019D01*
X44029290Y-83722652D01*
X44027671Y-83725099D01*
X44025932Y-83727345D01*
X44024073Y-83729376D01*
X44022396Y-83730477D01*
X44019585Y-83731531D01*
X44010405Y-83733502D01*
X43996217Y-83735295D01*
X43976703Y-83736917D01*
X43951545Y-83738373D01*
X43920425Y-83739670D01*
X43839028Y-83741812D01*
X43729972Y-83743391D01*
X43590714Y-83744457D01*
X43418712Y-83745060D01*
X43211425Y-83745251D01*
X42788134Y-83744595D01*
X42544545Y-83741771D01*
X42474310Y-83739143D01*
X42430005Y-83735489D01*
X42405300Y-83730649D01*
X42393862Y-83724462D01*
X42391661Y-83722191D01*
X42389589Y-83719909D01*
X42387645Y-83717614D01*
X42385831Y-83715304D01*
X42384145Y-83712978D01*
X42382587Y-83710635D01*
X42381158Y-83708272D01*
X42379857Y-83705889D01*
X42378684Y-83703484D01*
X42377639Y-83701056D01*
X42376722Y-83698602D01*
X42375932Y-83696121D01*
X42375271Y-83693612D01*
X42374736Y-83691074D01*
X42374329Y-83688504D01*
X42374049Y-83685901D01*
X42373896Y-83683264D01*
X42373871Y-83680591D01*
X42373972Y-83677881D01*
X42374199Y-83675132D01*
X42374553Y-83672342D01*
X42375034Y-83669510D01*
X42375641Y-83666635D01*
X42376374Y-83663715D01*
X42377234Y-83660748D01*
X42378219Y-83657733D01*
X42380567Y-83651553D01*
X42383417Y-83645162D01*
X42386768Y-83638548D01*
X42388067Y-83636286D01*
X42388781Y-83635207D01*
X42389560Y-83634162D01*
X42390422Y-83633150D01*
X42391384Y-83632171D01*
X42392463Y-83631224D01*
X42393676Y-83630308D01*
X42395041Y-83629424D01*
X42396574Y-83628570D01*
X42398292Y-83627746D01*
X42400214Y-83626952D01*
X42402355Y-83626186D01*
X42404732Y-83625449D01*
X42407364Y-83624740D01*
X42410268Y-83624058D01*
X42413459Y-83623403D01*
X42416956Y-83622774D01*
X42420776Y-83622171D01*
X42424935Y-83621593D01*
X42434342Y-83620511D01*
X42445313Y-83619523D01*
X42457985Y-83618625D01*
X42472496Y-83617813D01*
X42488983Y-83617082D01*
X42507582Y-83616428D01*
X42528431Y-83615847D01*
X42551667Y-83615335D01*
X42577427Y-83614887D01*
X42605848Y-83614498D01*
X42637066Y-83614166D01*
X42671220Y-83613885D01*
X42748880Y-83613460D01*
X42839925Y-83613189D01*
X42945451Y-83613039D01*
X43204331Y-83612959D01*
X43587056Y-83613752D01*
G37*
X43587056Y-83613752D02*
X43837549Y-83616397D01*
X43976369Y-83621291D01*
X44010326Y-83624707D01*
X44024073Y-83628834D01*
X44025932Y-83630865D01*
X44027671Y-83633111D01*
X44029290Y-83635557D01*
X44030788Y-83638190D01*
X44032167Y-83640995D01*
X44033426Y-83643958D01*
X44035585Y-83650299D01*
X44037264Y-83657099D01*
X44038463Y-83664243D01*
X44039182Y-83671617D01*
X44039422Y-83679105D01*
X44039182Y-83686593D01*
X44038463Y-83693966D01*
X44037264Y-83701110D01*
X44035585Y-83707910D01*
X44033426Y-83714252D01*
X44032167Y-83717214D01*
X44030788Y-83720019D01*
X44029290Y-83722652D01*
X44027671Y-83725099D01*
X44025932Y-83727345D01*
X44024073Y-83729376D01*
X44022396Y-83730477D01*
X44019585Y-83731531D01*
X44010405Y-83733502D01*
X43996217Y-83735295D01*
X43976703Y-83736917D01*
X43951545Y-83738373D01*
X43920425Y-83739670D01*
X43839028Y-83741812D01*
X43729972Y-83743391D01*
X43590714Y-83744457D01*
X43418712Y-83745060D01*
X43211425Y-83745251D01*
X42788134Y-83744595D01*
X42544545Y-83741771D01*
X42474310Y-83739143D01*
X42430005Y-83735489D01*
X42405300Y-83730649D01*
X42393862Y-83724462D01*
X42391661Y-83722191D01*
X42389589Y-83719909D01*
X42387645Y-83717614D01*
X42385831Y-83715304D01*
X42384145Y-83712978D01*
X42382587Y-83710635D01*
X42381158Y-83708272D01*
X42379857Y-83705889D01*
X42378684Y-83703484D01*
X42377639Y-83701056D01*
X42376722Y-83698602D01*
X42375932Y-83696121D01*
X42375271Y-83693612D01*
X42374736Y-83691074D01*
X42374329Y-83688504D01*
X42374049Y-83685901D01*
X42373896Y-83683264D01*
X42373871Y-83680591D01*
X42373972Y-83677881D01*
X42374199Y-83675132D01*
X42374553Y-83672342D01*
X42375034Y-83669510D01*
X42375641Y-83666635D01*
X42376374Y-83663715D01*
X42377234Y-83660748D01*
X42378219Y-83657733D01*
X42380567Y-83651553D01*
X42383417Y-83645162D01*
X42386768Y-83638548D01*
X42388067Y-83636286D01*
X42388781Y-83635207D01*
X42389560Y-83634162D01*
X42390422Y-83633150D01*
X42391384Y-83632171D01*
X42392463Y-83631224D01*
X42393676Y-83630308D01*
X42395041Y-83629424D01*
X42396574Y-83628570D01*
X42398292Y-83627746D01*
X42400214Y-83626952D01*
X42402355Y-83626186D01*
X42404732Y-83625449D01*
X42407364Y-83624740D01*
X42410268Y-83624058D01*
X42413459Y-83623403D01*
X42416956Y-83622774D01*
X42420776Y-83622171D01*
X42424935Y-83621593D01*
X42434342Y-83620511D01*
X42445313Y-83619523D01*
X42457985Y-83618625D01*
X42472496Y-83617813D01*
X42488983Y-83617082D01*
X42507582Y-83616428D01*
X42528431Y-83615847D01*
X42551667Y-83615335D01*
X42577427Y-83614887D01*
X42605848Y-83614498D01*
X42637066Y-83614166D01*
X42671220Y-83613885D01*
X42748880Y-83613460D01*
X42839925Y-83613189D01*
X42945451Y-83613039D01*
X43204331Y-83612959D01*
X43587056Y-83613752D01*
G36*
X43184342Y-82740394D02*
G01*
X43257330Y-82741483D01*
X43308308Y-82743459D01*
X43341571Y-82746581D01*
X43352902Y-82748653D01*
X43361415Y-82751109D01*
X43367647Y-82753981D01*
X43372134Y-82757303D01*
X43375415Y-82761106D01*
X43378025Y-82765423D01*
X43381376Y-82772037D01*
X43384226Y-82778428D01*
X43386574Y-82784608D01*
X43388418Y-82790590D01*
X43389758Y-82796386D01*
X43390593Y-82802007D01*
X43390821Y-82804756D01*
X43390922Y-82807467D01*
X43390896Y-82810139D01*
X43390743Y-82812776D01*
X43390464Y-82815379D01*
X43390056Y-82817949D01*
X43389522Y-82820488D01*
X43388860Y-82822996D01*
X43388071Y-82825477D01*
X43387154Y-82827931D01*
X43386109Y-82830360D01*
X43384936Y-82832765D01*
X43382205Y-82837510D01*
X43378962Y-82842179D01*
X43375204Y-82846784D01*
X43370930Y-82851337D01*
X43369126Y-82852978D01*
X43367051Y-82854532D01*
X43364661Y-82856002D01*
X43361910Y-82857390D01*
X43358754Y-82858698D01*
X43355147Y-82859929D01*
X43351044Y-82861084D01*
X43346399Y-82862167D01*
X43341169Y-82863179D01*
X43335307Y-82864122D01*
X43328768Y-82864999D01*
X43321508Y-82865812D01*
X43304641Y-82867256D01*
X43284344Y-82868471D01*
X43260257Y-82869475D01*
X43232018Y-82870287D01*
X43199266Y-82870924D01*
X43161639Y-82871405D01*
X43118776Y-82871747D01*
X43070315Y-82871970D01*
X42955157Y-82872126D01*
X42748675Y-82871405D01*
X42678295Y-82870287D01*
X42625969Y-82868471D01*
X42588806Y-82865812D01*
X42563914Y-82862167D01*
X42555167Y-82859929D01*
X42548403Y-82857390D01*
X42543262Y-82854532D01*
X42539383Y-82851337D01*
X42537182Y-82849066D01*
X42535110Y-82846784D01*
X42533166Y-82844489D01*
X42531352Y-82842179D01*
X42529666Y-82839853D01*
X42528108Y-82837510D01*
X42526679Y-82835147D01*
X42525378Y-82832765D01*
X42524205Y-82830359D01*
X42523160Y-82827931D01*
X42522243Y-82825477D01*
X42521453Y-82822996D01*
X42520792Y-82820487D01*
X42520257Y-82817949D01*
X42519850Y-82815379D01*
X42519570Y-82812776D01*
X42519417Y-82810139D01*
X42519392Y-82807466D01*
X42519492Y-82804756D01*
X42519720Y-82802007D01*
X42520074Y-82799217D01*
X42520555Y-82796385D01*
X42521162Y-82793510D01*
X42521895Y-82790590D01*
X42522755Y-82787623D01*
X42523740Y-82784608D01*
X42526088Y-82778428D01*
X42528938Y-82772037D01*
X42532289Y-82765423D01*
X42533544Y-82763198D01*
X42534899Y-82761106D01*
X42536422Y-82759142D01*
X42537267Y-82758207D01*
X42538179Y-82757303D01*
X42539167Y-82756429D01*
X42540238Y-82755584D01*
X42541402Y-82754768D01*
X42542667Y-82753981D01*
X42544040Y-82753222D01*
X42545531Y-82752491D01*
X42547148Y-82751787D01*
X42548899Y-82751109D01*
X42550792Y-82750457D01*
X42552836Y-82749831D01*
X42555040Y-82749230D01*
X42557412Y-82748653D01*
X42562691Y-82747571D01*
X42568742Y-82746581D01*
X42575632Y-82745679D01*
X42583428Y-82744860D01*
X42592197Y-82744122D01*
X42602006Y-82743459D01*
X42612922Y-82742868D01*
X42625012Y-82742344D01*
X42638344Y-82741884D01*
X42652984Y-82741483D01*
X42669000Y-82741138D01*
X42686458Y-82740844D01*
X42725972Y-82740394D01*
X42772061Y-82740100D01*
X42825264Y-82739931D01*
X42886117Y-82739853D01*
X42955157Y-82739834D01*
X43184342Y-82740394D01*
G37*
X43184342Y-82740394D02*
X43257330Y-82741483D01*
X43308308Y-82743459D01*
X43341571Y-82746581D01*
X43352902Y-82748653D01*
X43361415Y-82751109D01*
X43367647Y-82753981D01*
X43372134Y-82757303D01*
X43375415Y-82761106D01*
X43378025Y-82765423D01*
X43381376Y-82772037D01*
X43384226Y-82778428D01*
X43386574Y-82784608D01*
X43388418Y-82790590D01*
X43389758Y-82796386D01*
X43390593Y-82802007D01*
X43390821Y-82804756D01*
X43390922Y-82807467D01*
X43390896Y-82810139D01*
X43390743Y-82812776D01*
X43390464Y-82815379D01*
X43390056Y-82817949D01*
X43389522Y-82820488D01*
X43388860Y-82822996D01*
X43388071Y-82825477D01*
X43387154Y-82827931D01*
X43386109Y-82830360D01*
X43384936Y-82832765D01*
X43382205Y-82837510D01*
X43378962Y-82842179D01*
X43375204Y-82846784D01*
X43370930Y-82851337D01*
X43369126Y-82852978D01*
X43367051Y-82854532D01*
X43364661Y-82856002D01*
X43361910Y-82857390D01*
X43358754Y-82858698D01*
X43355147Y-82859929D01*
X43351044Y-82861084D01*
X43346399Y-82862167D01*
X43341169Y-82863179D01*
X43335307Y-82864122D01*
X43328768Y-82864999D01*
X43321508Y-82865812D01*
X43304641Y-82867256D01*
X43284344Y-82868471D01*
X43260257Y-82869475D01*
X43232018Y-82870287D01*
X43199266Y-82870924D01*
X43161639Y-82871405D01*
X43118776Y-82871747D01*
X43070315Y-82871970D01*
X42955157Y-82872126D01*
X42748675Y-82871405D01*
X42678295Y-82870287D01*
X42625969Y-82868471D01*
X42588806Y-82865812D01*
X42563914Y-82862167D01*
X42555167Y-82859929D01*
X42548403Y-82857390D01*
X42543262Y-82854532D01*
X42539383Y-82851337D01*
X42537182Y-82849066D01*
X42535110Y-82846784D01*
X42533166Y-82844489D01*
X42531352Y-82842179D01*
X42529666Y-82839853D01*
X42528108Y-82837510D01*
X42526679Y-82835147D01*
X42525378Y-82832765D01*
X42524205Y-82830359D01*
X42523160Y-82827931D01*
X42522243Y-82825477D01*
X42521453Y-82822996D01*
X42520792Y-82820487D01*
X42520257Y-82817949D01*
X42519850Y-82815379D01*
X42519570Y-82812776D01*
X42519417Y-82810139D01*
X42519392Y-82807466D01*
X42519492Y-82804756D01*
X42519720Y-82802007D01*
X42520074Y-82799217D01*
X42520555Y-82796385D01*
X42521162Y-82793510D01*
X42521895Y-82790590D01*
X42522755Y-82787623D01*
X42523740Y-82784608D01*
X42526088Y-82778428D01*
X42528938Y-82772037D01*
X42532289Y-82765423D01*
X42533544Y-82763198D01*
X42534899Y-82761106D01*
X42536422Y-82759142D01*
X42537267Y-82758207D01*
X42538179Y-82757303D01*
X42539167Y-82756429D01*
X42540238Y-82755584D01*
X42541402Y-82754768D01*
X42542667Y-82753981D01*
X42544040Y-82753222D01*
X42545531Y-82752491D01*
X42547148Y-82751787D01*
X42548899Y-82751109D01*
X42550792Y-82750457D01*
X42552836Y-82749831D01*
X42555040Y-82749230D01*
X42557412Y-82748653D01*
X42562691Y-82747571D01*
X42568742Y-82746581D01*
X42575632Y-82745679D01*
X42583428Y-82744860D01*
X42592197Y-82744122D01*
X42602006Y-82743459D01*
X42612922Y-82742868D01*
X42625012Y-82742344D01*
X42638344Y-82741884D01*
X42652984Y-82741483D01*
X42669000Y-82741138D01*
X42686458Y-82740844D01*
X42725972Y-82740394D01*
X42772061Y-82740100D01*
X42825264Y-82739931D01*
X42886117Y-82739853D01*
X42955157Y-82739834D01*
X43184342Y-82740394D01*
G36*
X44713627Y-84516146D02*
G01*
X44729790Y-84518060D01*
X44745303Y-84521328D01*
X44760139Y-84525873D01*
X44774272Y-84531624D01*
X44787674Y-84538504D01*
X44800317Y-84546439D01*
X44812176Y-84555356D01*
X44823221Y-84565180D01*
X44833426Y-84575837D01*
X44842765Y-84587252D01*
X44851208Y-84599351D01*
X44858730Y-84612059D01*
X44865303Y-84625303D01*
X44870900Y-84639008D01*
X44875493Y-84653099D01*
X44879056Y-84667503D01*
X44881560Y-84682145D01*
X44882979Y-84696950D01*
X44883286Y-84711845D01*
X44882453Y-84726755D01*
X44880453Y-84741605D01*
X44877259Y-84756321D01*
X44872844Y-84770830D01*
X44867179Y-84785056D01*
X44860239Y-84798926D01*
X44851995Y-84812365D01*
X44842421Y-84825298D01*
X44831489Y-84837651D01*
X44819173Y-84849351D01*
X44805444Y-84860322D01*
X44795611Y-84866839D01*
X44784955Y-84872634D01*
X44773584Y-84877699D01*
X44761605Y-84882026D01*
X44749126Y-84885609D01*
X44736256Y-84888440D01*
X44723102Y-84890512D01*
X44709771Y-84891816D01*
X44696373Y-84892347D01*
X44683014Y-84892095D01*
X44669804Y-84891055D01*
X44656849Y-84889218D01*
X44644257Y-84886578D01*
X44632137Y-84883126D01*
X44620596Y-84878855D01*
X44609743Y-84873759D01*
X44594480Y-84864937D01*
X44580481Y-84855252D01*
X44567733Y-84844778D01*
X44556221Y-84833583D01*
X44545931Y-84821740D01*
X44536850Y-84809319D01*
X44528964Y-84796392D01*
X44522259Y-84783029D01*
X44516720Y-84769303D01*
X44512334Y-84755284D01*
X44509088Y-84741042D01*
X44506967Y-84726650D01*
X44505957Y-84712179D01*
X44506045Y-84697698D01*
X44507216Y-84683281D01*
X44509457Y-84668997D01*
X44512754Y-84654918D01*
X44517093Y-84641115D01*
X44522460Y-84627659D01*
X44528841Y-84614621D01*
X44536222Y-84602072D01*
X44544590Y-84590084D01*
X44553930Y-84578728D01*
X44564229Y-84568074D01*
X44575472Y-84558194D01*
X44587647Y-84549159D01*
X44600738Y-84541040D01*
X44614733Y-84533908D01*
X44629617Y-84527834D01*
X44645376Y-84522890D01*
X44661996Y-84519146D01*
X44679464Y-84516674D01*
X44696843Y-84515659D01*
X44713627Y-84516146D01*
G37*
X44713627Y-84516146D02*
X44729790Y-84518060D01*
X44745303Y-84521328D01*
X44760139Y-84525873D01*
X44774272Y-84531624D01*
X44787674Y-84538504D01*
X44800317Y-84546439D01*
X44812176Y-84555356D01*
X44823221Y-84565180D01*
X44833426Y-84575837D01*
X44842765Y-84587252D01*
X44851208Y-84599351D01*
X44858730Y-84612059D01*
X44865303Y-84625303D01*
X44870900Y-84639008D01*
X44875493Y-84653099D01*
X44879056Y-84667503D01*
X44881560Y-84682145D01*
X44882979Y-84696950D01*
X44883286Y-84711845D01*
X44882453Y-84726755D01*
X44880453Y-84741605D01*
X44877259Y-84756321D01*
X44872844Y-84770830D01*
X44867179Y-84785056D01*
X44860239Y-84798926D01*
X44851995Y-84812365D01*
X44842421Y-84825298D01*
X44831489Y-84837651D01*
X44819173Y-84849351D01*
X44805444Y-84860322D01*
X44795611Y-84866839D01*
X44784955Y-84872634D01*
X44773584Y-84877699D01*
X44761605Y-84882026D01*
X44749126Y-84885609D01*
X44736256Y-84888440D01*
X44723102Y-84890512D01*
X44709771Y-84891816D01*
X44696373Y-84892347D01*
X44683014Y-84892095D01*
X44669804Y-84891055D01*
X44656849Y-84889218D01*
X44644257Y-84886578D01*
X44632137Y-84883126D01*
X44620596Y-84878855D01*
X44609743Y-84873759D01*
X44594480Y-84864937D01*
X44580481Y-84855252D01*
X44567733Y-84844778D01*
X44556221Y-84833583D01*
X44545931Y-84821740D01*
X44536850Y-84809319D01*
X44528964Y-84796392D01*
X44522259Y-84783029D01*
X44516720Y-84769303D01*
X44512334Y-84755284D01*
X44509088Y-84741042D01*
X44506967Y-84726650D01*
X44505957Y-84712179D01*
X44506045Y-84697698D01*
X44507216Y-84683281D01*
X44509457Y-84668997D01*
X44512754Y-84654918D01*
X44517093Y-84641115D01*
X44522460Y-84627659D01*
X44528841Y-84614621D01*
X44536222Y-84602072D01*
X44544590Y-84590084D01*
X44553930Y-84578728D01*
X44564229Y-84568074D01*
X44575472Y-84558194D01*
X44587647Y-84549159D01*
X44600738Y-84541040D01*
X44614733Y-84533908D01*
X44629617Y-84527834D01*
X44645376Y-84522890D01*
X44661996Y-84519146D01*
X44679464Y-84516674D01*
X44696843Y-84515659D01*
X44713627Y-84516146D01*
G36*
X43042814Y-81933796D02*
G01*
X43167026Y-81936505D01*
X43213987Y-81938470D01*
X43250013Y-81940813D01*
X43274478Y-81943514D01*
X43282180Y-81944991D01*
X43286755Y-81946550D01*
X43289625Y-81948268D01*
X43292325Y-81950251D01*
X43294856Y-81952484D01*
X43297217Y-81954952D01*
X43299407Y-81957639D01*
X43301425Y-81960530D01*
X43303271Y-81963610D01*
X43304945Y-81966864D01*
X43306445Y-81970277D01*
X43307771Y-81973832D01*
X43308922Y-81977517D01*
X43309897Y-81981314D01*
X43310697Y-81985209D01*
X43311319Y-81989186D01*
X43311765Y-81993231D01*
X43312032Y-81997329D01*
X43312121Y-82001463D01*
X43312030Y-82005619D01*
X43311759Y-82009782D01*
X43311307Y-82013936D01*
X43310674Y-82018067D01*
X43309859Y-82022158D01*
X43308862Y-82026195D01*
X43307681Y-82030163D01*
X43306316Y-82034047D01*
X43304767Y-82037831D01*
X43303032Y-82041499D01*
X43301111Y-82045038D01*
X43299004Y-82048431D01*
X43296709Y-82051664D01*
X43294226Y-82054721D01*
X43291555Y-82057587D01*
X43289754Y-82059227D01*
X43287687Y-82060780D01*
X43285309Y-82062248D01*
X43282577Y-82063636D01*
X43279446Y-82064943D01*
X43275873Y-82066173D01*
X43271811Y-82067328D01*
X43267219Y-82068410D01*
X43262050Y-82069422D01*
X43256262Y-82070365D01*
X43249809Y-82071242D01*
X43242647Y-82072055D01*
X43226020Y-82073499D01*
X43206027Y-82074715D01*
X43182314Y-82075720D01*
X43154526Y-82076532D01*
X43122310Y-82077171D01*
X43085310Y-82077653D01*
X43043173Y-82077996D01*
X42995545Y-82078219D01*
X42882396Y-82078376D01*
X42679483Y-82077653D01*
X42610266Y-82076532D01*
X42558765Y-82074715D01*
X42522146Y-82072055D01*
X42497574Y-82068410D01*
X42488920Y-82066173D01*
X42482215Y-82063636D01*
X42477106Y-82060780D01*
X42473237Y-82057587D01*
X42470566Y-82054721D01*
X42468084Y-82051664D01*
X42465789Y-82048431D01*
X42463682Y-82045038D01*
X42461761Y-82041499D01*
X42460026Y-82037830D01*
X42458476Y-82034047D01*
X42457112Y-82030163D01*
X42455931Y-82026195D01*
X42454933Y-82022158D01*
X42453485Y-82013936D01*
X42452763Y-82005619D01*
X42452760Y-81997329D01*
X42453473Y-81989186D01*
X42454096Y-81985209D01*
X42454895Y-81981314D01*
X42455871Y-81977517D01*
X42457022Y-81973832D01*
X42458348Y-81970276D01*
X42459848Y-81966864D01*
X42461521Y-81963610D01*
X42463367Y-81960530D01*
X42465386Y-81957639D01*
X42467576Y-81954952D01*
X42469936Y-81952484D01*
X42472467Y-81950251D01*
X42475168Y-81948268D01*
X42478037Y-81946550D01*
X42482613Y-81944991D01*
X42490314Y-81943514D01*
X42501062Y-81942120D01*
X42514779Y-81940813D01*
X42550806Y-81938470D01*
X42597766Y-81936505D01*
X42655033Y-81934940D01*
X42721978Y-81933796D01*
X42797975Y-81933094D01*
X42882396Y-81932855D01*
X43042814Y-81933796D01*
G37*
X43042814Y-81933796D02*
X43167026Y-81936505D01*
X43213987Y-81938470D01*
X43250013Y-81940813D01*
X43274478Y-81943514D01*
X43282180Y-81944991D01*
X43286755Y-81946550D01*
X43289625Y-81948268D01*
X43292325Y-81950251D01*
X43294856Y-81952484D01*
X43297217Y-81954952D01*
X43299407Y-81957639D01*
X43301425Y-81960530D01*
X43303271Y-81963610D01*
X43304945Y-81966864D01*
X43306445Y-81970277D01*
X43307771Y-81973832D01*
X43308922Y-81977517D01*
X43309897Y-81981314D01*
X43310697Y-81985209D01*
X43311319Y-81989186D01*
X43311765Y-81993231D01*
X43312032Y-81997329D01*
X43312121Y-82001463D01*
X43312030Y-82005619D01*
X43311759Y-82009782D01*
X43311307Y-82013936D01*
X43310674Y-82018067D01*
X43309859Y-82022158D01*
X43308862Y-82026195D01*
X43307681Y-82030163D01*
X43306316Y-82034047D01*
X43304767Y-82037831D01*
X43303032Y-82041499D01*
X43301111Y-82045038D01*
X43299004Y-82048431D01*
X43296709Y-82051664D01*
X43294226Y-82054721D01*
X43291555Y-82057587D01*
X43289754Y-82059227D01*
X43287687Y-82060780D01*
X43285309Y-82062248D01*
X43282577Y-82063636D01*
X43279446Y-82064943D01*
X43275873Y-82066173D01*
X43271811Y-82067328D01*
X43267219Y-82068410D01*
X43262050Y-82069422D01*
X43256262Y-82070365D01*
X43249809Y-82071242D01*
X43242647Y-82072055D01*
X43226020Y-82073499D01*
X43206027Y-82074715D01*
X43182314Y-82075720D01*
X43154526Y-82076532D01*
X43122310Y-82077171D01*
X43085310Y-82077653D01*
X43043173Y-82077996D01*
X42995545Y-82078219D01*
X42882396Y-82078376D01*
X42679483Y-82077653D01*
X42610266Y-82076532D01*
X42558765Y-82074715D01*
X42522146Y-82072055D01*
X42497574Y-82068410D01*
X42488920Y-82066173D01*
X42482215Y-82063636D01*
X42477106Y-82060780D01*
X42473237Y-82057587D01*
X42470566Y-82054721D01*
X42468084Y-82051664D01*
X42465789Y-82048431D01*
X42463682Y-82045038D01*
X42461761Y-82041499D01*
X42460026Y-82037830D01*
X42458476Y-82034047D01*
X42457112Y-82030163D01*
X42455931Y-82026195D01*
X42454933Y-82022158D01*
X42453485Y-82013936D01*
X42452763Y-82005619D01*
X42452760Y-81997329D01*
X42453473Y-81989186D01*
X42454096Y-81985209D01*
X42454895Y-81981314D01*
X42455871Y-81977517D01*
X42457022Y-81973832D01*
X42458348Y-81970276D01*
X42459848Y-81966864D01*
X42461521Y-81963610D01*
X42463367Y-81960530D01*
X42465386Y-81957639D01*
X42467576Y-81954952D01*
X42469936Y-81952484D01*
X42472467Y-81950251D01*
X42475168Y-81948268D01*
X42478037Y-81946550D01*
X42482613Y-81944991D01*
X42490314Y-81943514D01*
X42501062Y-81942120D01*
X42514779Y-81940813D01*
X42550806Y-81938470D01*
X42597766Y-81936505D01*
X42655033Y-81934940D01*
X42721978Y-81933796D01*
X42797975Y-81933094D01*
X42882396Y-81932855D01*
X43042814Y-81933796D01*
G36*
X43042494Y-83177195D02*
G01*
X43270637Y-83179848D01*
X43345666Y-83181991D01*
X43397711Y-83184744D01*
X43429058Y-83188155D01*
X43437683Y-83190122D01*
X43441990Y-83192272D01*
X43443848Y-83194303D01*
X43445587Y-83196548D01*
X43447206Y-83198995D01*
X43448705Y-83201628D01*
X43450084Y-83204433D01*
X43451343Y-83207396D01*
X43453501Y-83213737D01*
X43455180Y-83220537D01*
X43456379Y-83227681D01*
X43457098Y-83235054D01*
X43457338Y-83242543D01*
X43457098Y-83250031D01*
X43456379Y-83257404D01*
X43455180Y-83264548D01*
X43453501Y-83271348D01*
X43451343Y-83277689D01*
X43450084Y-83280652D01*
X43448705Y-83283457D01*
X43447206Y-83286090D01*
X43445587Y-83288537D01*
X43443848Y-83290783D01*
X43441990Y-83292813D01*
X43440363Y-83293911D01*
X43437702Y-83294963D01*
X43429137Y-83296930D01*
X43416012Y-83298720D01*
X43398045Y-83300340D01*
X43374954Y-83301795D01*
X43346457Y-83303092D01*
X43272116Y-83305236D01*
X43172767Y-83306819D01*
X43046153Y-83307890D01*
X42890016Y-83308497D01*
X42702101Y-83308688D01*
X42318078Y-83308027D01*
X42096389Y-83305191D01*
X42032146Y-83302560D01*
X41991356Y-83298907D01*
X41968310Y-83294074D01*
X41957299Y-83287900D01*
X41957300Y-83287899D01*
X41955099Y-83285629D01*
X41953026Y-83283346D01*
X41951083Y-83281051D01*
X41949268Y-83278741D01*
X41947582Y-83276415D01*
X41946025Y-83274072D01*
X41944595Y-83271710D01*
X41943294Y-83269327D01*
X41942121Y-83266922D01*
X41941076Y-83264493D01*
X41940159Y-83262039D01*
X41939370Y-83259559D01*
X41938708Y-83257050D01*
X41938174Y-83254511D01*
X41937767Y-83251941D01*
X41937487Y-83249339D01*
X41937334Y-83246702D01*
X41937308Y-83244029D01*
X41937409Y-83241318D01*
X41937637Y-83238569D01*
X41937991Y-83235780D01*
X41938472Y-83232948D01*
X41939079Y-83230073D01*
X41939812Y-83227152D01*
X41940671Y-83224186D01*
X41941657Y-83221171D01*
X41944004Y-83214990D01*
X41946854Y-83208599D01*
X41950206Y-83201985D01*
X41951498Y-83199728D01*
X41952967Y-83197607D01*
X41953807Y-83196596D01*
X41954737Y-83195618D01*
X41955773Y-83194673D01*
X41956932Y-83193758D01*
X41958227Y-83192875D01*
X41959675Y-83192022D01*
X41961292Y-83191199D01*
X41963092Y-83190405D01*
X41965092Y-83189641D01*
X41967307Y-83188904D01*
X41969752Y-83188195D01*
X41972443Y-83187514D01*
X41975395Y-83186859D01*
X41978624Y-83186231D01*
X41982146Y-83185628D01*
X41985976Y-83185050D01*
X41994622Y-83183968D01*
X42004686Y-83182979D01*
X42016292Y-83182081D01*
X42029565Y-83181268D01*
X42044628Y-83180536D01*
X42061607Y-83179882D01*
X42080624Y-83179300D01*
X42101805Y-83178786D01*
X42125273Y-83178337D01*
X42151153Y-83177947D01*
X42179569Y-83177614D01*
X42210644Y-83177331D01*
X42281271Y-83176904D01*
X42364027Y-83176631D01*
X42459907Y-83176478D01*
X42695007Y-83176397D01*
X43042494Y-83177195D01*
G37*
X43042494Y-83177195D02*
X43270637Y-83179848D01*
X43345666Y-83181991D01*
X43397711Y-83184744D01*
X43429058Y-83188155D01*
X43437683Y-83190122D01*
X43441990Y-83192272D01*
X43443848Y-83194303D01*
X43445587Y-83196548D01*
X43447206Y-83198995D01*
X43448705Y-83201628D01*
X43450084Y-83204433D01*
X43451343Y-83207396D01*
X43453501Y-83213737D01*
X43455180Y-83220537D01*
X43456379Y-83227681D01*
X43457098Y-83235054D01*
X43457338Y-83242543D01*
X43457098Y-83250031D01*
X43456379Y-83257404D01*
X43455180Y-83264548D01*
X43453501Y-83271348D01*
X43451343Y-83277689D01*
X43450084Y-83280652D01*
X43448705Y-83283457D01*
X43447206Y-83286090D01*
X43445587Y-83288537D01*
X43443848Y-83290783D01*
X43441990Y-83292813D01*
X43440363Y-83293911D01*
X43437702Y-83294963D01*
X43429137Y-83296930D01*
X43416012Y-83298720D01*
X43398045Y-83300340D01*
X43374954Y-83301795D01*
X43346457Y-83303092D01*
X43272116Y-83305236D01*
X43172767Y-83306819D01*
X43046153Y-83307890D01*
X42890016Y-83308497D01*
X42702101Y-83308688D01*
X42318078Y-83308027D01*
X42096389Y-83305191D01*
X42032146Y-83302560D01*
X41991356Y-83298907D01*
X41968310Y-83294074D01*
X41957299Y-83287900D01*
X41957300Y-83287899D01*
X41955099Y-83285629D01*
X41953026Y-83283346D01*
X41951083Y-83281051D01*
X41949268Y-83278741D01*
X41947582Y-83276415D01*
X41946025Y-83274072D01*
X41944595Y-83271710D01*
X41943294Y-83269327D01*
X41942121Y-83266922D01*
X41941076Y-83264493D01*
X41940159Y-83262039D01*
X41939370Y-83259559D01*
X41938708Y-83257050D01*
X41938174Y-83254511D01*
X41937767Y-83251941D01*
X41937487Y-83249339D01*
X41937334Y-83246702D01*
X41937308Y-83244029D01*
X41937409Y-83241318D01*
X41937637Y-83238569D01*
X41937991Y-83235780D01*
X41938472Y-83232948D01*
X41939079Y-83230073D01*
X41939812Y-83227152D01*
X41940671Y-83224186D01*
X41941657Y-83221171D01*
X41944004Y-83214990D01*
X41946854Y-83208599D01*
X41950206Y-83201985D01*
X41951498Y-83199728D01*
X41952967Y-83197607D01*
X41953807Y-83196596D01*
X41954737Y-83195618D01*
X41955773Y-83194673D01*
X41956932Y-83193758D01*
X41958227Y-83192875D01*
X41959675Y-83192022D01*
X41961292Y-83191199D01*
X41963092Y-83190405D01*
X41965092Y-83189641D01*
X41967307Y-83188904D01*
X41969752Y-83188195D01*
X41972443Y-83187514D01*
X41975395Y-83186859D01*
X41978624Y-83186231D01*
X41982146Y-83185628D01*
X41985976Y-83185050D01*
X41994622Y-83183968D01*
X42004686Y-83182979D01*
X42016292Y-83182081D01*
X42029565Y-83181268D01*
X42044628Y-83180536D01*
X42061607Y-83179882D01*
X42080624Y-83179300D01*
X42101805Y-83178786D01*
X42125273Y-83178337D01*
X42151153Y-83177947D01*
X42179569Y-83177614D01*
X42210644Y-83177331D01*
X42281271Y-83176904D01*
X42364027Y-83176631D01*
X42459907Y-83176478D01*
X42695007Y-83176397D01*
X43042494Y-83177195D01*
G36*
X42643521Y-85467986D02*
G01*
X42645859Y-85471549D01*
X42648051Y-85475345D01*
X42652000Y-85483572D01*
X42655366Y-85492540D01*
X42658148Y-85502119D01*
X42660343Y-85512181D01*
X42661951Y-85522597D01*
X42662970Y-85533239D01*
X42663398Y-85543978D01*
X42663234Y-85554686D01*
X42662475Y-85565233D01*
X42661122Y-85575492D01*
X42659171Y-85585334D01*
X42656622Y-85594630D01*
X42653472Y-85603251D01*
X42649721Y-85611070D01*
X42647619Y-85614638D01*
X42645366Y-85617957D01*
X42643791Y-85620030D01*
X42642161Y-85621995D01*
X42640454Y-85623854D01*
X42638645Y-85625611D01*
X42636712Y-85627269D01*
X42634633Y-85628833D01*
X42632384Y-85630305D01*
X42629943Y-85631690D01*
X42627286Y-85632991D01*
X42624391Y-85634212D01*
X42621235Y-85635355D01*
X42617795Y-85636425D01*
X42614048Y-85637426D01*
X42609971Y-85638361D01*
X42605541Y-85639233D01*
X42600736Y-85640046D01*
X42595532Y-85640804D01*
X42589907Y-85641510D01*
X42583837Y-85642169D01*
X42577301Y-85642782D01*
X42562734Y-85643891D01*
X42546024Y-85644864D01*
X42526988Y-85645731D01*
X42505442Y-85646521D01*
X42481203Y-85647263D01*
X42454088Y-85647984D01*
X42281558Y-85652332D01*
X42277707Y-86054327D01*
X42274981Y-86259909D01*
X42273174Y-86331274D01*
X42270882Y-86385059D01*
X42267962Y-86423792D01*
X42264272Y-86450001D01*
X42262094Y-86459199D01*
X42259669Y-86466215D01*
X42256981Y-86471363D01*
X42254011Y-86474960D01*
X42251630Y-86477028D01*
X42248970Y-86479027D01*
X42242861Y-86482815D01*
X42235786Y-86486308D01*
X42227846Y-86489490D01*
X42219144Y-86492347D01*
X42209781Y-86494863D01*
X42199859Y-86497023D01*
X42189481Y-86498811D01*
X42178748Y-86500212D01*
X42167761Y-86501210D01*
X42156623Y-86501790D01*
X42145436Y-86501937D01*
X42134302Y-86501636D01*
X42123322Y-86500870D01*
X42112598Y-86499625D01*
X42102232Y-86497885D01*
X42095947Y-86496575D01*
X42090033Y-86495138D01*
X42084480Y-86493504D01*
X42079277Y-86491599D01*
X42074412Y-86489353D01*
X42069873Y-86486695D01*
X42067722Y-86485189D01*
X42065649Y-86483552D01*
X42063652Y-86481777D01*
X42061729Y-86479854D01*
X42059880Y-86477774D01*
X42058102Y-86475528D01*
X42056395Y-86473107D01*
X42054756Y-86470503D01*
X42053185Y-86467706D01*
X42051680Y-86464707D01*
X42048863Y-86458069D01*
X42046292Y-86450518D01*
X42043957Y-86441981D01*
X42041847Y-86432387D01*
X42039950Y-86421665D01*
X42038255Y-86409743D01*
X42036750Y-86396550D01*
X42035424Y-86382013D01*
X42034265Y-86366062D01*
X42033263Y-86348624D01*
X42032406Y-86329629D01*
X42031683Y-86309004D01*
X42031081Y-86286679D01*
X42030200Y-86236639D01*
X42029672Y-86178937D01*
X42029405Y-86113000D01*
X42029310Y-86038255D01*
X42029115Y-85652353D01*
X41856041Y-85647995D01*
X41790369Y-85645861D01*
X41763372Y-85644394D01*
X41739936Y-85642485D01*
X41719810Y-85640003D01*
X41702745Y-85636817D01*
X41688490Y-85632794D01*
X41682339Y-85630429D01*
X41676797Y-85627805D01*
X41671832Y-85624907D01*
X41667414Y-85621718D01*
X41663512Y-85618221D01*
X41660093Y-85614401D01*
X41657128Y-85610240D01*
X41654584Y-85605723D01*
X41652431Y-85600832D01*
X41650637Y-85595552D01*
X41648001Y-85583759D01*
X41646428Y-85570211D01*
X41645667Y-85554776D01*
X41645469Y-85537325D01*
X41645448Y-85519522D01*
X41645574Y-85511485D01*
X41645926Y-85503998D01*
X41646604Y-85497042D01*
X41647711Y-85490596D01*
X41649347Y-85484642D01*
X41651614Y-85479161D01*
X41653016Y-85476591D01*
X41654613Y-85474132D01*
X41656418Y-85471781D01*
X41658445Y-85469536D01*
X41660705Y-85467395D01*
X41663211Y-85465354D01*
X41665976Y-85463412D01*
X41669013Y-85461566D01*
X41672334Y-85459814D01*
X41675951Y-85458153D01*
X41684128Y-85455095D01*
X41693643Y-85452373D01*
X41704599Y-85449967D01*
X41717097Y-85447858D01*
X41731238Y-85446026D01*
X41747122Y-85444452D01*
X41764852Y-85443116D01*
X41784529Y-85442000D01*
X41806253Y-85441082D01*
X41830126Y-85440344D01*
X41856250Y-85439767D01*
X41915652Y-85439016D01*
X41985270Y-85438672D01*
X42158391Y-85438584D01*
X42622927Y-85438584D01*
X42643521Y-85467986D01*
G37*
X42643521Y-85467986D02*
X42645859Y-85471549D01*
X42648051Y-85475345D01*
X42652000Y-85483572D01*
X42655366Y-85492540D01*
X42658148Y-85502119D01*
X42660343Y-85512181D01*
X42661951Y-85522597D01*
X42662970Y-85533239D01*
X42663398Y-85543978D01*
X42663234Y-85554686D01*
X42662475Y-85565233D01*
X42661122Y-85575492D01*
X42659171Y-85585334D01*
X42656622Y-85594630D01*
X42653472Y-85603251D01*
X42649721Y-85611070D01*
X42647619Y-85614638D01*
X42645366Y-85617957D01*
X42643791Y-85620030D01*
X42642161Y-85621995D01*
X42640454Y-85623854D01*
X42638645Y-85625611D01*
X42636712Y-85627269D01*
X42634633Y-85628833D01*
X42632384Y-85630305D01*
X42629943Y-85631690D01*
X42627286Y-85632991D01*
X42624391Y-85634212D01*
X42621235Y-85635355D01*
X42617795Y-85636425D01*
X42614048Y-85637426D01*
X42609971Y-85638361D01*
X42605541Y-85639233D01*
X42600736Y-85640046D01*
X42595532Y-85640804D01*
X42589907Y-85641510D01*
X42583837Y-85642169D01*
X42577301Y-85642782D01*
X42562734Y-85643891D01*
X42546024Y-85644864D01*
X42526988Y-85645731D01*
X42505442Y-85646521D01*
X42481203Y-85647263D01*
X42454088Y-85647984D01*
X42281558Y-85652332D01*
X42277707Y-86054327D01*
X42274981Y-86259909D01*
X42273174Y-86331274D01*
X42270882Y-86385059D01*
X42267962Y-86423792D01*
X42264272Y-86450001D01*
X42262094Y-86459199D01*
X42259669Y-86466215D01*
X42256981Y-86471363D01*
X42254011Y-86474960D01*
X42251630Y-86477028D01*
X42248970Y-86479027D01*
X42242861Y-86482815D01*
X42235786Y-86486308D01*
X42227846Y-86489490D01*
X42219144Y-86492347D01*
X42209781Y-86494863D01*
X42199859Y-86497023D01*
X42189481Y-86498811D01*
X42178748Y-86500212D01*
X42167761Y-86501210D01*
X42156623Y-86501790D01*
X42145436Y-86501937D01*
X42134302Y-86501636D01*
X42123322Y-86500870D01*
X42112598Y-86499625D01*
X42102232Y-86497885D01*
X42095947Y-86496575D01*
X42090033Y-86495138D01*
X42084480Y-86493504D01*
X42079277Y-86491599D01*
X42074412Y-86489353D01*
X42069873Y-86486695D01*
X42067722Y-86485189D01*
X42065649Y-86483552D01*
X42063652Y-86481777D01*
X42061729Y-86479854D01*
X42059880Y-86477774D01*
X42058102Y-86475528D01*
X42056395Y-86473107D01*
X42054756Y-86470503D01*
X42053185Y-86467706D01*
X42051680Y-86464707D01*
X42048863Y-86458069D01*
X42046292Y-86450518D01*
X42043957Y-86441981D01*
X42041847Y-86432387D01*
X42039950Y-86421665D01*
X42038255Y-86409743D01*
X42036750Y-86396550D01*
X42035424Y-86382013D01*
X42034265Y-86366062D01*
X42033263Y-86348624D01*
X42032406Y-86329629D01*
X42031683Y-86309004D01*
X42031081Y-86286679D01*
X42030200Y-86236639D01*
X42029672Y-86178937D01*
X42029405Y-86113000D01*
X42029310Y-86038255D01*
X42029115Y-85652353D01*
X41856041Y-85647995D01*
X41790369Y-85645861D01*
X41763372Y-85644394D01*
X41739936Y-85642485D01*
X41719810Y-85640003D01*
X41702745Y-85636817D01*
X41688490Y-85632794D01*
X41682339Y-85630429D01*
X41676797Y-85627805D01*
X41671832Y-85624907D01*
X41667414Y-85621718D01*
X41663512Y-85618221D01*
X41660093Y-85614401D01*
X41657128Y-85610240D01*
X41654584Y-85605723D01*
X41652431Y-85600832D01*
X41650637Y-85595552D01*
X41648001Y-85583759D01*
X41646428Y-85570211D01*
X41645667Y-85554776D01*
X41645469Y-85537325D01*
X41645448Y-85519522D01*
X41645574Y-85511485D01*
X41645926Y-85503998D01*
X41646604Y-85497042D01*
X41647711Y-85490596D01*
X41649347Y-85484642D01*
X41651614Y-85479161D01*
X41653016Y-85476591D01*
X41654613Y-85474132D01*
X41656418Y-85471781D01*
X41658445Y-85469536D01*
X41660705Y-85467395D01*
X41663211Y-85465354D01*
X41665976Y-85463412D01*
X41669013Y-85461566D01*
X41672334Y-85459814D01*
X41675951Y-85458153D01*
X41684128Y-85455095D01*
X41693643Y-85452373D01*
X41704599Y-85449967D01*
X41717097Y-85447858D01*
X41731238Y-85446026D01*
X41747122Y-85444452D01*
X41764852Y-85443116D01*
X41784529Y-85442000D01*
X41806253Y-85441082D01*
X41830126Y-85440344D01*
X41856250Y-85439767D01*
X41915652Y-85439016D01*
X41985270Y-85438672D01*
X42158391Y-85438584D01*
X42622927Y-85438584D01*
X42643521Y-85467986D01*
D10*
X76389285Y-84027380D02*
X76389285Y-83027380D01*
X76960714Y-84027380D01*
X76960714Y-83027380D01*
X78008333Y-83932142D02*
X77960714Y-83979761D01*
X77817857Y-84027380D01*
X77722619Y-84027380D01*
X77579761Y-83979761D01*
X77484523Y-83884523D01*
X77436904Y-83789285D01*
X77389285Y-83598809D01*
X77389285Y-83455952D01*
X77436904Y-83265476D01*
X77484523Y-83170238D01*
X77579761Y-83075000D01*
X77722619Y-83027380D01*
X77817857Y-83027380D01*
X77960714Y-83075000D01*
X78008333Y-83122619D01*
X75488095Y-101827380D02*
X75488095Y-100827380D01*
X75869047Y-100827380D01*
X75964285Y-100875000D01*
X76011904Y-100922619D01*
X76059523Y-101017857D01*
X76059523Y-101160714D01*
X76011904Y-101255952D01*
X75964285Y-101303571D01*
X75869047Y-101351190D01*
X75488095Y-101351190D01*
X77059523Y-101827380D02*
X76726190Y-101351190D01*
X76488095Y-101827380D02*
X76488095Y-100827380D01*
X76869047Y-100827380D01*
X76964285Y-100875000D01*
X77011904Y-100922619D01*
X77059523Y-101017857D01*
X77059523Y-101160714D01*
X77011904Y-101255952D01*
X76964285Y-101303571D01*
X76869047Y-101351190D01*
X76488095Y-101351190D01*
X78011904Y-100875000D02*
X77916666Y-100827380D01*
X77773809Y-100827380D01*
X77630952Y-100875000D01*
X77535714Y-100970238D01*
X77488095Y-101065476D01*
X77440476Y-101255952D01*
X77440476Y-101398809D01*
X77488095Y-101589285D01*
X77535714Y-101684523D01*
X77630952Y-101779761D01*
X77773809Y-101827380D01*
X77869047Y-101827380D01*
X78011904Y-101779761D01*
X78059523Y-101732142D01*
X78059523Y-101398809D01*
X77869047Y-101398809D01*
X76158333Y-89202380D02*
X75825000Y-88726190D01*
X75586904Y-89202380D02*
X75586904Y-88202380D01*
X75967857Y-88202380D01*
X76063095Y-88250000D01*
X76110714Y-88297619D01*
X76158333Y-88392857D01*
X76158333Y-88535714D01*
X76110714Y-88630952D01*
X76063095Y-88678571D01*
X75967857Y-88726190D01*
X75586904Y-88726190D01*
X76491666Y-88202380D02*
X77158333Y-89202380D01*
X77158333Y-88202380D02*
X76491666Y-89202380D01*
X77539285Y-89202380D02*
X77539285Y-88202380D01*
X77777380Y-88202380D01*
X77920238Y-88250000D01*
X78015476Y-88345238D01*
X78063095Y-88440476D01*
X78110714Y-88630952D01*
X78110714Y-88773809D01*
X78063095Y-88964285D01*
X78015476Y-89059523D01*
X77920238Y-89154761D01*
X77777380Y-89202380D01*
X77539285Y-89202380D01*
X75073809Y-90902380D02*
X75692857Y-90902380D01*
X75359523Y-91283333D01*
X75502380Y-91283333D01*
X75597619Y-91330952D01*
X75645238Y-91378571D01*
X75692857Y-91473809D01*
X75692857Y-91711904D01*
X75645238Y-91807142D01*
X75597619Y-91854761D01*
X75502380Y-91902380D01*
X75216666Y-91902380D01*
X75121428Y-91854761D01*
X75073809Y-91807142D01*
X76121428Y-91807142D02*
X76169047Y-91854761D01*
X76121428Y-91902380D01*
X76073809Y-91854761D01*
X76121428Y-91807142D01*
X76121428Y-91902380D01*
X76502380Y-90902380D02*
X77121428Y-90902380D01*
X76788095Y-91283333D01*
X76930952Y-91283333D01*
X77026190Y-91330952D01*
X77073809Y-91378571D01*
X77121428Y-91473809D01*
X77121428Y-91711904D01*
X77073809Y-91807142D01*
X77026190Y-91854761D01*
X76930952Y-91902380D01*
X76645238Y-91902380D01*
X76550000Y-91854761D01*
X76502380Y-91807142D01*
X77407142Y-90902380D02*
X77740476Y-91902380D01*
X78073809Y-90902380D01*
X76038095Y-98600000D02*
X75942857Y-98552380D01*
X75800000Y-98552380D01*
X75657142Y-98600000D01*
X75561904Y-98695238D01*
X75514285Y-98790476D01*
X75466666Y-98980952D01*
X75466666Y-99123809D01*
X75514285Y-99314285D01*
X75561904Y-99409523D01*
X75657142Y-99504761D01*
X75800000Y-99552380D01*
X75895238Y-99552380D01*
X76038095Y-99504761D01*
X76085714Y-99457142D01*
X76085714Y-99123809D01*
X75895238Y-99123809D01*
X76514285Y-99552380D02*
X76514285Y-98552380D01*
X77085714Y-99552380D01*
X77085714Y-98552380D01*
X77561904Y-99552380D02*
X77561904Y-98552380D01*
X77800000Y-98552380D01*
X77942857Y-98600000D01*
X78038095Y-98695238D01*
X78085714Y-98790476D01*
X78133333Y-98980952D01*
X78133333Y-99123809D01*
X78085714Y-99314285D01*
X78038095Y-99409523D01*
X77942857Y-99504761D01*
X77800000Y-99552380D01*
X77561904Y-99552380D01*
X76389285Y-94352380D02*
X76389285Y-93352380D01*
X76960714Y-94352380D01*
X76960714Y-93352380D01*
X78008333Y-94257142D02*
X77960714Y-94304761D01*
X77817857Y-94352380D01*
X77722619Y-94352380D01*
X77579761Y-94304761D01*
X77484523Y-94209523D01*
X77436904Y-94114285D01*
X77389285Y-93923809D01*
X77389285Y-93780952D01*
X77436904Y-93590476D01*
X77484523Y-93495238D01*
X77579761Y-93400000D01*
X77722619Y-93352380D01*
X77817857Y-93352380D01*
X77960714Y-93400000D01*
X78008333Y-93447619D01*
X75963095Y-95950000D02*
X75867857Y-95902380D01*
X75725000Y-95902380D01*
X75582142Y-95950000D01*
X75486904Y-96045238D01*
X75439285Y-96140476D01*
X75391666Y-96330952D01*
X75391666Y-96473809D01*
X75439285Y-96664285D01*
X75486904Y-96759523D01*
X75582142Y-96854761D01*
X75725000Y-96902380D01*
X75820238Y-96902380D01*
X75963095Y-96854761D01*
X76010714Y-96807142D01*
X76010714Y-96473809D01*
X75820238Y-96473809D01*
X76439285Y-96902380D02*
X76439285Y-95902380D01*
X77010714Y-96902380D01*
X77010714Y-95902380D01*
X77486904Y-96902380D02*
X77486904Y-95902380D01*
X77725000Y-95902380D01*
X77867857Y-95950000D01*
X77963095Y-96045238D01*
X78010714Y-96140476D01*
X78058333Y-96330952D01*
X78058333Y-96473809D01*
X78010714Y-96664285D01*
X77963095Y-96759523D01*
X77867857Y-96854761D01*
X77725000Y-96902380D01*
X77486904Y-96902380D01*
X75613095Y-85727380D02*
X76184523Y-85727380D01*
X75898809Y-86727380D02*
X75898809Y-85727380D01*
X76422619Y-85727380D02*
X77089285Y-86727380D01*
X77089285Y-85727380D02*
X76422619Y-86727380D01*
X77470238Y-86727380D02*
X77470238Y-85727380D01*
X77708333Y-85727380D01*
X77851190Y-85775000D01*
X77946428Y-85870238D01*
X77994047Y-85965476D01*
X78041666Y-86155952D01*
X78041666Y-86298809D01*
X77994047Y-86489285D01*
X77946428Y-86584523D01*
X77851190Y-86679761D01*
X77708333Y-86727380D01*
X77470238Y-86727380D01*
%TO.C,U1*%
X65326095Y-93578780D02*
X65326095Y-94388304D01*
X65373714Y-94483542D01*
X65421333Y-94531161D01*
X65516571Y-94578780D01*
X65707047Y-94578780D01*
X65802285Y-94531161D01*
X65849904Y-94483542D01*
X65897523Y-94388304D01*
X65897523Y-93578780D01*
X66897523Y-94578780D02*
X66326095Y-94578780D01*
X66611809Y-94578780D02*
X66611809Y-93578780D01*
X66516571Y-93721638D01*
X66421333Y-93816876D01*
X66326095Y-93864495D01*
%TO.C,J2*%
X47452380Y-107333333D02*
X48166666Y-107333333D01*
X48309523Y-107380952D01*
X48404761Y-107476190D01*
X48452380Y-107619047D01*
X48452380Y-107714285D01*
X47547619Y-106904761D02*
X47500000Y-106857142D01*
X47452380Y-106761904D01*
X47452380Y-106523809D01*
X47500000Y-106428571D01*
X47547619Y-106380952D01*
X47642857Y-106333333D01*
X47738095Y-106333333D01*
X47880952Y-106380952D01*
X48452380Y-106952380D01*
X48452380Y-106333333D01*
%TO.C,J3*%
X47452380Y-91758333D02*
X48166666Y-91758333D01*
X48309523Y-91805952D01*
X48404761Y-91901190D01*
X48452380Y-92044047D01*
X48452380Y-92139285D01*
X47452380Y-91377380D02*
X47452380Y-90758333D01*
X47833333Y-91091666D01*
X47833333Y-90948809D01*
X47880952Y-90853571D01*
X47928571Y-90805952D01*
X48023809Y-90758333D01*
X48261904Y-90758333D01*
X48357142Y-90805952D01*
X48404761Y-90853571D01*
X48452380Y-90948809D01*
X48452380Y-91234523D01*
X48404761Y-91329761D01*
X48357142Y-91377380D01*
%TO.C,R8*%
X63313333Y-115532380D02*
X62980000Y-115056190D01*
X62741904Y-115532380D02*
X62741904Y-114532380D01*
X63122857Y-114532380D01*
X63218095Y-114580000D01*
X63265714Y-114627619D01*
X63313333Y-114722857D01*
X63313333Y-114865714D01*
X63265714Y-114960952D01*
X63218095Y-115008571D01*
X63122857Y-115056190D01*
X62741904Y-115056190D01*
X63884761Y-114960952D02*
X63789523Y-114913333D01*
X63741904Y-114865714D01*
X63694285Y-114770476D01*
X63694285Y-114722857D01*
X63741904Y-114627619D01*
X63789523Y-114580000D01*
X63884761Y-114532380D01*
X64075238Y-114532380D01*
X64170476Y-114580000D01*
X64218095Y-114627619D01*
X64265714Y-114722857D01*
X64265714Y-114770476D01*
X64218095Y-114865714D01*
X64170476Y-114913333D01*
X64075238Y-114960952D01*
X63884761Y-114960952D01*
X63789523Y-115008571D01*
X63741904Y-115056190D01*
X63694285Y-115151428D01*
X63694285Y-115341904D01*
X63741904Y-115437142D01*
X63789523Y-115484761D01*
X63884761Y-115532380D01*
X64075238Y-115532380D01*
X64170476Y-115484761D01*
X64218095Y-115437142D01*
X64265714Y-115341904D01*
X64265714Y-115151428D01*
X64218095Y-115056190D01*
X64170476Y-115008571D01*
X64075238Y-114960952D01*
%TO.C,R4*%
X69583333Y-107802380D02*
X69250000Y-107326190D01*
X69011904Y-107802380D02*
X69011904Y-106802380D01*
X69392857Y-106802380D01*
X69488095Y-106850000D01*
X69535714Y-106897619D01*
X69583333Y-106992857D01*
X69583333Y-107135714D01*
X69535714Y-107230952D01*
X69488095Y-107278571D01*
X69392857Y-107326190D01*
X69011904Y-107326190D01*
X70440476Y-107135714D02*
X70440476Y-107802380D01*
X70202380Y-106754761D02*
X69964285Y-107469047D01*
X70583333Y-107469047D01*
%TO.C,R7*%
X57533333Y-115477380D02*
X57200000Y-115001190D01*
X56961904Y-115477380D02*
X56961904Y-114477380D01*
X57342857Y-114477380D01*
X57438095Y-114525000D01*
X57485714Y-114572619D01*
X57533333Y-114667857D01*
X57533333Y-114810714D01*
X57485714Y-114905952D01*
X57438095Y-114953571D01*
X57342857Y-115001190D01*
X56961904Y-115001190D01*
X57866666Y-114477380D02*
X58533333Y-114477380D01*
X58104761Y-115477380D01*
%TO.C,R2*%
X54883333Y-81227380D02*
X54550000Y-80751190D01*
X54311904Y-81227380D02*
X54311904Y-80227380D01*
X54692857Y-80227380D01*
X54788095Y-80275000D01*
X54835714Y-80322619D01*
X54883333Y-80417857D01*
X54883333Y-80560714D01*
X54835714Y-80655952D01*
X54788095Y-80703571D01*
X54692857Y-80751190D01*
X54311904Y-80751190D01*
X55264285Y-80322619D02*
X55311904Y-80275000D01*
X55407142Y-80227380D01*
X55645238Y-80227380D01*
X55740476Y-80275000D01*
X55788095Y-80322619D01*
X55835714Y-80417857D01*
X55835714Y-80513095D01*
X55788095Y-80655952D01*
X55216666Y-81227380D01*
X55835714Y-81227380D01*
%TO.C,R5*%
X73583333Y-107802380D02*
X73250000Y-107326190D01*
X73011904Y-107802380D02*
X73011904Y-106802380D01*
X73392857Y-106802380D01*
X73488095Y-106850000D01*
X73535714Y-106897619D01*
X73583333Y-106992857D01*
X73583333Y-107135714D01*
X73535714Y-107230952D01*
X73488095Y-107278571D01*
X73392857Y-107326190D01*
X73011904Y-107326190D01*
X74488095Y-106802380D02*
X74011904Y-106802380D01*
X73964285Y-107278571D01*
X74011904Y-107230952D01*
X74107142Y-107183333D01*
X74345238Y-107183333D01*
X74440476Y-107230952D01*
X74488095Y-107278571D01*
X74535714Y-107373809D01*
X74535714Y-107611904D01*
X74488095Y-107707142D01*
X74440476Y-107754761D01*
X74345238Y-107802380D01*
X74107142Y-107802380D01*
X74011904Y-107754761D01*
X73964285Y-107707142D01*
%TO.C,C1*%
X54413333Y-100047142D02*
X54365714Y-100094761D01*
X54222857Y-100142380D01*
X54127619Y-100142380D01*
X53984761Y-100094761D01*
X53889523Y-99999523D01*
X53841904Y-99904285D01*
X53794285Y-99713809D01*
X53794285Y-99570952D01*
X53841904Y-99380476D01*
X53889523Y-99285238D01*
X53984761Y-99190000D01*
X54127619Y-99142380D01*
X54222857Y-99142380D01*
X54365714Y-99190000D01*
X54413333Y-99237619D01*
X55365714Y-100142380D02*
X54794285Y-100142380D01*
X55080000Y-100142380D02*
X55080000Y-99142380D01*
X54984761Y-99285238D01*
X54889523Y-99380476D01*
X54794285Y-99428095D01*
%TO.C,R1*%
X54333333Y-91052380D02*
X54000000Y-90576190D01*
X53761904Y-91052380D02*
X53761904Y-90052380D01*
X54142857Y-90052380D01*
X54238095Y-90100000D01*
X54285714Y-90147619D01*
X54333333Y-90242857D01*
X54333333Y-90385714D01*
X54285714Y-90480952D01*
X54238095Y-90528571D01*
X54142857Y-90576190D01*
X53761904Y-90576190D01*
X55285714Y-91052380D02*
X54714285Y-91052380D01*
X55000000Y-91052380D02*
X55000000Y-90052380D01*
X54904761Y-90195238D01*
X54809523Y-90290476D01*
X54714285Y-90338095D01*
%TO.C,R6*%
X55977380Y-110766666D02*
X55501190Y-111100000D01*
X55977380Y-111338095D02*
X54977380Y-111338095D01*
X54977380Y-110957142D01*
X55025000Y-110861904D01*
X55072619Y-110814285D01*
X55167857Y-110766666D01*
X55310714Y-110766666D01*
X55405952Y-110814285D01*
X55453571Y-110861904D01*
X55501190Y-110957142D01*
X55501190Y-111338095D01*
X54977380Y-109909523D02*
X54977380Y-110100000D01*
X55025000Y-110195238D01*
X55072619Y-110242857D01*
X55215476Y-110338095D01*
X55405952Y-110385714D01*
X55786904Y-110385714D01*
X55882142Y-110338095D01*
X55929761Y-110290476D01*
X55977380Y-110195238D01*
X55977380Y-110004761D01*
X55929761Y-109909523D01*
X55882142Y-109861904D01*
X55786904Y-109814285D01*
X55548809Y-109814285D01*
X55453571Y-109861904D01*
X55405952Y-109909523D01*
X55358333Y-110004761D01*
X55358333Y-110195238D01*
X55405952Y-110290476D01*
X55453571Y-110338095D01*
X55548809Y-110385714D01*
%TO.C,R3*%
X73643333Y-115542380D02*
X73310000Y-115066190D01*
X73071904Y-115542380D02*
X73071904Y-114542380D01*
X73452857Y-114542380D01*
X73548095Y-114590000D01*
X73595714Y-114637619D01*
X73643333Y-114732857D01*
X73643333Y-114875714D01*
X73595714Y-114970952D01*
X73548095Y-115018571D01*
X73452857Y-115066190D01*
X73071904Y-115066190D01*
X73976666Y-114542380D02*
X74595714Y-114542380D01*
X74262380Y-114923333D01*
X74405238Y-114923333D01*
X74500476Y-114970952D01*
X74548095Y-115018571D01*
X74595714Y-115113809D01*
X74595714Y-115351904D01*
X74548095Y-115447142D01*
X74500476Y-115494761D01*
X74405238Y-115542380D01*
X74119523Y-115542380D01*
X74024285Y-115494761D01*
X73976666Y-115447142D01*
%TO.C,C3*%
X57257142Y-109491666D02*
X57304761Y-109539285D01*
X57352380Y-109682142D01*
X57352380Y-109777380D01*
X57304761Y-109920238D01*
X57209523Y-110015476D01*
X57114285Y-110063095D01*
X56923809Y-110110714D01*
X56780952Y-110110714D01*
X56590476Y-110063095D01*
X56495238Y-110015476D01*
X56400000Y-109920238D01*
X56352380Y-109777380D01*
X56352380Y-109682142D01*
X56400000Y-109539285D01*
X56447619Y-109491666D01*
X56352380Y-109158333D02*
X56352380Y-108539285D01*
X56733333Y-108872619D01*
X56733333Y-108729761D01*
X56780952Y-108634523D01*
X56828571Y-108586904D01*
X56923809Y-108539285D01*
X57161904Y-108539285D01*
X57257142Y-108586904D01*
X57304761Y-108634523D01*
X57352380Y-108729761D01*
X57352380Y-109015476D01*
X57304761Y-109110714D01*
X57257142Y-109158333D01*
%TO.C,C2*%
X52307142Y-113916666D02*
X52354761Y-113964285D01*
X52402380Y-114107142D01*
X52402380Y-114202380D01*
X52354761Y-114345238D01*
X52259523Y-114440476D01*
X52164285Y-114488095D01*
X51973809Y-114535714D01*
X51830952Y-114535714D01*
X51640476Y-114488095D01*
X51545238Y-114440476D01*
X51450000Y-114345238D01*
X51402380Y-114202380D01*
X51402380Y-114107142D01*
X51450000Y-113964285D01*
X51497619Y-113916666D01*
X51497619Y-113535714D02*
X51450000Y-113488095D01*
X51402380Y-113392857D01*
X51402380Y-113154761D01*
X51450000Y-113059523D01*
X51497619Y-113011904D01*
X51592857Y-112964285D01*
X51688095Y-112964285D01*
X51830952Y-113011904D01*
X52402380Y-113583333D01*
X52402380Y-112964285D01*
%TO.C,U2*%
X53963095Y-102852380D02*
X53963095Y-103661904D01*
X54010714Y-103757142D01*
X54058333Y-103804761D01*
X54153571Y-103852380D01*
X54344047Y-103852380D01*
X54439285Y-103804761D01*
X54486904Y-103757142D01*
X54534523Y-103661904D01*
X54534523Y-102852380D01*
X54963095Y-102947619D02*
X55010714Y-102900000D01*
X55105952Y-102852380D01*
X55344047Y-102852380D01*
X55439285Y-102900000D01*
X55486904Y-102947619D01*
X55534523Y-103042857D01*
X55534523Y-103138095D01*
X55486904Y-103280952D01*
X54915476Y-103852380D01*
X55534523Y-103852380D01*
%TO.C,C4*%
X56407142Y-86316666D02*
X56454761Y-86364285D01*
X56502380Y-86507142D01*
X56502380Y-86602380D01*
X56454761Y-86745238D01*
X56359523Y-86840476D01*
X56264285Y-86888095D01*
X56073809Y-86935714D01*
X55930952Y-86935714D01*
X55740476Y-86888095D01*
X55645238Y-86840476D01*
X55550000Y-86745238D01*
X55502380Y-86602380D01*
X55502380Y-86507142D01*
X55550000Y-86364285D01*
X55597619Y-86316666D01*
X55835714Y-85459523D02*
X56502380Y-85459523D01*
X55454761Y-85697619D02*
X56169047Y-85935714D01*
X56169047Y-85316666D01*
%TO.C,C5*%
X54293333Y-95927142D02*
X54245714Y-95974761D01*
X54102857Y-96022380D01*
X54007619Y-96022380D01*
X53864761Y-95974761D01*
X53769523Y-95879523D01*
X53721904Y-95784285D01*
X53674285Y-95593809D01*
X53674285Y-95450952D01*
X53721904Y-95260476D01*
X53769523Y-95165238D01*
X53864761Y-95070000D01*
X54007619Y-95022380D01*
X54102857Y-95022380D01*
X54245714Y-95070000D01*
X54293333Y-95117619D01*
X55198095Y-95022380D02*
X54721904Y-95022380D01*
X54674285Y-95498571D01*
X54721904Y-95450952D01*
X54817142Y-95403333D01*
X55055238Y-95403333D01*
X55150476Y-95450952D01*
X55198095Y-95498571D01*
X55245714Y-95593809D01*
X55245714Y-95831904D01*
X55198095Y-95927142D01*
X55150476Y-95974761D01*
X55055238Y-96022380D01*
X54817142Y-96022380D01*
X54721904Y-95974761D01*
X54674285Y-95927142D01*
%TO.C,R9*%
X68303333Y-115602380D02*
X67970000Y-115126190D01*
X67731904Y-115602380D02*
X67731904Y-114602380D01*
X68112857Y-114602380D01*
X68208095Y-114650000D01*
X68255714Y-114697619D01*
X68303333Y-114792857D01*
X68303333Y-114935714D01*
X68255714Y-115030952D01*
X68208095Y-115078571D01*
X68112857Y-115126190D01*
X67731904Y-115126190D01*
X68779523Y-115602380D02*
X68970000Y-115602380D01*
X69065238Y-115554761D01*
X69112857Y-115507142D01*
X69208095Y-115364285D01*
X69255714Y-115173809D01*
X69255714Y-114792857D01*
X69208095Y-114697619D01*
X69160476Y-114650000D01*
X69065238Y-114602380D01*
X68874761Y-114602380D01*
X68779523Y-114650000D01*
X68731904Y-114697619D01*
X68684285Y-114792857D01*
X68684285Y-115030952D01*
X68731904Y-115126190D01*
X68779523Y-115173809D01*
X68874761Y-115221428D01*
X69065238Y-115221428D01*
X69160476Y-115173809D01*
X69208095Y-115126190D01*
X69255714Y-115030952D01*
%TO.C,R10*%
X61107142Y-107802380D02*
X60773809Y-107326190D01*
X60535714Y-107802380D02*
X60535714Y-106802380D01*
X60916666Y-106802380D01*
X61011904Y-106850000D01*
X61059523Y-106897619D01*
X61107142Y-106992857D01*
X61107142Y-107135714D01*
X61059523Y-107230952D01*
X61011904Y-107278571D01*
X60916666Y-107326190D01*
X60535714Y-107326190D01*
X62059523Y-107802380D02*
X61488095Y-107802380D01*
X61773809Y-107802380D02*
X61773809Y-106802380D01*
X61678571Y-106945238D01*
X61583333Y-107040476D01*
X61488095Y-107088095D01*
X62678571Y-106802380D02*
X62773809Y-106802380D01*
X62869047Y-106850000D01*
X62916666Y-106897619D01*
X62964285Y-106992857D01*
X63011904Y-107183333D01*
X63011904Y-107421428D01*
X62964285Y-107611904D01*
X62916666Y-107707142D01*
X62869047Y-107754761D01*
X62773809Y-107802380D01*
X62678571Y-107802380D01*
X62583333Y-107754761D01*
X62535714Y-107707142D01*
X62488095Y-107611904D01*
X62440476Y-107421428D01*
X62440476Y-107183333D01*
X62488095Y-106992857D01*
X62535714Y-106897619D01*
X62583333Y-106850000D01*
X62678571Y-106802380D01*
%TO.C,R11*%
X65107142Y-107702380D02*
X64773809Y-107226190D01*
X64535714Y-107702380D02*
X64535714Y-106702380D01*
X64916666Y-106702380D01*
X65011904Y-106750000D01*
X65059523Y-106797619D01*
X65107142Y-106892857D01*
X65107142Y-107035714D01*
X65059523Y-107130952D01*
X65011904Y-107178571D01*
X64916666Y-107226190D01*
X64535714Y-107226190D01*
X66059523Y-107702380D02*
X65488095Y-107702380D01*
X65773809Y-107702380D02*
X65773809Y-106702380D01*
X65678571Y-106845238D01*
X65583333Y-106940476D01*
X65488095Y-106988095D01*
X67011904Y-107702380D02*
X66440476Y-107702380D01*
X66726190Y-107702380D02*
X66726190Y-106702380D01*
X66630952Y-106845238D01*
X66535714Y-106940476D01*
X66440476Y-106988095D01*
D12*
%TO.C,U1*%
X57880000Y-88500000D02*
X57880000Y-80880000D01*
X74120000Y-105120000D02*
X72000000Y-105120000D01*
X57880000Y-88500000D02*
X57270000Y-88500000D01*
X57880000Y-105120000D02*
X57880000Y-104500000D01*
X57880000Y-80880000D02*
X74120000Y-80880000D01*
X74120000Y-104500000D02*
X74120000Y-105120000D01*
X74120000Y-80880000D02*
X74120000Y-88500000D01*
X60000000Y-105120000D02*
X57880000Y-105120000D01*
%TO.C,J2*%
X50935000Y-105065000D02*
X51625000Y-105065000D01*
X47015000Y-104485000D02*
X47015000Y-109465000D01*
X49985000Y-104115000D02*
X50935000Y-104115000D01*
X50935000Y-104115000D02*
X50935000Y-105065000D01*
X50935000Y-109835000D02*
X50935000Y-108885000D01*
X49985000Y-109835000D02*
X50935000Y-109835000D01*
%TO.C,J1*%
X78670000Y-83650000D02*
X78670000Y-82320000D01*
X81330000Y-84920000D02*
X81330000Y-97680000D01*
X78670000Y-84920000D02*
X78670000Y-97680000D01*
X78670000Y-97680000D02*
X81330000Y-97680000D01*
X78670000Y-84920000D02*
X81330000Y-84920000D01*
X78670000Y-82320000D02*
X80000000Y-82320000D01*
%TO.C,J3*%
X49935000Y-86690000D02*
X50885000Y-86690000D01*
X50885000Y-86690000D02*
X50885000Y-87640000D01*
X50885000Y-96160000D02*
X50885000Y-95210000D01*
X49935000Y-96160000D02*
X50885000Y-96160000D01*
X50885000Y-87640000D02*
X51575000Y-87640000D01*
X46965000Y-87060000D02*
X46965000Y-95790000D01*
%TO.C,R8*%
X63002936Y-112595000D02*
X63457064Y-112595000D01*
X63002936Y-114065000D02*
X63457064Y-114065000D01*
%TO.C,R4*%
X69522936Y-108265000D02*
X69977064Y-108265000D01*
X69522936Y-109735000D02*
X69977064Y-109735000D01*
%TO.C,R7*%
X57472936Y-114010000D02*
X57927064Y-114010000D01*
X57472936Y-112540000D02*
X57927064Y-112540000D01*
%TO.C,R2*%
X54822936Y-81690000D02*
X55277064Y-81690000D01*
X54822936Y-83160000D02*
X55277064Y-83160000D01*
%TO.C,R5*%
X73522936Y-108265000D02*
X73977064Y-108265000D01*
X73522936Y-109735000D02*
X73977064Y-109735000D01*
%TO.C,C1*%
X54318748Y-100785000D02*
X54841252Y-100785000D01*
X54318748Y-102255000D02*
X54841252Y-102255000D01*
%TO.C,R1*%
X54272936Y-92985000D02*
X54727064Y-92985000D01*
X54272936Y-91515000D02*
X54727064Y-91515000D01*
%TO.C,R6*%
X54510000Y-110372936D02*
X54510000Y-110827064D01*
X53040000Y-110372936D02*
X53040000Y-110827064D01*
%TO.C,R3*%
X73512936Y-112645000D02*
X73967064Y-112645000D01*
X73512936Y-114115000D02*
X73967064Y-114115000D01*
%TO.C,C3*%
X57715000Y-108563748D02*
X57715000Y-109986252D01*
X59535000Y-108563748D02*
X59535000Y-109986252D01*
%TO.C,C2*%
X49411252Y-114710000D02*
X47988748Y-114710000D01*
X49411252Y-112890000D02*
X47988748Y-112890000D01*
%TO.C,U2*%
X53127500Y-106250000D02*
X53127500Y-107050000D01*
X53127500Y-106250000D02*
X53127500Y-105450000D01*
X56247500Y-106250000D02*
X56247500Y-104450000D01*
X56247500Y-106250000D02*
X56247500Y-107050000D01*
%TO.C,J4*%
X78670000Y-98910000D02*
X78670000Y-97580000D01*
X78670000Y-100180000D02*
X78670000Y-102780000D01*
X78670000Y-97580000D02*
X80000000Y-97580000D01*
X81330000Y-100180000D02*
X81330000Y-102780000D01*
X78670000Y-102780000D02*
X81330000Y-102780000D01*
X78670000Y-100180000D02*
X81330000Y-100180000D01*
%TO.C,C4*%
X54910000Y-85888748D02*
X54910000Y-86411252D01*
X53440000Y-85888748D02*
X53440000Y-86411252D01*
%TO.C,C5*%
X54248748Y-96635000D02*
X54771252Y-96635000D01*
X54248748Y-98105000D02*
X54771252Y-98105000D01*
%TO.C,R9*%
X68707064Y-114095000D02*
X68252936Y-114095000D01*
X68707064Y-112625000D02*
X68252936Y-112625000D01*
%TO.C,R10*%
X61522936Y-108265000D02*
X61977064Y-108265000D01*
X61522936Y-109735000D02*
X61977064Y-109735000D01*
%TO.C,R11*%
X65977064Y-108265000D02*
X65522936Y-108265000D01*
X65977064Y-109735000D02*
X65522936Y-109735000D01*
%TD*%
M02*
